<?xml version="1.0" encoding="UTF-8" standalone="no"?>
<!-- Created with Inkscape (http://www.inkscape.org/) -->

<svg
   xmlns:dc="http://purl.org/dc/elements/1.1/"
   xmlns:cc="http://creativecommons.org/ns#"
   xmlns:rdf="http://www.w3.org/1999/02/22-rdf-syntax-ns#"
   xmlns:svg="http://www.w3.org/2000/svg"
   xmlns="http://www.w3.org/2000/svg"
   xmlns:sodipodi="http://sodipodi.sourceforge.net/DTD/sodipodi-0.dtd"
   xmlns:inkscape="http://www.inkscape.org/namespaces/inkscape"
   width="11.803677"
   height="38.574219"
   id="svg2"
   version="1.1"
   inkscape:version="0.48.4 r9939"
   sodipodi:docname="a.svg">
  <defs
     id="defs4" />
  <sodipodi:namedview
     id="base"
     pagecolor="#ffffff"
     bordercolor="#666666"
     borderopacity="1.0"
     inkscape:pageopacity="0.0"
     inkscape:pageshadow="2"
     inkscape:zoom="0.98994949"
     inkscape:cx="166.70708"
     inkscape:cy="-240.51893"
     inkscape:document-units="px"
     inkscape:current-layer="layer1"
     showgrid="false"
     inkscape:window-width="1596"
     inkscape:window-height="861"
     inkscape:window-x="0"
     inkscape:window-y="18"
     inkscape:window-maximized="0"
     fit-margin-top="0"
     fit-margin-left="0"
     fit-margin-right="0"
     fit-margin-bottom="0" />
  <metadata
     id="metadata7">
    <rdf:RDF>
      <cc:Work
         rdf:about="">
        <dc:format>image/svg+xml</dc:format>
        <dc:type
           rdf:resource="http://purl.org/dc/dcmitype/StillImage" />
        <dc:title />
      </cc:Work>
    </rdf:RDF>
  </metadata>
  <g
     inkscape:label="Layer 1"
     inkscape:groupmode="layer"
     id="layer1"
     transform="translate(-43.403594,-31.27501)">
    <path
       style="font-size:40px;font-style:normal;font-weight:normal;line-height:125%;letter-spacing:0px;word-spacing:0px;fill:#000000;fill-opacity:1;stroke:none;font-family:Sans"
       inkscape:connector-curvature="0"
       id="path3056"
       d="m 48.761981,31.27501 0.0781,0 c 0.20831,4e-5 0.39061,0.0782 0.54688,0.23438 0.16925,0.15628 0.25388,0.34508 0.2539,0.5664 l 0,0.0195 0,25.87891 0,0.0195 c -2e-5,0.20834 -0.0847,0.39063 -0.2539,0.54688 -0.15627,0.15625 -0.33857,0.23438 -0.54688,0.23437 -0.23439,1e-5 -0.42971,-0.0716 -0.58594,-0.21484 -0.14324,-0.15624 -0.21486,-0.34505 -0.21484,-0.56641 l 0,-0.0195 0,-25.87891 0,-0.0195 c -2e-5,-0.2083 0.0651,-0.38408 0.19531,-0.52734 0.14321,-0.15622 0.31899,-0.24736 0.52735,-0.27344 m -1.40625,30.97656 c 0.92446,-0.0911 1.84242,0.20834 2.7539,0.89844 0.3255,0.2474 0.80727,0.72917 1.44532,1.44531 0.32549,0.0521 0.55336,0.26693 0.68359,0.64453 0.69008,0.85938 1.59503,1.94011 2.71484,3.24219 0.16925,0.10417 0.25388,0.29297 0.25391,0.56641 -3e-5,0.20833 -0.0847,0.39062 -0.25391,0.54687 -0.15627,0.16927 -0.33856,0.25391 -0.54687,0.25391 -0.27346,0 -0.48831,-0.11068 -0.64453,-0.33203 -0.58597,-0.65105 -1.39326,-1.60157 -2.42188,-2.85156 -0.95054,1.0677 -1.95965,1.79036 -3.02734,2.16796 -1.06773,0.39063 -2.03778,0.4362 -2.91016,0.13672 -0.48179,-0.15625 -0.89845,-0.41667 -1.25,-0.78125 -0.33855,-0.35156 -0.55991,-0.75521 -0.66406,-1.21093 -0.13022,-0.46875 -0.11069,-0.97006 0.0586,-1.50391 0.18228,-0.53385 0.48827,-1.02864 0.91797,-1.48438 0.89842,-1.05468 1.86196,-1.63411 2.89063,-1.73828 m 0.15625,1.5625 c -0.5469,0.0651 -1.1719,0.47527 -1.875,1.23047 -0.46877,0.50782 -0.66408,1.02865 -0.58594,1.5625 0.11717,0.42969 0.41014,0.71615 0.87891,0.85938 0.52081,0.20833 1.17836,0.15625 1.97265,-0.15625 0.79425,-0.29948 1.56899,-0.89844 2.32422,-1.79688 -0.0651,-0.0651 -0.2344,-0.23437 -0.50781,-0.50781 -0.26044,-0.28646 -0.44924,-0.48177 -0.56641,-0.58594 -0.612,-0.45572 -1.15887,-0.65755 -1.64062,-0.60547" />
  </g>
</svg>
