<?xml version="1.0" encoding="UTF-8" standalone="no"?>
<!-- Created with Inkscape (http://www.inkscape.org/) -->

<svg
   xmlns:dc="http://purl.org/dc/elements/1.1/"
   xmlns:cc="http://creativecommons.org/ns#"
   xmlns:rdf="http://www.w3.org/1999/02/22-rdf-syntax-ns#"
   xmlns:svg="http://www.w3.org/2000/svg"
   xmlns="http://www.w3.org/2000/svg"
   xmlns:sodipodi="http://sodipodi.sourceforge.net/DTD/sodipodi-0.dtd"
   xmlns:inkscape="http://www.inkscape.org/namespaces/inkscape"
   width="26.484308"
   height="38.867119"
   id="svg2"
   version="1.1"
   inkscape:version="0.48.4 r9939"
   sodipodi:docname="akesi.svg">
  <defs
     id="defs4" />
  <sodipodi:namedview
     id="base"
     pagecolor="#ffffff"
     bordercolor="#666666"
     borderopacity="1.0"
     inkscape:pageopacity="0.0"
     inkscape:pageshadow="2"
     inkscape:zoom="0.98994949"
     inkscape:cx="174.46958"
     inkscape:cy="82.866606"
     inkscape:document-units="px"
     inkscape:current-layer="layer1"
     showgrid="false"
     inkscape:window-width="1596"
     inkscape:window-height="861"
     inkscape:window-x="0"
     inkscape:window-y="18"
     inkscape:window-maximized="0"
     fit-margin-top="0"
     fit-margin-left="0"
     fit-margin-right="0"
     fit-margin-bottom="0" />
  <metadata
     id="metadata7">
    <rdf:RDF>
      <cc:Work
         rdf:about="">
        <dc:format>image/svg+xml</dc:format>
        <dc:type
           rdf:resource="http://purl.org/dc/dcmitype/StillImage" />
        <dc:title />
      </cc:Work>
    </rdf:RDF>
  </metadata>
  <g
     inkscape:label="Layer 1"
     inkscape:groupmode="layer"
     id="layer1"
     transform="translate(-76.047191,-31.11883)">
    <path
       style="font-size:40px;font-style:normal;font-weight:normal;line-height:125%;letter-spacing:0px;word-spacing:0px;fill:#000000;fill-opacity:1;stroke:none;font-family:Sans"
       inkscape:connector-curvature="0"
       id="path3058"
       d="m 86.164321,35.88439 c 1.00259,-1.06768 2.0768,-1.60153 3.22266,-1.60157 1.14581,4e-5 2.22003,0.53389 3.22265,1.60157 0.91144,0.96357 1.68618,2.26565 2.32422,3.90625 1.36716,3.32033 2.05075,7.4284 2.05078,12.32421 -3e-5,4.92189 -0.68362,9.04298 -2.05078,12.36329 -0.63804,1.65364 -1.41278,2.95572 -2.32422,3.90625 -0.96356,1.0677 -2.03778,1.60155 -3.22265,1.60156 -1.18492,-1e-5 -2.25914,-0.53386 -3.22266,-1.60156 -0.88543,-0.92448 -1.65366,-2.23308 -2.30469,-3.92579 -1.3672,-3.52864 -2.05079,-7.64321 -2.05078,-12.34375 -1e-5,-4.73956 0.68358,-8.84763 2.05078,-12.32421 0.63801,-1.6406 1.40624,-2.94268 2.30469,-3.90625 m 3.22266,0 c -0.71617,3e-5 -1.40627,0.3581 -2.07032,1.07421 -0.72918,0.7943 -1.38673,1.92712 -1.97265,3.39844 -1.28908,3.21617 -1.93361,7.13544 -1.9336,11.75781 -1e-5,4.66147 0.64452,8.58725 1.9336,11.77735 0.61196,1.52344 1.26951,2.65625 1.97265,3.39844 0.69009,0.72916 1.38019,1.09374 2.07032,1.09375 0.65102,-1e-5 1.34112,-0.36459 2.07031,-1.09375 0.67706,-0.72917 1.34763,-1.86198 2.01172,-3.39844 1.27601,-3.30729 1.91403,-7.23306 1.91406,-11.77735 -3e-5,-4.53123 -0.63805,-8.45049 -1.91406,-11.75781 -0.66409,-1.53643 -1.33466,-2.66924 -2.01172,-3.39844 -0.71617,-0.71611 -1.40627,-1.07418 -2.07031,-1.07421 m -12.57813,6.40625 0.0781,0 0.0781,0 24.667969,0 c 0.013,0.013 0.0325,0.013 0.0586,0 l 0.0391,-0.0195 c 0.22132,3e-5 0.41012,0.0847 0.5664,0.25391 0.15622,0.15627 0.23434,0.33857 0.23438,0.54688 -4e-5,0.20835 -0.0782,0.39715 -0.23438,0.5664 -0.15628,0.15627 -0.34508,0.2344 -0.5664,0.23438 -0.0391,2e-5 -0.0716,-0.006 -0.0977,-0.0195 l -24.667969,0 -0.0195,0 c -0.20834,2e-5 -0.39063,-0.0781 -0.54688,-0.23438 -0.15625,-0.15623 -0.23438,-0.33852 -0.23437,-0.54687 -10e-6,-0.19529 0.0586,-0.36456 0.17578,-0.50782 0.1302,-0.15622 0.28645,-0.24737 0.46875,-0.27343 m 0.15625,8.76953 0.0391,0 0.0586,0 24.648429,0 c 0.22133,1e-5 0.41013,0.0781 0.56641,0.23437 0.15622,0.15627 0.23434,0.34507 0.23438,0.56641 -4e-5,0.22137 -0.0782,0.41017 -0.23438,0.5664 -0.15628,0.15627 -0.34508,0.23439 -0.56641,0.23438 l -24.648429,0 -0.0586,0 c -0.20834,1e-5 -0.39714,-0.0781 -0.5664,-0.23438 -0.15626,-0.16925 -0.23438,-0.35805 -0.23438,-0.5664 0,-0.22134 0.0716,-0.40363 0.21485,-0.54688 0.14322,-0.14321 0.32551,-0.22785 0.54687,-0.2539 m -0.15625,8.63281 0.0391,0 0.0391,0 24.648429,0 c 0.22133,1e-5 0.41013,0.0781 0.56641,0.23437 0.15622,0.14324 0.23434,0.33204 0.23437,0.56641 -3e-5,0.20834 -0.0782,0.39714 -0.23437,0.56641 -0.15628,0.15625 -0.34508,0.23438 -0.56641,0.23437 l -24.648429,0 -0.0391,0 c -0.20834,1e-5 -0.39714,-0.0781 -0.5664,-0.23437 -0.15626,-0.16927 -0.23438,-0.35807 -0.23438,-0.56641 0,-0.22135 0.0716,-0.41015 0.21485,-0.56641 0.15624,-0.15624 0.33853,-0.23436 0.54687,-0.23437 m 5.78125,-28.20313 c 0.24738,-0.24736 0.52733,-0.37105 0.83984,-0.37109 0.31249,4e-5 0.59895,0.12373 0.85938,0.37109 0.2604,0.24744 0.39061,0.52738 0.39062,0.83985 -1e-5,0.33857 -0.12371,0.63154 -0.37109,0.8789 -0.24741,0.23441 -0.54038,0.3516 -0.87891,0.35157 -0.35157,3e-5 -0.64454,-0.11716 -0.8789,-0.35157 -0.22137,-0.23434 -0.33205,-0.52731 -0.33203,-0.8789 -2e-5,-0.32549 0.12368,-0.60544 0.37109,-0.83985 m 12.10938,0 c 0.23435,-0.23434 0.52731,-0.35152 0.8789,-0.35156 0.35154,4e-5 0.64451,0.11722 0.87891,0.35156 0.24737,0.23441 0.37106,0.52738 0.37109,0.87891 -3e-5,0.32556 -0.12372,0.61852 -0.37109,0.87891 -0.24742,0.24743 -0.54039,0.37112 -0.87891,0.37109 -0.33857,3e-5 -0.62502,-0.12366 -0.85937,-0.37109 -0.2344,-0.26039 -0.35159,-0.55335 -0.35157,-0.87891 -2e-5,-0.35153 0.11066,-0.6445 0.33204,-0.87891" />
  </g>
</svg>
