<?xml version="1.0" encoding="UTF-8" standalone="no"?>
<!-- Created with Inkscape (http://www.inkscape.org/) -->

<svg
   xmlns:dc="http://purl.org/dc/elements/1.1/"
   xmlns:cc="http://creativecommons.org/ns#"
   xmlns:rdf="http://www.w3.org/1999/02/22-rdf-syntax-ns#"
   xmlns:svg="http://www.w3.org/2000/svg"
   xmlns="http://www.w3.org/2000/svg"
   xmlns:sodipodi="http://sodipodi.sourceforge.net/DTD/sodipodi-0.dtd"
   xmlns:inkscape="http://www.inkscape.org/namespaces/inkscape"
   width="27.903748"
   height="40.1534"
   id="svg2"
   version="1.1"
   inkscape:version="0.48.4 r9939"
   sodipodi:docname="all_symbols.svg">
  <defs
     id="defs4" />
  <sodipodi:namedview
     id="base"
     pagecolor="#ffffff"
     bordercolor="#666666"
     borderopacity="1.0"
     inkscape:pageopacity="0.0"
     inkscape:pageshadow="2"
     inkscape:zoom="0.98994949"
     inkscape:cx="-15.814676"
     inkscape:cy="-233.53798"
     inkscape:document-units="px"
     inkscape:current-layer="layer1"
     showgrid="false"
     inkscape:window-width="1596"
     inkscape:window-height="861"
     inkscape:window-x="0"
     inkscape:window-y="18"
     inkscape:window-maximized="0"
     fit-margin-top="0"
     fit-margin-left="0"
     fit-margin-right="0"
     fit-margin-bottom="0" />
  <metadata
     id="metadata7">
    <rdf:RDF>
      <cc:Work
         rdf:about="">
        <dc:format>image/svg+xml</dc:format>
        <dc:type
           rdf:resource="http://purl.org/dc/dcmitype/StillImage" />
        <dc:title></dc:title>
      </cc:Work>
    </rdf:RDF>
  </metadata>
  <g
     inkscape:label="Layer 1"
     inkscape:groupmode="layer"
     id="layer1"
     transform="translate(-83.493843,-602.36221)">
    <path
       style="font-size:40px;font-style:normal;font-weight:normal;line-height:125%;letter-spacing:0px;word-spacing:0px;fill:#000000;fill-opacity:1;stroke:none;font-family:Sans"
       inkscape:connector-curvature="0"
       id="path3060"
       d="m 84.205648,602.50268 0,0.02 c 0.01316,-0.0134 0.06592,-0.02 0.158207,-0.02 0.276855,4e-5 0.500987,0.12049 0.672377,0.36137 l 26.203038,38.36665 c 0.0922,0.13385 0.1384,0.28777 0.13843,0.46177 -3e-5,0.24091 -0.0792,0.435 -0.23732,0.58223 -0.15823,0.1606 -0.3494,0.24091 -0.57349,0.24091 -0.26371,0 -0.48784,-0.11377 -0.67239,-0.3413 L 83.731027,603.80766 c -0.105475,-0.17395 -0.158217,-0.34126 -0.158207,-0.50191 -10e-6,-0.42827 0.210939,-0.69596 0.632828,-0.80307 m 26.203032,-0.12047 -0.0197,0 c 0.0263,4e-5 0.0593,4e-5 0.0989,0 0.0395,-0.0134 0.0725,-0.02 0.0989,-0.02 0.21091,4e-5 0.39548,0.0871 0.55372,0.261 0.17136,0.16064 0.25706,0.34804 0.25709,0.56214 -3e-5,0.21419 -0.0528,0.37481 -0.15821,0.48184 L 85.036354,642.0338 c -0.131841,0.30785 -0.375748,0.46177 -0.731701,0.46177 -0.21095,0 -0.402114,-0.0803 -0.573505,-0.24092 -0.158217,-0.16062 -0.237315,-0.35469 -0.237305,-0.58223 -1e-5,-0.21415 0.07908,-0.40154 0.237305,-0.56214 l 26.143702,-38.30642 c 0.0922,-0.21412 0.27024,-0.35466 0.53396,-0.42162" />
  </g>
</svg>
