<?xml version="1.0" encoding="UTF-8" standalone="no"?>
<!-- Created with Inkscape (http://www.inkscape.org/) -->

<svg
   xmlns:dc="http://purl.org/dc/elements/1.1/"
   xmlns:cc="http://creativecommons.org/ns#"
   xmlns:rdf="http://www.w3.org/1999/02/22-rdf-syntax-ns#"
   xmlns:svg="http://www.w3.org/2000/svg"
   xmlns="http://www.w3.org/2000/svg"
   xmlns:sodipodi="http://sodipodi.sourceforge.net/DTD/sodipodi-0.dtd"
   xmlns:inkscape="http://www.inkscape.org/namespaces/inkscape"
   width="27.049238"
   height="39.571259"
   id="svg2"
   version="1.1"
   inkscape:version="0.48.4 r9939"
   sodipodi:docname="ala.svg">
  <defs
     id="defs4" />
  <sodipodi:namedview
     id="base"
     pagecolor="#ffffff"
     bordercolor="#666666"
     borderopacity="1.0"
     inkscape:pageopacity="0.0"
     inkscape:pageshadow="2"
     inkscape:zoom="0.98994949"
     inkscape:cx="-140.25845"
     inkscape:cy="-118.38629"
     inkscape:document-units="px"
     inkscape:current-layer="layer1"
     showgrid="false"
     inkscape:window-width="1596"
     inkscape:window-height="861"
     inkscape:window-x="0"
     inkscape:window-y="18"
     inkscape:window-maximized="0"
     fit-margin-top="0"
     fit-margin-left="0"
     fit-margin-right="0"
     fit-margin-bottom="0" />
  <metadata
     id="metadata7">
    <rdf:RDF>
      <cc:Work
         rdf:about="">
        <dc:format>image/svg+xml</dc:format>
        <dc:type
           rdf:resource="http://purl.org/dc/dcmitype/StillImage" />
        <dc:title></dc:title>
      </cc:Work>
    </rdf:RDF>
  </metadata>
  <g
     inkscape:label="Layer 1"
     inkscape:groupmode="layer"
     id="layer1"
     transform="translate(-124.44377,-602.66329)">
    <path
       style="font-size:40px;font-style:normal;font-weight:normal;line-height:125%;letter-spacing:0px;word-spacing:0px;fill:#000000;fill-opacity:1;stroke:none;font-family:Sans"
       inkscape:connector-curvature="0"
       id="path3062"
       d="m 130.65918,602.66329 0.0197,0 c 0.11864,4e-5 0.29662,0.0602 0.53395,0.18069 l 0.13843,0.12046 c 0.0922,0.0937 0.27685,0.27442 0.55373,0.54207 0.27684,0.25434 0.54712,0.50196 0.81081,0.74284 1.00196,0.92357 2.13578,2.22855 3.40144,3.91496 1.19972,1.60617 2.3599,3.60716 3.48056,6.00295 1.06788,2.30215 1.65455,4.85859 1.76005,7.66932 0.11864,2.79737 -0.34939,5.42741 -1.40409,7.89016 -1.05473,2.46275 -2.22151,4.60427 -3.50033,6.42455 -1.25248,1.79352 -2.45222,3.22567 -3.5992,4.29642 -0.27688,0.28108 -0.56692,0.56215 -0.87014,0.84323 -0.30324,0.29445 -0.50759,0.48852 -0.61306,0.58222 l -0.13843,0.16061 c -0.26369,0.13385 -0.44826,0.20077 -0.55372,0.20078 -0.21096,-10e-6 -0.40212,-0.0803 -0.5735,-0.24093 -0.1714,-0.16061 -0.24391,-0.35469 -0.21753,-0.58223 l -0.0197,-37.92496 0.0197,0 c -0.0263,-0.20072 0.0396,-0.38811 0.19775,-0.56214 0.17138,-0.17397 0.36255,-0.26096 0.57351,-0.261 m 0.83058,2.71036 0.0197,0 -0.0197,34.11038 c 0.60644,-0.6023 1.42384,-1.51914 2.4522,-2.75052 0.93605,-1.15106 1.85892,-2.50289 2.76863,-4.0555 0.90967,-1.56597 1.65456,-3.25241 2.23467,-5.05933 0.60645,-1.79351 0.87671,-3.7008 0.81081,-5.72187 -0.0659,-1.49905 -0.32302,-3.0048 -0.77126,-4.51727 -0.43508,-1.51242 -0.94926,-2.84418 -1.54251,-3.99527 -0.5933,-1.15104 -1.28545,-2.28872 -2.07647,-3.41304 -0.79105,-1.12427 -1.4832,-2.02103 -2.07647,-2.69029 -0.59329,-0.66919 -1.19316,-1.30495 -1.7996,-1.90729 m -6.28873,15.90078 0.0593,0 0.0197,0 25.39222,0 c 0.19772,2e-5 0.38229,0.0871 0.55372,0.261 0.18455,0.16062 0.26365,0.34801 0.23731,0.56214 0.0263,0.0937 -0.0528,0.28779 -0.23731,0.58223 l -5.28016,5.01918 c -0.11868,0.18739 -0.31643,0.28109 -0.59327,0.28108 -0.48783,10e-6 -0.7647,-0.27437 -0.83059,-0.82314 0.0791,-0.32122 0.18455,-0.53537 0.31641,-0.64246 l 3.75742,-3.59374 -23.29598,0 -0.0593,0 c -0.19776,2e-5 -0.38893,-0.087 -0.57349,-0.26099 -0.1714,-0.17399 -0.24391,-0.36137 -0.21754,-0.56216 -0.0263,-0.20074 0.0396,-0.38813 0.19776,-0.56214 0.17138,-0.17399 0.35595,-0.26098 0.55372,-0.261 m 20.25049,-5.05934 -0.0197,0 0.0396,0 c 0.2241,2e-5 0.40868,0.0736 0.55373,0.22084 l 5.22083,4.99911 c 0.19773,0.20079 0.27682,0.40155 0.23731,0.60231 0.0263,0.21416 -0.0462,0.40824 -0.21754,0.58221 -0.15823,0.16064 -0.3494,0.24095 -0.5735,0.24093 -0.11869,2e-5 -0.30985,-0.0736 -0.57349,-0.22084 l -5.20106,-4.99912 c -0.0923,-0.0535 -0.19119,-0.25428 -0.29664,-0.60229 0.0263,-0.24091 0.11204,-0.43498 0.25709,-0.58223 0.145,-0.16059 0.33616,-0.2409 0.5735,-0.24092" />
  </g>
</svg>
