<?xml version="1.0" encoding="UTF-8" standalone="no"?>
<!-- Created with Inkscape (http://www.inkscape.org/) -->

<svg
   xmlns:dc="http://purl.org/dc/elements/1.1/"
   xmlns:cc="http://creativecommons.org/ns#"
   xmlns:rdf="http://www.w3.org/1999/02/22-rdf-syntax-ns#"
   xmlns:svg="http://www.w3.org/2000/svg"
   xmlns="http://www.w3.org/2000/svg"
   xmlns:sodipodi="http://sodipodi.sourceforge.net/DTD/sodipodi-0.dtd"
   xmlns:inkscape="http://www.inkscape.org/namespaces/inkscape"
   width="33.982071"
   height="14.541085"
   id="svg2"
   version="1.1"
   inkscape:version="0.48.4 r9939"
   sodipodi:docname="anpa.svg">
  <defs
     id="defs4" />
  <sodipodi:namedview
     id="base"
     pagecolor="#ffffff"
     bordercolor="#666666"
     borderopacity="1.0"
     inkscape:pageopacity="0.0"
     inkscape:pageshadow="2"
     inkscape:zoom="0.98994949"
     inkscape:cx="-165.64583"
     inkscape:cy="-169.92582"
     inkscape:document-units="px"
     inkscape:current-layer="layer1"
     showgrid="false"
     inkscape:window-width="1596"
     inkscape:window-height="861"
     inkscape:window-x="0"
     inkscape:window-y="18"
     inkscape:window-maximized="0"
     fit-margin-top="0"
     fit-margin-left="0"
     fit-margin-right="0"
     fit-margin-bottom="0" />
  <metadata
     id="metadata7">
    <rdf:RDF>
      <cc:Work
         rdf:about="">
        <dc:format>image/svg+xml</dc:format>
        <dc:type
           rdf:resource="http://purl.org/dc/dcmitype/StillImage" />
        <dc:title></dc:title>
      </cc:Work>
    </rdf:RDF>
  </metadata>
  <g
     inkscape:label="Layer 1"
     inkscape:groupmode="layer"
     id="layer1"
     transform="translate(-161.48527,-615.18639)">
    <path
       style="font-size:40px;font-style:normal;font-weight:normal;line-height:125%;letter-spacing:0px;word-spacing:0px;fill:#000000;fill-opacity:1;stroke:none;font-family:Sans"
       inkscape:connector-curvature="0"
       id="path3064"
       d="m 169.41989,615.19117 c 1.76663,4e-5 3.53327,0.74287 5.29993,2.22852 1.06788,0.85663 2.29398,2.12146 3.67831,3.79451 1.45022,-1.86043 2.62358,-3.14534 3.52011,-3.85473 1.7007,-1.43212 3.52666,-2.12142 5.47791,-2.06791 2.53128,0.1071 4.50228,0.76963 5.91299,1.9876 0.72508,0.58894 1.27221,1.32508 1.6414,2.20844 0.36911,0.87001 0.5405,1.80692 0.51417,2.81074 -0.11869,2.04785 -0.92291,3.78113 -2.41266,5.19988 -1.48982,1.41877 -3.43444,2.12814 -5.83388,2.12813 -1.58209,10e-6 -3.27623,-0.72944 -5.0824,-2.18837 -0.81742,-0.70936 -2.05012,-2.00766 -3.69808,-3.89488 -1.47662,1.87384 -2.63022,3.17883 -3.46078,3.91497 -1.68756,1.45892 -3.42783,2.21513 -5.22083,2.26867 -2.42585,0.0267 -4.39685,-0.66922 -5.913,-2.08798 -1.51614,-1.43213 -2.30058,-3.21896 -2.35332,-5.3605 -0.0659,-2.16826 0.59327,-3.89486 1.97759,-5.17979 1.41067,-1.33843 3.39485,-1.97419 5.95254,-1.9073 m -0.0198,1.64629 c -2.16217,-0.0535 -3.7772,0.43502 -4.84509,1.46562 -1.02835,0.99047 -1.51615,2.30884 -1.46341,3.95511 0.0263,1.72661 0.62623,3.13867 1.7996,4.23619 1.17336,1.09754 2.78839,1.61954 4.84509,1.56598 1.41066,1e-5 2.80816,-0.61567 4.19248,-1.84705 0.27685,-0.24091 0.57349,-0.52868 0.88992,-0.86331 0.31639,-0.34797 0.57348,-0.64243 0.77126,-0.88337 0.21092,-0.24091 0.51415,-0.59559 0.90968,-1.06407 0.39551,-0.48182 0.67237,-0.81643 0.8306,-1.00384 -1.50298,-1.72658 -2.70272,-2.96464 -3.59921,-3.71419 -1.55572,-1.23136 -2.99935,-1.84703 -4.33092,-1.84707 m 17.93672,0.0803 c -1.43708,-0.0536 -2.91367,0.51532 -4.4298,1.70652 -0.36917,0.30786 -0.77128,0.69601 -1.20633,1.16445 -0.42191,0.45509 -0.76469,0.84324 -1.02834,1.16445 -0.2637,0.30786 -0.64603,0.77632 -1.147,1.40537 1.39747,1.67308 2.62357,2.9513 3.67831,3.83466 1.39747,1.19123 2.73563,1.78684 4.0145,1.78683 2.04348,10e-6 3.63873,-0.54206 4.78576,-1.62621 1.16015,-1.09752 1.76661,-2.47612 1.81938,-4.13582 0.0922,-1.48566 -0.41532,-2.71034 -1.52274,-3.67404 -1.25251,-1.03058 -2.90708,-1.57266 -4.96374,-1.62621" />
  </g>
</svg>
