<?xml version="1.0" encoding="UTF-8" standalone="no"?>
<!-- Created with Inkscape (http://www.inkscape.org/) -->

<svg
   xmlns:dc="http://purl.org/dc/elements/1.1/"
   xmlns:cc="http://creativecommons.org/ns#"
   xmlns:rdf="http://www.w3.org/1999/02/22-rdf-syntax-ns#"
   xmlns:svg="http://www.w3.org/2000/svg"
   xmlns="http://www.w3.org/2000/svg"
   xmlns:sodipodi="http://sodipodi.sourceforge.net/DTD/sodipodi-0.dtd"
   xmlns:inkscape="http://www.inkscape.org/namespaces/inkscape"
   width="29.030991"
   height="20.899879"
   id="svg2"
   version="1.1"
   inkscape:version="0.48.4 r9939"
   sodipodi:docname="all_symbols.svg">
  <defs
     id="defs4" />
  <sodipodi:namedview
     id="base"
     pagecolor="#ffffff"
     bordercolor="#666666"
     borderopacity="1.0"
     inkscape:pageopacity="0.0"
     inkscape:pageshadow="2"
     inkscape:zoom="0.98994949"
     inkscape:cx="-136.78349"
     inkscape:cy="-243.15474"
     inkscape:document-units="px"
     inkscape:current-layer="layer1"
     showgrid="false"
     inkscape:window-width="1596"
     inkscape:window-height="861"
     inkscape:window-x="0"
     inkscape:window-y="18"
     inkscape:window-maximized="0"
     fit-margin-top="0"
     fit-margin-left="0"
     fit-margin-right="0"
     fit-margin-bottom="0" />
  <metadata
     id="metadata7">
    <rdf:RDF>
      <cc:Work
         rdf:about="">
        <dc:format>image/svg+xml</dc:format>
        <dc:type
           rdf:resource="http://purl.org/dc/dcmitype/StillImage" />
        <dc:title></dc:title>
      </cc:Work>
    </rdf:RDF>
  </metadata>
  <g
     inkscape:label="Layer 1"
     inkscape:groupmode="layer"
     id="layer1"
     transform="translate(-204.46266,-611.99897)">
    <path
       style="font-size:40px;font-style:normal;font-weight:normal;line-height:125%;letter-spacing:0px;word-spacing:0px;fill:#000000;fill-opacity:1;stroke:none;font-family:Sans"
       inkscape:connector-curvature="0"
       id="path3066"
       d="m 205.25377,611.99897 0.0197,0 c 0.23731,3e-5 0.42847,0.0803 0.5735,0.24093 0.1582,0.14725 0.23731,0.34133 0.23731,0.58222 l 0,0.02 0,12.10627 25.78774,0 0,-11.92558 0,-0.02 c -3e-5,-0.21413 0.0791,-0.40151 0.23731,-0.56216 0.17136,-0.17396 0.36253,-0.26097 0.57351,-0.261 0.22409,3e-5 0.41525,0.0871 0.57349,0.261 0.15818,0.16065 0.23728,0.34803 0.23732,0.56216 l 0,0.02 0,12.74873 c -4e-5,0.21416 -0.0792,0.40824 -0.23732,0.58222 -0.15824,0.16063 -0.3494,0.24093 -0.57349,0.24092 l -27.40937,0 c -0.21095,10e-6 -0.40211,-0.0803 -0.57349,-0.24092 -0.15822,-0.17398 -0.23732,-0.36806 -0.23732,-0.58222 l 0,-12.92942 0,-0.02 c 0,-0.2275 0.0791,-0.42159 0.23732,-0.58222 0.15819,-0.1606 0.34277,-0.2409 0.55372,-0.24093 m 12.83454,18.75168 c 0.25047,-0.2543 0.54711,-0.38145 0.88991,-0.38146 0.34276,10e-6 0.63281,0.12716 0.87014,0.38146 0.25048,0.24092 0.37572,0.53538 0.37574,0.88338 -2e-5,0.34799 -0.12526,0.64915 -0.37574,0.90345 -0.23733,0.24092 -0.52738,0.36139 -0.87014,0.36137 -0.3428,2e-5 -0.63944,-0.12045 -0.88991,-0.36137 -0.23733,-0.2543 -0.35599,-0.55546 -0.35597,-0.90345 -2e-5,-0.348 0.11864,-0.64246 0.35597,-0.88338" />
  </g>
</svg>
