<?xml version="1.0" encoding="UTF-8" standalone="no"?>
<!-- Created with Inkscape (http://www.inkscape.org/) -->

<svg
   xmlns:dc="http://purl.org/dc/elements/1.1/"
   xmlns:cc="http://creativecommons.org/ns#"
   xmlns:rdf="http://www.w3.org/1999/02/22-rdf-syntax-ns#"
   xmlns:svg="http://www.w3.org/2000/svg"
   xmlns="http://www.w3.org/2000/svg"
   xmlns:sodipodi="http://sodipodi.sourceforge.net/DTD/sodipodi-0.dtd"
   xmlns:inkscape="http://www.inkscape.org/namespaces/inkscape"
   width="28.39817"
   height="24.92045"
   id="svg2"
   version="1.1"
   inkscape:version="0.48.4 r9939"
   sodipodi:docname="ale.svg">
  <defs
     id="defs4" />
  <sodipodi:namedview
     id="base"
     pagecolor="#ffffff"
     bordercolor="#666666"
     borderopacity="1.0"
     inkscape:pageopacity="0.0"
     inkscape:pageshadow="2"
     inkscape:zoom="0.98994949"
     inkscape:cx="-159.29008"
     inkscape:cy="-205.72622"
     inkscape:document-units="px"
     inkscape:current-layer="layer1"
     showgrid="false"
     inkscape:window-width="1596"
     inkscape:window-height="861"
     inkscape:window-x="0"
     inkscape:window-y="18"
     inkscape:window-maximized="0"
     fit-margin-top="0"
     fit-margin-left="0"
     fit-margin-right="0"
     fit-margin-bottom="0" />
  <metadata
     id="metadata7">
    <rdf:RDF>
      <cc:Work
         rdf:about="">
        <dc:format>image/svg+xml</dc:format>
        <dc:type
           rdf:resource="http://purl.org/dc/dcmitype/StillImage" />
        <dc:title></dc:title>
      </cc:Work>
    </rdf:RDF>
  </metadata>
  <g
     inkscape:label="Layer 1"
     inkscape:groupmode="layer"
     id="layer1"
     transform="translate(-245.31965,-610.0262)">
    <path
       style="font-size:40px;font-style:normal;font-weight:normal;line-height:125%;letter-spacing:0px;word-spacing:0px;fill:#000000;fill-opacity:1;stroke:none;font-family:Sans"
       inkscape:connector-curvature="0"
       id="path3068"
       d="m 259.41989,623.68364 0,-0.02 c -2e-5,0.0134 0.006,0.02 0.0197,0.02 l 0.0396,0 c 0.0528,-0.0134 0.10546,-0.0134 0.15821,0 0.0528,0.0134 0.11205,0.0402 0.17798,0.0803 0.0659,0.0267 0.11205,0.0469 0.13843,0.0602 l 13.30916,9.55653 c 0.13181,0.0267 0.23728,0.11378 0.31642,0.261 0.0922,0.14723 0.1384,0.30115 0.13843,0.46176 -3e-5,0.24093 -0.0792,0.435 -0.23731,0.58223 -0.14506,0.14723 -0.33622,0.23423 -0.5735,0.26099 -0.30326,-0.0803 -0.48783,-0.16729 -0.55373,-0.26099 l -12.8741,-9.17505 -12.89387,9.07469 c -0.0263,0.0402 -0.0659,0.0736 -0.11865,0.10042 -0.0528,0.0134 -0.11867,0.0267 -0.19777,0.0402 -0.0659,0 -0.11206,0.007 -0.13842,0.02 -0.54054,-0.0803 -0.81082,-0.36138 -0.81082,-0.84322 0,-0.30784 0.11866,-0.52868 0.35598,-0.66253 l 13.30916,-9.39592 c 0.21092,-0.10706 0.35594,-0.16059 0.43507,-0.16061 m 13.28938,-13.63211 0,-0.02 0.11865,0 c 0.22409,-0.0267 0.41527,0.0469 0.57351,0.22084 0.15817,0.17402 0.23727,0.3681 0.2373,0.58223 -3e-5,0.29449 -0.11869,0.52871 -0.35596,0.70268 l -13.32894,9.51638 c -0.0264,0.0268 -0.178,0.0803 -0.45484,0.16061 -0.0396,-0.0134 -0.0924,-0.0267 -0.15821,-0.0402 -0.0659,-0.0134 -0.12527,-0.0267 -0.17798,-0.0402 -0.0396,-0.0134 -0.0791,-0.0401 -0.11866,-0.0803 l -13.36848,-9.39592 c -0.23732,-0.2409 -0.35598,-0.47512 -0.35598,-0.70268 0,-0.21413 0.0791,-0.4082 0.23732,-0.58223 0.17138,-0.17397 0.36914,-0.24759 0.59328,-0.22084 0.0659,-0.0267 0.1516,-0.0134 0.25708,0.0402 0.10546,0.0535 0.17139,0.0804 0.19776,0.0803 l 12.89387,9.11483 12.79499,-9.15499 c 0.0263,-0.0134 0.0659,-0.0334 0.11866,-0.0602 0.0528,-0.0401 0.10543,-0.0736 0.1582,-0.10043 0.0528,-0.0267 0.0988,-0.0334 0.13843,-0.02" />
  </g>
</svg>
