<?xml version="1.0" encoding="UTF-8" standalone="no"?>
<!-- Created with Inkscape (http://www.inkscape.org/) -->

<svg
   xmlns:dc="http://purl.org/dc/elements/1.1/"
   xmlns:cc="http://creativecommons.org/ns#"
   xmlns:rdf="http://www.w3.org/1999/02/22-rdf-syntax-ns#"
   xmlns:svg="http://www.w3.org/2000/svg"
   xmlns="http://www.w3.org/2000/svg"
   xmlns:sodipodi="http://sodipodi.sourceforge.net/DTD/sodipodi-0.dtd"
   xmlns:inkscape="http://www.inkscape.org/namespaces/inkscape"
   width="27.211639"
   height="39.85741"
   id="svg2"
   version="1.1"
   inkscape:version="0.48.4 r9939"
   sodipodi:docname="ante.svg">
  <defs
     id="defs4" />
  <sodipodi:namedview
     id="base"
     pagecolor="#ffffff"
     bordercolor="#666666"
     borderopacity="1.0"
     inkscape:pageopacity="0.0"
     inkscape:pageshadow="2"
     inkscape:zoom="0.98994949"
     inkscape:cx="-74.93847"
     inkscape:cy="-195.4697"
     inkscape:document-units="px"
     inkscape:current-layer="layer1"
     showgrid="false"
     inkscape:window-width="1596"
     inkscape:window-height="861"
     inkscape:window-x="0"
     inkscape:window-y="18"
     inkscape:window-maximized="0"
     fit-margin-top="0"
     fit-margin-left="0"
     fit-margin-right="0"
     fit-margin-bottom="0" />
  <metadata
     id="metadata7">
    <rdf:RDF>
      <cc:Work
         rdf:about="">
        <dc:format>image/svg+xml</dc:format>
        <dc:type
           rdf:resource="http://purl.org/dc/dcmitype/StillImage" />
        <dc:title></dc:title>
      </cc:Work>
    </rdf:RDF>
  </metadata>
  <g
     inkscape:label="Layer 1"
     inkscape:groupmode="layer"
     id="layer1"
     transform="translate(-286.37438,-602.53783)">
    <path
       style="font-size:40px;font-style:normal;font-weight:normal;line-height:125%;letter-spacing:0px;word-spacing:0px;fill:#000000;fill-opacity:1;stroke:none;font-family:Sans"
       inkscape:connector-curvature="0"
       id="path3070"
       d="m 312.67631,602.54283 c 0.0132,0.0135 0.0329,0.0201 0.0593,0.02 l 0.0396,-0.02 c 0.19773,-0.0267 0.3823,0.0535 0.55372,0.24092 0.17136,0.17404 0.25706,0.36142 0.25709,0.56215 -3e-5,0.0937 -0.0198,0.19411 -0.0593,0.30115 -0.0396,0.0937 -0.0659,0.16065 -0.0791,0.20077 l -12.71588,18.73159 0,18.9926 0,-0.02 c -2e-5,0.49523 -0.2703,0.7763 -0.81081,0.84323 -0.54057,-0.0803 -0.81083,-0.36139 -0.81082,-0.84323 l 0,0.02 0,-19.27367 0,0.02 c -1e-5,-0.1606 0.0528,-0.32791 0.1582,-0.50193 l 12.81477,-18.87212 c 0.0791,-0.21412 0.27683,-0.34797 0.59328,-0.40154 m -25.51087,0.46176 0,-0.02 c -2e-5,0.0135 -2e-5,0.0201 0,0.02 l 0.0197,0 c 0.25049,-0.0535 0.4812,0.0669 0.69215,0.36139 l 12.51814,18.4706 c 0.10544,0.0536 0.15818,0.20078 0.1582,0.44168 -2e-5,0.24094 -0.0791,0.44171 -0.23731,0.60231 -0.15823,0.14725 -0.35598,0.23424 -0.59328,0.261 -0.36917,-0.0937 -0.5867,-0.22083 -0.6526,-0.38147 l -12.5379,-18.45052 c -0.10548,-0.18734 -0.15822,-0.36134 -0.15821,-0.52199 -10e-6,-0.21412 0.0791,-0.4015 0.23731,-0.56215 0.1582,-0.17396 0.34278,-0.24757 0.55372,-0.22085" />
  </g>
</svg>
