<?xml version="1.0" encoding="UTF-8" standalone="no"?>
<!-- Created with Inkscape (http://www.inkscape.org/) -->

<svg
   xmlns:dc="http://purl.org/dc/elements/1.1/"
   xmlns:cc="http://creativecommons.org/ns#"
   xmlns:rdf="http://www.w3.org/1999/02/22-rdf-syntax-ns#"
   xmlns:svg="http://www.w3.org/2000/svg"
   xmlns="http://www.w3.org/2000/svg"
   xmlns:sodipodi="http://sodipodi.sourceforge.net/DTD/sodipodi-0.dtd"
   xmlns:inkscape="http://www.inkscape.org/namespaces/inkscape"
   width="33.124569"
   height="21.963961"
   id="svg2"
   version="1.1"
   inkscape:version="0.48.4 r9939"
   sodipodi:docname="anu.svg">
  <defs
     id="defs4" />
  <sodipodi:namedview
     id="base"
     pagecolor="#ffffff"
     bordercolor="#666666"
     borderopacity="1.0"
     inkscape:pageopacity="0.0"
     inkscape:pageshadow="2"
     inkscape:zoom="0.98994949"
     inkscape:cx="-72.568217"
     inkscape:cy="-218.43114"
     inkscape:document-units="px"
     inkscape:current-layer="layer1"
     showgrid="false"
     inkscape:window-width="1596"
     inkscape:window-height="861"
     inkscape:window-x="0"
     inkscape:window-y="18"
     inkscape:window-maximized="0"
     fit-margin-top="0"
     fit-margin-left="0"
     fit-margin-right="0"
     fit-margin-bottom="0" />
  <metadata
     id="metadata7">
    <rdf:RDF>
      <cc:Work
         rdf:about="">
        <dc:format>image/svg+xml</dc:format>
        <dc:type
           rdf:resource="http://purl.org/dc/dcmitype/StillImage" />
        <dc:title></dc:title>
      </cc:Work>
    </rdf:RDF>
  </metadata>
  <g
     inkscape:label="Layer 1"
     inkscape:groupmode="layer"
     id="layer1"
     transform="translate(-323.90902,-611.45698)">
    <path
       style="font-size:40px;font-style:normal;font-weight:normal;line-height:125%;letter-spacing:0px;word-spacing:0px;fill:#000000;fill-opacity:1;stroke:none;font-family:Sans"
       inkscape:connector-curvature="0"
       id="path3072"
       d="m 340.32298,611.47698 c 0.0263,3e-5 0.0528,3e-5 0.0791,0 0.0263,-0.0134 0.0528,-0.02 0.0791,-0.02 0.29002,4e-5 0.53392,0.16065 0.73171,0.48185 l 9.59129,19.83581 5.41859,0 c 0.22409,10e-6 0.41526,0.0871 0.5735,0.261 0.15817,0.16062 0.23728,0.34801 0.23732,0.56215 -4e-5,0.24093 -0.0792,0.44169 -0.23732,0.6023 -0.14505,0.14724 -0.33623,0.22085 -0.5735,0.22085 l -5.93276,0 c -0.31644,0 -0.56034,-0.15392 -0.73171,-0.46177 l -9.07707,-18.77178 -9.09691,18.79183 c -0.10547,0.29446 -0.34938,0.44169 -0.7317,0.44169 l -5.91299,0 -0.0198,0 c -0.22412,0 -0.41529,-0.0736 -0.57349,-0.22085 -0.15822,-0.16061 -0.23732,-0.36137 -0.23732,-0.6023 0,-0.21415 0.0791,-0.40153 0.23732,-0.56215 0.17138,-0.17399 0.36255,-0.26099 0.57349,-0.261 l 0.0198,0 5.43837,0 9.55174,-19.79566 c 0.10546,-0.26767 0.30321,-0.43497 0.59328,-0.50192" />
  </g>
</svg>
