<?xml version="1.0" encoding="UTF-8" standalone="no"?>
<!-- Created with Inkscape (http://www.inkscape.org/) -->

<svg
   xmlns:dc="http://purl.org/dc/elements/1.1/"
   xmlns:cc="http://creativecommons.org/ns#"
   xmlns:rdf="http://www.w3.org/1999/02/22-rdf-syntax-ns#"
   xmlns:svg="http://www.w3.org/2000/svg"
   xmlns="http://www.w3.org/2000/svg"
   xmlns:sodipodi="http://sodipodi.sourceforge.net/DTD/sodipodi-0.dtd"
   xmlns:inkscape="http://www.inkscape.org/namespaces/inkscape"
   width="27.89061"
   height="30.996099"
   id="svg2"
   version="1.1"
   inkscape:version="0.48.4 r9939"
   sodipodi:docname="e.svg">
  <defs
     id="defs4" />
  <sodipodi:namedview
     id="base"
     pagecolor="#ffffff"
     bordercolor="#666666"
     borderopacity="1.0"
     inkscape:pageopacity="0.0"
     inkscape:pageshadow="2"
     inkscape:zoom="0.98994949"
     inkscape:cx="-144.82722"
     inkscape:cy="159.75303"
     inkscape:document-units="px"
     inkscape:current-layer="layer1"
     showgrid="false"
     inkscape:window-width="1596"
     inkscape:window-height="861"
     inkscape:window-x="0"
     inkscape:window-y="18"
     inkscape:window-maximized="0"
     fit-margin-top="0"
     fit-margin-left="0"
     fit-margin-right="0"
     fit-margin-bottom="0" />
  <metadata
     id="metadata7">
    <rdf:RDF>
      <cc:Work
         rdf:about="">
        <dc:format>image/svg+xml</dc:format>
        <dc:type
           rdf:resource="http://purl.org/dc/dcmitype/StillImage" />
        <dc:title />
      </cc:Work>
    </rdf:RDF>
  </metadata>
  <g
     inkscape:label="Layer 1"
     inkscape:groupmode="layer"
     id="layer1"
     transform="translate(-395.34399,-35.06407)">
    <path
       style="font-size:40px;font-style:normal;font-weight:normal;line-height:125%;letter-spacing:0px;word-spacing:0px;fill:#000000;fill-opacity:1;stroke:none;font-family:Sans"
       inkscape:connector-curvature="0"
       id="path3074"
       d="m 408.25416,35.06407 0.0781,0 c 0.27342,3e-5 0.46222,0.0847 0.5664,0.25391 l 14.10157,14.51172 c 0.15621,0.1172 0.23434,0.29949 0.23437,0.54687 -3e-5,0.20835 -0.0782,0.39064 -0.23437,0.54688 L 408.8596,65.74767 c -0.15627,0.20833 -0.37111,0.3125 -0.64453,0.3125 -0.20835,0 -0.39715,-0.0781 -0.56641,-0.23438 -0.15626,-0.16927 -0.23439,-0.35807 -0.23437,-0.5664 -2e-5,-0.20834 0.0976,-0.41016 0.29297,-0.60547 L 421.30101,50.37657 407.76585,36.45079 c -0.16929,-0.16924 -0.25392,-0.36455 -0.2539,-0.58594 -2e-5,-0.2083 0.0716,-0.38408 0.21484,-0.52734 0.14321,-0.15622 0.31899,-0.24736 0.52734,-0.27344 m -11.99218,0.0586 0.0586,0 c 0.22135,3e-5 0.41666,0.0847 0.58594,0.2539 l 13.98437,14.375 c 0.14321,0.23439 0.21482,0.41669 0.21485,0.54688 -3e-5,0.13022 -0.0716,0.31251 -0.21485,0.54687 l -14.16015,14.84375 c -0.16928,0.16927 -0.35808,0.25391 -0.56641,0.25391 -0.22136,0 -0.41667,-0.0781 -0.58594,-0.23438 -0.15625,-0.16927 -0.23438,-0.35807 -0.23437,-0.5664 -1e-5,-0.22135 0.0781,-0.41016 0.23437,-0.56641 L 409.17213,50.31798 395.75416,36.48985 c -0.15625,-0.0911 -0.23438,-0.27991 -0.23437,-0.5664 -10e-6,-0.22133 0.0651,-0.40362 0.19531,-0.54688 0.14322,-0.14319 0.32552,-0.22783 0.54688,-0.2539" />
  </g>
</svg>
