<?xml version="1.0" encoding="UTF-8" standalone="no"?>
<!-- Created with Inkscape (http://www.inkscape.org/) -->

<svg
   xmlns:dc="http://purl.org/dc/elements/1.1/"
   xmlns:cc="http://creativecommons.org/ns#"
   xmlns:rdf="http://www.w3.org/1999/02/22-rdf-syntax-ns#"
   xmlns:svg="http://www.w3.org/2000/svg"
   xmlns="http://www.w3.org/2000/svg"
   xmlns:sodipodi="http://sodipodi.sourceforge.net/DTD/sodipodi-0.dtd"
   xmlns:inkscape="http://www.inkscape.org/namespaces/inkscape"
   width="25.546789"
   height="25.5329"
   id="svg2"
   version="1.1"
   inkscape:version="0.48.4 r9939"
   sodipodi:docname="en.svg">
  <defs
     id="defs4" />
  <sodipodi:namedview
     id="base"
     pagecolor="#ffffff"
     bordercolor="#666666"
     borderopacity="1.0"
     inkscape:pageopacity="0.0"
     inkscape:pageshadow="2"
     inkscape:zoom="0.98994949"
     inkscape:cx="-185.97952"
     inkscape:cy="-247.07581"
     inkscape:document-units="px"
     inkscape:current-layer="layer1"
     showgrid="false"
     inkscape:window-width="1596"
     inkscape:window-height="861"
     inkscape:window-x="0"
     inkscape:window-y="18"
     inkscape:window-maximized="0"
     fit-margin-top="0"
     fit-margin-left="0"
     fit-margin-right="0"
     fit-margin-bottom="0" />
  <metadata
     id="metadata7">
    <rdf:RDF>
      <cc:Work
         rdf:about="">
        <dc:format>image/svg+xml</dc:format>
        <dc:type
           rdf:resource="http://purl.org/dc/dcmitype/StillImage" />
        <dc:title />
      </cc:Work>
    </rdf:RDF>
  </metadata>
  <g
     inkscape:label="Layer 1"
     inkscape:groupmode="layer"
     id="layer1"
     transform="translate(-436.49629,-37.75945)">
    <path
       style="font-size:40px;font-style:normal;font-weight:normal;line-height:125%;letter-spacing:0px;word-spacing:0px;fill:#000000;fill-opacity:1;stroke:none;font-family:Sans"
       inkscape:connector-curvature="0"
       id="path3076"
       d="m 437.25807,49.61485 0,-0.0195 0.0195,0 c 0.013,2e-5 0.0195,0.007 0.0195,0.0195 -1e-5,-0.013 0.007,-0.0195 0.0195,-0.0195 l 0.0195,0 23.88672,0.0195 c -3e-5,-0.013 0.006,-0.0195 0.0195,-0.0195 0.23435,0.0261 0.42315,0.11721 0.56641,0.27344 0.15622,0.14325 0.23434,0.32554 0.23438,0.54688 -4e-5,0.22137 -0.0782,0.41668 -0.23438,0.58593 -0.15628,0.15627 -0.34508,0.22137 -0.56641,0.19532 l -0.0195,0.0195 -23.88672,-0.0195 -0.0195,0 c -0.013,1e-5 -0.0195,0.007 -0.0195,0.0195 -0.53386,-0.0651 -0.80079,-0.33853 -0.80078,-0.82032 -10e-6,-0.19529 0.0716,-0.37107 0.21484,-0.52734 0.15625,-0.16925 0.33854,-0.25389 0.54688,-0.25391 m 11.62109,-11.8164 0,-0.0195 0.0781,-0.0195 c 0.0521,2e-5 0.0846,0.007 0.0977,0.0195 0.22134,-0.026 0.41014,0.0456 0.56641,0.21484 0.15623,0.1693 0.23436,0.3581 0.23438,0.56641 l 0,0.0391 0,23.88672 0,0.0195 c -2e-5,0.22136 -0.0782,0.41667 -0.23438,0.58594 -0.15627,0.15625 -0.34507,0.22135 -0.56641,0.19531 -0.20835,0.026 -0.39715,-0.0391 -0.5664,-0.19531 -0.15627,-0.16927 -0.2344,-0.36458 -0.23438,-0.58594 l 0,-0.0195 0,-23.88672 0,-0.0391 c -2e-5,-0.16925 0.0586,-0.33201 0.17578,-0.48828 0.11717,-0.15623 0.26691,-0.24737 0.44922,-0.27344" />
  </g>
</svg>
