<?xml version="1.0" encoding="UTF-8" standalone="no"?>
<!-- Created with Inkscape (http://www.inkscape.org/) -->

<svg
   xmlns:dc="http://purl.org/dc/elements/1.1/"
   xmlns:cc="http://creativecommons.org/ns#"
   xmlns:rdf="http://www.w3.org/1999/02/22-rdf-syntax-ns#"
   xmlns:svg="http://www.w3.org/2000/svg"
   xmlns="http://www.w3.org/2000/svg"
   xmlns:sodipodi="http://sodipodi.sourceforge.net/DTD/sodipodi-0.dtd"
   xmlns:inkscape="http://www.inkscape.org/namespaces/inkscape"
   width="32.933243"
   height="39.44281"
   id="svg2"
   version="1.1"
   inkscape:version="0.48.4 r9939"
   sodipodi:docname="awen.svg">
  <defs
     id="defs4" />
  <sodipodi:namedview
     id="base"
     pagecolor="#ffffff"
     bordercolor="#666666"
     borderopacity="1.0"
     inkscape:pageopacity="0.0"
     inkscape:pageshadow="2"
     inkscape:zoom="0.98994949"
     inkscape:cx="-250.36891"
     inkscape:cy="-155.88169"
     inkscape:document-units="px"
     inkscape:current-layer="layer1"
     showgrid="false"
     inkscape:window-width="1596"
     inkscape:window-height="861"
     inkscape:window-x="0"
     inkscape:window-y="18"
     inkscape:window-maximized="0"
     fit-margin-top="0"
     fit-margin-left="0"
     fit-margin-right="0"
     fit-margin-bottom="0" />
  <metadata
     id="metadata7">
    <rdf:RDF>
      <cc:Work
         rdf:about="">
        <dc:format>image/svg+xml</dc:format>
        <dc:type
           rdf:resource="http://purl.org/dc/dcmitype/StillImage" />
        <dc:title></dc:title>
      </cc:Work>
    </rdf:RDF>
  </metadata>
  <g
     inkscape:label="Layer 1"
     inkscape:groupmode="layer"
     id="layer1"
     transform="translate(-445.49112,-602.71745)">
    <path
       style="font-size:40px;font-style:normal;font-weight:normal;line-height:125%;letter-spacing:0px;word-spacing:0px;fill:#000000;fill-opacity:1;stroke:none;font-family:Sans"
       inkscape:connector-curvature="0"
       id="path3078"
       d="m 471.71388,602.7436 -0.0198,-0.02 c 0.8833,-0.0267 1.63478,0.0335 2.25446,0.18069 0.6196,0.13387 1.17992,0.41495 1.68094,0.84322 0.75146,0.68264 1.29859,1.39871 1.64141,2.1482 0.35592,0.74957 0.46798,1.46565 0.33618,2.14822 -0.0396,0.34803 -0.11869,0.68264 -0.23731,1.00384 -0.10551,0.32125 -0.30326,0.68932 -0.59328,1.10422 -0.29008,0.40156 -0.49443,0.67594 -0.61304,0.82314 -0.1187,0.14726 -0.39556,0.48188 -0.8306,1.00384 -0.88334,0.89678 -2.2347,1.51916 -4.05404,1.86714 -1.60847,0.46848 -3.94203,0.70271 -7.00067,0.70268 -0.18459,-0.0401 -0.46805,-0.0736 -0.85036,-0.10033 -0.36917,-0.0267 -0.64603,-0.0536 -0.83058,-0.0803 -2e-5,0.12049 -0.033,0.31456 -0.0989,0.58223 -0.0659,0.25433 -0.0857,0.46848 -0.0593,0.64246 -0.1846,5.31366 -1.06792,10.19229 -2.64997,14.63594 1.47658,1.23137 2.55766,2.21513 3.24325,2.95127 0.17137,0.16063 0.42186,0.40824 0.75147,0.74285 0.84375,0.82983 1.48317,1.45891 1.91826,1.88721 0.44824,0.41492 1.06129,0.957 1.83916,1.62622 0.77782,0.66922 1.44362,1.17783 1.99737,1.52583 0.56688,0.34799 1.21948,0.67591 1.95781,0.98375 0.73827,0.30785 1.45679,0.50192 2.15557,0.58223 0.54051,0.0936 1.06127,0.0134 1.56229,-0.24092 0.72508,-0.57553 1.29199,-1.32506 1.70072,-2.2486 0.0132,-0.0134 0.0593,-0.0602 0.13843,-0.14053 0.0791,-0.0937 0.13181,-0.15392 0.15821,-0.18069 0.0395,-0.0267 0.0988,-0.0536 0.17798,-0.0803 0.0791,-0.0267 0.16477,-0.0335 0.25709,-0.02 0.19773,-0.0267 0.3823,0.0469 0.55372,0.22084 0.17136,0.174 0.24387,0.36139 0.21754,0.56215 0.0132,0.0536 0.006,0.12046 -0.0197,0.20077 -0.0264,0.0803 -0.0396,0.14054 -0.0396,0.18069 -0.46147,0.81645 -0.87017,1.44552 -1.2261,1.88721 -0.34282,0.45507 -0.71856,0.78299 -1.12722,0.98376 -0.55376,0.41492 -1.39753,0.57553 -2.53131,0.48184 -0.51421,-0.0669 -1.02179,-0.1673 -1.52275,-0.30115 -0.48783,-0.13384 -0.98882,-0.32792 -1.50297,-0.58223 -0.50101,-0.2543 -0.94267,-0.47515 -1.32498,-0.66253 -0.36918,-0.18738 -0.81743,-0.48853 -1.34475,-0.90345 -0.5142,-0.40154 -0.91632,-0.70269 -1.20634,-0.90345 -0.27688,-0.21415 -0.69218,-0.58222 -1.24588,-1.10422 -0.55375,-0.53538 -0.92948,-0.89676 -1.12722,-1.08415 -0.18459,-0.18737 -0.58012,-0.58222 -1.18656,-1.18452 -0.59329,-0.61568 -0.96244,-0.99046 -1.10745,-1.1243 -0.9097,-0.92352 -1.79962,-1.74667 -2.66973,-2.46944 -0.0264,0.0134 -0.0528,0.0736 -0.0791,0.18069 -0.0132,0.10708 -0.033,0.16732 -0.0593,0.18069 -0.98881,2.51629 -2.24788,4.55073 -3.7772,6.10333 -1.76665,1.61952 -3.57285,2.26867 -5.41858,1.94744 -0.8306,-0.13384 -1.54912,-0.44838 -2.15558,-0.94361 -0.60646,-0.49522 -1.03494,-1.07744 -1.28543,-1.74667 -0.46143,-1.09752 -0.50099,-2.54305 -0.11865,-4.33658 0.54053,-1.75336 1.15358,-3.07173 1.83916,-3.95511 0.76465,-1.24475 1.74685,-1.9742 2.94659,-2.18837 2.26763,-0.2409 4.44956,0.28109 6.54582,1.56599 0.0791,0.0402 0.16478,0.10043 0.25708,0.18069 0.0922,0.0669 0.19116,0.14724 0.29664,0.24092 0.10546,0.0803 0.18457,0.14054 0.23732,0.1807 0.7251,-2.08798 1.292,-4.33657 1.70072,-6.74579 0.40868,-2.4092 0.63941,-4.71133 0.69216,-6.9064 -0.0132,-0.17397 0.006,-0.40152 0.0593,-0.68261 0.0659,-0.29443 0.0988,-0.51528 0.0989,-0.66253 -5.47134,-0.62905 -10.52738,-2.60995 -15.1681,-5.94272 -0.18458,-0.10704 -0.30323,-0.32789 -0.35596,-0.66253 0.0396,-0.2275 0.12524,-0.42157 0.25708,-0.58223 0.14502,-0.16057 0.32959,-0.2275 0.55373,-0.20076 0.0396,-0.0134 0.11205,3e-5 0.21753,0.0402 0.11866,0.0268 0.19116,0.0536 0.21754,0.0803 4.17929,3.02493 9.02437,4.92552 14.53526,5.70179 0.38232,-1.84703 1.07447,-3.47324 2.07647,-4.87865 1.01514,-1.40534 2.20169,-2.53632 3.55965,-3.39296 1.67433,-1.00381 3.27618,-1.55257 4.80554,-1.64629 m 0.1582,1.58606 c -1.13384,0.0536 -2.51814,0.52872 -4.15293,1.42544 -2.61044,1.74002 -4.23865,4.08231 -4.88464,7.02686 0.13182,3e-5 0.36914,0.0335 0.71194,0.10043 0.35594,0.0535 0.61303,0.0669 0.77126,0.0402 2.01711,0.12048 4.21223,-0.0803 6.58536,-0.6023 1.87208,-0.53535 2.95976,-1.01719 3.26302,-1.44553 1.01513,-1.03057 1.65455,-2.0478 1.91826,-3.05166 0.0395,-0.48181 -0.0462,-0.93688 -0.25709,-1.36522 -0.21097,-0.44166 -0.63286,-0.95027 -1.26566,-1.52583 -0.25052,-0.21412 -0.61967,-0.38812 -1.10745,-0.522 -0.48783,-0.1338 -1.01518,-0.16058 -1.58207,-0.0803 m -20.52734,24.29285 0.0197,0.02 c -0.4219,10e-6 -1.06132,0.50862 -1.91826,1.52583 -0.81741,1.25815 -1.33158,2.40252 -1.54252,3.43312 -0.34279,1.13768 -0.34279,2.2486 0,3.33274 0.22412,0.49523 0.50099,0.87668 0.83058,1.14438 0.3296,0.26768 0.81741,0.46176 1.46342,0.58222 1.48978,0.22754 2.82794,-0.28776 4.01451,-1.54591 1.16017,-1.09753 2.31376,-2.95127 3.46077,-5.56126 0.0132,-0.0936 0.0461,-0.22084 0.0988,-0.38145 0.0659,-0.16061 0.11204,-0.28776 0.13843,-0.38146 -0.0923,-0.0536 -0.26369,-0.18068 -0.51417,-0.38146 -0.23733,-0.21415 -0.4219,-0.35468 -0.55373,-0.42161 -1.79302,-1.11091 -3.62559,-1.56597 -5.49769,-1.36522" />
  </g>
</svg>
