<?xml version="1.0" encoding="UTF-8" standalone="no"?>
<!-- Created with Inkscape (http://www.inkscape.org/) -->

<svg
   xmlns:dc="http://purl.org/dc/elements/1.1/"
   xmlns:cc="http://creativecommons.org/ns#"
   xmlns:rdf="http://www.w3.org/1999/02/22-rdf-syntax-ns#"
   xmlns:svg="http://www.w3.org/2000/svg"
   xmlns="http://www.w3.org/2000/svg"
   xmlns:sodipodi="http://sodipodi.sourceforge.net/DTD/sodipodi-0.dtd"
   xmlns:inkscape="http://www.inkscape.org/namespaces/inkscape"
   width="27.666451"
   height="30.657181"
   id="svg2"
   version="1.1"
   inkscape:version="0.48.4 r9939"
   sodipodi:docname="esun.svg">
  <defs
     id="defs4" />
  <sodipodi:namedview
     id="base"
     pagecolor="#ffffff"
     bordercolor="#666666"
     borderopacity="1.0"
     inkscape:pageopacity="0.0"
     inkscape:pageshadow="2"
     inkscape:zoom="0.98994949"
     inkscape:cx="-289.49305"
     inkscape:cy="-81.532492"
     inkscape:document-units="px"
     inkscape:current-layer="layer1"
     showgrid="false"
     inkscape:window-width="1596"
     inkscape:window-height="861"
     inkscape:window-x="0"
     inkscape:window-y="18"
     inkscape:window-maximized="0"
     fit-margin-top="0"
     fit-margin-left="0"
     fit-margin-right="0"
     fit-margin-bottom="0" />
  <metadata
     id="metadata7">
    <rdf:RDF>
      <cc:Work
         rdf:about="">
        <dc:format>image/svg+xml</dc:format>
        <dc:type
           rdf:resource="http://purl.org/dc/dcmitype/StillImage" />
        <dc:title></dc:title>
      </cc:Work>
    </rdf:RDF>
  </metadata>
  <g
     inkscape:label="Layer 1"
     inkscape:groupmode="layer"
     id="layer1"
     transform="translate(-488.64202,-607.1404)">
    <path
       style="font-size:40px;font-style:normal;font-weight:normal;line-height:125%;letter-spacing:0px;word-spacing:0px;fill:#000000;fill-opacity:1;stroke:none;font-family:Sans"
       inkscape:connector-curvature="0"
       id="path3080"
       d="m 497.08633,608.36509 c 1.71389,-0.81642 3.51349,-1.22466 5.39881,-1.22469 1.88528,3e-5 3.68488,0.40827 5.39881,1.22469 1.71388,0.81648 3.18389,1.914 4.41002,3.29258 1.22608,1.36524 2.20169,2.99146 2.92683,4.87865 0.72509,1.88723 1.08764,3.86144 1.08767,5.92263 -3e-5,2.75723 -0.61308,5.31366 -1.83915,7.66932 -1.22614,2.35567 -2.90049,4.22281 -5.02307,5.60141 -2.12264,1.37861 -4.443,2.0679 -6.96111,2.0679 -1.88532,0 -3.68492,-0.40822 -5.39881,-1.22468 -1.71392,-0.81644 -3.19052,-1.90728 -4.4298,-3.27251 -1.22611,-1.37859 -2.20172,-3.0115 -2.92683,-4.89872 -0.72512,-1.8872 -1.08768,-3.8681 -1.08768,-5.94272 0,-2.06119 0.36256,-4.0354 1.08768,-5.92263 0.72511,-1.88719 1.70072,-3.51341 2.92683,-4.87865 1.23928,-1.37858 2.71588,-2.4761 4.4298,-3.29258 m 5.39881,0.36138 0,0.02 c -1.64801,3e-5 -3.22348,0.36141 -4.72643,1.08415 -1.4898,0.7094 -2.78183,1.67309 -3.87607,2.89105 -1.09428,1.21801 -1.96442,2.67692 -2.61042,4.37672 -0.64602,1.69986 -0.96903,3.48669 -0.96902,5.36049 -1e-5,1.87385 0.323,3.66067 0.96902,5.3605 0.646,1.69983 1.51614,3.15874 2.61042,4.37672 1.09424,1.218 2.38627,2.18837 3.87607,2.91113 1.50295,0.70938 3.07842,1.06407 4.72643,1.06407 2.18851,0 4.21223,-0.60231 6.07119,-1.80691 1.87209,-1.21798 3.35528,-2.87766 4.44957,-4.97903 1.09423,-2.11473 1.64137,-4.42357 1.6414,-6.92648 -3e-5,-2.50287 -0.54717,-4.805 -1.6414,-6.9064 -1.09429,-2.11472 -2.57748,-3.78108 -4.44957,-4.9991 -1.85896,-1.21796 -3.88268,-1.82695 -6.07119,-1.82698" />
  </g>
</svg>
