<?xml version="1.0" encoding="UTF-8" standalone="no"?>
<!-- Created with Inkscape (http://www.inkscape.org/) -->

<svg
   xmlns:dc="http://purl.org/dc/elements/1.1/"
   xmlns:cc="http://creativecommons.org/ns#"
   xmlns:rdf="http://www.w3.org/1999/02/22-rdf-syntax-ns#"
   xmlns:svg="http://www.w3.org/2000/svg"
   xmlns="http://www.w3.org/2000/svg"
   xmlns:sodipodi="http://sodipodi.sourceforge.net/DTD/sodipodi-0.dtd"
   xmlns:inkscape="http://www.inkscape.org/namespaces/inkscape"
   width="21.298611"
   height="10.634968"
   id="svg2"
   version="1.1"
   inkscape:version="0.48.4 r9939"
   sodipodi:docname="ijo.svg">
  <defs
     id="defs4" />
  <sodipodi:namedview
     id="base"
     pagecolor="#ffffff"
     bordercolor="#666666"
     borderopacity="1.0"
     inkscape:pageopacity="0.0"
     inkscape:pageshadow="2"
     inkscape:zoom="0.98994949"
     inkscape:cx="-328.88531"
     inkscape:cy="-197.02881"
     inkscape:document-units="px"
     inkscape:current-layer="layer1"
     showgrid="false"
     inkscape:window-width="1596"
     inkscape:window-height="861"
     inkscape:window-x="0"
     inkscape:window-y="18"
     inkscape:window-maximized="0"
     fit-margin-top="0"
     fit-margin-left="0"
     fit-margin-right="0"
     fit-margin-bottom="0" />
  <metadata
     id="metadata7">
    <rdf:RDF>
      <cc:Work
         rdf:about="">
        <dc:format>image/svg+xml</dc:format>
        <dc:type
           rdf:resource="http://purl.org/dc/dcmitype/StillImage" />
        <dc:title></dc:title>
      </cc:Work>
    </rdf:RDF>
  </metadata>
  <g
     inkscape:label="Layer 1"
     inkscape:groupmode="layer"
     id="layer1"
     transform="translate(-532.34669,-617.12424)">
    <path
       style="font-size:40px;font-style:normal;font-weight:normal;line-height:125%;letter-spacing:0px;word-spacing:0px;fill:#000000;fill-opacity:1;stroke:none;font-family:Sans"
       inkscape:connector-curvature="0"
       id="path3082"
       d="m 541.99734,617.17878 c 1.43702,-0.1606 2.88725,0.0335 4.35068,0.58222 1.67433,0.61571 3.15094,1.65969 4.4298,3.13197 1.292,1.47231 2.22805,3.2056 2.80818,5.19987 0.0395,0.0937 0.0593,0.21417 0.0593,0.36138 -3e-5,0.26771 -0.0725,0.50194 -0.21753,0.7027 -0.13187,0.18739 -0.29008,0.28108 -0.47462,0.28106 -0.31645,2e-5 -0.53398,-0.20744 -0.6526,-0.62237 -0.5142,-1.71321 -1.31842,-3.19888 -2.41266,-4.45704 -1.09429,-1.25812 -2.38632,-2.16827 -3.87607,-2.73043 -1.30523,-0.50859 -2.61043,-0.66921 -3.91563,-0.48184 -1.29204,0.1874 -2.49177,0.6157 -3.5992,1.28491 -1.10747,0.65586 -2.08967,1.57269 -2.94661,2.75051 -0.84379,1.17785 -1.47001,2.50291 -1.87871,3.9752 -0.13185,0.40154 -0.34279,0.60231 -0.63283,0.60229 -0.18458,2e-5 -0.34938,-0.0936 -0.49439,-0.28107 -0.13185,-0.18737 -0.19777,-0.4216 -0.19776,-0.70269 -10e-6,-0.0401 0.006,-0.10032 0.0198,-0.18069 0.0132,-0.0803 0.0197,-0.13382 0.0197,-0.16061 0.69873,-2.62335 1.92484,-4.75817 3.67831,-6.40448 1.75345,-1.65966 3.73103,-2.60996 5.93277,-2.85089" />
  </g>
</svg>
