<?xml version="1.0" encoding="UTF-8" standalone="no"?>
<!-- Created with Inkscape (http://www.inkscape.org/) -->

<svg
   xmlns:dc="http://purl.org/dc/elements/1.1/"
   xmlns:cc="http://creativecommons.org/ns#"
   xmlns:rdf="http://www.w3.org/1999/02/22-rdf-syntax-ns#"
   xmlns:svg="http://www.w3.org/2000/svg"
   xmlns="http://www.w3.org/2000/svg"
   xmlns:sodipodi="http://sodipodi.sourceforge.net/DTD/sodipodi-0.dtd"
   xmlns:inkscape="http://www.inkscape.org/namespaces/inkscape"
   width="28.00256"
   height="29.51281"
   id="svg2"
   version="1.1"
   inkscape:version="0.48.4 r9939"
   sodipodi:docname="ike.svg">
  <defs
     id="defs4" />
  <sodipodi:namedview
     id="base"
     pagecolor="#ffffff"
     bordercolor="#666666"
     borderopacity="1.0"
     inkscape:pageopacity="0.0"
     inkscape:pageshadow="2"
     inkscape:zoom="0.98994949"
     inkscape:cx="-354.8894"
     inkscape:cy="-234.3786"
     inkscape:document-units="px"
     inkscape:current-layer="layer1"
     showgrid="false"
     inkscape:window-width="1596"
     inkscape:window-height="861"
     inkscape:window-x="0"
     inkscape:window-y="18"
     inkscape:window-maximized="0"
     fit-margin-top="0"
     fit-margin-left="0"
     fit-margin-right="0"
     fit-margin-bottom="0" />
  <metadata
     id="metadata7">
    <rdf:RDF>
      <cc:Work
         rdf:about="">
        <dc:format>image/svg+xml</dc:format>
        <dc:type
           rdf:resource="http://purl.org/dc/dcmitype/StillImage" />
        <dc:title></dc:title>
      </cc:Work>
    </rdf:RDF>
  </metadata>
  <g
     inkscape:label="Layer 1"
     inkscape:groupmode="layer"
     id="layer1"
     transform="translate(-569.46616,-607.70256)">
    <path
       style="font-size:40px;font-style:normal;font-weight:normal;line-height:125%;letter-spacing:0px;word-spacing:0px;fill:#000000;fill-opacity:1;stroke:none;font-family:Sans"
       inkscape:connector-curvature="0"
       id="path3084"
       d="m 596.65784,607.70256 -0.0197,0 c 0.47459,3e-5 0.75146,0.2744 0.83058,0.82314 l -0.0197,14.03364 c 0.0263,0.21417 -0.0462,0.40824 -0.21753,0.58223 -0.15824,0.16062 -0.34941,0.24093 -0.5735,0.24091 l -12.45881,0 0.0197,12.98965 -0.0197,0.0201 c 0.0263,0.22754 -0.0462,0.42161 -0.21753,0.58223 -0.17141,0.16061 -0.36257,0.24091 -0.5735,0.24091 -0.48783,0 -0.76468,-0.27437 -0.83059,-0.82314 l 0.0197,0 -0.0197,-13.00973 -12.28081,0 c -0.47463,2e-5 -0.75149,-0.27436 -0.83059,-0.82314 l 0.0197,-14.01356 c -0.0263,-0.21413 0.0396,-0.40151 0.19777,-0.56216 0.17138,-0.17396 0.36914,-0.26096 0.59327,-0.26099 l 26.38102,-0.02 m -0.79104,1.64629 -11.66777,0.02 0.0198,12.36727 11.62821,0 0.0197,-12.38734 m -24.77916,0.02 0.0197,12.36727 11.47,0 0.0197,-12.36727 -11.50955,0" />
  </g>
</svg>
