<?xml version="1.0" encoding="UTF-8" standalone="no"?>
<!-- Created with Inkscape (http://www.inkscape.org/) -->

<svg
   xmlns:dc="http://purl.org/dc/elements/1.1/"
   xmlns:cc="http://creativecommons.org/ns#"
   xmlns:rdf="http://www.w3.org/1999/02/22-rdf-syntax-ns#"
   xmlns:svg="http://www.w3.org/2000/svg"
   xmlns="http://www.w3.org/2000/svg"
   xmlns:sodipodi="http://sodipodi.sourceforge.net/DTD/sodipodi-0.dtd"
   xmlns:inkscape="http://www.inkscape.org/namespaces/inkscape"
   width="29.030987"
   height="14.59579"
   id="svg2"
   version="1.1"
   inkscape:version="0.48.4 r9939"
   sodipodi:docname="ilo.svg">
  <defs
     id="defs4" />
  <sodipodi:namedview
     id="base"
     pagecolor="#ffffff"
     bordercolor="#666666"
     borderopacity="1.0"
     inkscape:pageopacity="0.0"
     inkscape:pageshadow="2"
     inkscape:zoom="1.0798773"
     inkscape:cx="248.36906"
     inkscape:cy="-125.244"
     inkscape:document-units="px"
     inkscape:current-layer="layer1"
     showgrid="false"
     inkscape:window-width="1596"
     inkscape:window-height="861"
     inkscape:window-x="0"
     inkscape:window-y="18"
     inkscape:window-maximized="0"
     fit-margin-top="0"
     fit-margin-left="0"
     fit-margin-right="0"
     fit-margin-bottom="0" />
  <metadata
     id="metadata7">
    <rdf:RDF>
      <cc:Work
         rdf:about="">
        <dc:format>image/svg+xml</dc:format>
        <dc:type
           rdf:resource="http://purl.org/dc/dcmitype/StillImage" />
        <dc:title></dc:title>
      </cc:Work>
    </rdf:RDF>
  </metadata>
  <g
     inkscape:label="Layer 1"
     inkscape:groupmode="layer"
     id="layer1"
     transform="translate(-1.9578416,-666.54747)">
    <path
       style="font-size:40px;font-style:normal;font-weight:normal;line-height:125%;letter-spacing:0px;word-spacing:0px;fill:#000000;fill-opacity:1;stroke:none;font-family:Sans"
       inkscape:connector-curvature="0"
       id="path3086"
       d="m 2.6697271,666.54747 0.098924,0 c 0.2373054,2e-5 0.4284701,0.0803 0.5735041,0.24092 0.1581969,0.14726 0.2373054,0.34133 0.2373156,0.58223 l 0,12.12635 25.7877282,0 0,-11.94566 c -3.1e-5,-0.22751 0.07908,-0.42159 0.237315,-0.58222 0.17136,-0.16059 0.362525,-0.24091 0.573504,-0.24093 0.237275,2e-5 0.42844,0.0804 0.573494,0.24093 0.158177,0.14725 0.237275,0.34132 0.237316,0.58222 l 0,12.76881 c -4.1e-5,0.24092 -0.07918,0.44169 -0.237316,0.60229 -0.145054,0.14724 -0.336219,0.22086 -0.573494,0.22085 l -27.4093669,0 c -0.2109494,10e-6 -0.4021141,-0.0803 -0.573494,-0.24092 -0.1582171,-0.16061 -0.2373155,-0.35468 -0.2373155,-0.58222 l 0,-12.9495 c 0,-0.21413 0.065915,-0.39482 0.1977663,-0.54207 0.1450138,-0.16059 0.3164038,-0.25429 0.5141702,-0.28108 m 12.9136389,5.46088 c 0.250478,-0.25429 0.547117,-0.38145 0.889918,-0.38146 0.342759,10e-6 0.632807,0.12717 0.870143,0.38146 0.250468,0.24093 0.375718,0.53539 0.375738,0.88337 -2e-5,0.33463 -0.12527,0.62909 -0.375738,0.88338 -0.237336,0.25432 -0.527384,0.38147 -0.870143,0.38145 -0.342801,2e-5 -0.63944,-0.12713 -0.889918,-0.38145 -0.237326,-0.25429 -0.355984,-0.54875 -0.355964,-0.88338 -2e-5,-0.34798 0.118638,-0.64244 0.355964,-0.88337" />
  </g>
</svg>
