<?xml version="1.0" encoding="UTF-8" standalone="no"?>
<!-- Created with Inkscape (http://www.inkscape.org/) -->

<svg
   xmlns:dc="http://purl.org/dc/elements/1.1/"
   xmlns:cc="http://creativecommons.org/ns#"
   xmlns:rdf="http://www.w3.org/1999/02/22-rdf-syntax-ns#"
   xmlns:svg="http://www.w3.org/2000/svg"
   xmlns="http://www.w3.org/2000/svg"
   xmlns:sodipodi="http://sodipodi.sourceforge.net/DTD/sodipodi-0.dtd"
   xmlns:inkscape="http://www.inkscape.org/namespaces/inkscape"
   width="25.033361"
   height="39.574139"
   id="svg2"
   version="1.1"
   inkscape:version="0.48.4 r9939"
   sodipodi:docname="insa.svg">
  <defs
     id="defs4" />
  <sodipodi:namedview
     id="base"
     pagecolor="#ffffff"
     bordercolor="#666666"
     borderopacity="1.0"
     inkscape:pageopacity="0.0"
     inkscape:pageshadow="2"
     inkscape:zoom="1.0798773"
     inkscape:cx="215.95132"
     inkscape:cy="-153.3993"
     inkscape:document-units="px"
     inkscape:current-layer="layer1"
     showgrid="false"
     inkscape:window-width="1596"
     inkscape:window-height="861"
     inkscape:window-x="0"
     inkscape:window-y="18"
     inkscape:window-maximized="0"
     fit-margin-top="0"
     fit-margin-left="0"
     fit-margin-right="0"
     fit-margin-bottom="0" />
  <metadata
     id="metadata7">
    <rdf:RDF>
      <cc:Work
         rdf:about="">
        <dc:format>image/svg+xml</dc:format>
        <dc:type
           rdf:resource="http://purl.org/dc/dcmitype/StillImage" />
        <dc:title></dc:title>
      </cc:Work>
    </rdf:RDF>
  </metadata>
  <g
     inkscape:label="Layer 1"
     inkscape:groupmode="layer"
     id="layer1"
     transform="translate(-44.45613,-654.03964)">
    <path
       style="font-size:40px;font-style:normal;font-weight:normal;line-height:125%;letter-spacing:0px;word-spacing:0px;fill:#000000;fill-opacity:1;stroke:none;font-family:Sans"
       inkscape:connector-curvature="0"
       id="path3088"
       d="m 53.098196,654.05974 0,-0.0201 0.03959,0 c 0.02632,5e-5 0.04617,0.007 0.05933,0.0201 0.224113,-0.0267 0.415277,0.0469 0.573505,0.22085 0.158186,0.16064 0.237295,0.35472 0.237305,0.58222 -10e-6,0.16065 -0.09234,0.3748 -0.276865,0.64245 -2.148992,2.03448 -3.50693,4.18269 -4.073822,6.44464 0.131821,-0.0669 0.316394,-0.20074 0.553719,-0.40153 0.250479,-0.20075 0.461428,-0.34128 0.632828,-0.42162 1.568877,-0.91012 3.269594,-1.67302 5.102173,-2.28874 1.845731,-0.61566 3.645332,-1.01719 5.398822,-1.20461 2.003928,-0.13381 3.59259,-0.087 4.765984,0.14053 1.186517,0.21419 2.076435,0.66258 2.669745,1.34515 0.580055,0.58894 0.804177,1.4054 0.672377,2.44936 -0.131872,0.78972 -0.533986,1.65301 -1.206332,2.5899 -1.199761,1.71324 -2.99277,3.35953 -5.379038,4.93888 -2.386308,1.57939 -4.766004,2.67022 -7.139089,3.2725 -1.384324,0.42833 -2.485181,0.82986 -3.302572,1.20461 0.131831,0.1874 0.316404,0.52871 0.55373,1.02391 0.237295,0.48187 0.454826,0.84994 0.652602,1.10423 0.118638,-0.0669 0.276845,-0.18737 0.474621,-0.36138 0.197736,-0.17399 0.355943,-0.29445 0.474621,-0.36139 2.99273,-2.15488 5.721797,-3.7744 8.187214,-4.85857 1.357917,-0.44167 2.261008,-0.66251 2.709293,-0.66253 0.72508,-0.0937 1.423833,0.1071 2.09624,0.6023 0.474591,0.4417 0.797597,1.09085 0.969017,1.94745 0.118627,0.81647 0.09882,1.67977 -0.05933,2.58989 -0.197797,1.59277 -0.89654,4.10237 -2.09625,7.52878 -0.830615,2.24861 -1.720523,3.84135 -2.669734,4.77827 -1.028371,1.13768 -2.294027,1.76006 -3.796968,1.86713 -0.988821,0 -1.865546,-0.13384 -2.630195,-0.40153 -2e-5,0.32123 -0.01316,0.54207 -0.03959,0.66253 -0.487825,1.99429 -1.357968,3.30596 -2.610421,3.93504 -1.278849,0.80307 -2.959802,0.8566 -5.042849,0.16061 -2.003958,-0.81645 -3.394863,-1.77345 -4.172705,-2.87096 -0.922886,-1.23138 -1.186557,-2.6836 -0.791035,-4.35667 0.290038,-1.25813 1.212914,-2.8308 2.768617,-4.71803 -0.09224,-0.0936 -0.415297,-0.52198 -0.969016,-1.28491 -0.738303,-1.43213 -0.850369,-2.77057 -0.336189,-4.01534 0.606452,-1.19121 1.687535,-2.16828 3.243248,-2.93121 0.05275,-0.0535 0.158187,-0.10032 0.316414,-0.14053 0.158187,-0.0401 0.263662,-0.0803 0.316414,-0.12047 -1.305225,-2.62333 -2.036926,-5.066 -2.195123,-7.328 -0.909703,0.88339 -1.430464,1.59947 -1.562295,2.14821 -0.09234,0.33463 -0.355973,0.54209 -0.791035,0.62238 -0.540546,-0.0669 -0.81082,-0.35467 -0.81081,-0.86331 -1e-5,-0.10705 0.0071,-0.17397 0.01975,-0.20076 0.145014,-0.53536 0.382329,-1.02389 0.711926,-1.4656 0.34278,-0.45505 0.830584,-1.00382 1.463422,-1.64629 0.224113,-0.1606 0.573484,-0.39482 1.048115,-0.7027 0.369146,-3.18547 1.944615,-6.17021 4.726435,-8.95421 0.276845,-0.16059 0.448235,-0.24089 0.51417,-0.24093 m 8.365196,5.24003 0,-0.02 c -1.568907,0.16064 -3.223484,0.5354 -4.96374,1.12429 -1.740298,0.58895 -3.355325,1.31171 -4.845093,2.16829 -0.263692,0.12049 -0.527364,0.27441 -0.791035,0.46176 -0.263692,0.17403 -0.540547,0.38149 -0.830584,0.62238 -0.290058,0.22757 -0.507589,0.38818 -0.652603,0.48185 -0.03959,0.17402 -0.05933,0.35471 -0.05933,0.54206 -2e-5,1.91402 0.777832,4.39014 2.333546,7.4284 0.250478,-0.0803 0.777841,-0.28105 1.58207,-0.6023 0.817391,-0.33459 1.509542,-0.57552 2.076465,-0.72277 2.148962,-0.5755 4.36386,-1.61281 6.644693,-3.11189 2.293976,-1.51242 3.955155,-3.00479 4.983525,-4.47711 0.421859,-0.56213 0.72509,-1.1912 0.909693,-1.88722 0.06592,-0.37473 -0.02643,-0.7428 -0.276865,-1.10422 -0.34281,-0.34796 -1.02837,-0.62234 -2.05669,-0.82315 -1.015188,-0.20073 -2.366544,-0.2275 -4.054058,-0.0803 m 4.093607,11.80512 0,-0.02 c -0.791066,0.0937 -1.529358,0.29448 -2.214898,0.6023 -1.516175,0.57555 -4.119993,2.12146 -7.811466,4.63773 -0.711947,0.54878 -1.074512,0.82985 -1.087674,0.84322 2.003938,3.33275 3.005912,6.49148 3.005932,9.47622 0.580076,0.24093 1.371101,0.40823 2.373105,0.50192 0.580065,-0.0937 1.074461,-0.23423 1.483187,-0.42161 0.421868,-0.20076 0.830564,-0.5153 1.226106,-0.94361 0.870114,-0.84322 1.647965,-2.2419 2.333556,-4.19603 1.107419,-3.14535 1.779796,-5.54787 2.017142,-7.20755 0.118617,-0.69598 0.138402,-1.40536 0.05933,-2.12815 -0.07908,-0.41489 -0.224153,-0.72942 -0.435072,-0.94359 -0.342811,-0.20076 -0.659225,-0.26768 -0.949242,-0.20078 m -14.812123,3.07174 c -0.316434,0.1071 -0.527373,0.18071 -0.632828,0.22085 -1.41069,0.77631 -2.254467,1.51247 -2.531311,2.20845 -0.38235,0.66923 -0.290058,1.49237 0.276854,2.46943 0.05275,0.10709 0.158197,0.26101 0.316414,0.46177 0.17138,0.20077 0.290038,0.36139 0.355974,0.48184 0.659183,-0.70938 1.918238,-1.81359 3.777182,-3.31267 -0.34279,-0.48182 -0.863552,-1.32505 -1.562285,-2.52967 m 2.373105,3.9752 c -0.07908,0.0669 -0.29666,0.24763 -0.652613,0.54208 -0.34279,0.28107 -0.573514,0.46846 -0.692151,0.56214 -0.105485,0.0803 -0.29665,0.24094 -0.573504,0.48184 -0.263692,0.22754 -0.46804,0.40824 -0.613044,0.54207 -0.131861,0.12047 -0.296659,0.27439 -0.494405,0.46177 -0.184584,0.18739 -0.349382,0.36809 -0.494396,0.54207 0.145014,0.10708 0.402104,0.3547 0.77126,0.74284 0.369136,0.37477 0.68555,0.65585 0.949242,0.84323 1.331561,1.13768 2.827931,2.1549 4.48913,3.05166 -0.158227,-2.32889 -1.054737,-4.91879 -2.689519,-7.7697 m -4.627562,4.33657 c -1.226106,1.39199 -1.984184,2.65014 -2.274221,3.77444 -0.290058,1.13768 -0.12526,2.1482 0.494395,3.03158 0.764659,0.96369 1.911657,1.7199 3.441005,2.26867 1.357927,0.53538 2.584033,0.53538 3.678309,0 0.936039,-0.6023 1.549092,-1.57268 1.83916,-2.91112 0.05275,-0.20078 0.07908,-0.48854 0.07908,-0.86331 -1.858945,-0.9369 -3.671729,-2.1549 -5.438362,-3.65397 -0.210959,-0.1606 -0.421898,-0.3346 -0.632828,-0.52199 -0.210959,-0.18737 -0.435082,-0.39484 -0.672377,-0.62238 -0.224142,-0.22752 -0.395532,-0.39483 -0.51418,-0.50192" />
  </g>
</svg>
