<?xml version="1.0" encoding="UTF-8" standalone="no"?>
<!-- Created with Inkscape (http://www.inkscape.org/) -->

<svg
   xmlns:dc="http://purl.org/dc/elements/1.1/"
   xmlns:cc="http://creativecommons.org/ns#"
   xmlns:rdf="http://www.w3.org/1999/02/22-rdf-syntax-ns#"
   xmlns:svg="http://www.w3.org/2000/svg"
   xmlns="http://www.w3.org/2000/svg"
   xmlns:sodipodi="http://sodipodi.sourceforge.net/DTD/sodipodi-0.dtd"
   xmlns:inkscape="http://www.inkscape.org/namespaces/inkscape"
   width="27.666447"
   height="33.588371"
   id="svg2"
   version="1.1"
   inkscape:version="0.48.4 r9939"
   sodipodi:docname="jaki.svg">
  <defs
     id="defs4" />
  <sodipodi:namedview
     id="base"
     pagecolor="#ffffff"
     bordercolor="#666666"
     borderopacity="1.0"
     inkscape:pageopacity="0.0"
     inkscape:pageshadow="2"
     inkscape:zoom="1.0798773"
     inkscape:cx="188.80707"
     inkscape:cy="-166.87402"
     inkscape:document-units="px"
     inkscape:current-layer="layer1"
     showgrid="false"
     inkscape:window-width="1596"
     inkscape:window-height="861"
     inkscape:window-x="0"
     inkscape:window-y="18"
     inkscape:window-maximized="0"
     fit-margin-top="0"
     fit-margin-left="0"
     fit-margin-right="0"
     fit-margin-bottom="0" />
  <metadata
     id="metadata7">
    <rdf:RDF>
      <cc:Work
         rdf:about="">
        <dc:format>image/svg+xml</dc:format>
        <dc:type
           rdf:resource="http://purl.org/dc/dcmitype/StillImage" />
        <dc:title></dc:title>
      </cc:Work>
    </rdf:RDF>
  </metadata>
  <g
     inkscape:label="Layer 1"
     inkscape:groupmode="layer"
     id="layer1"
     transform="translate(-83.632144,-657.1114)">
    <path
       style="font-size:40px;font-style:normal;font-weight:normal;line-height:125%;letter-spacing:0px;word-spacing:0px;fill:#000000;fill-opacity:1;stroke:none;font-family:Sans"
       inkscape:connector-curvature="0"
       id="path3090"
       d="m 97.47526,657.1114 c 2.518108,3e-5 4.83847,0.68934 6.96111,2.06791 2.12258,1.37864 3.79693,3.24577 5.02307,5.60141 1.22607,2.34231 1.83912,4.89205 1.83915,7.64924 -3e-5,2.75722 -0.61308,5.31365 -1.83915,7.66931 -1.22614,2.35568 -2.90049,4.22281 -5.02307,5.60141 -2.12264,1.37861 -4.443002,2.0679 -6.96111,2.0679 -1.885321,0 -3.684922,-0.40822 -5.398812,-1.22468 -1.713921,-0.81644 -3.190516,-1.90728 -4.429796,-3.2725 -1.226116,-1.3786 -2.201724,-3.01151 -2.926834,-4.89872 -0.725119,-1.88721 -1.087674,-3.86811 -1.087674,-5.94272 0,-2.06119 0.362555,-4.0354 1.087674,-5.92264 0.72511,-1.88719 1.700718,-3.51341 2.926834,-4.87865 1.23928,-1.37857 2.715875,-2.4761 4.429796,-3.29258 1.71389,-0.81642 3.513491,-1.22466 5.398812,-1.22469 m 0,1.58607 c -1.648005,3e-5 -3.223484,0.36141 -4.726435,1.08414 -1.489798,0.72279 -2.78182,1.69317 -3.876066,2.91113 -1.094276,1.21801 -1.964419,2.67692 -2.61042,4.37673 -0.646021,1.69985 -0.969027,3.48668 -0.969017,5.36049 -1e-5,1.87384 0.322996,3.66067 0.969017,5.36049 0.646001,1.69984 1.516144,3.15875 2.61042,4.37672 1.094246,1.218 2.386268,2.18837 3.876066,2.91113 1.502951,0.70938 3.07843,1.06407 4.726435,1.06407 2.188511,0 4.21223,-0.60229 6.07119,-1.8069 1.87209,-1.21799 3.35528,-2.87766 4.44957,-4.97904 1.09423,-2.11473 1.64137,-4.42355 1.6414,-6.92647 -3e-5,-2.50288 -0.54717,-4.80501 -1.6414,-6.9064 -1.09429,-2.11472 -2.57748,-3.78109 -4.44957,-4.99911 -1.85896,-1.21796 -3.882679,-1.82695 -6.07119,-1.82698 m -8.89914,23.83108 0.177981,0 c 0.210929,10e-6 0.395503,0.0803 0.55372,0.24093 0.17138,0.16062 0.25708,0.348 0.25709,0.56214 -10e-6,0.13386 -0.03959,0.28109 -0.118658,0.44169 l -3.618986,6.38441 c -0.197766,0.32123 -0.448255,0.48184 -0.751476,0.48184 -0.210949,0 -0.402124,-0.087 -0.573504,-0.261 -0.158217,-0.16062 -0.237315,-0.348 -0.237315,-0.56215 0,-0.0803 0.02632,-0.18069 0.07908,-0.30115 0.05275,-0.12046 0.07908,-0.18738 0.07908,-0.20076 l 3.599212,-6.32418 c 0.07908,-0.16061 0.263671,-0.31453 0.553729,-0.46177 m 17.481867,0.0803 -0.0198,0 0.11866,0 c 0.35593,1e-5 0.58666,0.14055 0.69215,0.42162 l 3.61899,6.36432 c 0.11862,0.174 0.17795,0.33461 0.17798,0.48184 -3e-5,0.22754 -0.0858,0.42162 -0.25708,0.58223 -0.15825,0.16061 -0.34282,0.24091 -0.55373,0.24091 -0.35599,0 -0.60649,-0.16061 -0.75149,-0.48184 l -3.61898,-6.36432 c -0.0792,-0.13383 -0.11868,-0.27437 -0.11865,-0.42161 -3e-5,-0.20076 0.0659,-0.38146 0.19776,-0.54207 0.13181,-0.16061 0.3032,-0.2543 0.51417,-0.28108" />
  </g>
</svg>
