<?xml version="1.0" encoding="UTF-8" standalone="no"?>
<!-- Created with Inkscape (http://www.inkscape.org/) -->

<svg
   xmlns:dc="http://purl.org/dc/elements/1.1/"
   xmlns:cc="http://creativecommons.org/ns#"
   xmlns:rdf="http://www.w3.org/1999/02/22-rdf-syntax-ns#"
   xmlns:svg="http://www.w3.org/2000/svg"
   xmlns="http://www.w3.org/2000/svg"
   xmlns:sodipodi="http://sodipodi.sourceforge.net/DTD/sodipodi-0.dtd"
   xmlns:inkscape="http://www.inkscape.org/namespaces/inkscape"
   width="21.14031"
   height="37.7043"
   id="svg2"
   version="1.1"
   inkscape:version="0.48.4 r9939"
   sodipodi:docname="jan.svg">
  <defs
     id="defs4" />
  <sodipodi:namedview
     id="base"
     pagecolor="#ffffff"
     bordercolor="#666666"
     borderopacity="1.0"
     inkscape:pageopacity="0.0"
     inkscape:pageshadow="2"
     inkscape:zoom="1.0798773"
     inkscape:cx="118.84446"
     inkscape:cy="-219.10642"
     inkscape:document-units="px"
     inkscape:current-layer="layer1"
     showgrid="false"
     inkscape:window-width="1596"
     inkscape:window-height="861"
     inkscape:window-x="0"
     inkscape:window-y="18"
     inkscape:window-maximized="0"
     fit-margin-top="0"
     fit-margin-left="0"
     fit-margin-right="0"
     fit-margin-bottom="0" />
  <metadata
     id="metadata7">
    <rdf:RDF>
      <cc:Work
         rdf:about="">
        <dc:format>image/svg+xml</dc:format>
        <dc:type
           rdf:resource="http://purl.org/dc/dcmitype/StillImage" />
        <dc:title></dc:title>
      </cc:Work>
    </rdf:RDF>
  </metadata>
  <g
     inkscape:label="Layer 1"
     inkscape:groupmode="layer"
     id="layer1"
     transform="translate(-127.37654,-654.98316)">
    <path
       style="font-size:40px;font-style:normal;font-weight:normal;line-height:125%;letter-spacing:0px;word-spacing:0px;fill:#000000;fill-opacity:1;stroke:none;font-family:Sans"
       inkscape:connector-curvature="0"
       id="path3092"
       d="m 137.62028,674.69863 -0.0197,0 c 0.0132,10e-6 0.0395,10e-6 0.0791,0 0.0395,-0.0134 0.0659,-0.02 0.0791,-0.02 0.26365,10e-6 0.49437,0.13385 0.69215,0.40153 l 9.94726,16.34246 c 0.0791,0.18739 0.11863,0.33462 0.11866,0.4417 -3e-5,0.22753 -0.0792,0.4216 -0.23731,0.58221 -0.14506,0.16062 -0.33622,0.24092 -0.57351,0.24093 l -19.26169,0 c -0.21096,-10e-6 -0.39553,-0.087 -0.55373,-0.261 -0.15822,-0.16062 -0.23732,-0.348 -0.23731,-0.56214 -1e-5,-0.1874 0.0396,-0.32124 0.11865,-0.40154 l 9.27489,-16.3224 c 0.10545,-0.22751 0.29662,-0.37474 0.5735,-0.44168 m 0.17799,2.40921 -7.93013,13.93325 16.39419,0 -8.46406,-13.93325 m -0.21754,-6.50487 0,0.0201 c 0.0263,-0.0267 0.0856,-0.0401 0.17799,-0.0402 0.2241,2e-5 0.41526,0.0871 0.57349,0.261 0.15819,0.16063 0.2373,0.34801 0.23732,0.56214 l 0,0.02 0,4.09566 0,0.02 c -2e-5,0.21417 -0.0791,0.40824 -0.23732,0.58223 -0.15823,0.16062 -0.34939,0.24092 -0.57349,0.24091 -0.21097,10e-6 -0.40214,-0.0803 -0.57351,-0.24091 -0.15822,-0.17399 -0.23732,-0.36806 -0.23731,-0.58223 l 0,-0.02 0,-4.07558 0,-0.0402 c -1e-5,-0.18736 0.0593,-0.35467 0.17799,-0.50192 0.11863,-0.14721 0.27024,-0.2476 0.45484,-0.30115 m 0.25709,-11.16266 c 1.79298,3e-5 3.3355,0.61571 4.62755,1.84705 1.292,1.23141 1.93801,2.71709 1.93804,4.45704 -3e-5,1.75339 -0.64604,3.24576 -1.93804,4.47711 -1.27886,1.23139 -2.82138,1.84708 -4.62755,1.84706 -1.80622,2e-5 -3.35533,-0.61567 -4.64733,-1.84706 -1.27886,-1.23135 -1.91828,-2.72372 -1.91826,-4.47711 -2e-5,-1.73995 0.6394,-3.22563 1.91826,-4.45704 1.292,-1.23134 2.84111,-1.84702 4.64733,-1.84705 m 3.50032,3.0115 c -0.96244,-0.9235 -2.12921,-1.38526 -3.50032,-1.38529 -1.37115,3e-5 -2.53793,0.46179 -3.50033,1.38529 -0.96245,0.92356 -1.44366,2.02109 -1.44364,3.29259 -2e-5,1.28493 0.4746,2.38915 1.42386,3.31267 0.96241,0.91016 2.13578,1.36523 3.52011,1.36521 1.38429,2e-5 2.55106,-0.45505 3.50032,-1.36521 0.96241,-0.92352 1.44362,-2.02774 1.44364,-3.31267 -2e-5,-1.2715 -0.48123,-2.36903 -1.44364,-3.29259 m 2.43244,2.30883 0.0396,0 0.0593,0 3.65853,0 0.0198,0 c 0.2241,2e-5 0.41526,0.0803 0.5735,0.24092 0.15818,0.14726 0.23728,0.34133 0.23732,0.58223 -4e-5,0.21418 -0.0792,0.40825 -0.23732,0.58223 -0.15824,0.16063 -0.3494,0.24093 -0.5735,0.24091 l -0.0198,0 -3.65853,0 -0.0593,0 c -0.21097,2e-5 -0.40213,-0.0803 -0.5735,-0.24091 -0.15823,-0.17398 -0.23734,-0.36805 -0.23731,-0.58223 -3e-5,-0.22751 0.0725,-0.42159 0.21753,-0.58223 0.15819,-0.16059 0.34276,-0.2409 0.55373,-0.24092 m -6.11075,-9.77737 c 0.22411,3e-5 0.41528,0.0871 0.57351,0.261 0.15819,0.16065 0.23728,0.34803 0.2373,0.56214 l 0,0.0201 0,4.25627 c -2e-5,0.24095 -0.0791,0.44171 -0.2373,0.6023 -0.14505,0.14726 -0.33621,0.22088 -0.57351,0.22085 -0.21096,3e-5 -0.40212,-0.0803 -0.5735,-0.24093 -0.15823,-0.16058 -0.23733,-0.35465 -0.23731,-0.58222 l 0,-4.2362 0,-0.0402 c -2e-5,-0.21412 0.0791,-0.4015 0.23731,-0.56214 0.17138,-0.17397 0.36254,-0.26097 0.5735,-0.261 m -9.51219,9.95806 0.0396,0 0.0396,0 3.83653,0 0.0197,0 c 0.21093,2e-5 0.3955,0.0803 0.55372,0.24091 0.17138,0.16065 0.25707,0.35472 0.25709,0.58223 -2e-5,0.21418 -0.0858,0.40826 -0.25709,0.58223 -0.15822,0.16064 -0.34279,0.24095 -0.55372,0.24092 l -0.0197,0 -3.83653,0 -0.0396,0 c -0.22413,3e-5 -0.4153,-0.0803 -0.5735,-0.24092 -0.15821,-0.17397 -0.23732,-0.36805 -0.23731,-0.58223 -1e-5,-0.22751 0.0725,-0.42158 0.21753,-0.58223 0.1582,-0.16058 0.34278,-0.24089 0.55373,-0.24091" />
  </g>
</svg>
