<?xml version="1.0" encoding="UTF-8" standalone="no"?>
<!-- Created with Inkscape (http://www.inkscape.org/) -->

<svg
   xmlns:dc="http://purl.org/dc/elements/1.1/"
   xmlns:cc="http://creativecommons.org/ns#"
   xmlns:rdf="http://www.w3.org/1999/02/22-rdf-syntax-ns#"
   xmlns:svg="http://www.w3.org/2000/svg"
   xmlns="http://www.w3.org/2000/svg"
   xmlns:sodipodi="http://sodipodi.sourceforge.net/DTD/sodipodi-0.dtd"
   xmlns:inkscape="http://www.inkscape.org/namespaces/inkscape"
   width="20.366034"
   height="29.114559"
   id="svg2"
   version="1.1"
   inkscape:version="0.48.4 r9939"
   sodipodi:docname="jelo.svg">
  <defs
     id="defs4" />
  <sodipodi:namedview
     id="base"
     pagecolor="#ffffff"
     bordercolor="#666666"
     borderopacity="1.0"
     inkscape:pageopacity="0.0"
     inkscape:pageshadow="2"
     inkscape:zoom="1.0798773"
     inkscape:cx="135.77468"
     inkscape:cy="-232.08849"
     inkscape:document-units="px"
     inkscape:current-layer="layer1"
     showgrid="false"
     inkscape:window-width="1596"
     inkscape:window-height="861"
     inkscape:window-x="0"
     inkscape:window-y="18"
     inkscape:window-maximized="0"
     fit-margin-top="0"
     fit-margin-left="0"
     fit-margin-right="0"
     fit-margin-bottom="0" />
  <metadata
     id="metadata7">
    <rdf:RDF>
      <cc:Work
         rdf:about="">
        <dc:format>image/svg+xml</dc:format>
        <dc:type
           rdf:resource="http://purl.org/dc/dcmitype/StillImage" />
        <dc:title></dc:title>
      </cc:Work>
    </rdf:RDF>
  </metadata>
  <g
     inkscape:label="Layer 1"
     inkscape:groupmode="layer"
     id="layer1"
     transform="translate(-168.27601,-659.29977)">
    <path
       style="font-size:40px;font-style:normal;font-weight:normal;line-height:125%;letter-spacing:0px;word-spacing:0px;fill:#000000;fill-opacity:1;stroke:none;font-family:Sans"
       inkscape:connector-curvature="0"
       id="path3094"
       d="m 178.69477,659.29977 c 1.30518,3e-5 2.43241,0.44842 3.38168,1.34514 0.96239,0.8834 1.43042,1.94747 1.40409,3.1922 0.0263,1.25817 -0.43511,2.32893 -1.38432,3.21228 -0.94926,0.8834 -2.08308,1.32508 -3.40145,1.32506 -1.33159,2e-5 -2.46541,-0.43497 -3.40145,-1.30498 -0.93608,-0.88335 -1.41729,-1.96081 -1.44364,-3.23236 0.0263,-1.27149 0.50756,-2.34226 1.44364,-3.21228 0.94922,-0.88334 2.08304,-1.32503 3.40145,-1.32506 m -0.0198,1.64629 c -0.88333,3e-5 -1.64141,0.2878 -2.27422,0.8633 -0.63285,0.57557 -0.93608,1.25148 -0.90969,2.02775 -0.0264,0.78971 0.27684,1.47233 0.90969,2.04783 0.63281,0.56218 1.39089,0.84324 2.27422,0.84322 0.92286,2e-5 1.68094,-0.27435 2.27423,-0.82314 0.60644,-0.56213 0.92285,-1.25142 0.94925,-2.06791 -0.0264,-0.80304 -0.34281,-1.48564 -0.94925,-2.04783 -0.59329,-0.56211 -1.35137,-0.84319 -2.27423,-0.84322 m 1.00858,5.68172 c 0.2241,3e-5 0.40867,0.0803 0.55372,0.24092 0.15818,0.16064 0.25048,0.35471 0.27686,0.58223 -0.0264,0.24094 -0.11868,0.4417 -0.27686,0.60229 -0.14505,0.14726 -0.32962,0.22088 -0.55372,0.22086 -1.3316,2e-5 -2.51156,0.11379 -3.53989,0.3413 -1.02836,0.22755 -1.88531,0.55547 -2.57086,0.98376 -0.6724,0.41494 -1.21953,0.85662 -1.64139,1.32506 -0.4219,0.45509 -0.79106,0.98378 -1.10745,1.58606 -0.71195,1.57939 -1.00859,3.50675 -0.88992,5.7821 -0.0132,1.21801 0.21752,2.35569 0.69215,3.41305 0.47461,1.05739 1.10744,1.94076 1.89848,2.65013 0.79103,0.696 1.68094,1.25815 2.66975,1.68644 0.98878,0.41493 2.00394,0.64916 3.04548,0.70269 2.21488,0.16062 4.15291,-0.49522 5.81411,-1.96752 1.66115,-1.5526 2.61039,-3.7075 2.84773,-6.46471 l -10.04614,0.14054 -0.0396,0 c -0.21096,10e-6 -0.40213,-0.087 -0.5735,-0.261 -0.17141,-0.17398 -0.24391,-0.36137 -0.21754,-0.56215 -0.0263,-0.20075 0.0462,-0.38813 0.21754,-0.56215 0.17137,-0.17398 0.35595,-0.26098 0.55372,-0.26099 l 11.03494,-0.16062 -0.0197,0 c 0.47459,10e-6 0.75145,0.2744 0.83058,0.82315 -3e-5,0.0134 -3e-5,0.0267 0,0.0402 -3e-5,0.0134 -0.007,0.02 -0.0197,0.02 -0.14506,3.64059 -1.29865,6.46471 -3.46078,8.47238 -1.9908,1.76675 -4.33093,2.56313 -7.02043,2.38913 -1.23931,-0.0669 -2.44563,-0.35468 -3.61899,-0.86329 -1.17338,-0.50861 -2.2215,-1.18452 -3.14436,-2.02776 -0.92289,-0.8566 -1.66778,-1.90728 -2.23468,-3.15205 -0.55373,-1.25813 -0.83059,-2.60996 -0.83058,-4.0555 -0.15822,-2.44934 0.19775,-4.62432 1.06789,-6.52494 1.79301,-3.42641 5.22741,-5.13961 10.30324,-5.13964" />
  </g>
</svg>
