<?xml version="1.0" encoding="UTF-8" standalone="no"?>
<!-- Created with Inkscape (http://www.inkscape.org/) -->

<svg
   xmlns:dc="http://purl.org/dc/elements/1.1/"
   xmlns:cc="http://creativecommons.org/ns#"
   xmlns:rdf="http://www.w3.org/1999/02/22-rdf-syntax-ns#"
   xmlns:svg="http://www.w3.org/2000/svg"
   xmlns="http://www.w3.org/2000/svg"
   xmlns:sodipodi="http://sodipodi.sourceforge.net/DTD/sodipodi-0.dtd"
   xmlns:inkscape="http://www.inkscape.org/namespaces/inkscape"
   width="23.711281"
   height="26.989763"
   id="svg2"
   version="1.1"
   inkscape:version="0.48.4 r9939"
   sodipodi:docname="kala.svg">
  <defs
     id="defs4" />
  <sodipodi:namedview
     id="base"
     pagecolor="#ffffff"
     bordercolor="#666666"
     borderopacity="1.0"
     inkscape:pageopacity="0.0"
     inkscape:pageshadow="2"
     inkscape:zoom="1.0798773"
     inkscape:cx="-20.004571"
     inkscape:cy="-163.42841"
     inkscape:document-units="px"
     inkscape:current-layer="layer1"
     showgrid="false"
     inkscape:window-width="1596"
     inkscape:window-height="861"
     inkscape:window-x="0"
     inkscape:window-y="18"
     inkscape:window-maximized="0"
     fit-margin-top="0"
     fit-margin-left="0"
     fit-margin-right="0"
     fit-margin-bottom="0" />
  <metadata
     id="metadata7">
    <rdf:RDF>
      <cc:Work
         rdf:about="">
        <dc:format>image/svg+xml</dc:format>
        <dc:type
           rdf:resource="http://purl.org/dc/dcmitype/StillImage" />
        <dc:title></dc:title>
      </cc:Work>
    </rdf:RDF>
  </metadata>
  <g
     inkscape:label="Layer 1"
     inkscape:groupmode="layer"
     id="layer1"
     transform="translate(-247.63356,-660.33713)">
    <path
       style="font-size:40px;font-style:normal;font-weight:normal;line-height:125%;letter-spacing:0px;word-spacing:0px;fill:#000000;fill-opacity:1;stroke:none;font-family:Sans"
       inkscape:connector-curvature="0"
       id="path3098"
       d="m 248.36517,672.3898 0.0396,0 0.0396,0 22.08966,0 c 0.21091,2e-5 0.39548,0.0871 0.55372,0.261 0.17136,0.16064 0.25706,0.34802 0.25709,0.56215 -3e-5,1.90062 -0.30986,3.7209 -0.92947,5.46087 -0.61968,1.72661 -1.45685,3.22567 -2.51154,4.49719 -1.05473,1.27154 -2.32039,2.28206 -3.79697,3.03159 -1.46343,0.74953 -3.00595,1.1243 -4.62755,1.12429 -2.17537,10e-6 -4.17272,-0.63575 -5.99209,-1.90729 -1.81939,-1.27152 -3.24985,-2.98472 -4.29136,-5.13964 -1.04153,-2.16828 -1.56231,-4.52394 -1.5623,-7.06701 -10e-6,-0.21413 0.0659,-0.39482 0.19776,-0.54207 0.14501,-0.1606 0.32301,-0.25429 0.53395,-0.28108 m 0.94925,1.6463 c 0.11863,2.16829 0.646,4.14251 1.58207,5.92263 0.93604,1.78015 2.15555,3.17883 3.65853,4.19605 1.51614,1.01721 3.15753,1.52583 4.92419,1.52582 1.75344,10e-6 3.38165,-0.50861 4.88464,-1.52582 1.51613,-1.01722 2.74223,-2.4159 3.67831,-4.19605 0.94922,-1.79351 1.48317,-3.76772 1.60185,-5.92263 l -20.32959,0 m 10.26368,-13.67227 0.0197,0 c 0.0395,-0.0267 0.0659,-0.0334 0.0791,-0.02 0.21093,3e-5 0.3955,0.0871 0.55373,0.261 0.17137,0.16064 0.25706,0.34803 0.25708,0.56214 l 0,0.02 0,5.7821 c -2e-5,0.22755 -0.0857,0.42162 -0.25708,0.58222 -0.15823,0.16063 -0.3428,0.24094 -0.55373,0.24092 -0.23733,2e-5 -0.43508,-0.0736 -0.59328,-0.22085 -0.14503,-0.16058 -0.21755,-0.36136 -0.21753,-0.60229 l 0,-5.7821 0,-0.02 c -2e-5,-0.20073 0.0659,-0.37473 0.19776,-0.52199 0.13182,-0.16058 0.30321,-0.25427 0.51418,-0.28108 m -9.17601,1.58607 c 0.0132,3e-5 0.0462,3e-5 0.0988,0 0.0528,-0.0134 0.0857,-0.02 0.0989,-0.02 0.36913,3e-5 0.60645,0.14726 0.71192,0.44169 l 3.38168,5.92264 c 0.10546,0.17402 0.15819,0.34133 0.15821,0.50192 -2e-5,0.21417 -0.0858,0.40825 -0.25709,0.58223 -0.15822,0.16063 -0.3428,0.24094 -0.55372,0.24091 -0.32962,3e-5 -0.5801,-0.16728 -0.75148,-0.50191 l -3.38169,-5.92264 c -0.0791,-0.13382 -0.11865,-0.28105 -0.11864,-0.44169 -1e-5,-0.4015 0.20433,-0.66919 0.61305,-0.80307 m 18.23335,-0.0201 0.0593,0 c 0.21092,3e-5 0.39549,0.0803 0.55373,0.24093 0.17136,0.16063 0.25705,0.35472 0.25708,0.58222 -3e-5,0.18741 -0.0396,0.32126 -0.11865,0.40154 l -3.57944,6.36432 c -0.19778,0.32125 -0.44827,0.48186 -0.75148,0.48184 -0.21097,2e-5 -0.40214,-0.0803 -0.5735,-0.24092 -0.15824,-0.17397 -0.23733,-0.36805 -0.23731,-0.58223 -2e-5,-0.16059 0.0528,-0.32789 0.1582,-0.50191 l 3.59921,-6.32417 c 0.13182,-0.28105 0.34275,-0.42159 0.63283,-0.42162" />
  </g>
</svg>
