<?xml version="1.0" encoding="UTF-8" standalone="no"?>
<!-- Created with Inkscape (http://www.inkscape.org/) -->

<svg
   xmlns:dc="http://purl.org/dc/elements/1.1/"
   xmlns:cc="http://creativecommons.org/ns#"
   xmlns:rdf="http://www.w3.org/1999/02/22-rdf-syntax-ns#"
   xmlns:svg="http://www.w3.org/2000/svg"
   xmlns="http://www.w3.org/2000/svg"
   xmlns:sodipodi="http://sodipodi.sourceforge.net/DTD/sodipodi-0.dtd"
   xmlns:inkscape="http://www.inkscape.org/namespaces/inkscape"
   width="28.18054"
   height="24.39323"
   id="svg2"
   version="1.1"
   inkscape:version="0.48.4 r9939"
   sodipodi:docname="kalama.svg">
  <defs
     id="defs4" />
  <sodipodi:namedview
     id="base"
     pagecolor="#ffffff"
     bordercolor="#666666"
     borderopacity="1.0"
     inkscape:pageopacity="0.0"
     inkscape:pageshadow="2"
     inkscape:zoom="0.81111857"
     inkscape:cx="-132.3754"
     inkscape:cy="-173.69111"
     inkscape:document-units="px"
     inkscape:current-layer="layer1"
     showgrid="false"
     inkscape:window-width="1596"
     inkscape:window-height="861"
     inkscape:window-x="0"
     inkscape:window-y="18"
     inkscape:window-maximized="0"
     fit-margin-top="0"
     fit-margin-left="0"
     fit-margin-right="0"
     fit-margin-bottom="0" />
  <metadata
     id="metadata7">
    <rdf:RDF>
      <cc:Work
         rdf:about="">
        <dc:format>image/svg+xml</dc:format>
        <dc:type
           rdf:resource="http://purl.org/dc/dcmitype/StillImage" />
        <dc:title></dc:title>
      </cc:Work>
    </rdf:RDF>
  </metadata>
  <g
     inkscape:label="Layer 1"
     inkscape:groupmode="layer"
     id="layer1"
     transform="translate(-285.88016,-661.68891)">
    <path
       style="font-size:40px;font-style:normal;font-weight:normal;line-height:125%;letter-spacing:0px;word-spacing:0px;fill:#000000;fill-opacity:1;stroke:none;font-family:Sans"
       inkscape:connector-curvature="0"
       id="path3100"
       d="m 301.24586,661.68891 -0.0197,0 0.15821,0 c 0.30321,2e-5 0.53392,0.13386 0.69215,0.40152 l 11.86552,19.49452 c 0.0791,0.16062 0.11863,0.30116 0.11866,0.42161 -3e-5,0.29447 -0.15824,0.54208 -0.47462,0.74284 l -6.62492,3.17213 c -0.10549,0.10708 -0.2637,0.16061 -0.47462,0.16061 -0.21097,0 -0.40213,-0.0803 -0.5735,-0.24092 -0.15823,-0.174 -0.23734,-0.36807 -0.23731,-0.58223 -3e-5,-0.18737 0.0593,-0.35468 0.17798,-0.50192 0.11863,-0.14722 0.25706,-0.24761 0.4153,-0.30115 l 5.79433,-2.79066 -10.50099,-17.26599 -7.4555,20.55858 c -0.17141,0.36137 -0.42849,0.54206 -0.77126,0.54206 l -6.62492,0 -0.0197,0 c -0.21095,0 -0.40211,-0.0803 -0.5735,-0.24092 -0.15821,-0.17399 -0.23732,-0.36806 -0.23731,-0.58222 -10e-6,-0.22753 0.0791,-0.42161 0.23731,-0.58223 0.17139,-0.1606 0.36255,-0.24092 0.5735,-0.24092 l 0.0197,0 6.07119,0 7.81147,-21.62265 c 0.11864,-0.29443 0.33617,-0.47512 0.65261,-0.54206" />
  </g>
</svg>
