<?xml version="1.0" encoding="UTF-8" standalone="no"?>
<!-- Created with Inkscape (http://www.inkscape.org/) -->

<svg
   xmlns:dc="http://purl.org/dc/elements/1.1/"
   xmlns:cc="http://creativecommons.org/ns#"
   xmlns:rdf="http://www.w3.org/1999/02/22-rdf-syntax-ns#"
   xmlns:svg="http://www.w3.org/2000/svg"
   xmlns="http://www.w3.org/2000/svg"
   xmlns:sodipodi="http://sodipodi.sourceforge.net/DTD/sodipodi-0.dtd"
   xmlns:inkscape="http://www.inkscape.org/namespaces/inkscape"
   width="36.042168"
   height="29.743879"
   id="svg2"
   version="1.1"
   inkscape:version="0.48.4 r9939"
   sodipodi:docname="kama.svg">
  <defs
     id="defs4" />
  <sodipodi:namedview
     id="base"
     pagecolor="#ffffff"
     bordercolor="#666666"
     borderopacity="1.0"
     inkscape:pageopacity="0.0"
     inkscape:pageshadow="2"
     inkscape:zoom="0.81111857"
     inkscape:cx="-168.816"
     inkscape:cy="-235.28909"
     inkscape:document-units="px"
     inkscape:current-layer="layer1"
     showgrid="false"
     inkscape:window-width="1596"
     inkscape:window-height="861"
     inkscape:window-x="0"
     inkscape:window-y="18"
     inkscape:window-maximized="0"
     fit-margin-top="0"
     fit-margin-left="0"
     fit-margin-right="0"
     fit-margin-bottom="0" />
  <metadata
     id="metadata7">
    <rdf:RDF>
      <cc:Work
         rdf:about="">
        <dc:format>image/svg+xml</dc:format>
        <dc:type
           rdf:resource="http://purl.org/dc/dcmitype/StillImage" />
        <dc:title></dc:title>
      </cc:Work>
    </rdf:RDF>
  </metadata>
  <g
     inkscape:label="Layer 1"
     inkscape:groupmode="layer"
     id="layer1"
     transform="translate(-322.46538,-658.96831)">
    <path
       style="font-size:40px;font-style:normal;font-weight:normal;line-height:125%;letter-spacing:0px;word-spacing:0px;fill:#000000;fill-opacity:1;stroke:none;font-family:Sans"
       inkscape:connector-curvature="0"
       id="path3102"
       d="m 351.06128,659.07892 c 2.28078,-0.3078 4.12654,0.0268 5.53725,1.00385 0.64597,0.44171 1.13377,1.00386 1.46341,1.68644 0.34275,0.68263 0.48776,1.39202 0.43507,2.12813 -0.0792,1.56602 -0.87017,2.97807 -2.37311,4.2362 -1.503,1.24478 -3.53332,2.02107 -6.09097,2.32889 -3.08506,0.3614 -6.08439,0.0536 -8.99802,-0.92352 1.23927,4.48382 1.68752,10.61391 1.34476,18.39029 -0.0264,0.22754 -0.11868,0.41492 -0.27686,0.56215 -0.14505,0.14723 -0.32303,0.22084 -0.53395,0.22084 -0.23733,0 -0.43509,-0.0736 -0.59328,-0.22084 -0.14504,-0.16061 -0.21755,-0.36138 -0.21753,-0.6023 l 0,-0.0402 c 0.35595,-8.08423 -0.11868,-14.26117 -1.42386,-18.53084 -2e-5,-0.0401 -0.0264,-0.087 -0.0791,-0.14054 -0.32962,0.40156 -0.75149,0.80309 -1.26565,1.20461 -1.41069,1.04401 -3.2169,1.49239 -5.41859,1.34514 -2.97958,-0.30783 -5.36587,-1.03058 -7.15886,-2.16828 -1.85894,-1.17783 -2.83455,-2.50289 -2.92684,-3.9752 -0.0791,-0.76289 0.0791,-1.49235 0.47462,-2.18837 0.40871,-0.69596 1.00857,-1.2715 1.79961,-1.72659 1.6348,-0.96366 3.92221,-1.41873 6.86223,-1.36522 2.30717,0.0535 4.26497,0.87001 5.87343,2.44935 0.88331,0.89679 1.6282,2.0144 2.23467,3.35282 0.0395,-0.0401 0.0857,-0.0936 0.13844,-0.16061 0.0659,-0.0669 0.11863,-0.12043 0.1582,-0.16062 0.48779,-0.64242 0.92945,-1.19788 1.32498,-1.66636 0.3955,-0.46844 0.93604,-1.00382 1.62163,-1.60614 0.68554,-0.60227 1.38428,-1.10419 2.09624,-1.50576 0.71191,-0.41489 1.58863,-0.79635 2.6302,-1.14438 1.04149,-0.36134 2.16212,-0.62234 3.36189,-0.78299 m 0.19776,1.6463 c -1.10748,0.14725 -2.13582,0.38149 -3.08503,0.70268 -0.93609,0.30788 -1.71394,0.6358 -2.33356,0.98376 -0.61967,0.33464 -1.23931,0.78303 -1.85893,1.34515 -0.60649,0.56217 -1.08111,1.04402 -1.42387,1.44552 -0.3428,0.40155 -0.76469,0.93025 -1.26565,1.58606 -0.0659,0.0669 -0.29007,0.34802 -0.67238,0.84323 2.99272,1.19123 6.06458,1.59277 9.21556,1.2046 2.22805,-0.26766 3.94196,-0.89674 5.14173,-1.88722 1.21288,-1.0038 1.84571,-2.04111 1.89848,-3.11189 0.0659,-1.03058 -0.32964,-1.82696 -1.18656,-2.38913 -1.01519,-0.72273 -2.49179,-0.96365 -4.42979,-0.72276 m -19.67699,1.22468 c -2.64998,-0.0536 -4.65393,0.32125 -6.01187,1.12429 -1.05471,0.64249 -1.54911,1.41879 -1.48319,2.32891 0.11865,1.01724 0.83717,1.94077 2.15557,2.77059 1.60843,1.01724 3.77059,1.653 6.48649,1.90729 1.793,0.14725 3.23663,-0.20075 4.33091,-1.044 0.55371,-0.40151 1.06788,-0.89004 1.54252,-1.4656 -0.7515,-1.6998 -1.50298,-2.91109 -2.25445,-3.63388 -1.31841,-1.27151 -2.90707,-1.93404 -4.76598,-1.9876" />
  </g>
</svg>
