<?xml version="1.0" encoding="UTF-8" standalone="no"?>
<!-- Created with Inkscape (http://www.inkscape.org/) -->

<svg
   xmlns:dc="http://purl.org/dc/elements/1.1/"
   xmlns:cc="http://creativecommons.org/ns#"
   xmlns:rdf="http://www.w3.org/1999/02/22-rdf-syntax-ns#"
   xmlns:svg="http://www.w3.org/2000/svg"
   xmlns="http://www.w3.org/2000/svg"
   xmlns:sodipodi="http://sodipodi.sourceforge.net/DTD/sodipodi-0.dtd"
   xmlns:inkscape="http://www.inkscape.org/namespaces/inkscape"
   width="19.973579"
   height="38.205952"
   id="svg2"
   version="1.1"
   inkscape:version="0.48.4 r9939"
   sodipodi:docname="kasi.svg">
  <defs
     id="defs4" />
  <sodipodi:namedview
     id="base"
     pagecolor="#ffffff"
     bordercolor="#666666"
     borderopacity="1.0"
     inkscape:pageopacity="0.0"
     inkscape:pageshadow="2"
     inkscape:zoom="0.81111857"
     inkscape:cx="-250.06825"
     inkscape:cy="-180.46012"
     inkscape:document-units="px"
     inkscape:current-layer="layer1"
     showgrid="false"
     inkscape:window-width="1596"
     inkscape:window-height="861"
     inkscape:window-x="0"
     inkscape:window-y="18"
     inkscape:window-maximized="0"
     fit-margin-top="0"
     fit-margin-left="0"
     fit-margin-right="0"
     fit-margin-bottom="0" />
  <metadata
     id="metadata7">
    <rdf:RDF>
      <cc:Work
         rdf:about="">
        <dc:format>image/svg+xml</dc:format>
        <dc:type
           rdf:resource="http://purl.org/dc/dcmitype/StillImage" />
        <dc:title></dc:title>
      </cc:Work>
    </rdf:RDF>
  </metadata>
  <g
     inkscape:label="Layer 1"
     inkscape:groupmode="layer"
     id="layer1"
     transform="translate(-370.97561,-654.74243)">
    <path
       style="font-size:40px;font-style:normal;font-weight:normal;line-height:125%;letter-spacing:0px;word-spacing:0px;fill:#000000;fill-opacity:1;stroke:none;font-family:Sans"
       inkscape:connector-curvature="0"
       id="path3104"
       d="m 371.70729,654.76243 -0.0197,0 c 0.0263,3e-5 0.0462,3e-5 0.0593,0 0.0132,-0.0134 0.0329,-0.02 0.0593,-0.02 0.22411,4e-5 0.41528,0.0871 0.57351,0.261 0.17138,0.16064 0.24388,0.34803 0.21753,0.56215 -1e-5,0.0134 0.007,0.0201 0.0197,0.02 l -0.0197,36.53966 0.0197,0 c -0.0659,0.54876 -0.34279,0.82314 -0.83058,0.82314 -0.21096,0 -0.40213,-0.0803 -0.57351,-0.24092 -0.1714,-0.16061 -0.2439,-0.35469 -0.21753,-0.58222 l -0.0197,0 0.0197,-36.53966 c -0.0132,3e-5 -0.0197,-0.006 -0.0197,-0.02 0.0659,-0.48181 0.30981,-0.7495 0.7317,-0.80307 m 18.17403,0.18069 -0.0197,0 c 0.0132,3e-5 0.0329,3e-5 0.0593,0 0.0263,-0.0134 0.0461,-0.02 0.0593,-0.02 0.22409,3e-5 0.41527,0.0871 0.57349,0.26099 0.17137,0.16065 0.24388,0.34804 0.21755,0.56215 0.0132,0.0135 0.0197,0.0201 0.0197,0.02 l 0,0.02 c -0.0528,4.34999 -0.77129,7.87011 -2.15557,10.56037 -1.37116,2.67691 -3.17735,4.66451 -5.41859,5.96279 -1.59527,0.93693 -3.38169,1.55931 -5.35926,1.86713 1.26563,0.38817 1.97098,0.61571 2.11602,0.68262 0.90966,0.36138 1.77981,0.78969 2.61041,1.28491 0.83056,0.49523 1.66774,1.09754 2.51154,1.8069 0.84375,0.696 1.60841,1.50576 2.29399,2.42929 0.68554,0.91015 1.2986,1.92068 1.83916,3.03158 0.54052,1.09753 0.95581,2.36237 1.24589,3.79451 0.3032,1.41876 0.4614,2.93789 0.47462,4.55742 l -0.0197,0.02 c 0.0263,0.21415 -0.0528,0.40153 -0.23731,0.56216 -0.17142,0.1606 -0.356,0.24091 -0.55372,0.24091 -0.23735,0 -0.42851,-0.0736 -0.57351,-0.22084 -0.14505,-0.14723 -0.23074,-0.34131 -0.25708,-0.58223 l 0.0197,-0.02 c -3e-5,-7.48193 -3.32238,-12.60818 -9.96704,-15.37879 -1.55573,-0.65582 -3.56627,-1.17782 -6.03164,-1.56599 -0.1846,-0.0134 -0.38235,-0.0267 -0.59328,-0.0402 -0.19778,-0.0267 -0.35598,-0.0469 -0.47462,-0.0602 -0.10549,-0.0134 -0.19777,-0.02 -0.27687,-0.02 l -0.0197,0 -0.0791,0 -0.0197,0 -0.0396,0 c -0.0132,0.0134 -0.0462,0.007 -0.0989,-0.02 l -0.0197,0 c -0.0132,10e-6 -0.0989,-0.18737 -0.25708,-0.56216 -0.15822,-0.38813 -0.24392,-0.58221 -0.25709,-0.58223 l 0.13843,-0.10032 c 0.0922,-0.0803 0.18456,-0.1539 0.27687,-0.22085 0.10545,-0.0803 0.16478,-0.12714 0.17798,-0.14053 0.0528,10e-6 0.0791,-0.007 0.0791,-0.02 l 0.0989,0 0.0791,0 c 0.0396,3e-5 0.0922,3e-5 0.1582,0 0.0791,-0.0134 0.17138,-0.02 0.27687,-0.02 0.0263,2e-5 0.32299,-0.0134 0.88992,-0.0402 0.56689,-0.0267 0.93604,-0.0401 1.10745,-0.0402 0.18456,-0.0134 0.56689,-0.0469 1.14699,-0.10043 0.58008,-0.0536 1.02174,-0.10706 1.32498,-0.16062 0.31641,-0.0535 0.75148,-0.13382 1.30522,-0.24091 0.56689,-0.12044 1.0481,-0.2476 1.44364,-0.38147 0.39549,-0.13382 0.83715,-0.30113 1.32498,-0.50191 0.50096,-0.21413 0.9624,-0.44837 1.38431,-0.70269 4.42977,-2.58318 6.68421,-7.61575 6.76335,-15.0977 -3e-5,-0.0134 -0.007,-0.0201 -0.0197,-0.0201 0.0659,-0.48181 0.30979,-0.7495 0.7317,-0.80307" />
  </g>
</svg>
