<?xml version="1.0" encoding="UTF-8" standalone="no"?>
<!-- Created with Inkscape (http://www.inkscape.org/) -->

<svg
   xmlns:dc="http://purl.org/dc/elements/1.1/"
   xmlns:cc="http://creativecommons.org/ns#"
   xmlns:rdf="http://www.w3.org/1999/02/22-rdf-syntax-ns#"
   xmlns:svg="http://www.w3.org/2000/svg"
   xmlns="http://www.w3.org/2000/svg"
   xmlns:sodipodi="http://sodipodi.sourceforge.net/DTD/sodipodi-0.dtd"
   xmlns:inkscape="http://www.inkscape.org/namespaces/inkscape"
   width="35.179127"
   height="33.089878"
   id="svg2"
   version="1.1"
   inkscape:version="0.48.4 r9939"
   sodipodi:docname="kepeken.svg">
  <defs
     id="defs4" />
  <sodipodi:namedview
     id="base"
     pagecolor="#ffffff"
     bordercolor="#666666"
     borderopacity="1.0"
     inkscape:pageopacity="0.0"
     inkscape:pageshadow="2"
     inkscape:zoom="0.81111857"
     inkscape:cx="-232.26186"
     inkscape:cy="-95.234149"
     inkscape:document-units="px"
     inkscape:current-layer="layer1"
     showgrid="false"
     inkscape:window-width="1596"
     inkscape:window-height="861"
     inkscape:window-x="0"
     inkscape:window-y="18"
     inkscape:window-maximized="0"
     fit-margin-top="0"
     fit-margin-left="0"
     fit-margin-right="0"
     fit-margin-bottom="0" />
  <metadata
     id="metadata7">
    <rdf:RDF>
      <cc:Work
         rdf:about="">
        <dc:format>image/svg+xml</dc:format>
        <dc:type
           rdf:resource="http://purl.org/dc/dcmitype/StillImage" />
        <dc:title></dc:title>
      </cc:Work>
    </rdf:RDF>
  </metadata>
  <g
     inkscape:label="Layer 1"
     inkscape:groupmode="layer"
     id="layer1"
     transform="translate(-444.39301,-657.27209)">
    <path
       style="font-size:40px;font-style:normal;font-weight:normal;line-height:125%;letter-spacing:0px;word-spacing:0px;fill:#000000;fill-opacity:1;stroke:none;font-family:Sans"
       inkscape:connector-curvature="0"
       id="path3108"
       d="m 462.18191,657.29209 c 0.0132,4e-5 0.0197,-0.006 0.0197,-0.02 0.2373,0.0268 0.42846,0.1138 0.57351,0.261 0.15818,0.14726 0.23728,0.34133 0.2373,0.58222 l 0,0.02 0,5.56125 c 0.50098,-0.52196 0.88331,-0.86996 1.14701,-1.04398 2.30716,-1.43211 4.87802,-1.65965 7.71258,-0.68262 1.23926,0.38819 2.34012,0.97041 3.30258,1.74668 0.97557,0.76295 1.76002,1.64632 2.35333,2.65013 0.60642,1.00386 1.07445,2.06793 1.40408,3.19221 0.34275,1.12431 0.5471,2.28876 0.61306,3.49334 0.1318,2.44938 -0.21757,4.80506 -1.04813,7.06701 -0.81743,2.24861 -2.00399,4.05551 -3.55965,5.42072 -2.00399,1.71322 -4.14637,2.97137 -6.42716,3.77444 -2.28085,0.80307 -4.52211,1.14437 -6.72379,1.02391 -2.20174,-0.12047 -4.35071,-0.58223 -6.44694,-1.3853 -2.08307,-0.81645 -4.04088,-1.95413 -5.87343,-3.41305 -1.77984,-1.37859 -3.09164,-3.1788 -3.9354,-5.40063 -0.8306,-2.22182 -1.20634,-4.54402 -1.12723,-6.96664 0.11865,-2.38242 0.63283,-4.54401 1.54252,-6.48478 0.92287,-1.94073 2.18852,-3.37956 3.79697,-4.3165 2.76861,-1.5258 5.76795,-1.53919 8.99801,-0.0402 0.69874,0.30786 1.58206,0.83656 2.64997,1.58606 l 0,-5.76202 0,-0.0602 c -2e-5,-0.21412 0.0791,-0.4015 0.23732,-0.56214 0.15819,-0.16059 0.34276,-0.24089 0.55372,-0.24093 m -7.67304,5.56126 0,0.02 c -1.30522,-0.10705 -2.6302,0.20748 -3.97495,0.9436 -1.29203,0.74956 -2.34674,1.98763 -3.16413,3.7142 -0.81742,1.71324 -1.26567,3.61383 -1.34477,5.7018 -0.0791,2.1683 0.25708,4.24958 1.00857,6.24386 0.75148,1.9943 1.89848,3.58035 3.441,4.75819 1.72708,1.35184 3.54646,2.4092 5.45815,3.17212 1.91164,0.76292 3.86945,1.2046 5.87343,1.32507 2.01711,0.12046 4.06721,-0.18739 6.1503,-0.92354 2.09621,-0.74952 4.0738,-1.92735 5.93275,-3.5335 1.31836,-1.13767 2.34671,-2.73043 3.08505,-4.77826 0.73826,-2.04782 1.05467,-4.16257 0.94924,-6.34425 -0.0792,-1.47228 -0.34941,-2.83081 -0.81081,-4.07558 -0.4483,-1.24474 -1.16022,-2.36903 -2.1358,-3.37289 -0.97564,-1.00381 -2.16879,-1.72657 -3.57944,-2.16829 -2.35994,-0.78966 -4.48914,-0.62235 -6.3876,0.50191 -0.39554,0.28111 -0.75151,0.58225 -1.0679,0.90346 -0.31643,0.30787 -0.54056,0.54879 -0.67238,0.72276 -0.11868,0.17403 -0.178,0.28111 -0.17798,0.32123 -0.22415,0.32126 -0.46146,0.4551 -0.71194,0.40154 -0.0132,0.0134 -0.0396,0.02 -0.0791,0.02 -0.0396,-0.0134 -0.0659,-0.0134 -0.0791,0 l 0,-0.02 c -2e-5,0.0134 -2e-5,0.02 0,0.02 l -0.0197,0 -0.0197,0 c -2e-5,2e-5 -2e-5,-0.006 0,-0.02 -2e-5,0.0134 -2e-5,0.02 0,0.02 l -0.0197,0 c -0.0264,-0.0134 -0.0725,-0.0267 -0.13843,-0.0402 -0.0528,-0.0134 -0.0989,-0.0267 -0.13843,-0.0402 -0.0396,-0.0134 -0.0858,-0.0334 -0.13843,-0.0602 -0.0396,-0.0267 -0.0725,-0.0602 -0.0989,-0.10032 l -0.41529,-0.36139 c -0.27688,-0.2409 -0.71854,-0.56213 -1.32498,-0.96369 -0.5933,-0.40151 -1.20634,-0.73612 -1.83916,-1.00383 -0.83061,-0.46843 -2.01715,-0.79635 -3.55965,-0.98376" />
  </g>
</svg>
