<?xml version="1.0" encoding="UTF-8" standalone="no"?>
<!-- Created with Inkscape (http://www.inkscape.org/) -->

<svg
   xmlns:dc="http://purl.org/dc/elements/1.1/"
   xmlns:cc="http://creativecommons.org/ns#"
   xmlns:rdf="http://www.w3.org/1999/02/22-rdf-syntax-ns#"
   xmlns:svg="http://www.w3.org/2000/svg"
   xmlns="http://www.w3.org/2000/svg"
   xmlns:sodipodi="http://sodipodi.sourceforge.net/DTD/sodipodi-0.dtd"
   xmlns:inkscape="http://www.inkscape.org/namespaces/inkscape"
   width="33.243092"
   height="30.866198"
   id="svg2"
   version="1.1"
   inkscape:version="0.48.4 r9939"
   sodipodi:docname="kili.svg">
  <defs
     id="defs4" />
  <sodipodi:namedview
     id="base"
     pagecolor="#ffffff"
     bordercolor="#666666"
     borderopacity="1.0"
     inkscape:pageopacity="0.0"
     inkscape:pageshadow="2"
     inkscape:zoom="0.81111857"
     inkscape:cx="-317.4342"
     inkscape:cy="-99.52998"
     inkscape:document-units="px"
     inkscape:current-layer="layer1"
     showgrid="false"
     inkscape:window-width="1596"
     inkscape:window-height="861"
     inkscape:window-x="0"
     inkscape:window-y="18"
     inkscape:window-maximized="0"
     fit-margin-top="0"
     fit-margin-left="0"
     fit-margin-right="0"
     fit-margin-bottom="0" />
  <metadata
     id="metadata7">
    <rdf:RDF>
      <cc:Work
         rdf:about="">
        <dc:format>image/svg+xml</dc:format>
        <dc:type
           rdf:resource="http://purl.org/dc/dcmitype/StillImage" />
        <dc:title></dc:title>
      </cc:Work>
    </rdf:RDF>
  </metadata>
  <g
     inkscape:label="Layer 1"
     inkscape:groupmode="layer"
     id="layer1"
     transform="translate(-485.85358,-658.43633)">
    <path
       style="font-size:40px;font-style:normal;font-weight:normal;line-height:125%;letter-spacing:0px;word-spacing:0px;fill:#000000;fill-opacity:1;stroke:none;font-family:Sans"
       inkscape:connector-curvature="0"
       id="path3110"
       d="m 495.54381,658.43647 0,0.02 0.0197,0 c 0.0263,3e-5 0.0462,-0.006 0.0593,-0.02 l 0.0197,0 c 0.0263,4e-5 0.0462,0.007 0.0593,0.02 l 14.69348,0.10033 c 0.31638,0.0669 0.50096,0.15395 0.55372,0.261 l 7.91035,7.99054 c 0.15817,0.20079 0.23727,0.40155 0.23731,0.6023 -4e-5,0.21418 -0.0527,0.37479 -0.1582,0.48184 l -15.54384,21.10066 c -0.0132,0 -0.0725,0.0402 -0.17798,0.12045 -0.0923,0.0803 -0.17801,0.13385 -0.25709,0.16061 -0.0659,0.0267 -0.13845,0.0335 -0.21753,0.0201 -0.1846,0.0402 -0.40213,-0.0669 -0.65261,-0.32123 L 486.05134,668.9164 c -0.13184,-0.13383 -0.19776,-0.30113 -0.19776,-0.50192 0,-0.0803 0.0791,-0.28106 0.23731,-0.6023 l 8.97825,-9.0747 c 0.0791,-0.14719 0.23729,-0.24757 0.47462,-0.30115 m 0.47462,1.6463 0,0.02 -8.24654,8.35192 14.93078,18.67136 14.53527,-19.65512 -7.15887,-7.2477 -14.06064,-0.14054" />
  </g>
</svg>
