<?xml version="1.0" encoding="UTF-8" standalone="no"?>
<!-- Created with Inkscape (http://www.inkscape.org/) -->

<svg
   xmlns:dc="http://purl.org/dc/elements/1.1/"
   xmlns:cc="http://creativecommons.org/ns#"
   xmlns:rdf="http://www.w3.org/1999/02/22-rdf-syntax-ns#"
   xmlns:svg="http://www.w3.org/2000/svg"
   xmlns="http://www.w3.org/2000/svg"
   xmlns:sodipodi="http://sodipodi.sourceforge.net/DTD/sodipodi-0.dtd"
   xmlns:inkscape="http://www.inkscape.org/namespaces/inkscape"
   width="35.797955"
   height="38.153221"
   id="svg2"
   version="1.1"
   inkscape:version="0.48.4 r9939"
   sodipodi:docname="kiwen.svg">
  <defs
     id="defs4" />
  <sodipodi:namedview
     id="base"
     pagecolor="#ffffff"
     bordercolor="#666666"
     borderopacity="1.0"
     inkscape:pageopacity="0.0"
     inkscape:pageshadow="2"
     inkscape:zoom="0.81111857"
     inkscape:cx="-351.84487"
     inkscape:cy="-103.89647"
     inkscape:document-units="px"
     inkscape:current-layer="layer1"
     showgrid="false"
     inkscape:window-width="1596"
     inkscape:window-height="861"
     inkscape:window-x="0"
     inkscape:window-y="18"
     inkscape:window-maximized="0"
     fit-margin-top="0"
     fit-margin-left="0"
     fit-margin-right="0"
     fit-margin-bottom="0" />
  <metadata
     id="metadata7">
    <rdf:RDF>
      <cc:Work
         rdf:about="">
        <dc:format>image/svg+xml</dc:format>
        <dc:type
           rdf:resource="http://purl.org/dc/dcmitype/StillImage" />
        <dc:title></dc:title>
      </cc:Work>
    </rdf:RDF>
  </metadata>
  <g
     inkscape:label="Layer 1"
     inkscape:groupmode="layer"
     id="layer1"
     transform="translate(-525.09109,-654.77724)">
    <path
       style="font-size:40px;font-style:normal;font-weight:normal;line-height:125%;letter-spacing:0px;word-spacing:0px;fill:#000000;fill-opacity:1;stroke:none;font-family:Sans"
       inkscape:connector-curvature="0"
       id="path3112"
       d="m 539.64401,654.86281 c 0.56689,-0.12042 1.14697,-0.11373 1.74027,0.02 0.85693,0.20081 1.75344,0.71611 2.68952,1.54592 0.10545,0.0937 0.40868,0.3748 0.90969,0.84322 0.50097,0.4551 0.87671,0.77633 1.12723,0.96368 0.76464,0.46849 1.43042,0.66256 1.99736,0.58223 0.50096,-0.0669 0.9624,-0.20743 1.38431,-0.42162 0.42186,-0.2275 0.87011,-0.50857 1.34476,-0.84322 0.47459,-0.34796 0.8767,-0.60227 1.20633,-0.76291 0.87011,-0.46842 1.72706,-0.55543 2.57086,-0.261 0.94921,0.30788 2.05007,1.05071 3.30257,2.22851 1.50293,1.4991 2.20168,3.09185 2.09625,4.77827 -0.0659,1.08417 -0.57355,2.39584 -1.52275,3.93505 -0.85699,1.40539 -1.31843,2.31553 -1.38431,2.73043 -0.0396,0.24094 -0.007,0.47517 0.0989,0.70268 0.1318,0.22756 0.4614,0.48187 0.98879,0.76292 1.25244,0.6157 2.06985,1.96754 2.45222,4.0555 0.34274,1.88723 0.32296,3.77444 -0.0593,5.66164 -0.34282,2.07461 -0.98883,3.66736 -1.93803,4.77826 -0.58013,0.65584 -1.20636,1.05738 -1.87871,1.20461 -0.77788,0.174 -1.54255,0.02 -2.294,-0.46176 -0.9229,-0.56215 -1.79305,-0.85661 -2.61042,-0.88338 -0.80424,-0.0267 -1.52935,0.14724 -2.17534,0.52199 -0.63285,0.30785 -1.2525,0.74284 -1.85893,1.305 -0.60649,0.54876 -1.28546,1.23805 -2.03691,2.06789 -0.11868,0.13385 -0.29666,0.33462 -0.53396,0.60231 -0.23733,0.26769 -0.44827,0.49522 -0.63283,0.6826 -0.17141,0.18739 -0.3428,0.3547 -0.51417,0.50193 -0.5933,0.60229 -1.17997,0.99045 -1.76005,1.16445 -0.81742,0.18738 -1.50298,-0.0469 -2.05669,-0.70269 -0.43508,-0.48185 -0.85038,-1.38529 -1.24588,-2.71036 -0.30324,-1.04399 -0.6724,-1.82029 -1.10745,-2.3289 -0.43508,-0.52199 -0.95584,-0.89676 -1.5623,-1.1243 -0.87015,-0.29445 -2.15558,-0.3413 -3.85629,-0.14054 -0.10548,0.0134 -0.3296,0.0335 -0.67237,0.0602 -0.34279,0.0267 -0.58011,0.0469 -0.71194,0.0602 -0.11866,0 -0.32302,0 -0.61305,0 -0.29005,-0.0134 -0.52078,-0.0402 -0.69216,-0.0803 -0.15821,-0.0402 -0.34938,-0.10032 -0.5735,-0.18069 -0.21095,-0.0936 -0.40871,-0.20745 -0.59328,-0.3413 -0.56691,-0.40153 -0.9031,-1.05737 -1.00856,-1.96752 -0.0924,-0.74952 -0.007,-1.80689 0.25709,-3.17212 0.10546,-0.28107 0.12523,-0.66922 0.0593,-1.16445 -0.0527,-0.5086 -0.11866,-0.95029 -0.19776,-1.32506 -0.0659,-0.37476 -0.19776,-0.84321 -0.39552,-1.40538 -0.18457,-0.57551 -0.36255,-1.07074 -0.53394,-1.48567 -0.15821,-0.42829 -0.34939,-0.93691 -0.57351,-1.52584 -0.21094,-0.60229 -0.38892,-1.11759 -0.53394,-1.5459 -0.6592,-1.86043 -0.8174,-3.36618 -0.47462,-4.51728 0.19775,-0.73612 0.60646,-1.40534 1.2261,-2.00767 0.61964,-0.60227 1.43045,-1.07073 2.43243,-1.40537 1.45023,-0.50858 2.47857,-1.01719 3.08504,-1.52583 0.61964,-0.52197 1.14699,-1.17781 1.58207,-1.96753 0.0132,-0.0267 0.13182,-0.24757 0.35597,-0.66253 0.22411,-0.42826 0.37572,-0.70265 0.45484,-0.82314 0.0791,-0.13382 0.25048,-0.38143 0.51417,-0.74284 0.26366,-0.37474 0.50098,-0.66919 0.71193,-0.88338 0.22412,-0.21412 0.51416,-0.46842 0.87014,-0.76292 0.36914,-0.3078 0.76465,-0.58218 1.18655,-0.82314 0.69873,-0.44165 1.35134,-0.70934 1.95782,-0.80307 m 0.29664,1.58606 c -0.4351,0.1205 -0.91631,0.32795 -1.44364,0.62238 -0.44828,0.26773 -0.8372,0.53541 -1.16678,0.80307 -0.31643,0.25434 -0.59329,0.53541 -0.83059,0.84322 -0.23732,0.30788 -0.4219,0.5555 -0.55373,0.74285 -0.13185,0.18741 -0.30324,0.47518 -0.51417,0.86329 -0.19776,0.38818 -0.34279,0.66256 -0.43507,0.82315 -0.47463,0.88341 -1.12064,1.67978 -1.93803,2.38913 -0.81741,0.69602 -2.01714,1.32509 -3.59921,1.88722 -0.83059,0.30786 -1.44364,0.64247 -1.83915,1.00383 -0.38234,0.34803 -0.64602,0.77632 -0.79104,1.28491 -0.23731,0.81648 -0.0922,1.99432 0.43507,3.53351 0.11865,0.34801 0.27027,0.76294 0.45484,1.24476 0.18457,0.46848 0.35596,0.90347 0.51418,1.30498 0.17138,0.40156 0.34936,0.84325 0.53394,1.32507 0.18458,0.46848 0.33619,0.92354 0.45485,1.36522 0.11865,0.4417 0.21753,0.89678 0.29664,1.36521 0.0922,0.46847 0.13842,0.93693 0.13843,1.40538 -10e-6,0.46847 -0.0462,0.91685 -0.13843,1.34514 -0.23732,1.1243 -0.32302,1.9943 -0.25709,2.60998 0.0396,0.348 0.1648,0.62907 0.37575,0.84322 0.30322,0.21416 1.2129,0.26769 2.72907,0.16061 1.92484,-0.22753 3.43439,-0.14722 4.52866,0.24092 1.77982,0.66923 3.01252,2.18168 3.6981,4.53735 0.23729,0.8566 0.54052,1.55929 0.90969,2.10806 0.13182,0.13384 0.21092,0.20076 0.23731,0.20076 0.0263,0.0134 0.0922,0.007 0.19775,-0.02 0.27685,-0.0803 0.63281,-0.34131 1.0679,-0.783 0.17137,-0.16061 0.70533,-0.73614 1.60185,-1.7266 0.51415,-0.57553 0.94263,-1.03729 1.28543,-1.38529 0.34276,-0.34799 0.8042,-0.75623 1.38431,-1.22468 0.58007,-0.46845 1.14698,-0.83653 1.70073,-1.10423 0.83055,-0.48183 1.81276,-0.69599 2.9466,-0.64245 1.14698,0.0402 2.2742,0.40154 3.38168,1.08415 0.43503,0.24092 0.81737,0.33461 1.147,0.28107 0.39548,-0.16061 0.71189,-0.39484 0.94924,-0.70269 0.73826,-0.88337 1.27222,-2.22182 1.60184,-4.01535 0.32957,-1.73996 0.35594,-3.41303 0.0791,-5.01918 -0.31645,-1.51243 -0.84381,-2.47612 -1.58207,-2.89105 -0.84381,-0.42829 -1.40412,-0.89674 -1.68095,-1.40537 -0.32963,-0.50859 -0.4351,-1.12428 -0.31642,-1.84706 0.0528,-0.28106 0.145,-0.58221 0.27687,-0.90346 0.1318,-0.3212 0.25046,-0.5755 0.35596,-0.76291 0.10544,-0.18737 0.27684,-0.46843 0.51417,-0.84323 0.23729,-0.37474 0.39548,-0.62904 0.47462,-0.76291 0.80419,-1.33842 1.22608,-2.40918 1.26566,-3.21228 0.11863,-1.21795 -0.41533,-2.36233 -1.60184,-3.43312 -0.96246,-0.97704 -1.8392,-1.59942 -2.63019,-1.86714 -0.51421,-0.14719 -0.97565,-0.10033 -1.38431,0.14054 -0.15824,0.0804 -0.48784,0.30118 -0.98879,0.66253 -0.48784,0.36142 -1.0152,0.68265 -1.58207,0.96368 -0.56695,0.28111 -1.19318,0.46849 -1.87871,0.56216 -1.13385,0.0937 -2.17537,-0.19405 -3.12459,-0.8633 -0.32962,-0.22751 -0.7581,-0.5822 -1.28543,-1.06407 -0.52738,-0.48181 -0.83061,-0.7562 -0.9097,-0.82315 -0.8306,-0.69596 -1.4898,-1.10419 -1.97758,-1.22468 -0.36917,-0.0669 -0.73173,-0.0736 -1.08767,-0.02" />
  </g>
</svg>
