<?xml version="1.0" encoding="UTF-8" standalone="no"?>
<!-- Created with Inkscape (http://www.inkscape.org/) -->

<svg
   xmlns:dc="http://purl.org/dc/elements/1.1/"
   xmlns:cc="http://creativecommons.org/ns#"
   xmlns:rdf="http://www.w3.org/1999/02/22-rdf-syntax-ns#"
   xmlns:svg="http://www.w3.org/2000/svg"
   xmlns="http://www.w3.org/2000/svg"
   xmlns:sodipodi="http://sodipodi.sourceforge.net/DTD/sodipodi-0.dtd"
   xmlns:inkscape="http://www.inkscape.org/namespaces/inkscape"
   width="23.267637"
   height="36.800709"
   id="svg2"
   version="1.1"
   inkscape:version="0.48.4 r9939"
   sodipodi:docname="ko.svg">
  <defs
     id="defs4" />
  <sodipodi:namedview
     id="base"
     pagecolor="#ffffff"
     bordercolor="#666666"
     borderopacity="1.0"
     inkscape:pageopacity="0.0"
     inkscape:pageshadow="2"
     inkscape:zoom="0.81111857"
     inkscape:cx="-439.18825"
     inkscape:cy="-211.27561"
     inkscape:document-units="px"
     inkscape:current-layer="layer1"
     showgrid="false"
     inkscape:window-width="1596"
     inkscape:window-height="861"
     inkscape:window-x="0"
     inkscape:window-y="18"
     inkscape:window-maximized="0"
     fit-margin-top="0"
     fit-margin-left="0"
     fit-margin-right="0"
     fit-margin-bottom="0" />
  <metadata
     id="metadata7">
    <rdf:RDF>
      <cc:Work
         rdf:about="">
        <dc:format>image/svg+xml</dc:format>
        <dc:type
           rdf:resource="http://purl.org/dc/dcmitype/StillImage" />
        <dc:title></dc:title>
      </cc:Work>
    </rdf:RDF>
  </metadata>
  <g
     inkscape:label="Layer 1"
     inkscape:groupmode="layer"
     id="layer1"
     transform="translate(-571.85948,-655.44494)">
    <path
       style="font-size:40px;font-style:normal;font-weight:normal;line-height:125%;letter-spacing:0px;word-spacing:0px;fill:#000000;fill-opacity:1;stroke:none;font-family:Sans"
       inkscape:connector-curvature="0"
       id="path3114"
       d="m 578.87934,655.48519 -0.0197,0.02 c 0.0263,-0.0267 0.0659,-0.0401 0.11865,-0.0402 0.0527,3e-5 0.0857,-0.006 0.0989,-0.02 0.22411,0.0268 0.41527,0.12049 0.5735,0.28107 0.15819,0.14727 0.2373,0.33465 0.23731,0.56215 -1e-5,0.32126 -0.10549,0.52872 -0.31642,0.62238 -1.75347,1.68648 -3.10482,3.1253 -4.05405,4.3165 -0.94925,1.17786 -1.56889,2.34231 -1.85893,3.49335 -0.32961,1.25817 -0.23733,2.56315 0.27686,3.91496 0.51416,1.33847 1.57546,2.80407 3.18392,4.3968 1.75344,1.78016 2.94659,3.47329 3.57942,5.07942 0.63282,1.59277 0.78444,3.17883 0.45485,4.75819 -0.29006,1.35184 -0.87015,2.70367 -1.74028,4.0555 -0.85697,1.33845 -2.08965,3.00482 -3.69808,4.99911 -0.10548,0.13385 -0.31642,0.24092 -0.63283,0.32123 -0.54055,-0.0669 -0.81082,-0.348 -0.81081,-0.84322 -10e-6,-0.21416 0.0593,-0.38147 0.17798,-0.50192 1.55569,-1.96753 2.73565,-3.58035 3.53988,-4.8385 0.80421,-1.25814 1.32497,-2.44935 1.5623,-3.57366 0.27684,-1.29828 0.15159,-2.59658 -0.37574,-3.89488 -0.51419,-1.29829 -1.5755,-2.76389 -3.18392,-4.39681 -3.41464,-3.46656 -4.71326,-6.76584 -3.89585,-9.89783 0.36914,-1.39196 1.08108,-2.76387 2.13579,-4.11574 1.06789,-1.36518 2.4588,-2.83078 4.17272,-4.3968 0.0922,-0.16058 0.25048,-0.26096 0.47462,-0.30115 m 13.78378,0 0,0.02 c 0.0132,-0.0267 0.0461,-0.0401 0.0989,-0.0402 0.0659,3e-5 0.10543,-0.006 0.11864,-0.02 0.22411,0.0268 0.41527,0.12049 0.57351,0.28107 0.15817,0.14726 0.23727,0.33465 0.2373,0.56215 -3e-5,0.29449 -0.10549,0.50194 -0.31641,0.62238 -1.75348,1.68648 -3.10484,3.1253 -4.05405,4.3165 -0.94927,1.17786 -1.56891,2.34231 -1.85893,3.49335 -0.69878,2.58323 0.45482,5.35382 3.46078,8.31176 1.74024,1.79354 2.93339,3.49337 3.57943,5.0995 0.64598,1.59276 0.791,3.17214 0.43506,4.73811 -0.19778,0.9503 -0.59329,1.96752 -1.18654,3.05167 -0.58013,1.08414 -1.16681,2.02105 -1.76005,2.81074 -0.58013,0.78968 -1.41071,1.85375 -2.49177,3.1922 -0.10549,0.13384 -0.31644,0.24091 -0.63283,0.32123 -0.22415,-0.0267 -0.41531,-0.11378 -0.5735,-0.26101 -0.15823,-0.14723 -0.23734,-0.3413 -0.2373,-0.58221 -4e-5,-0.21416 0.0593,-0.38147 0.17798,-0.50192 1.56885,-1.98091 2.75541,-3.59374 3.55965,-4.8385 0.8042,-1.25814 1.32496,-2.44935 1.56229,-3.57366 0.27684,-1.29829 0.15159,-2.59658 -0.37573,-3.89489 -0.5142,-1.31166 -1.5821,-2.77726 -3.20369,-4.3968 -1.74031,-1.80689 -2.92027,-3.51341 -3.53989,-5.11957 -0.60648,-1.60612 -0.71854,-3.19887 -0.33619,-4.77826 0.36913,-1.39196 1.08106,-2.76387 2.1358,-4.11574 1.06787,-1.36518 2.45878,-2.83078 4.17271,-4.3968 0.0791,-0.12042 0.23069,-0.22081 0.45484,-0.30115" />
  </g>
</svg>
