<?xml version="1.0" encoding="UTF-8" standalone="no"?>
<!-- Created with Inkscape (http://www.inkscape.org/) -->

<svg
   xmlns:dc="http://purl.org/dc/elements/1.1/"
   xmlns:cc="http://creativecommons.org/ns#"
   xmlns:rdf="http://www.w3.org/1999/02/22-rdf-syntax-ns#"
   xmlns:svg="http://www.w3.org/2000/svg"
   xmlns="http://www.w3.org/2000/svg"
   xmlns:sodipodi="http://sodipodi.sourceforge.net/DTD/sodipodi-0.dtd"
   xmlns:inkscape="http://www.inkscape.org/namespaces/inkscape"
   width="29.643965"
   height="31.982241"
   id="svg2"
   version="1.1"
   inkscape:version="0.48.4 r9939"
   sodipodi:docname="kon.svg">
  <defs
     id="defs4" />
  <sodipodi:namedview
     id="base"
     pagecolor="#ffffff"
     bordercolor="#666666"
     borderopacity="1.0"
     inkscape:pageopacity="0.0"
     inkscape:pageshadow="2"
     inkscape:zoom="1.0385859"
     inkscape:cx="255.61731"
     inkscape:cy="-93.571358"
     inkscape:document-units="px"
     inkscape:current-layer="layer1"
     showgrid="false"
     inkscape:window-width="1596"
     inkscape:window-height="861"
     inkscape:window-x="0"
     inkscape:window-y="18"
     inkscape:window-maximized="0"
     fit-margin-top="0"
     fit-margin-left="0"
     fit-margin-right="0"
     fit-margin-bottom="0" />
  <metadata
     id="metadata7">
    <rdf:RDF>
      <cc:Work
         rdf:about="">
        <dc:format>image/svg+xml</dc:format>
        <dc:type
           rdf:resource="http://purl.org/dc/dcmitype/StillImage" />
        <dc:title></dc:title>
      </cc:Work>
    </rdf:RDF>
  </metadata>
  <g
     inkscape:label="Layer 1"
     inkscape:groupmode="layer"
     id="layer1"
     transform="translate(-1.6216223,-709.25077)">
    <path
       style="font-size:40px;font-style:normal;font-weight:normal;line-height:125%;letter-spacing:0px;word-spacing:0px;fill:#000000;fill-opacity:1;stroke:none;font-family:Sans"
       inkscape:connector-curvature="0"
       id="path3116"
       d="m 15.959114,709.27077 c 0.01316,-0.0134 0.06592,-0.02 0.158207,-0.02 0.34276,3e-5 0.586657,0.16064 0.731701,0.48184 l 13.823341,30.33595 c -4e-5,0.0267 0.0061,0.0803 0.01975,0.16062 0.02632,0.0803 0.03949,0.14053 0.03959,0.18069 -3e-5,0.21414 -0.07918,0.40822 -0.237305,0.58221 -0.158248,0.16062 -0.342821,0.24093 -0.55373,0.24093 l -26.6974307,0 c -0.2109494,0 -0.3955226,-0.0803 -0.5537194,-0.24093 -0.1582171,-0.17399 -0.2373156,-0.36807 -0.2373156,-0.58221 0,-0.0402 0.00709,-0.0937 0.019744,-0.16062 0.026326,-0.0803 0.03959,-0.12715 0.03959,-0.14054 L 15.346071,709.77272 c 0.105454,-0.26765 0.309802,-0.43496 0.613053,-0.50192 m 0.177982,2.81074 -11.6479935,27.50514 24.1858945,0 -12.537901,-27.50514 m -13.7640081,11.72482 -0.019744,0 0.079078,0 0.079078,0 27.9235281,0 0.01974,0 c 0.210909,2e-5 0.395482,0.0871 0.553729,0.261 0.17136,0.16063 0.25705,0.34801 0.25708,0.56215 -3e-5,0.22755 -0.08576,0.42163 -0.25708,0.58222 -0.158247,0.16064 -0.34282,0.24094 -0.553729,0.24093 l -0.01974,0 -27.9235281,0 -0.079078,0 c -0.2109494,10e-6 -0.4021141,-0.0803 -0.573494,-0.24093 -0.1582171,-0.16059 -0.2373156,-0.35467 -0.2373156,-0.58222 0,-0.21414 0.072497,-0.39483 0.217541,-0.54208 0.1450137,-0.16059 0.3229953,-0.25429 0.5339447,-0.28107" />
  </g>
</svg>
