<?xml version="1.0" encoding="UTF-8" standalone="no"?>
<!-- Created with Inkscape (http://www.inkscape.org/) -->

<svg
   xmlns:dc="http://purl.org/dc/elements/1.1/"
   xmlns:cc="http://creativecommons.org/ns#"
   xmlns:rdf="http://www.w3.org/1999/02/22-rdf-syntax-ns#"
   xmlns:svg="http://www.w3.org/2000/svg"
   xmlns="http://www.w3.org/2000/svg"
   xmlns:sodipodi="http://sodipodi.sourceforge.net/DTD/sodipodi-0.dtd"
   xmlns:inkscape="http://www.inkscape.org/namespaces/inkscape"
   width="30.996544"
   height="30.496618"
   id="svg2"
   version="1.1"
   inkscape:version="0.48.4 r9939"
   sodipodi:docname="kule.svg">
  <defs
     id="defs4" />
  <sodipodi:namedview
     id="base"
     pagecolor="#ffffff"
     bordercolor="#666666"
     borderopacity="1.0"
     inkscape:pageopacity="0.0"
     inkscape:pageshadow="2"
     inkscape:zoom="1.0385859"
     inkscape:cx="178.52192"
     inkscape:cy="-140.64756"
     inkscape:document-units="px"
     inkscape:current-layer="layer1"
     showgrid="false"
     inkscape:window-width="1596"
     inkscape:window-height="861"
     inkscape:window-x="0"
     inkscape:window-y="18"
     inkscape:window-maximized="0"
     fit-margin-top="0"
     fit-margin-left="0"
     fit-margin-right="0"
     fit-margin-bottom="0" />
  <metadata
     id="metadata7">
    <rdf:RDF>
      <cc:Work
         rdf:about="">
        <dc:format>image/svg+xml</dc:format>
        <dc:type
           rdf:resource="http://purl.org/dc/dcmitype/StillImage" />
        <dc:title></dc:title>
      </cc:Work>
    </rdf:RDF>
  </metadata>
  <g
     inkscape:label="Layer 1"
     inkscape:groupmode="layer"
     id="layer1"
     transform="translate(-41.470016,-710.00628)">
    <path
       style="font-size:40px;font-style:normal;font-weight:normal;line-height:125%;letter-spacing:0px;word-spacing:0px;fill:#000000;fill-opacity:1;stroke:none;font-family:Sans"
       inkscape:connector-curvature="0"
       id="path3118"
       d="m 57.132479,710.01362 c 1.700707,0.1071 3.117969,0.82986 4.251814,2.16828 1.133785,1.33847 1.661148,2.91785 1.58207,4.73811 -0.07908,1.79354 -0.744915,3.31268 -1.997367,4.55742 -1.23931,1.24478 -2.702722,1.81362 -4.390247,1.70653 -1.621639,-0.0536 -3.005942,-0.72275 -4.15293,-2.00768 -1.133825,-1.29828 -1.700738,-2.81072 -1.700728,-4.53734 l 0,-0.10043 0,-0.0602 0,-0.10043 0,-0.0602 c 0.07908,-1.80689 0.744884,-3.32602 1.997367,-4.55743 1.252453,-1.24472 2.722456,-1.82695 4.410021,-1.74667 m -0.07908,1.64629 c -1.226117,-0.0803 -2.300608,0.34134 -3.223464,1.26484 -0.909703,0.92355 -1.404098,2.07462 -1.483186,3.45319 l 0,0.0803 0,0.02 0,0.0402 0,-0.02 0,0.0803 0,0.0402 c -2.1e-5,1.33847 0.415276,2.47615 1.245881,3.41304 0.843747,0.93694 1.865506,1.44555 3.065256,1.52583 1.23927,0.0536 2.313751,-0.37474 3.223464,-1.28491 0.922855,-0.9235 1.410659,-2.07457 1.463422,-3.4532 0.05275,-1.37857 -0.34281,-2.56979 -1.186557,-3.57365 -0.830605,-1.00382 -1.865547,-1.5325 -3.104816,-1.58607 m -9.176005,15.39886 c 1.700717,0.10709 3.111397,0.82985 4.232039,2.16829 1.133805,1.33846 1.661158,2.91782 1.58207,4.73811 -0.05275,1.78014 -0.711947,3.30597 -1.977582,4.57749 -1.265676,1.25815 -2.729089,1.8203 -4.390247,1.68645 -1.634812,-0.0535 -3.019126,-0.72276 -4.15293,-2.00768 -1.133826,-1.2849 -1.700728,-2.79735 -1.700728,-4.53734 l 0,-0.10042 0,-0.0602 0,-0.10043 0,-0.0602 c 0.07908,-1.82027 0.738292,-3.33942 1.977582,-4.55741 1.252473,-1.21799 2.729068,-1.8002 4.429796,-1.74668 m -0.07908,1.66637 c -1.2393,-0.0803 -2.320383,0.34131 -3.243249,1.26483 -0.922875,0.91016 -1.410679,2.05453 -1.463412,3.43312 l 0,0.0803 0,0.02 0,0.0402 0,-0.02 0,0.0803 0,0.0402 c 0,1.33845 0.415287,2.47613 1.245881,3.41304 0.830585,0.93692 1.852333,1.44552 3.065257,1.52584 1.226097,0.0536 2.293996,-0.37477 3.203699,-1.28491 0.922856,-0.92354 1.41066,-2.0746 1.463412,-3.45321 0.07908,-1.35182 -0.309832,-2.53635 -1.166773,-3.55358 -0.843787,-1.03059 -1.878719,-1.55929 -3.104815,-1.58606 m 18.846405,-1.42545 c 1.700698,0.10709 3.111377,0.82985 4.23204,2.16829 1.133784,1.33846 1.661138,2.91783 1.582069,4.7381 -0.05275,1.79353 -0.711966,3.31936 -1.977592,4.57751 -1.252503,1.24476 -2.715915,1.81359 -4.390236,1.70651 -1.634833,-0.0803 -3.019146,-0.75621 -4.152941,-2.02774 -1.133835,-1.28491 -1.700748,-2.79736 -1.700718,-4.53735 l 0,-0.10033 0,-0.0402 0,-0.10043 0,-0.0602 c 0.07908,-1.82028 0.738273,-3.33942 1.977583,-4.55742 1.252442,-1.23136 2.729047,-1.82028 4.429795,-1.76675 m -0.07908,1.66637 c -1.226137,-0.0803 -2.30722,0.34801 -3.243248,1.28491 -0.922896,0.92353 -1.4107,2.06791 -1.463412,3.43312 l 0,0.0602 0,0.0402 0,0.02 0,0.0803 0,0.02 c -3.1e-5,1.35184 0.415267,2.49621 1.245881,3.43313 0.830554,0.93691 1.852313,1.44552 3.065257,1.52583 1.239259,0.0267 2.307159,-0.40823 3.203688,-1.30499 0.909663,-0.89676 1.404058,-2.04782 1.483197,-3.4532 0.05275,-1.35182 -0.34282,-2.53635 -1.186557,-3.55359 -0.843798,-1.03059 -1.87874,-1.55927 -3.104806,-1.58605" />
  </g>
</svg>
