<?xml version="1.0" encoding="UTF-8" standalone="no"?>
<!-- Created with Inkscape (http://www.inkscape.org/) -->

<svg
   xmlns:dc="http://purl.org/dc/elements/1.1/"
   xmlns:cc="http://creativecommons.org/ns#"
   xmlns:rdf="http://www.w3.org/1999/02/22-rdf-syntax-ns#"
   xmlns:svg="http://www.w3.org/2000/svg"
   xmlns="http://www.w3.org/2000/svg"
   xmlns:sodipodi="http://sodipodi.sourceforge.net/DTD/sodipodi-0.dtd"
   xmlns:inkscape="http://www.inkscape.org/namespaces/inkscape"
   width="16.997902"
   height="35.782059"
   id="svg2"
   version="1.1"
   inkscape:version="0.48.4 r9939"
   sodipodi:docname="kute.svg">
  <defs
     id="defs4" />
  <sodipodi:namedview
     id="base"
     pagecolor="#ffffff"
     bordercolor="#666666"
     borderopacity="1.0"
     inkscape:pageopacity="0.0"
     inkscape:pageshadow="2"
     inkscape:zoom="0.98994949"
     inkscape:cx="129.72355"
     inkscape:cy="181.34317"
     inkscape:document-units="px"
     inkscape:current-layer="layer1"
     showgrid="false"
     inkscape:window-width="1596"
     inkscape:window-height="861"
     inkscape:window-x="0"
     inkscape:window-y="18"
     inkscape:window-maximized="0"
     fit-margin-top="0"
     fit-margin-left="0"
     fit-margin-right="0"
     fit-margin-bottom="0" />
  <metadata
     id="metadata7">
    <rdf:RDF>
      <cc:Work
         rdf:about="">
        <dc:format>image/svg+xml</dc:format>
        <dc:type
           rdf:resource="http://purl.org/dc/dcmitype/StillImage" />
        <dc:title />
      </cc:Work>
    </rdf:RDF>
  </metadata>
  <g
     inkscape:label="Layer 1"
     inkscape:groupmode="layer"
     id="layer1"
     transform="translate(-120.79323,-132.68045)">
    <path
       style="font-size:40px;font-style:normal;font-weight:normal;line-height:125%;letter-spacing:0px;word-spacing:0px;fill:#000000;fill-opacity:1;stroke:none;font-family:Sans"
       inkscape:connector-curvature="0"
       id="path3120"
       d="m 130.57838,132.70079 c 0.83331,-0.0651 1.62758,0.0261 2.38281,0.27344 1.69269,0.59899 2.92967,1.82295 3.71094,3.67187 1.83591,4.10159 1.41273,9.34247 -1.26953,15.72266 -1.13284,2.69532 -2.59768,5.40366 -4.39453,8.125 -1.79689,2.72136 -3.76304,5.27344 -5.89844,7.65625 -0.15626,0.20833 -0.37111,0.3125 -0.64453,0.3125 -0.20835,0 -0.39715,-0.0781 -0.56641,-0.23437 -0.15626,-0.15626 -0.23438,-0.34506 -0.23437,-0.56641 -1e-5,-0.20833 0.0911,-0.40365 0.27344,-0.58594 4.388,-4.90885 7.72133,-10.01952 10,-15.33203 2.47393,-5.91144 2.89711,-10.72914 1.26953,-14.45312 -0.66409,-1.48435 -1.58206,-2.42185 -2.75391,-2.8125 -1.09377,-0.35153 -2.32424,-0.25388 -3.6914,0.29296 -1.32815,0.52087 -2.60419,1.38675 -3.82813,2.59766 -1.21095,1.21097 -2.07032,2.48701 -2.57812,3.82813 -0.1172,0.33856 -0.3646,0.50783 -0.74219,0.50781 -0.22137,2e-5 -0.41668,-0.0781 -0.58594,-0.23438 -0.15626,-0.15622 -0.23439,-0.34502 -0.23437,-0.5664 -2e-5,-0.039 0.007,-0.0911 0.0195,-0.15625 0.026,-0.0651 0.0391,-0.11716 0.0391,-0.15625 0.62499,-1.5755 1.60806,-3.03383 2.94922,-4.375 1.35415,-1.34112 2.81248,-2.31117 4.375,-2.91016 0.87237,-0.35153 1.67316,-0.55335 2.40234,-0.60547 m -1.34765,13.51563 0.0391,0 c 0.20831,2e-5 0.3906,0.0847 0.54687,0.2539 0.16925,0.15627 0.25389,0.33856 0.25391,0.54688 -2e-5,0.11721 -0.0391,0.25392 -0.11719,0.41015 l -3.65234,7.05079 c -0.11721,0.31251 -0.35809,0.46876 -0.72266,0.46875 -0.20835,1e-5 -0.39715,-0.0781 -0.5664,-0.23438 -0.15627,-0.16926 -0.23439,-0.35806 -0.23438,-0.56641 -10e-6,-0.13019 0.0325,-0.2604 0.0977,-0.39062 l 3.67187,-7.07031 c 0.15623,-0.2604 0.3841,-0.41665 0.6836,-0.46875" />
  </g>
</svg>
