<?xml version="1.0" encoding="UTF-8" standalone="no"?>
<!-- Created with Inkscape (http://www.inkscape.org/) -->

<svg
   xmlns:dc="http://purl.org/dc/elements/1.1/"
   xmlns:cc="http://creativecommons.org/ns#"
   xmlns:rdf="http://www.w3.org/1999/02/22-rdf-syntax-ns#"
   xmlns:svg="http://www.w3.org/2000/svg"
   xmlns="http://www.w3.org/2000/svg"
   xmlns:sodipodi="http://sodipodi.sourceforge.net/DTD/sodipodi-0.dtd"
   xmlns:inkscape="http://www.inkscape.org/namespaces/inkscape"
   width="32.461426"
   height="13.204853"
   id="svg2"
   version="1.1"
   inkscape:version="0.48.4 r9939"
   sodipodi:docname="la.svg">
  <defs
     id="defs4" />
  <sodipodi:namedview
     id="base"
     pagecolor="#ffffff"
     bordercolor="#666666"
     borderopacity="1.0"
     inkscape:pageopacity="0.0"
     inkscape:pageshadow="2"
     inkscape:zoom="0.98994949"
     inkscape:cx="52.243339"
     inkscape:cy="-107.80468"
     inkscape:document-units="px"
     inkscape:current-layer="layer1"
     showgrid="false"
     inkscape:window-width="1596"
     inkscape:window-height="861"
     inkscape:window-x="0"
     inkscape:window-y="18"
     inkscape:window-maximized="0"
     fit-margin-top="0"
     fit-margin-left="0"
     fit-margin-right="0"
     fit-margin-bottom="0" />
  <metadata
     id="metadata7">
    <rdf:RDF>
      <cc:Work
         rdf:about="">
        <dc:format>image/svg+xml</dc:format>
        <dc:type
           rdf:resource="http://purl.org/dc/dcmitype/StillImage" />
        <dc:title></dc:title>
      </cc:Work>
    </rdf:RDF>
  </metadata>
  <g
     inkscape:label="Layer 1"
     inkscape:groupmode="layer"
     id="layer1"
     transform="translate(-162.23557,-718.63954)">
    <path
       style="font-size:40px;font-style:normal;font-weight:normal;line-height:125%;letter-spacing:0px;word-spacing:0px;fill:#000000;fill-opacity:1;stroke:none;font-family:Sans"
       inkscape:connector-curvature="0"
       id="path3124"
       d="m 188.85957,718.64661 c 1.71387,0.1071 3.12455,0.82986 4.23203,2.16829 1.1206,1.32508 1.65455,2.89776 1.60185,4.71803 -0.10551,1.82031 -0.77129,3.34613 -1.99736,4.5775 -1.22614,1.23138 -2.68955,1.80691 -4.39025,1.72659 -1.63483,-0.0803 -3.02573,-0.75621 -4.1727,-2.02774 -1.13385,-1.2849 -1.68757,-2.79735 -1.66118,-4.53734 -0.0132,-0.0134 -0.0197,-0.0334 -0.0197,-0.0602 l 0,-0.02 c 0.0132,-0.0134 0.0197,-0.0334 0.0197,-0.0602 l 0,-0.0201 c -0.0132,-0.0134 -0.0197,-0.0334 -0.0197,-0.0602 l 0,-0.0201 c 0.0132,-0.0134 0.0197,-0.0334 0.0197,-0.0602 l 0,-0.02 c 0.0528,-1.79351 0.70531,-3.31264 1.95782,-4.55742 1.26562,-1.24473 2.74222,-1.82696 4.42979,-1.74668 m -0.0593,1.6463 c -1.2525,-0.0536 -2.33358,0.37478 -3.24324,1.28491 -0.90972,0.91016 -1.40412,2.06122 -1.4832,3.45319 0.0132,2e-5 0.0197,0.007 0.0197,0.02 l 0,0.02 0,0.0402 c -2e-5,0.0134 -0.007,0.02 -0.0197,0.02 0.0132,10e-6 0.0197,0.007 0.0197,0.02 l -0.0197,0 c 0.0132,10e-6 0.0197,0.007 0.0197,0.02 -2e-5,0.0134 -2e-5,0.0268 0,0.0402 l 0,0.02 c -2e-5,0.0134 -0.007,0.0201 -0.0197,0.02 0.0263,1.35185 0.44824,2.50291 1.26566,3.4532 0.83056,0.93693 1.85231,1.43216 3.06527,1.48568 1.21288,0.0536 2.28078,-0.38144 3.20369,-1.30499 0.93602,-0.92351 1.41724,-2.06119 1.44363,-3.41304 0.10544,-1.37859 -0.2703,-2.56311 -1.12722,-3.55358 -0.84381,-1.00383 -1.88533,-1.54589 -3.12459,-1.62622 m -25.78774,4.1358 0.0197,0 0.0593,0 19.49901,0 0.0396,0 c 0.21092,3e-5 0.40208,0.0803 0.5735,0.24093 0.17136,0.16063 0.24388,0.35471 0.21753,0.58222 0.0263,0.20079 -0.0528,0.38817 -0.2373,0.56215 -0.17142,0.17402 -0.356,0.26102 -0.55373,0.26101 l -0.0396,0 -19.49901,0 -0.0593,0 c -0.19775,10e-6 -0.38893,-0.087 -0.57349,-0.26101 -0.1714,-0.17398 -0.24391,-0.36136 -0.21754,-0.56215 -0.0263,-0.20074 0.0396,-0.38813 0.19777,-0.56214 0.17138,-0.17398 0.36254,-0.26098 0.57349,-0.26101" />
  </g>
</svg>
