<?xml version="1.0" encoding="UTF-8" standalone="no"?>
<!-- Created with Inkscape (http://www.inkscape.org/) -->

<svg
   xmlns:dc="http://purl.org/dc/elements/1.1/"
   xmlns:cc="http://creativecommons.org/ns#"
   xmlns:rdf="http://www.w3.org/1999/02/22-rdf-syntax-ns#"
   xmlns:svg="http://www.w3.org/2000/svg"
   xmlns="http://www.w3.org/2000/svg"
   xmlns:sodipodi="http://sodipodi.sourceforge.net/DTD/sodipodi-0.dtd"
   xmlns:inkscape="http://www.inkscape.org/namespaces/inkscape"
   width="20.883329"
   height="29.764164"
   id="svg2"
   version="1.1"
   inkscape:version="0.48.4 r9939"
   sodipodi:docname="laso.svg">
  <defs
     id="defs4" />
  <sodipodi:namedview
     id="base"
     pagecolor="#ffffff"
     bordercolor="#666666"
     borderopacity="1.0"
     inkscape:pageopacity="0.0"
     inkscape:pageshadow="2"
     inkscape:zoom="0.98994949"
     inkscape:cx="-94.109073"
     inkscape:cy="-4.9616268"
     inkscape:document-units="px"
     inkscape:current-layer="layer1"
     showgrid="false"
     inkscape:window-width="1596"
     inkscape:window-height="861"
     inkscape:window-x="0"
     inkscape:window-y="18"
     inkscape:window-maximized="0"
     fit-margin-top="0"
     fit-margin-left="0"
     fit-margin-right="0"
     fit-margin-bottom="0" />
  <metadata
     id="metadata7">
    <rdf:RDF>
      <cc:Work
         rdf:about="">
        <dc:format>image/svg+xml</dc:format>
        <dc:type
           rdf:resource="http://purl.org/dc/dcmitype/StillImage" />
        <dc:title />
      </cc:Work>
    </rdf:RDF>
  </metadata>
  <g
     inkscape:label="Layer 1"
     inkscape:groupmode="layer"
     id="layer1"
     transform="translate(-208.53665,-710.36463)">
    <path
       style="font-size:40px;font-style:normal;font-weight:normal;line-height:125%;letter-spacing:0px;word-spacing:0px;fill:#000000;fill-opacity:1;stroke:none;font-family:Sans"
       inkscape:connector-curvature="0"
       id="path3126"
       d="m 218.5827,722.11988 c 0.0132,0.0134 0.0263,0.0134 0.0396,0 l 0.0396,-0.02 c 0.30321,2e-5 0.53393,0.13387 0.69215,0.40153 l 9.94727,16.36254 c 0.0791,0.18739 0.11863,0.33462 0.11866,0.44169 -3e-5,0.21415 -0.0792,0.40824 -0.23732,0.58223 -0.15823,0.16062 -0.3494,0.24092 -0.57349,0.24092 l -19.26171,0 c -0.22413,0 -0.4153,-0.0803 -0.5735,-0.24092 -0.15821,-0.17399 -0.23732,-0.36808 -0.23731,-0.58223 -1e-5,-0.0402 0.0329,-0.18069 0.0989,-0.42161 l 9.31442,-16.34246 c 0.13183,-0.28106 0.34277,-0.42159 0.63283,-0.42161 m 0.0791,2.42928 -7.89057,13.93326 16.37442,0 -8.48385,-13.93326 m 4.07383,-14.13402 c 1.06787,-0.1472 1.98416,0.0268 2.74885,0.52199 0.34276,0.24096 0.60643,0.55549 0.79103,0.94361 0.18455,0.37479 0.26365,0.76295 0.23732,1.16444 -0.0528,0.82987 -0.44829,1.55264 -1.18656,2.1683 -0.73832,0.60232 -1.72052,0.98379 -2.94661,1.14437 -1.06791,0.13387 -2.22151,0.0469 -3.46077,-0.261 0.44823,2.02108 0.61962,4.52399 0.51417,7.5087 -0.0264,0.22755 -0.11209,0.41494 -0.25709,0.56216 -0.14504,0.14724 -0.32962,0.22086 -0.55372,0.22084 -0.23733,2e-5 -0.43509,-0.0803 -0.59328,-0.24092 -0.14504,-0.1606 -0.21755,-0.35468 -0.21753,-0.58223 l 0,-0.0402 c 0.10545,-3.05164 -0.0659,-5.48762 -0.51418,-7.30794 -0.71194,0.54879 -1.60844,0.77632 -2.68952,0.68261 -1.43705,-0.16059 -2.55109,-0.4952 -3.34212,-1.00384 -0.94925,-0.65581 -1.45024,-1.3585 -1.50296,-2.10805 -0.0528,-0.4149 0.0396,-0.81643 0.27686,-1.2046 0.2373,-0.40151 0.55371,-0.72274 0.94924,-0.96369 0.94923,-0.4952 2.04349,-0.71604 3.28279,-0.66254 1.10744,0.0536 2.05669,0.45511 2.84773,1.20461 0.0528,0.0536 0.31639,0.40825 0.79104,1.06407 0.56689,-0.70935 1.21949,-1.31165 1.95781,-1.80691 0.75146,-0.4952 1.70729,-0.82981 2.8675,-1.00384 m 0.21753,1.64629 c -1.04155,0.14727 -1.83918,0.41496 -2.39288,0.80307 -0.55374,0.3748 -1.0811,0.8968 -1.58206,1.56599 1.06787,0.30788 2.14236,0.40156 3.22346,0.28108 0.89649,-0.12043 1.56887,-0.36136 2.01714,-0.72277 0.44822,-0.36135 0.67236,-0.70934 0.67238,-1.04398 -2e-5,-0.30782 -0.11209,-0.52198 -0.33619,-0.64246 -0.32962,-0.25428 -0.86357,-0.33458 -1.60185,-0.24093 m -8.74093,0.54208 c -1.04154,-0.0536 -1.84576,0.0937 -2.41265,0.44168 -0.3428,0.16065 -0.48124,0.34803 -0.4153,0.56216 -1e-5,0.30787 0.24389,0.59563 0.73171,0.86329 0.59326,0.42834 1.47658,0.68933 2.64996,0.783 0.61963,0.0402 1.15358,-0.0803 1.60184,-0.36138 0.0395,-0.0267 0.0922,-0.087 0.15821,-0.18069 0.0791,-0.0936 0.12524,-0.1472 0.13843,-0.16061 -0.0396,-0.0803 -0.10548,-0.21413 -0.19775,-0.40154 -0.0791,-0.20074 -0.15823,-0.36135 -0.23731,-0.48185 -0.0659,-0.13381 -0.13845,-0.24088 -0.21754,-0.32122 -0.48781,-0.4952 -1.08768,-0.74281 -1.7996,-0.74284" />
  </g>
</svg>
