<?xml version="1.0" encoding="UTF-8" standalone="no"?>
<!-- Created with Inkscape (http://www.inkscape.org/) -->

<svg
   xmlns:dc="http://purl.org/dc/elements/1.1/"
   xmlns:cc="http://creativecommons.org/ns#"
   xmlns:rdf="http://www.w3.org/1999/02/22-rdf-syntax-ns#"
   xmlns:svg="http://www.w3.org/2000/svg"
   xmlns="http://www.w3.org/2000/svg"
   xmlns:sodipodi="http://sodipodi.sourceforge.net/DTD/sodipodi-0.dtd"
   xmlns:inkscape="http://www.inkscape.org/namespaces/inkscape"
   width="33.005852"
   height="32.98608"
   id="svg2"
   version="1.1"
   inkscape:version="0.48.4 r9939"
   sodipodi:docname="laso.svg">
  <defs
     id="defs4" />
  <sodipodi:namedview
     id="base"
     pagecolor="#ffffff"
     bordercolor="#666666"
     borderopacity="1.0"
     inkscape:pageopacity="0.0"
     inkscape:pageshadow="2"
     inkscape:zoom="0.98994949"
     inkscape:cx="94.685145"
     inkscape:cy="-124.57387"
     inkscape:document-units="px"
     inkscape:current-layer="layer1"
     showgrid="false"
     inkscape:window-width="1596"
     inkscape:window-height="861"
     inkscape:window-x="0"
     inkscape:window-y="18"
     inkscape:window-maximized="0"
     fit-margin-top="0"
     fit-margin-left="0"
     fit-margin-right="0"
     fit-margin-bottom="0" />
  <metadata
     id="metadata7">
    <rdf:RDF>
      <cc:Work
         rdf:about="">
        <dc:format>image/svg+xml</dc:format>
        <dc:type
           rdf:resource="http://purl.org/dc/dcmitype/StillImage" />
        <dc:title></dc:title>
      </cc:Work>
    </rdf:RDF>
  </metadata>
  <g
     inkscape:label="Layer 1"
     inkscape:groupmode="layer"
     id="layer1"
     transform="translate(-242.98614,-708.74878)">
    <path
       style="font-size:40px;font-style:normal;font-weight:normal;line-height:125%;letter-spacing:0px;word-spacing:0px;fill:#000000;fill-opacity:1;stroke:none;font-family:Sans"
       inkscape:connector-curvature="0"
       id="path3128"
       d="m 255.28672,708.74878 c 1.68753,3e-5 3.28937,0.43503 4.80555,1.30499 1.51612,0.87002 2.83451,2.07462 3.95517,3.6138 1.10742,1.53925 1.97097,3.306 2.59064,5.30026 0.63279,1.99432 0.94921,4.08899 0.94924,6.28402 -3e-5,2.20847 -0.30985,4.30313 -0.92947,6.28403 -0.61966,1.98091 -1.48981,3.74096 -2.61041,5.28017 -1.13385,1.53922 -2.45883,2.74383 -3.97495,3.61382 -1.50299,0.86999 -3.09824,1.30499 -4.78577,1.30499 -1.70074,0 -3.30917,-0.435 -4.82531,-1.30499 -1.51616,-0.86999 -2.82796,-2.0746 -3.9354,-3.61382 -1.12064,-1.51243 -1.99077,-3.25911 -2.61041,-5.24002 -0.61965,-1.99427 -0.92947,-4.10233 -0.92946,-6.32418 -1e-5,-2.22181 0.30981,-4.32985 0.92946,-6.32417 0.61964,-1.99426 1.48977,-3.74763 2.61041,-5.26011 1.10744,-1.52579 2.41924,-2.72371 3.9354,-3.59373 1.51614,-0.88334 3.12457,-1.32503 4.82531,-1.32506 m 0,1.64629 c -1.42387,3e-5 -2.78181,0.37479 -4.07382,1.1243 -1.27885,0.73617 -2.41266,1.78686 -3.40146,3.15205 -1.00198,1.37863 -1.78642,2.97806 -2.35333,4.79833 -0.56691,1.82032 -0.85036,3.74769 -0.85035,5.7821 -1e-5,2.04785 0.28344,3.9819 0.85035,5.80219 0.56691,1.8203 1.35135,3.41974 2.35333,4.79833 0.9756,1.35184 2.10943,2.39583 3.40146,3.13198 1.29201,0.73615 2.64995,1.10422 4.07382,1.10422 1.41067,0 2.76202,-0.36807 4.05406,-1.10422 1.292,-0.74953 2.42582,-1.79353 3.40145,-3.13198 1.00196,-1.39198 1.78639,-2.99142 2.35332,-4.79833 0.58008,-1.82029 0.87012,-3.75434 0.87015,-5.80219 -3e-5,-2.03441 -0.29007,-3.96178 -0.87015,-5.7821 -0.56693,-1.82027 -1.35136,-3.4197 -2.35332,-4.79833 -0.98882,-1.35181 -2.12922,-2.4025 -3.42122,-3.15205 -1.27886,-0.74951 -2.62362,-1.12427 -4.03429,-1.1243 m -9.76927,7.36816 29.64403,0 0.0197,0 c 0.21091,2e-5 0.39548,0.0871 0.55373,0.261 0.17135,0.16064 0.25705,0.34802 0.25708,0.56215 -3e-5,0.22756 -0.0858,0.42163 -0.25708,0.58223 -0.15825,0.16063 -0.34282,0.24093 -0.55373,0.24091 l -0.0197,0 -29.64403,0 c -0.23732,2e-5 -0.43508,-0.0736 -0.59328,-0.22084 -0.14502,-0.16059 -0.21754,-0.36135 -0.21753,-0.6023 -1e-5,-0.21413 0.0791,-0.40151 0.2373,-0.56215 0.15821,-0.17397 0.34938,-0.26098 0.57351,-0.261" />
  </g>
</svg>
