<?xml version="1.0" encoding="UTF-8" standalone="no"?>
<!-- Created with Inkscape (http://www.inkscape.org/) -->

<svg
   xmlns:dc="http://purl.org/dc/elements/1.1/"
   xmlns:cc="http://creativecommons.org/ns#"
   xmlns:rdf="http://www.w3.org/1999/02/22-rdf-syntax-ns#"
   xmlns:svg="http://www.w3.org/2000/svg"
   xmlns="http://www.w3.org/2000/svg"
   xmlns:sodipodi="http://sodipodi.sourceforge.net/DTD/sodipodi-0.dtd"
   xmlns:inkscape="http://www.inkscape.org/namespaces/inkscape"
   width="28.951799"
   height="32.564522"
   id="svg2"
   version="1.1"
   inkscape:version="0.48.4 r9939"
   sodipodi:docname="len.svg">
  <defs
     id="defs4" />
  <sodipodi:namedview
     id="base"
     pagecolor="#ffffff"
     bordercolor="#666666"
     borderopacity="1.0"
     inkscape:pageopacity="0.0"
     inkscape:pageshadow="2"
     inkscape:zoom="0.98994949"
     inkscape:cx="-80.181364"
     inkscape:cy="-47.243269"
     inkscape:document-units="px"
     inkscape:current-layer="layer1"
     showgrid="false"
     inkscape:window-width="1596"
     inkscape:window-height="861"
     inkscape:window-x="0"
     inkscape:window-y="18"
     inkscape:window-maximized="0"
     fit-margin-top="0"
     fit-margin-left="0"
     fit-margin-right="0"
     fit-margin-bottom="0" />
  <metadata
     id="metadata7">
    <rdf:RDF>
      <cc:Work
         rdf:about="">
        <dc:format>image/svg+xml</dc:format>
        <dc:type
           rdf:resource="http://purl.org/dc/dcmitype/StillImage" />
        <dc:title></dc:title>
      </cc:Work>
    </rdf:RDF>
  </metadata>
  <g
     inkscape:label="Layer 1"
     inkscape:groupmode="layer"
     id="layer1"
     transform="translate(-325.9657,-706.94958)">
    <path
       style="font-size:40px;font-style:normal;font-weight:normal;line-height:125%;letter-spacing:0px;word-spacing:0px;fill:#000000;fill-opacity:1;stroke:none;font-family:Sans"
       inkscape:connector-curvature="0"
       id="path3132"
       d="m 326.69741,722.24802 0.0791,0 0.0791,0 27.23138,0 0.0197,0 c 0.21091,2e-5 0.39548,0.0803 0.55373,0.24092 0.17135,0.16063 0.25705,0.35471 0.25708,0.58222 -3e-5,0.21417 -0.0858,0.40824 -0.25708,0.58223 -0.15825,0.16063 -0.34282,0.24094 -0.55373,0.24092 l -0.0197,0 -27.23138,0 -0.0791,0 c -0.21095,2e-5 -0.40211,-0.0803 -0.57349,-0.24092 -0.15822,-0.17399 -0.23732,-0.36806 -0.23732,-0.58223 0,-0.20074 0.0725,-0.38143 0.21755,-0.54207 0.14501,-0.16059 0.3164,-0.25429 0.51417,-0.28107 m 22.7818,-15.25832 c 0.0132,-0.0134 0.0461,-0.02 0.0988,-0.02 0.21092,3e-5 0.3955,0.0871 0.55373,0.261 0.17136,0.16065 0.25706,0.34803 0.25709,0.56215 -3e-5,0.12049 -0.0396,0.26103 -0.11865,0.42161 l -17.56098,30.8981 c -0.19778,0.26769 -0.43508,0.40154 -0.71194,0.40154 -0.23731,0 -0.43507,-0.0736 -0.59326,-0.22085 -0.14504,-0.16062 -0.21756,-0.36138 -0.21755,-0.6023 -1e-5,-0.13384 0.0329,-0.26769 0.0989,-0.40154 l 17.56097,-30.87802 c 0.11863,-0.28104 0.32957,-0.42158 0.63283,-0.42161 m -17.28411,-0.0402 0.0197,0 c 0.36914,4e-5 0.60645,0.14727 0.71193,0.4417 l 17.56098,30.87802 c 0.0791,0.10708 0.11862,0.24761 0.11865,0.42161 -3e-5,0.22753 -0.0858,0.42161 -0.25709,0.58222 -0.15823,0.16061 -0.34281,0.24093 -0.55372,0.24093 -0.26371,0 -0.50101,-0.13385 -0.71193,-0.40154 l -17.56092,-30.89809 c -0.0922,-0.0936 -0.13844,-0.24089 -0.13843,-0.44169 -1e-5,-0.21412 0.0791,-0.4015 0.23732,-0.56214 0.17138,-0.17397 0.36254,-0.26097 0.5735,-0.26101" />
  </g>
</svg>
