<?xml version="1.0" encoding="UTF-8" standalone="no"?>
<!-- Created with Inkscape (http://www.inkscape.org/) -->

<svg
   xmlns:dc="http://purl.org/dc/elements/1.1/"
   xmlns:cc="http://creativecommons.org/ns#"
   xmlns:rdf="http://www.w3.org/1999/02/22-rdf-syntax-ns#"
   xmlns:svg="http://www.w3.org/2000/svg"
   xmlns="http://www.w3.org/2000/svg"
   xmlns:sodipodi="http://sodipodi.sourceforge.net/DTD/sodipodi-0.dtd"
   xmlns:inkscape="http://www.inkscape.org/namespaces/inkscape"
   width="15.93935"
   height="31.681089"
   id="svg2"
   version="1.1"
   inkscape:version="0.48.4 r9939"
   sodipodi:docname="lete.svg">
  <defs
     id="defs4" />
  <sodipodi:namedview
     id="base"
     pagecolor="#ffffff"
     bordercolor="#666666"
     borderopacity="1.0"
     inkscape:pageopacity="0.0"
     inkscape:pageshadow="2"
     inkscape:zoom="0.98994949"
     inkscape:cx="-212.77754"
     inkscape:cy="-129.18812"
     inkscape:document-units="px"
     inkscape:current-layer="layer1"
     showgrid="false"
     inkscape:window-width="1596"
     inkscape:window-height="861"
     inkscape:window-x="0"
     inkscape:window-y="18"
     inkscape:window-maximized="0"
     fit-margin-top="0"
     fit-margin-left="0"
     fit-margin-right="0"
     fit-margin-bottom="0" />
  <metadata
     id="metadata7">
    <rdf:RDF>
      <cc:Work
         rdf:about="">
        <dc:format>image/svg+xml</dc:format>
        <dc:type
           rdf:resource="http://purl.org/dc/dcmitype/StillImage" />
        <dc:title></dc:title>
      </cc:Work>
    </rdf:RDF>
  </metadata>
  <g
     inkscape:label="Layer 1"
     inkscape:groupmode="layer"
     id="layer1"
     transform="translate(-373.01248,-707.41131)">
    <path
       style="font-size:40px;font-style:normal;font-weight:normal;line-height:125%;letter-spacing:0px;word-spacing:0px;fill:#000000;fill-opacity:1;stroke:none;font-family:Sans"
       inkscape:connector-curvature="0"
       id="path3134"
       d="m 373.84309,707.41131 -0.0198,0 0.17798,0 c 0.22412,3e-5 0.42187,0.0871 0.59328,0.26099 l 14.11997,14.75641 c 0.15818,0.16063 0.23729,0.3547 0.23731,0.58223 -2e-5,0.25432 -0.0791,0.4417 -0.23731,0.56214 l -14.29796,15.23824 c -0.18458,0.1874 -0.38234,0.28108 -0.59327,0.28108 -0.23732,0 -0.43508,-0.0803 -0.59328,-0.24091 -0.14503,-0.16062 -0.21755,-0.36139 -0.21753,-0.60231 -2e-5,-0.22753 0.0725,-0.41492 0.21753,-0.56215 l 13.80356,-14.67609 -13.6058,-14.21434 c -0.15822,-0.0936 -0.23732,-0.28773 -0.23731,-0.58222 -10e-6,-0.41489 0.21753,-0.68258 0.65261,-0.80307" />
  </g>
</svg>
