<?xml version="1.0" encoding="UTF-8" standalone="no"?>
<!-- Created with Inkscape (http://www.inkscape.org/) -->

<svg
   xmlns:dc="http://purl.org/dc/elements/1.1/"
   xmlns:cc="http://creativecommons.org/ns#"
   xmlns:rdf="http://www.w3.org/1999/02/22-rdf-syntax-ns#"
   xmlns:svg="http://www.w3.org/2000/svg"
   xmlns="http://www.w3.org/2000/svg"
   xmlns:sodipodi="http://sodipodi.sourceforge.net/DTD/sodipodi-0.dtd"
   xmlns:inkscape="http://www.inkscape.org/namespaces/inkscape"
   width="30.158199"
   height="38.14579"
   id="svg2"
   version="1.1"
   inkscape:version="0.48.4 r9939"
   sodipodi:docname="linja.svg">
  <defs
     id="defs4" />
  <sodipodi:namedview
     id="base"
     pagecolor="#ffffff"
     bordercolor="#666666"
     borderopacity="1.0"
     inkscape:pageopacity="0.0"
     inkscape:pageshadow="2"
     inkscape:zoom="0.98994949"
     inkscape:cx="-243.15732"
     inkscape:cy="-144.08055"
     inkscape:document-units="px"
     inkscape:current-layer="layer1"
     showgrid="false"
     inkscape:window-width="1596"
     inkscape:window-height="861"
     inkscape:window-x="0"
     inkscape:window-y="18"
     inkscape:window-maximized="0"
     fit-margin-top="0"
     fit-margin-left="0"
     fit-margin-right="0"
     fit-margin-bottom="0" />
  <metadata
     id="metadata7">
    <rdf:RDF>
      <cc:Work
         rdf:about="">
        <dc:format>image/svg+xml</dc:format>
        <dc:type
           rdf:resource="http://purl.org/dc/dcmitype/StillImage" />
        <dc:title></dc:title>
      </cc:Work>
    </rdf:RDF>
  </metadata>
  <g
     inkscape:label="Layer 1"
     inkscape:groupmode="layer"
     id="layer1"
     transform="translate(-487.39624,-704.17896)">
    <path
       style="font-size:40px;font-style:normal;font-weight:normal;line-height:125%;letter-spacing:0px;word-spacing:0px;fill:#000000;fill-opacity:1;stroke:none;font-family:Sans"
       inkscape:connector-curvature="0"
       id="path3140"
       d="m 488.12785,704.17896 0.0396,0 0.0396,0 28.55636,0 c 0.22409,3e-5 0.40866,0.0804 0.55373,0.24091 0.15816,0.16066 0.23727,0.35473 0.2373,0.58223 l 0,36.49951 c -3e-5,0.21415 -0.0792,0.40153 -0.2373,0.56215 -0.15825,0.17399 -0.34282,0.26099 -0.55373,0.26099 l -28.55636,0 c -0.22413,0 -0.41529,-0.087 -0.5735,-0.26099 -0.15821,-0.16062 -0.23732,-0.348 -0.23731,-0.56215 l 0,-36.49951 c -10e-6,-0.21412 0.0659,-0.3948 0.19776,-0.54208 0.14501,-0.16057 0.323,-0.25426 0.53394,-0.28106 m 0.88992,1.64629 0,34.85321 26.93474,0 0,-34.85321 -26.93474,0" />
  </g>
</svg>
