<?xml version="1.0" encoding="UTF-8" standalone="no"?>
<!-- Created with Inkscape (http://www.inkscape.org/) -->

<svg
   xmlns:dc="http://purl.org/dc/elements/1.1/"
   xmlns:cc="http://creativecommons.org/ns#"
   xmlns:rdf="http://www.w3.org/1999/02/22-rdf-syntax-ns#"
   xmlns:svg="http://www.w3.org/2000/svg"
   xmlns="http://www.w3.org/2000/svg"
   xmlns:sodipodi="http://sodipodi.sourceforge.net/DTD/sodipodi-0.dtd"
   xmlns:inkscape="http://www.inkscape.org/namespaces/inkscape"
   width="20.88332"
   height="33.22678"
   id="svg2"
   version="1.1"
   inkscape:version="0.48.4 r9939"
   sodipodi:docname="wile.svg">
  <defs
     id="defs4" />
  <sodipodi:namedview
     id="base"
     pagecolor="#ffffff"
     bordercolor="#666666"
     borderopacity="1.0"
     inkscape:pageopacity="0.0"
     inkscape:pageshadow="2"
     inkscape:zoom="1.0984277"
     inkscape:cx="-275.25304"
     inkscape:cy="-90.298856"
     inkscape:document-units="px"
     inkscape:current-layer="layer1"
     showgrid="false"
     inkscape:window-width="1596"
     inkscape:window-height="861"
     inkscape:window-x="0"
     inkscape:window-y="18"
     inkscape:window-maximized="0"
     fit-margin-top="0"
     fit-margin-left="0"
     fit-margin-right="0"
     fit-margin-bottom="0" />
  <metadata
     id="metadata7">
    <rdf:RDF>
      <cc:Work
         rdf:about="">
        <dc:format>image/svg+xml</dc:format>
        <dc:type
           rdf:resource="http://purl.org/dc/dcmitype/StillImage" />
        <dc:title></dc:title>
      </cc:Work>
    </rdf:RDF>
  </metadata>
  <g
     inkscape:label="Layer 1"
     inkscape:groupmode="layer"
     id="layer1"
     transform="translate(-532.54437,-706.62854)">
    <path
       style="font-size:40px;font-style:normal;font-weight:normal;line-height:125%;letter-spacing:0px;word-spacing:0px;fill:#000000;fill-opacity:1;stroke:none;font-family:Sans"
       inkscape:connector-curvature="0"
       id="path3142"
       d="m 542.59061,721.82641 0,-0.02 c 0.0132,0.0134 0.0329,0.02 0.0593,0.02 l 0.0197,0 c 0.25048,-0.0535 0.4812,0.0736 0.69216,0.38146 l 9.94726,16.38261 c 0.0791,0.0803 0.11863,0.22084 0.11866,0.42162 -3e-5,0.24092 -0.0792,0.43499 -0.23732,0.58222 -0.14504,0.14723 -0.33622,0.23423 -0.57349,0.261 l -19.2617,-0.02 0,0.02 c -0.23732,-0.0267 -0.43509,-0.11377 -0.59328,-0.261 -0.14504,-0.14723 -0.21754,-0.3413 -0.21753,-0.58222 -10e-6,-0.20078 0.0329,-0.33461 0.0989,-0.40154 l 9.31443,-16.36254 c 0.13182,-0.28106 0.34277,-0.4216 0.63283,-0.42161 m 0.0791,2.44936 0,-0.02 -7.89057,13.95333 16.37443,-0.02 -8.48386,-13.91318 m -8.99802,-17.62738 0.0197,0 c 0.0132,4e-5 0.0197,-0.006 0.0197,-0.02 -10e-6,0.0135 0.007,0.0201 0.0197,0.02 l 0.0197,0 17.64007,-0.02 c 0.23729,0.0268 0.42845,0.1138 0.57351,0.261 0.15817,0.14726 0.23727,0.34134 0.2373,0.58222 -3e-5,1.52587 -0.25052,2.99147 -0.75149,4.39681 -0.501,1.4054 -1.17998,2.62338 -2.0369,3.65396 -0.85698,1.03063 -1.88533,1.85378 -3.08504,2.46945 -1.18658,0.60231 -2.43904,0.90346 -3.75742,0.90344 -1.76666,2e-5 -3.38828,-0.51528 -4.86486,-1.5459 -1.47661,-1.03058 -2.64339,-2.42257 -3.50034,-4.17596 -0.84377,-1.75334 -1.26566,-3.65394 -1.26565,-5.7018 l 0,-0.02 c -10e-6,-0.20074 0.0725,-0.38143 0.21754,-0.54207 0.14501,-0.17397 0.3164,-0.26097 0.51417,-0.261 m 0.94924,1.62621 0,0.0201 c 0.18456,2.5297 1.03492,4.66452 2.55109,6.40448 1.52931,1.72662 3.32892,2.57653 5.39881,2.54974 2.06985,0.0134 3.86945,-0.8432 5.39881,-2.56982 1.52932,-1.72657 2.37968,-3.8547 2.5511,-6.3844 l -15.89981,-0.0201" />
  </g>
</svg>
