<?xml version="1.0" encoding="UTF-8" standalone="no"?>
<!-- Created with Inkscape (http://www.inkscape.org/) -->

<svg
   xmlns:dc="http://purl.org/dc/elements/1.1/"
   xmlns:cc="http://creativecommons.org/ns#"
   xmlns:rdf="http://www.w3.org/1999/02/22-rdf-syntax-ns#"
   xmlns:svg="http://www.w3.org/2000/svg"
   xmlns="http://www.w3.org/2000/svg"
   xmlns:sodipodi="http://sodipodi.sourceforge.net/DTD/sodipodi-0.dtd"
   xmlns:inkscape="http://www.inkscape.org/namespaces/inkscape"
   width="32.576519"
   height="7.74963"
   id="svg2"
   version="1.1"
   inkscape:version="0.48.4 r9939"
   sodipodi:docname="lipu.svg">
  <defs
     id="defs4" />
  <sodipodi:namedview
     id="base"
     pagecolor="#ffffff"
     bordercolor="#666666"
     borderopacity="1.0"
     inkscape:pageopacity="0.0"
     inkscape:pageshadow="2"
     inkscape:zoom="0.98994949"
     inkscape:cx="-420.42458"
     inkscape:cy="-169.30076"
     inkscape:document-units="px"
     inkscape:current-layer="layer1"
     showgrid="false"
     inkscape:window-width="1596"
     inkscape:window-height="861"
     inkscape:window-x="0"
     inkscape:window-y="18"
     inkscape:window-maximized="0"
     fit-margin-top="0"
     fit-margin-left="0"
     fit-margin-right="0"
     fit-margin-bottom="0" />
  <metadata
     id="metadata7">
    <rdf:RDF>
      <cc:Work
         rdf:about="">
        <dc:format>image/svg+xml</dc:format>
        <dc:type
           rdf:resource="http://purl.org/dc/dcmitype/StillImage" />
        <dc:title></dc:title>
      </cc:Work>
    </rdf:RDF>
  </metadata>
  <g
     inkscape:label="Layer 1"
     inkscape:groupmode="layer"
     id="layer1"
     transform="translate(-567.18614,-719.37704)">
    <path
       style="font-size:40px;font-style:normal;font-weight:normal;line-height:125%;letter-spacing:0px;word-spacing:0px;fill:#000000;fill-opacity:1;stroke:none;font-family:Sans"
       inkscape:connector-curvature="0"
       id="path3144"
       d="m 567.96306,725.48037 0.0791,0 30.90969,0 c 0.21091,2e-5 0.39548,0.0871 0.55372,0.261 0.17136,0.16063 0.25705,0.34801 0.25709,0.56215 -4e-5,0.21416 -0.0858,0.40824 -0.25709,0.58222 -0.15824,0.16063 -0.34281,0.24094 -0.55372,0.24093 l -30.90969,0 c -0.21094,10e-6 -0.40871,-0.0736 -0.59327,-0.22085 -0.1714,-0.1606 -0.25709,-0.34798 -0.25709,-0.56214 -0.0264,-0.20076 0.0396,-0.39483 0.19775,-0.58223 0.17139,-0.18737 0.36256,-0.28106 0.57351,-0.28108 m 14.63414,-5.72186 c 0.25048,-0.25429 0.54712,-0.38145 0.88992,-0.38147 0.34276,2e-5 0.6328,0.12718 0.87013,0.38147 0.25048,0.24093 0.37573,0.53539 0.37575,0.88337 -2e-5,0.33463 -0.12527,0.62909 -0.37575,0.88338 -0.23733,0.24094 -0.52737,0.3614 -0.87013,0.36138 -0.3428,2e-5 -0.63944,-0.12044 -0.88992,-0.36138 -0.23733,-0.25429 -0.35599,-0.54875 -0.35597,-0.88338 -2e-5,-0.34798 0.11864,-0.64244 0.35597,-0.88337" />
  </g>
</svg>
