<?xml version="1.0" encoding="UTF-8" standalone="no"?>
<!-- Created with Inkscape (http://www.inkscape.org/) -->

<svg
   xmlns:dc="http://purl.org/dc/elements/1.1/"
   xmlns:cc="http://creativecommons.org/ns#"
   xmlns:rdf="http://www.w3.org/1999/02/22-rdf-syntax-ns#"
   xmlns:svg="http://www.w3.org/2000/svg"
   xmlns="http://www.w3.org/2000/svg"
   xmlns:sodipodi="http://sodipodi.sourceforge.net/DTD/sodipodi-0.dtd"
   xmlns:inkscape="http://www.inkscape.org/namespaces/inkscape"
   width="31.02836"
   height="27.911818"
   id="svg2"
   version="1.1"
   inkscape:version="0.48.4 r9939"
   sodipodi:docname="lon.svg">
  <defs
     id="defs4" />
  <sodipodi:namedview
     id="base"
     pagecolor="#ffffff"
     bordercolor="#666666"
     borderopacity="1.0"
     inkscape:pageopacity="0.0"
     inkscape:pageshadow="2"
     inkscape:zoom="0.98994949"
     inkscape:cx="248.35734"
     inkscape:cy="-41.122163"
     inkscape:document-units="px"
     inkscape:current-layer="layer1"
     showgrid="false"
     inkscape:window-width="1596"
     inkscape:window-height="861"
     inkscape:window-x="0"
     inkscape:window-y="18"
     inkscape:window-maximized="0"
     fit-margin-top="0"
     fit-margin-left="0"
     fit-margin-right="0"
     fit-margin-bottom="0" />
  <metadata
     id="metadata7">
    <rdf:RDF>
      <cc:Work
         rdf:about="">
        <dc:format>image/svg+xml</dc:format>
        <dc:type
           rdf:resource="http://purl.org/dc/dcmitype/StillImage" />
        <dc:title></dc:title>
      </cc:Work>
    </rdf:RDF>
  </metadata>
  <g
     inkscape:label="Layer 1"
     inkscape:groupmode="layer"
     id="layer1"
     transform="translate(-0.9492148,-760.68977)">
    <path
       style="font-size:40px;font-style:normal;font-weight:normal;line-height:125%;letter-spacing:0px;word-spacing:0px;fill:#000000;fill-opacity:1;stroke:none;font-family:Sans"
       inkscape:connector-curvature="0"
       id="path3146"
       d="m 20.191153,760.69498 c 1.595223,0.0268 3.032269,0.45509 4.311138,1.28491 1.278809,0.81647 2.359891,1.914 3.243238,3.29258 1.529307,2.262 2.636756,5.33374 3.322347,9.21522 0.171359,0.89678 0.316383,1.83369 0.435072,2.81075 0.118617,0.96369 0.204317,1.86045 0.25709,2.69028 0.06591,0.81646 0.118617,1.61953 0.158207,2.40921 0.03949,0.78969 0.05923,1.49238 0.05933,2.10806 -4.1e-5,0.61568 -0.0071,1.15776 -0.01975,1.62621 -4e-5,0.45507 -0.0071,0.80976 -0.01974,1.06407 l 0,0.38146 c -0.02643,0.22754 -0.112096,0.41492 -0.25709,0.56214 -0.145054,0.14724 -0.329627,0.22085 -0.553719,0.22085 -0.224163,0 -0.415328,-0.0803 -0.573505,-0.24093 -0.158237,-0.17398 -0.237345,-0.36807 -0.237315,-0.58222 l 0,-0.0402 0,-0.36138 c 0.01316,-0.24091 0.01974,-0.58891 0.01974,-1.04398 0.01316,-0.45508 0.01316,-0.98376 0,-1.58606 -4e-5,-0.6023 -0.01985,-1.28491 -0.05933,-2.04783 -0.02643,-0.7763 -0.06592,-1.56598 -0.118658,-2.36906 -0.05275,-0.80306 -0.138462,-1.66636 -0.25708,-2.5899 -0.118688,-0.9369 -0.25712,-1.84035 -0.415297,-2.71036 -0.738333,-3.66733 -1.760082,-6.53161 -3.065256,-8.59284 -1.661199,-2.51626 -3.750847,-3.80117 -6.268956,-3.85473 -2.452223,-0.0937 -4.561646,1.11093 -6.328279,3.6138 -1.476616,2.15493 -2.630205,5.07944 -3.460779,8.77354 -0.4350821,1.914 -0.7778622,4.02205 -1.0283405,6.32417 -0.2505088,2.28876 -0.3889411,3.86144 -0.4152972,4.71804 -0.026427,0.84322 -0.03959,1.51244 -0.03959,2.00767 -1.01e-5,0.21416 -0.08566,0.40823 -0.2570901,0.58223 -0.1582171,0.16061 -0.3427903,0.24092 -0.5537194,0.24091 -0.2241426,10e-6 -0.4284903,-0.0936 -0.6130533,-0.28106 L 1.146971,780.99252 c -0.1318408,-0.21413 -0.19776633,-0.39482 -0.1977562,-0.54206 -1.013e-5,-0.24092 0.0790782,-0.43499 0.2373054,-0.58223 0.158207,-0.16061 0.3559632,-0.24091 0.5932787,-0.24093 0.2241224,2e-5 0.4284701,0.0937 0.6130534,0.28108 l 4.9637403,5.7821 c 0.1054646,-3.7878 0.5866771,-7.57561 1.4436476,-11.36344 0.8833063,-3.93501 2.1225858,-7.04021 3.7178588,-9.3156 0.949222,-1.37857 2.069854,-2.45602 3.361896,-3.23236 1.292002,-0.77627 2.729048,-1.13765 4.311148,-1.08413" />
  </g>
</svg>
