<?xml version="1.0" encoding="UTF-8" standalone="no"?>
<!-- Created with Inkscape (http://www.inkscape.org/) -->

<svg
   xmlns:dc="http://purl.org/dc/elements/1.1/"
   xmlns:cc="http://creativecommons.org/ns#"
   xmlns:rdf="http://www.w3.org/1999/02/22-rdf-syntax-ns#"
   xmlns:svg="http://www.w3.org/2000/svg"
   xmlns="http://www.w3.org/2000/svg"
   xmlns:sodipodi="http://sodipodi.sourceforge.net/DTD/sodipodi-0.dtd"
   xmlns:inkscape="http://www.inkscape.org/namespaces/inkscape"
   width="36.44693"
   height="15.94093"
   id="svg2"
   version="1.1"
   inkscape:version="0.48.4 r9939"
   sodipodi:docname="lukin.svg">
  <defs
     id="defs4" />
  <sodipodi:namedview
     id="base"
     pagecolor="#ffffff"
     bordercolor="#666666"
     borderopacity="1.0"
     inkscape:pageopacity="0.0"
     inkscape:pageshadow="2"
     inkscape:zoom="0.98994949"
     inkscape:cx="4.2003368"
     inkscape:cy="-66.441341"
     inkscape:document-units="px"
     inkscape:current-layer="layer1"
     showgrid="false"
     inkscape:window-width="1596"
     inkscape:window-height="861"
     inkscape:window-x="0"
     inkscape:window-y="18"
     inkscape:window-maximized="0"
     fit-margin-top="0"
     fit-margin-left="0"
     fit-margin-right="0"
     fit-margin-bottom="0" />
  <metadata
     id="metadata7">
    <rdf:RDF>
      <cc:Work
         rdf:about="">
        <dc:format>image/svg+xml</dc:format>
        <dc:type
           rdf:resource="http://purl.org/dc/dcmitype/StillImage" />
        <dc:title />
      </cc:Work>
    </rdf:RDF>
  </metadata>
  <g
     inkscape:label="Layer 1"
     inkscape:groupmode="layer"
     id="layer1"
     transform="translate(-38.74092,-766.67784)">
    <path
       style="font-size:40px;font-style:normal;font-weight:normal;line-height:125%;letter-spacing:0px;word-spacing:0px;fill:#000000;fill-opacity:1;stroke:none;font-family:Sans"
       inkscape:connector-curvature="0"
       id="path3148"
       d="m 56.974272,766.67784 c 4.904396,2e-5 9.110059,0.72279 12.61701,2.16828 1.700687,0.64248 3.025666,1.44555 3.974949,2.40921 1.081042,1.03064 1.621578,2.16161 1.621619,3.39297 -4.1e-5,1.19124 -0.540577,2.31553 -1.621619,3.37289 -0.962466,0.97709 -2.287445,1.78685 -3.974949,2.4293 -3.506951,1.44552 -7.712614,2.16829 -12.61701,2.16828 -4.87806,10e-6 -9.083734,-0.72276 -12.61701,-2.16828 -1.634812,-0.64245 -2.966383,-1.45221 -3.994723,-2.4293 -1.081083,-1.03059 -1.621619,-2.15488 -1.621619,-3.37289 0,-1.20458 0.540536,-2.33557 1.621619,-3.39297 0.962425,-0.93688 2.293996,-1.73995 3.994723,-2.40921 3.533276,-1.44549 7.73895,-2.16826 12.61701,-2.16828 m 0,1.64629 c -4.680304,2e-5 -8.68162,0.67594 -12.003956,2.02776 -1.595263,0.68262 -2.748853,1.38531 -3.460779,2.10805 -0.764669,0.72278 -1.146998,1.45224 -1.146998,2.18836 0,0.73617 0.382329,1.46562 1.146998,2.18837 0.725109,0.73616 1.878699,1.43884 3.460779,2.10806 3.322336,1.35185 7.323652,2.02776 12.003956,2.02775 4.653898,10e-6 8.661805,-0.6759 12.023731,-2.02775 1.489748,-0.64245 2.643337,-1.34513 3.460779,-2.10806 0.738262,-0.69598 1.107408,-1.42543 1.107449,-2.18837 -4.1e-5,-0.7629 -0.369187,-1.49235 -1.107449,-2.18836 -0.804259,-0.74951 -1.957848,-1.45219 -3.460779,-2.10805 -3.361926,-1.35182 -7.369833,-2.02774 -12.023731,-2.02776 m -0.889918,5.4408 c 0.250478,-0.25429 0.547118,-0.38144 0.889918,-0.38145 0.34276,1e-5 0.632808,0.12716 0.870133,0.38145 0.250479,0.24094 0.375728,0.5354 0.375748,0.88337 -2e-5,0.34802 -0.125269,0.64917 -0.375748,0.90346 -0.237325,0.24093 -0.527373,0.3614 -0.870133,0.36138 -0.3428,2e-5 -0.63944,-0.12045 -0.889918,-0.36138 -0.237326,-0.25429 -0.355984,-0.55544 -0.355963,-0.90346 -2.1e-5,-0.34797 0.118637,-0.64243 0.355963,-0.88337" />
  </g>
</svg>
