<?xml version="1.0" encoding="UTF-8" standalone="no"?>
<!-- Created with Inkscape (http://www.inkscape.org/) -->

<svg
   xmlns:dc="http://purl.org/dc/elements/1.1/"
   xmlns:cc="http://creativecommons.org/ns#"
   xmlns:rdf="http://www.w3.org/1999/02/22-rdf-syntax-ns#"
   xmlns:svg="http://www.w3.org/2000/svg"
   xmlns="http://www.w3.org/2000/svg"
   xmlns:sodipodi="http://sodipodi.sourceforge.net/DTD/sodipodi-0.dtd"
   xmlns:inkscape="http://www.inkscape.org/namespaces/inkscape"
   width="22.182594"
   height="34.010052"
   id="svg2"
   version="1.1"
   inkscape:version="0.48.4 r9939"
   sodipodi:docname="lupa.svg">
  <defs
     id="defs4" />
  <sodipodi:namedview
     id="base"
     pagecolor="#ffffff"
     bordercolor="#666666"
     borderopacity="1.0"
     inkscape:pageopacity="0.0"
     inkscape:pageshadow="2"
     inkscape:zoom="0.98994949"
     inkscape:cx="-142.30704"
     inkscape:cy="-134.96748"
     inkscape:document-units="px"
     inkscape:current-layer="layer1"
     showgrid="false"
     inkscape:window-width="1596"
     inkscape:window-height="861"
     inkscape:window-x="0"
     inkscape:window-y="18"
     inkscape:window-maximized="0"
     fit-margin-top="0"
     fit-margin-left="0"
     fit-margin-right="0"
     fit-margin-bottom="0" />
  <metadata
     id="metadata7">
    <rdf:RDF>
      <cc:Work
         rdf:about="">
        <dc:format>image/svg+xml</dc:format>
        <dc:type
           rdf:resource="http://purl.org/dc/dcmitype/StillImage" />
        <dc:title />
      </cc:Work>
    </rdf:RDF>
  </metadata>
  <g
     inkscape:label="Layer 1"
     inkscape:groupmode="layer"
     id="layer1"
     transform="translate(-86.385661,-757.62323)">
    <path
       style="font-size:40px;font-style:normal;font-weight:normal;line-height:125%;letter-spacing:0px;word-spacing:0px;fill:#000000;fill-opacity:1;stroke:none;font-family:Sans"
       inkscape:connector-curvature="0"
       id="path3150"
       d="m 87.172031,757.62323 -0.01974,0 0.09892,0 c 0.210939,4e-5 0.395512,0.0871 0.553729,0.261 0.17138,0.16064 0.25707,0.34802 0.25708,0.56215 -1e-5,0.0268 -0.0071,0.0469 -0.01974,0.0602 -0.237315,10.14546 0.692152,18.12931 2.788402,23.95155 0.922856,2.56983 1.997347,4.49719 3.223464,5.7821 1.094255,1.16445 2.221479,1.74667 3.38168,1.74667 1.160161,0 2.287385,-0.58222 3.381664,-1.74667 1.27882,-1.43213 2.3533,-3.3595 3.22347,-5.7821 2.14895,-5.82224 3.10478,-13.80609 2.86751,-23.95155 l 0,-0.02 c -3e-5,-0.24088 0.0791,-0.43496 0.2373,-0.58223 0.15818,-0.16058 0.34934,-0.24088 0.57351,-0.24091 0.21091,3e-5 0.39548,0.0803 0.55372,0.24091 0.17136,0.14727 0.25706,0.32796 0.25709,0.54208 0.25045,10.42654 -0.73175,18.61784 -2.94661,24.57393 -0.98882,2.77059 -2.18196,4.88534 -3.57943,6.34425 -1.38433,1.51245 -2.907076,2.26867 -4.568224,2.26867 -1.661198,0 -3.177343,-0.75622 -4.548453,-2.26867 -1.397507,-1.45891 -2.590656,-3.57366 -3.579437,-6.34425 -2.214908,-6.07655 -3.170741,-14.26785 -2.8675,-24.57393 -1e-5,-0.21412 0.06592,-0.39481 0.197756,-0.54208 0.145014,-0.16058 0.323005,-0.25426 0.533955,-0.28107" />
  </g>
</svg>
