<?xml version="1.0" encoding="UTF-8" standalone="no"?>
<!-- Created with Inkscape (http://www.inkscape.org/) -->

<svg
   xmlns:dc="http://purl.org/dc/elements/1.1/"
   xmlns:cc="http://creativecommons.org/ns#"
   xmlns:rdf="http://www.w3.org/1999/02/22-rdf-syntax-ns#"
   xmlns:svg="http://www.w3.org/2000/svg"
   xmlns="http://www.w3.org/2000/svg"
   xmlns:sodipodi="http://sodipodi.sourceforge.net/DTD/sodipodi-0.dtd"
   xmlns:inkscape="http://www.inkscape.org/namespaces/inkscape"
   width="29.030991"
   height="29.472651"
   id="svg2"
   version="1.1"
   inkscape:version="0.48.4 r9939"
   sodipodi:docname="ma.svg">
  <defs
     id="defs4" />
  <sodipodi:namedview
     id="base"
     pagecolor="#ffffff"
     bordercolor="#666666"
     borderopacity="1.0"
     inkscape:pageopacity="0.0"
     inkscape:pageshadow="2"
     inkscape:zoom="0.98994949"
     inkscape:cx="-117.62983"
     inkscape:cy="-161.17885"
     inkscape:document-units="px"
     inkscape:current-layer="layer1"
     showgrid="false"
     inkscape:window-width="796"
     inkscape:window-height="861"
     inkscape:window-x="800"
     inkscape:window-y="18"
     inkscape:window-maximized="0"
     fit-margin-top="0"
     fit-margin-left="0"
     fit-margin-right="0"
     fit-margin-bottom="0" />
  <metadata
     id="metadata7">
    <rdf:RDF>
      <cc:Work
         rdf:about="">
        <dc:format>image/svg+xml</dc:format>
        <dc:type
           rdf:resource="http://purl.org/dc/dcmitype/StillImage" />
        <dc:title />
      </cc:Work>
    </rdf:RDF>
  </metadata>
  <g
     inkscape:label="Layer 1"
     inkscape:groupmode="layer"
     id="layer1"
     transform="translate(-123.46075,-759.91198)">
    <path
       style="font-size:40px;font-style:normal;font-weight:normal;line-height:125%;letter-spacing:0px;word-spacing:0px;fill:#000000;fill-opacity:1;stroke:none;font-family:Sans"
       inkscape:connector-curvature="0"
       id="path3152"
       d="m 137.99602,759.91198 c 2.62358,3e-5 5.04942,0.66256 7.27752,1.9876 2.22805,1.31171 3.98811,3.09853 5.28016,5.36048 1.29199,2.26201 1.938,4.72475 1.93804,7.38824 -4e-5,2.00769 -0.37578,3.90829 -1.12722,5.7018 -0.73834,1.78015 -1.77987,3.35283 -3.12459,4.71803 -1.3316,1.35184 -2.88731,2.40922 -4.66711,3.17213 -1.76667,0.76292 -3.6256,1.14437 -5.5768,1.14437 -1.9776,0 -3.8629,-0.38815 -5.6559,-1.16445 -1.79302,-0.78968 -3.33554,-1.84036 -4.62755,-3.15205 -1.29203,-1.31167 -2.32697,-2.87766 -3.10482,-4.69795 -0.76467,-1.82028 -1.147,-3.72757 -1.147,-5.72188 0,-1.98088 0.37574,-3.8681 1.12723,-5.66164 0.75147,-1.80688 1.79301,-3.39293 3.12459,-4.75818 1.34475,-1.36519 2.90045,-2.42257 4.66711,-3.17212 1.76662,-0.76289 3.63874,-1.14435 5.61634,-1.14438 m 0,1.64629 c -2.34675,3e-5 -4.50891,0.58225 -6.48648,1.74668 -1.97761,1.16448 -3.54648,2.75053 -4.70666,4.75818 -1.14701,2.0077 -1.72051,4.20275 -1.72051,6.58517 0,2.38246 0.5735,4.57751 1.72051,6.58517 1.16018,2.00769 2.72905,3.59374 4.70666,4.75819 1.97757,1.16446 4.13973,1.74668 6.48648,1.74668 2.33354,0 4.4891,-0.58222 6.46671,-1.74668 1.97757,-1.16445 3.53985,-2.7505 4.68689,-4.75819 1.14697,-2.00766 1.72046,-4.20271 1.72049,-6.58517 -3e-5,-1.78012 -0.34281,-3.47994 -1.02834,-5.09948 -0.67241,-1.61951 -1.5821,-3.0115 -2.72907,-4.17596 -1.14702,-1.16443 -2.51816,-2.08796 -4.11338,-2.7706 -1.5821,-0.69596 -3.24986,-1.04396 -5.0033,-1.04399 m -0.29664,-1.04399 -0.0197,0 c 0.0132,3e-5 0.0329,3e-5 0.0593,0 0.0263,-0.0134 0.0462,-0.02 0.0593,-0.02 0.21092,3e-5 0.39549,0.0871 0.55372,0.261 0.17137,0.16065 0.25707,0.34803 0.25709,0.56215 l 0,0.0402 0,26.68198 c -2e-5,0.22755 -0.0858,0.42162 -0.25709,0.58222 -0.15823,0.16063 -0.3428,0.24093 -0.55372,0.24093 -0.23734,0 -0.4351,-0.0736 -0.59328,-0.22084 -0.14505,-0.16062 -0.21755,-0.36138 -0.21753,-0.60231 l 0,-26.68198 0,-0.0402 c -2e-5,-0.20074 0.0659,-0.37473 0.19775,-0.522 0.13182,-0.16058 0.30321,-0.25426 0.51417,-0.28107 m -12.95319,13.17034 0.0396,0 0.0396,0 26.28213,0 0.0197,0 c 0.21091,2e-5 0.39549,0.0871 0.55373,0.261 0.15817,0.16063 0.23728,0.34802 0.23731,0.56215 -3e-5,0.24094 -0.0792,0.4417 -0.23731,0.6023 -0.14506,0.14725 -0.32963,0.22086 -0.55373,0.22085 l -0.0197,0 -26.28213,0 -0.0396,0 c -0.21095,10e-6 -0.40213,-0.0803 -0.57351,-0.24093 -0.15822,-0.16059 -0.23731,-0.35466 -0.23731,-0.58222 0,-0.20075 0.0725,-0.38144 0.21754,-0.54207 0.15819,-0.1606 0.34277,-0.25429 0.55372,-0.28108" />
  </g>
</svg>
