<?xml version="1.0" encoding="UTF-8" standalone="no"?>
<!-- Created with Inkscape (http://www.inkscape.org/) -->

<svg
   xmlns:dc="http://purl.org/dc/elements/1.1/"
   xmlns:cc="http://creativecommons.org/ns#"
   xmlns:rdf="http://www.w3.org/1999/02/22-rdf-syntax-ns#"
   xmlns:svg="http://www.w3.org/2000/svg"
   xmlns="http://www.w3.org/2000/svg"
   xmlns:sodipodi="http://sodipodi.sourceforge.net/DTD/sodipodi-0.dtd"
   xmlns:inkscape="http://www.inkscape.org/namespaces/inkscape"
   width="27.113081"
   height="34.612289"
   id="svg2"
   version="1.1"
   inkscape:version="0.48.4 r9939"
   sodipodi:docname="ma.svg">
  <defs
     id="defs4" />
  <sodipodi:namedview
     id="base"
     pagecolor="#ffffff"
     bordercolor="#666666"
     borderopacity="1.0"
     inkscape:pageopacity="0.0"
     inkscape:pageshadow="2"
     inkscape:zoom="0.98994949"
     inkscape:cx="44.990519"
     inkscape:cy="-158.60903"
     inkscape:document-units="px"
     inkscape:current-layer="layer1"
     showgrid="false"
     inkscape:window-width="1596"
     inkscape:window-height="861"
     inkscape:window-x="0"
     inkscape:window-y="18"
     inkscape:window-maximized="0"
     fit-margin-top="0"
     fit-margin-left="0"
     fit-margin-right="0"
     fit-margin-bottom="0" />
  <metadata
     id="metadata7">
    <rdf:RDF>
      <cc:Work
         rdf:about="">
        <dc:format>image/svg+xml</dc:format>
        <dc:type
           rdf:resource="http://purl.org/dc/dcmitype/StillImage" />
        <dc:title></dc:title>
      </cc:Work>
    </rdf:RDF>
  </metadata>
  <g
     inkscape:label="Layer 1"
     inkscape:groupmode="layer"
     id="layer1"
     transform="translate(-164.89121,-757.34216)">
    <path
       style="font-size:40px;font-style:normal;font-weight:normal;line-height:125%;letter-spacing:0px;word-spacing:0px;fill:#000000;fill-opacity:1;stroke:none;font-family:Sans"
       inkscape:connector-curvature="0"
       id="path3154"
       d="m 173.19708,758.4263 c 1.68753,-0.72273 3.44758,-1.08411 5.28016,-1.08414 1.83253,3e-5 3.58599,0.36141 5.26038,1.08414 1.67433,0.72279 3.11796,1.69986 4.33092,2.93121 1.21288,1.21801 2.17531,2.67692 2.88727,4.37672 0.7119,1.69986 1.06127,3.48669 1.04812,5.36049 0.0132,1.86047 -0.33622,3.64061 -1.04812,5.34042 -0.71196,1.69983 -1.67439,3.16544 -2.88727,4.3968 -1.21296,1.23138 -2.65659,2.21515 -4.33092,2.95128 -1.67439,0.72277 -3.42785,1.08415 -5.26038,1.08414 -1.83258,1e-5 -3.59263,-0.36137 -5.28016,-1.08414 -1.67437,-0.73613 -3.11801,-1.7199 -4.33092,-2.95128 -1.21292,-1.23136 -2.18194,-2.69697 -2.90705,-4.3968 -0.71194,-1.69981 -1.06791,-3.47995 -1.0679,-5.34042 -1e-5,-1.8738 0.35596,-3.66063 1.0679,-5.36049 0.72511,-1.6998 1.69413,-3.15871 2.90705,-4.37672 1.21291,-1.23135 2.65655,-2.20842 4.33092,-2.93121 m 5.26038,0.56215 c -2.16218,3e-5 -4.15954,0.53541 -5.99209,1.60614 -1.81939,1.07078 -3.26303,2.53638 -4.33091,4.3968 -1.06791,1.86047 -1.60186,3.89492 -1.60186,6.10333 0,1.64631 0.30983,3.21899 0.92947,4.71804 0.63282,1.48569 1.48319,2.7706 2.55109,3.85473 1.06789,1.08415 2.34013,1.94746 3.81675,2.5899 1.47657,0.64247 3.0191,0.96369 4.62755,0.96368 1.63478,10e-6 3.1839,-0.32121 4.64733,-0.96368 1.47657,-0.64244 2.74223,-1.50575 3.79697,-2.5899 1.06786,-1.08413 1.91163,-2.36904 2.53131,-3.85473 0.63279,-1.49905 0.9558,-3.07173 0.96901,-4.71804 -0.0132,-1.65965 -0.33622,-3.23233 -0.96901,-4.71803 -0.61968,-1.49904 -1.46345,-2.78395 -2.53131,-3.85473 -1.05474,-1.08412 -2.3204,-1.94072 -3.79697,-2.56983 -1.46343,-0.64242 -3.01255,-0.96365 -4.64733,-0.96368 m 0.0396,24.21255 c 1.16016,0 2.16874,0.435 3.02571,1.30499 0.85693,0.85661 1.27223,1.88052 1.24588,3.07174 0.0263,1.19122 -0.38895,2.22182 -1.24588,3.09181 -0.85697,0.8566 -1.86555,1.28491 -3.02571,1.28491 -1.19975,0 -2.21492,-0.42831 -3.04548,-1.28491 -0.83061,-0.8566 -1.25909,-1.88721 -1.28543,-3.09181 0.0263,-1.2046 0.45482,-2.23521 1.28543,-3.09182 0.83056,-0.8566 1.84573,-1.28491 3.04548,-1.28491 m -0.0198,1.64629 c -0.73833,10e-6 -1.37775,0.26769 -1.91826,0.80307 -0.52738,0.53539 -0.77787,1.17784 -0.75149,1.92737 -0.0264,0.74953 0.22411,1.39199 0.75149,1.92736 0.54051,0.53538 1.17993,0.80307 1.91826,0.80307 0.75146,0 1.3777,-0.261 1.87871,-0.78299 0.51415,-0.53538 0.78442,-1.18453 0.8108,-1.94744 -0.0264,-0.7763 -0.29665,-1.42544 -0.8108,-1.94745 -0.50101,-0.52199 -1.12725,-0.78298 -1.87871,-0.78299" />
  </g>
</svg>
