<?xml version="1.0" encoding="UTF-8" standalone="no"?>
<!-- Created with Inkscape (http://www.inkscape.org/) -->

<svg
   xmlns:dc="http://purl.org/dc/elements/1.1/"
   xmlns:cc="http://creativecommons.org/ns#"
   xmlns:rdf="http://www.w3.org/1999/02/22-rdf-syntax-ns#"
   xmlns:svg="http://www.w3.org/2000/svg"
   xmlns="http://www.w3.org/2000/svg"
   xmlns:sodipodi="http://sodipodi.sourceforge.net/DTD/sodipodi-0.dtd"
   xmlns:inkscape="http://www.inkscape.org/namespaces/inkscape"
   width="29.80216"
   height="24.553659"
   id="svg2"
   version="1.1"
   inkscape:version="0.48.4 r9939"
   sodipodi:docname="mama.svg">
  <defs
     id="defs4" />
  <sodipodi:namedview
     id="base"
     pagecolor="#ffffff"
     bordercolor="#666666"
     borderopacity="1.0"
     inkscape:pageopacity="0.0"
     inkscape:pageshadow="2"
     inkscape:zoom="0.98994949"
     inkscape:cx="-10.604053"
     inkscape:cy="-143.25394"
     inkscape:document-units="px"
     inkscape:current-layer="layer1"
     showgrid="false"
     inkscape:window-width="1596"
     inkscape:window-height="861"
     inkscape:window-x="0"
     inkscape:window-y="18"
     inkscape:window-maximized="0"
     fit-margin-top="0"
     fit-margin-left="0"
     fit-margin-right="0"
     fit-margin-bottom="0" />
  <metadata
     id="metadata7">
    <rdf:RDF>
      <cc:Work
         rdf:about="">
        <dc:format>image/svg+xml</dc:format>
        <dc:type
           rdf:resource="http://purl.org/dc/dcmitype/StillImage" />
        <dc:title></dc:title>
      </cc:Work>
    </rdf:RDF>
  </metadata>
  <g
     inkscape:label="Layer 1"
     inkscape:groupmode="layer"
     id="layer1"
     transform="translate(-204.08699,-762.36153)">
    <path
       style="font-size:40px;font-style:normal;font-weight:normal;line-height:125%;letter-spacing:0px;word-spacing:0px;fill:#000000;fill-opacity:1;stroke:none;font-family:Sans"
       inkscape:connector-curvature="0"
       id="path3156"
       d="m 218.85957,764.71032 c 1.99075,3e-5 3.82331,0.49525 5.49769,1.48568 1.67433,0.99047 2.99931,2.33562 3.97495,4.03542 0.97558,1.69985 1.46338,3.5603 1.46341,5.58134 -3e-5,2.00768 -0.48783,3.86144 -1.46341,5.56125 -0.97564,1.69984 -2.30721,3.05167 -3.99472,4.05551 -1.67438,0.99045 -3.50035,1.48567 -5.47792,1.48567 -1.96442,0 -3.79039,-0.49522 -5.47791,-1.48567 -1.67438,-1.00384 -3.00596,-2.35567 -3.99474,-4.05551 -0.97562,-1.7132 -1.46342,-3.56696 -1.46341,-5.56125 -1e-5,-2.00766 0.48779,-3.86141 1.46341,-5.56126 0.98878,-1.71319 2.32036,-3.06503 3.99474,-4.0555 1.68752,-0.99043 3.51349,-1.48565 5.47791,-1.48568 m 0,1.64629 c -1.68756,3e-5 -3.24985,0.42164 -4.68688,1.26484 -1.42388,0.84324 -2.55111,1.99431 -3.38168,3.45319 -0.83059,1.44555 -1.24589,3.02492 -1.24588,4.73812 -1e-5,2.60998 0.90968,4.8385 2.72908,6.68555 1.81936,1.84706 4.01448,2.77059 6.58536,2.77059 2.58402,0 4.77914,-0.92353 6.58537,-2.77059 1.81935,-1.84705 2.72903,-4.07557 2.72906,-6.68555 -3e-5,-2.62335 -0.90971,-4.85187 -2.72906,-6.68556 -1.80623,-1.84703 -4.00135,-2.77056 -6.58537,-2.77059 m -13.96177,-3.95512 c 0.21094,3e-5 0.39551,0.0871 0.55372,0.261 0.17139,0.16065 0.25708,0.34803 0.25709,0.56215 l 0,0.0402 c -1e-5,1.27155 0.85695,2.50962 2.57086,3.7142 0.4087,0.28109 0.83718,0.54208 1.28543,0.78299 0.46143,0.24094 0.8174,0.41493 1.0679,0.52199 l 0.39553,0.14054 c 0.15819,0.0536 0.29002,0.15394 0.39551,0.30115 0.11865,0.14725 0.17797,0.30787 0.17798,0.48184 -1e-5,0.22756 -0.0857,0.42163 -0.25708,0.58222 -0.15822,0.16064 -0.3428,0.24095 -0.55373,0.24093 -0.1714,2e-5 -0.27687,-0.02 -0.31641,-0.0602 -1e-5,0.0134 -0.14504,-0.0401 -0.43508,-0.16061 -0.27686,-0.12043 -0.67897,-0.31452 -1.20632,-0.58222 -0.51418,-0.26767 -1.00198,-0.56213 -1.46341,-0.88338 -2.18854,-1.53919 -3.28281,-3.23232 -3.2828,-5.07941 l 0,-0.0402 c -10e-6,-0.21412 0.0791,-0.4015 0.23731,-0.56215 0.15821,-0.17396 0.34937,-0.26097 0.5735,-0.261 m 28.00264,-0.02 -0.0198,0 c 0.0263,3e-5 0.0593,3e-5 0.0988,0 0.0395,-0.0134 0.0725,-0.02 0.0989,-0.02 0.21091,3e-5 0.39548,0.0871 0.55373,0.26101 0.17135,0.16063 0.25705,0.34801 0.25708,0.56214 l 0,0.02 c -3e-5,1.90063 -1.10089,3.60046 -3.30257,5.0995 -0.46147,0.32125 -0.94927,0.61571 -1.46341,0.88337 -0.5142,0.26771 -0.91632,0.45509 -1.20634,0.56215 l -0.43506,0.16062 c -0.1055,0.0536 -0.22415,0.0803 -0.35597,0.0803 -0.23734,2e-5 -0.43509,-0.0736 -0.59327,-0.22084 -0.14505,-0.1606 -0.21756,-0.36136 -0.21754,-0.60231 -2e-5,-0.42827 0.21092,-0.69597 0.63283,-0.80307 0.90966,-0.33459 1.81935,-0.80973 2.72908,-1.42545 1.72705,-1.21796 2.5906,-2.46271 2.59063,-3.73427 l 0,-0.02 c -3e-5,-0.40151 0.21091,-0.66919 0.63283,-0.80307" />
  </g>
</svg>
