<?xml version="1.0" encoding="UTF-8" standalone="no"?>
<!-- Created with Inkscape (http://www.inkscape.org/) -->

<svg
   xmlns:dc="http://purl.org/dc/elements/1.1/"
   xmlns:cc="http://creativecommons.org/ns#"
   xmlns:rdf="http://www.w3.org/1999/02/22-rdf-syntax-ns#"
   xmlns:svg="http://www.w3.org/2000/svg"
   xmlns="http://www.w3.org/2000/svg"
   xmlns:sodipodi="http://sodipodi.sourceforge.net/DTD/sodipodi-0.dtd"
   xmlns:inkscape="http://www.inkscape.org/namespaces/inkscape"
   width="34.983521"
   height="29.312859"
   id="svg2"
   version="1.1"
   inkscape:version="0.48.4 r9939"
   sodipodi:docname="mani.svg">
  <defs
     id="defs4" />
  <sodipodi:namedview
     id="base"
     pagecolor="#ffffff"
     bordercolor="#666666"
     borderopacity="1.0"
     inkscape:pageopacity="0.0"
     inkscape:pageshadow="2"
     inkscape:zoom="0.98994949"
     inkscape:cx="-40.449585"
     inkscape:cy="-57.829459"
     inkscape:document-units="px"
     inkscape:current-layer="layer1"
     showgrid="false"
     inkscape:window-width="1596"
     inkscape:window-height="861"
     inkscape:window-x="0"
     inkscape:window-y="18"
     inkscape:window-maximized="0"
     fit-margin-top="0"
     fit-margin-left="0"
     fit-margin-right="0"
     fit-margin-bottom="0" />
  <metadata
     id="metadata7">
    <rdf:RDF>
      <cc:Work
         rdf:about="">
        <dc:format>image/svg+xml</dc:format>
        <dc:type
           rdf:resource="http://purl.org/dc/dcmitype/StillImage" />
        <dc:title></dc:title>
      </cc:Work>
    </rdf:RDF>
  </metadata>
  <g
     inkscape:label="Layer 1"
     inkscape:groupmode="layer"
     id="layer1"
     transform="translate(-241.97756,-759.99151)">
    <path
       style="font-size:40px;font-style:normal;font-weight:normal;line-height:125%;letter-spacing:0px;word-spacing:0px;fill:#000000;fill-opacity:1;stroke:none;font-family:Sans"
       inkscape:connector-curvature="0"
       id="path3158"
       d="m 254.95053,766.03539 c 1.35793,-0.58889 2.7752,-0.88335 4.25182,-0.88338 1.47657,3e-5 2.88725,0.29449 4.23204,0.88338 1.35791,0.58894 2.52469,1.37862 3.50032,2.36905 0.97558,0.99048 1.75343,2.175 2.33356,3.55359 0.58007,1.36523 0.8701,2.79737 0.87013,4.29641 -3e-5,1.49908 -0.29006,2.93791 -0.87013,4.3165 -0.58013,1.36523 -1.35798,2.54307 -2.33356,3.53351 -0.97563,0.99046 -2.14241,1.78014 -3.50032,2.36905 -1.34479,0.58892 -2.75547,0.88339 -4.23204,0.88339 -1.47662,0 -2.89389,-0.29447 -4.25182,-0.88339 -1.34477,-0.58891 -2.50495,-1.37859 -3.48055,-2.36905 -0.97562,-0.99044 -1.75347,-2.16828 -2.33355,-3.53351 -0.5801,-1.37859 -0.87015,-2.81742 -0.87014,-4.3165 -1e-5,-1.49904 0.29004,-2.93118 0.87014,-4.29641 0.58008,-1.37859 1.35793,-2.56311 2.33355,-3.55359 0.9756,-0.99043 2.13578,-1.78011 3.48055,-2.36905 m 8.91893,2.02774 c -1.42389,-0.84319 -2.97959,-1.2648 -4.66711,-1.26482 -1.68756,2e-5 -3.24985,0.42163 -4.68688,1.26482 -1.42388,0.84325 -2.5511,1.99432 -3.38168,3.4532 -0.83059,1.44555 -1.24589,3.02491 -1.24588,4.73811 -1e-5,2.60999 0.90968,4.83851 2.72908,6.68556 1.81936,1.84706 4.01448,2.7706 6.58536,2.77059 1.68752,10e-6 3.24322,-0.42161 4.66711,-1.26484 1.43701,-0.84321 2.57083,-1.98758 3.40144,-3.43312 0.83057,-1.4589 1.24585,-3.04496 1.24588,-4.75819 -3e-5,-1.7132 -0.41531,-3.29256 -1.24588,-4.73811 -0.83061,-1.45888 -1.96443,-2.60995 -3.40144,-3.4532 m -4.98353,-8.07085 c 6.82925,0.0937 11.56227,3.11193 14.19908,9.05462 0.54051,1.19124 1.01513,2.48953 1.42387,3.89488 0.40866,1.39201 0.75144,2.93123 1.02834,4.61766 0.29001,1.68645 0.52073,3.1922 0.69216,4.51726 0.17135,1.32507 0.36911,2.99813 0.59328,5.01918 0.0659,0.57554 0.11202,1.00384 0.13842,1.28492 l 0,0.10042 c -3e-5,0.24092 -0.0792,0.44169 -0.23731,0.6023 -0.14506,0.14723 -0.33623,0.22085 -0.5735,0.22085 -0.21098,0 -0.39555,-0.0669 -0.55372,-0.20078 -0.14506,-0.13383 -0.23075,-0.30783 -0.25709,-0.52199 -0.2769,-2.51628 -0.48783,-4.32987 -0.63283,-5.4408 -0.14505,-1.12428 -0.36919,-2.6568 -0.67238,-4.59756 -0.30326,-1.95413 -0.65263,-3.62049 -1.04812,-4.99911 -0.38236,-1.37859 -0.83721,-2.65011 -1.36453,-3.81458 -0.58013,-1.28489 -1.23273,-2.39581 -1.95782,-3.33274 -0.72514,-0.95027 -1.59528,-1.7868 -2.61041,-2.5096 -1.01518,-0.72273 -2.20833,-1.2715 -3.57943,-1.64629 -1.35797,-0.37473 -2.89389,-0.57551 -4.60778,-0.6023 -3.13778,-0.0267 -5.66251,0.62241 -7.57416,1.94745 -1.91168,1.3117 -3.42782,3.26583 -4.54846,5.8624 -0.98879,2.24862 -1.70731,4.89205 -2.15556,7.93031 -0.43507,3.03829 -0.76467,6.69226 -0.98879,10.96191 l 0,0.10032 c -1e-5,0.22754 -0.0791,0.42162 -0.23732,0.58223 -0.14502,0.16061 -0.33618,0.24093 -0.5735,0.24092 -0.21094,1e-5 -0.4021,-0.0803 -0.57349,-0.24092 -0.15821,-0.16061 -0.23732,-0.35469 -0.23732,-0.58223 0,-0.0134 0,-0.0402 0,-0.0803 0.0132,-0.0536 0.0197,-0.087 0.0197,-0.10043 0.23732,-4.41688 0.57351,-8.16453 1.00858,-11.24297 0.44825,-3.0918 1.19314,-5.83562 2.23467,-8.23146 2.59723,-5.91592 7.14567,-8.84712 13.64535,-8.79362" />
  </g>
</svg>
