<?xml version="1.0" encoding="UTF-8" standalone="no"?>
<!-- Created with Inkscape (http://www.inkscape.org/) -->

<svg
   xmlns:dc="http://purl.org/dc/elements/1.1/"
   xmlns:cc="http://creativecommons.org/ns#"
   xmlns:rdf="http://www.w3.org/1999/02/22-rdf-syntax-ns#"
   xmlns:svg="http://www.w3.org/2000/svg"
   xmlns="http://www.w3.org/2000/svg"
   xmlns:sodipodi="http://sodipodi.sourceforge.net/DTD/sodipodi-0.dtd"
   xmlns:inkscape="http://www.inkscape.org/namespaces/inkscape"
   width="31.147011"
   height="31.72117"
   id="svg2"
   version="1.1"
   inkscape:version="0.48.4 r9939"
   sodipodi:docname="mi.svg">
  <defs
     id="defs4" />
  <sodipodi:namedview
     id="base"
     pagecolor="#ffffff"
     bordercolor="#666666"
     borderopacity="1.0"
     inkscape:pageopacity="0.0"
     inkscape:pageshadow="2"
     inkscape:zoom="0.98994949"
     inkscape:cx="-197.71337"
     inkscape:cy="-107.84785"
     inkscape:document-units="px"
     inkscape:current-layer="layer1"
     showgrid="false"
     inkscape:window-width="1596"
     inkscape:window-height="861"
     inkscape:window-x="0"
     inkscape:window-y="18"
     inkscape:window-maximized="0"
     fit-margin-top="0"
     fit-margin-left="0"
     fit-margin-right="0"
     fit-margin-bottom="0" />
  <metadata
     id="metadata7">
    <rdf:RDF>
      <cc:Work
         rdf:about="">
        <dc:format>image/svg+xml</dc:format>
        <dc:type
           rdf:resource="http://purl.org/dc/dcmitype/StillImage" />
        <dc:title></dc:title>
      </cc:Work>
    </rdf:RDF>
  </metadata>
  <g
     inkscape:label="Layer 1"
     inkscape:groupmode="layer"
     id="layer1"
     transform="translate(-324.89776,-758.78776)">
    <path
       style="font-size:40px;font-style:normal;font-weight:normal;line-height:125%;letter-spacing:0px;word-spacing:0px;fill:#000000;fill-opacity:1;stroke:none;font-family:Sans"
       inkscape:connector-curvature="0"
       id="path3162"
       d="m 325.57018,779.34627 0.0791,0 0.0593,0 29.52538,0 c 0.21091,10e-6 0.39548,0.0803 0.55373,0.24091 0.17135,0.16063 0.25705,0.3547 0.25708,0.58223 l 0,9.51637 c -3e-5,0.22754 -0.0858,0.42162 -0.25708,0.58223 -0.15825,0.16061 -0.34282,0.24092 -0.55373,0.24092 -0.23735,0 -0.43511,-0.0736 -0.59328,-0.22084 -0.14506,-0.16062 -0.21756,-0.36138 -0.21753,-0.60231 l 0,-8.69322 -27.90376,0 0,8.57276 0,0.02 c -10e-6,0.22755 -0.0791,0.42162 -0.23731,0.58223 -0.14503,0.16062 -0.33619,0.24093 -0.5735,0.24093 -0.21095,0 -0.40211,-0.0803 -0.5735,-0.24093 -0.15821,-0.16061 -0.23732,-0.35468 -0.23732,-0.58223 l 0,-0.02 0,-9.39591 0,-0.02 c 0,-0.20076 0.0593,-0.37477 0.178,-0.52201 0.13183,-0.16059 0.29663,-0.25429 0.49439,-0.28106 m 14.95056,-20.55858 c 1.97757,3e-5 3.80354,0.49525 5.47792,1.48567 1.68751,0.99048 3.01908,2.34231 3.99472,4.0555 0.97558,1.69986 1.46338,3.55361 1.46341,5.56126 -3e-5,2.00769 -0.48783,3.86814 -1.46341,5.58134 -0.97564,1.69984 -2.30721,3.04498 -3.99472,4.03542 -1.67438,0.99046 -3.50035,1.48569 -5.47792,1.48568 -1.47662,1e-5 -2.8873,-0.29445 -4.23204,-0.88339 -1.34477,-0.5889 -2.50496,-1.37858 -3.48056,-2.36904 -0.97561,-0.99044 -1.75347,-2.16828 -2.33354,-3.53351 -0.58011,-1.37859 -0.87016,-2.81742 -0.87014,-4.3165 -2e-5,-1.49904 0.29003,-2.93118 0.87014,-4.29642 0.58007,-1.37858 1.35793,-2.5631 2.33354,-3.55358 0.9756,-0.99042 2.13579,-1.78011 3.48056,-2.36906 1.34474,-0.58888 2.75542,-0.88334 4.23204,-0.88337 m 0,1.64629 c -2.57088,3e-5 -4.766,0.92356 -6.58536,2.77058 -1.8194,1.84709 -2.72909,4.07561 -2.72908,6.68556 -1e-5,2.61 0.90968,4.83851 2.72908,6.68555 1.81936,1.84707 4.01448,2.77061 6.58536,2.7706 1.68752,10e-6 3.24981,-0.42161 4.68688,-1.26484 1.43702,-0.84321 2.57083,-1.98758 3.40145,-3.43313 0.83056,-1.45889 1.24585,-3.04495 1.24588,-4.75818 -3e-5,-1.7132 -0.41532,-3.29256 -1.24588,-4.73811 -0.83062,-1.45888 -1.96443,-2.60995 -3.40145,-3.4532 -1.43707,-0.84319 -2.99936,-1.2648 -4.68688,-1.26483" />
  </g>
</svg>
