<?xml version="1.0" encoding="UTF-8" standalone="no"?>
<!-- Created with Inkscape (http://www.inkscape.org/) -->

<svg
   xmlns:dc="http://purl.org/dc/elements/1.1/"
   xmlns:cc="http://creativecommons.org/ns#"
   xmlns:rdf="http://www.w3.org/1999/02/22-rdf-syntax-ns#"
   xmlns:svg="http://www.w3.org/2000/svg"
   xmlns="http://www.w3.org/2000/svg"
   xmlns:sodipodi="http://sodipodi.sourceforge.net/DTD/sodipodi-0.dtd"
   xmlns:inkscape="http://www.inkscape.org/namespaces/inkscape"
   width="24.007629"
   height="36.620049"
   id="svg2"
   version="1.1"
   inkscape:version="0.48.4 r9939"
   sodipodi:docname="mije.svg">
  <defs
     id="defs4" />
  <sodipodi:namedview
     id="base"
     pagecolor="#ffffff"
     bordercolor="#666666"
     borderopacity="1.0"
     inkscape:pageopacity="0.0"
     inkscape:pageshadow="2"
     inkscape:zoom="0.98994949"
     inkscape:cx="-196.95595"
     inkscape:cy="-10.688294"
     inkscape:document-units="px"
     inkscape:current-layer="layer1"
     showgrid="false"
     inkscape:window-width="1596"
     inkscape:window-height="861"
     inkscape:window-x="0"
     inkscape:window-y="18"
     inkscape:window-maximized="0"
     fit-margin-top="0"
     fit-margin-left="0"
     fit-margin-right="0"
     fit-margin-bottom="0" />
  <metadata
     id="metadata7">
    <rdf:RDF>
      <cc:Work
         rdf:about="">
        <dc:format>image/svg+xml</dc:format>
        <dc:type
           rdf:resource="http://purl.org/dc/dcmitype/StillImage" />
        <dc:title></dc:title>
      </cc:Work>
    </rdf:RDF>
  </metadata>
  <g
     inkscape:label="Layer 1"
     inkscape:groupmode="layer"
     id="layer1"
     transform="translate(-368.95841,-756.33817)">
    <path
       style="font-size:40px;font-style:normal;font-weight:normal;line-height:125%;letter-spacing:0px;word-spacing:0px;fill:#000000;fill-opacity:1;stroke:none;font-family:Sans"
       inkscape:connector-curvature="0"
       id="path3164"
       d="m 383.63215,771.61672 c 1.23925,0.0536 2.3533,0.39486 3.34212,1.02391 0.98876,0.61571 1.81276,1.45224 2.47197,2.5096 1.08106,1.55261 1.91824,3.87482 2.51154,6.96662 0.27684,1.44554 0.468,3.01821 0.57351,4.71803 0.10544,1.69984 0.15158,2.87098 0.13843,3.51343 -0.0133,0.62907 -0.033,1.17783 -0.0593,1.64629 l 0,0.02 c -3e-5,0.20076 -0.0858,0.37476 -0.25708,0.52199 -0.15823,0.16061 -0.34281,0.23422 -0.55373,0.22084 -0.21096,0.0267 -0.40213,-0.0469 -0.57349,-0.22084 -0.15824,-0.16061 -0.23735,-0.35469 -0.23731,-0.58223 l 0,-0.0602 0.0197,-2.60997 c -0.0396,-2.5029 -0.24393,-4.77827 -0.61305,-6.8261 -0.52739,-2.70365 -1.28545,-4.83848 -2.27423,-6.40448 -0.61966,-0.89674 -1.29205,-1.57935 -2.01714,-2.04783 -0.71195,-0.48182 -1.55572,-0.72273 -2.53131,-0.72275 -1.72711,-0.0937 -3.24985,0.76962 -4.56823,2.58989 -1.05472,1.52585 -1.91167,3.70083 -2.57086,6.52495 -0.68558,3.06505 -1.05472,6.30409 -1.10745,9.71713 -10e-6,0.49523 -0.27028,0.77631 -0.81081,0.84322 -0.31642,-0.0936 -0.52077,-0.19407 -0.61305,-0.30114 l -4.70666,-5.48096 c -0.15821,-0.32121 -0.23732,-0.52198 -0.23731,-0.60229 -1e-5,-0.22753 0.0791,-0.42161 0.23731,-0.58223 0.15821,-0.174 0.34937,-0.24761 0.5735,-0.22084 0.0791,-0.0134 0.15161,-0.007 0.21754,0.02 0.0791,0.0267 0.16479,0.0803 0.25709,0.16062 0.0922,0.0669 0.1516,0.10708 0.17798,0.12046 l 3.38168,3.97519 c 0.15818,-2.99812 0.51416,-5.6817 1.06789,-8.05077 0.7251,-3.09181 1.66116,-5.44078 2.80817,-7.04694 0.71192,-1.05736 1.57546,-1.8805 2.59064,-2.46943 1.01515,-0.60229 2.13578,-0.89006 3.36191,-0.8633 m -9.19578,-15.25832 0.0197,0 c 0.0132,3e-5 0.0197,-0.006 0.0197,-0.0201 -10e-6,0.0135 0.006,0.0202 0.0197,0.0201 l 0.0197,0 17.64009,-0.0201 c 0.23727,0.0268 0.42844,0.11382 0.57349,0.26101 0.15818,0.14726 0.23729,0.34134 0.23732,0.58223 -3e-5,2.04786 -0.42851,3.94845 -1.28543,5.70178 -0.84381,1.7534 -2.00399,3.14538 -3.48056,4.17597 -1.47662,1.03063 -3.09824,1.54593 -4.86487,1.54591 -1.31841,2e-5 -2.57747,-0.30113 -3.77719,-0.90346 -1.19975,-0.61566 -2.2281,-1.4388 -3.08504,-2.46943 -0.84378,-1.03059 -1.51615,-2.24857 -2.01713,-3.65397 -0.50101,-1.40535 -0.7515,-2.87095 -0.75149,-4.3968 l 0,-0.02 c -1e-5,-0.20073 0.0725,-0.38142 0.21753,-0.54208 0.14502,-0.17396 0.31641,-0.26096 0.51418,-0.26099 m 0.94925,1.62622 0,0.02 c 0.17137,2.5297 1.02173,4.65783 2.55108,6.38441 1.52932,1.72662 3.32892,2.58322 5.39881,2.56982 2.04348,0.0268 3.8365,-0.82982 5.37904,-2.56982 1.55568,-1.73996 2.41263,-3.8681 2.57086,-6.38441 l -15.89979,-0.02" />
  </g>
</svg>
