<?xml version="1.0" encoding="UTF-8" standalone="no"?>
<!-- Created with Inkscape (http://www.inkscape.org/) -->

<svg
   xmlns:dc="http://purl.org/dc/elements/1.1/"
   xmlns:cc="http://creativecommons.org/ns#"
   xmlns:rdf="http://www.w3.org/1999/02/22-rdf-syntax-ns#"
   xmlns:svg="http://www.w3.org/2000/svg"
   xmlns="http://www.w3.org/2000/svg"
   xmlns:sodipodi="http://sodipodi.sourceforge.net/DTD/sodipodi-0.dtd"
   xmlns:inkscape="http://www.inkscape.org/namespaces/inkscape"
   width="27.113081"
   height="27.5252"
   id="svg2"
   version="1.1"
   inkscape:version="0.48.4 r9939"
   sodipodi:docname="moku.svg">
  <defs
     id="defs4" />
  <sodipodi:namedview
     id="base"
     pagecolor="#ffffff"
     bordercolor="#666666"
     borderopacity="1.0"
     inkscape:pageopacity="0.0"
     inkscape:pageshadow="2"
     inkscape:zoom="0.98994949"
     inkscape:cx="-194.73117"
     inkscape:cy="-32.233328"
     inkscape:document-units="px"
     inkscape:current-layer="layer1"
     showgrid="false"
     inkscape:window-width="1596"
     inkscape:window-height="861"
     inkscape:window-x="0"
     inkscape:window-y="18"
     inkscape:window-maximized="0"
     fit-margin-top="0"
     fit-margin-left="0"
     fit-margin-right="0"
     fit-margin-bottom="0" />
  <metadata
     id="metadata7">
    <rdf:RDF>
      <cc:Work
         rdf:about="">
        <dc:format>image/svg+xml</dc:format>
        <dc:type
           rdf:resource="http://purl.org/dc/dcmitype/StillImage" />
        <dc:title></dc:title>
      </cc:Work>
    </rdf:RDF>
  </metadata>
  <g
     inkscape:label="Layer 1"
     inkscape:groupmode="layer"
     id="layer1"
     transform="translate(-407.89714,-760.87567)">
    <path
       style="font-size:40px;font-style:normal;font-weight:normal;line-height:125%;letter-spacing:0px;word-spacing:0px;fill:#000000;fill-opacity:1;stroke:none;font-family:Sans"
       inkscape:connector-curvature="0"
       id="path3166"
       d="m 421.48316,760.87567 c 1.83254,3e-5 3.586,0.3681 5.26038,1.10422 1.67433,0.72279 3.11797,1.69985 4.33093,2.9312 1.21288,1.21801 2.1753,2.67692 2.88727,4.37673 0.7119,1.69985 1.06127,3.47999 1.04812,5.34041 0.0132,1.87384 -0.33622,3.66067 -1.04812,5.36049 -0.71197,1.69984 -1.67439,3.16544 -2.88727,4.3968 -1.21296,1.218 -2.6566,2.19506 -4.33093,2.9312 -1.67438,0.72277 -3.42784,1.08415 -5.26038,1.08415 -1.84576,0 -3.60581,-0.36138 -5.28015,-1.08415 -1.66119,-0.73614 -3.09823,-1.7132 -4.31115,-2.9312 -1.21292,-1.23136 -2.18194,-2.69696 -2.90705,-4.3968 -0.71193,-1.69982 -1.07449,-3.48665 -1.08767,-5.36049 0.0132,-1.86042 0.37574,-3.64056 1.08767,-5.34041 0.72511,-1.69981 1.69413,-3.15872 2.90705,-4.37673 1.21292,-1.23135 2.64996,-2.20841 4.31115,-2.9312 1.67434,-0.73612 3.43439,-1.10419 5.28015,-1.10422 m -0.0197,1.64629 c -2.16219,3e-5 -4.15954,0.5421 -5.99209,1.62621 -1.8194,1.07078 -3.26303,2.53638 -4.33091,4.3968 -1.06791,1.86047 -1.60186,3.88822 -1.60186,6.08326 0,1.64631 0.30982,3.21899 0.92947,4.71804 0.63282,1.48568 1.48319,2.77059 2.55109,3.85473 1.06789,1.08415 2.34013,1.94744 3.81675,2.5899 1.47657,0.64245 3.01909,0.96368 4.62755,0.96368 1.63478,0 3.18389,-0.32123 4.64733,-0.96368 1.47657,-0.64246 2.74223,-1.50575 3.79696,-2.5899 1.06787,-1.08414 1.91164,-2.36905 2.53132,-3.85473 0.63279,-1.49905 0.9558,-3.07173 0.96901,-4.71804 -0.0133,-2.19504 -0.54716,-4.2161 -1.60184,-6.06317 -1.05474,-1.86043 -2.49838,-3.33272 -4.33091,-4.41689 -1.83259,-1.08411 -3.83655,-1.62618 -6.01187,-1.62621 m -7.47528,8.87391 -0.0197,0.0201 c 0.0132,-0.0134 0.0395,-0.0201 0.0791,-0.0201 0.27684,2e-5 0.46802,0.0871 0.5735,0.261 l 5.45814,5.54118 c 0.0791,0.0536 0.15159,0.14725 0.21753,0.28107 0.0659,0.13386 0.0857,0.24763 0.0593,0.34131 0.0263,0.22755 -0.0462,0.42162 -0.21754,0.58223 -0.15822,0.16062 -0.3428,0.24093 -0.55372,0.24091 -0.29007,2e-5 -0.5076,-0.10032 -0.6526,-0.30115 l -5.43837,-5.5211 c -0.11866,-0.0936 -0.20436,-0.29444 -0.25708,-0.6023 0.0659,-0.49521 0.3164,-0.76959 0.75148,-0.82315 m 5.51746,0 -0.0197,0 0.0396,0 c 0.19773,2e-5 0.38231,0.0871 0.55372,0.261 0.18455,0.17402 0.26366,0.3614 0.23731,0.56215 0.0263,0.12048 -0.0528,0.32125 -0.23731,0.6023 l -5.45814,5.5211 c -0.0923,0.20079 -0.29666,0.30117 -0.61305,0.30115 -0.23733,2e-5 -0.42849,-0.0736 -0.57351,-0.22084 -0.14503,-0.1606 -0.23073,-0.36137 -0.25709,-0.6023 0.0922,-0.3346 0.19776,-0.54875 0.31642,-0.64246 l 5.41859,-5.50102 c 0.19774,-0.14721 0.3955,-0.24091 0.59327,-0.28108 m 3.73765,0 -0.0197,0.0201 c 0.0132,-0.0134 0.0462,-0.0201 0.0989,-0.0201 0.0791,2e-5 0.18455,0.0268 0.31641,0.0803 0.14499,0.0536 0.2241,0.11378 0.23731,0.18069 l 5.47792,5.5211 c -3e-5,0.0268 0.0395,0.10709 0.11864,0.24093 0.0791,0.13385 0.10545,0.24763 0.0791,0.3413 0.0263,0.22755 -0.0462,0.42163 -0.21753,0.58222 -0.15824,0.16063 -0.3494,0.24094 -0.5735,0.24093 -0.19779,10e-6 -0.39555,-0.0803 -0.59328,-0.24093 l -5.39881,-5.5211 c -0.13186,-0.0936 -0.22415,-0.29444 -0.27687,-0.6023 0.0659,-0.49521 0.3164,-0.76959 0.75149,-0.82315 m 5.49769,0 -0.0197,0 0.0593,0 c 0.2241,2e-5 0.41527,0.0871 0.57351,0.261 0.17136,0.16064 0.24386,0.34802 0.21753,0.56215 0.0263,0.13386 -0.0462,0.33463 -0.21753,0.6023 l -5.47792,5.5211 c -0.0132,0.0937 -0.0924,0.16733 -0.23731,0.22085 -0.13186,0.0536 -0.25052,0.0803 -0.35597,0.0803 -0.48783,2e-5 -0.76469,-0.27436 -0.83059,-0.82314 0.0922,-0.36137 0.19774,-0.57552 0.31642,-0.64246 l 5.37903,-5.50102 c 0.15818,-0.13383 0.35595,-0.22752 0.59328,-0.28108" />
  </g>
</svg>
