<?xml version="1.0" encoding="UTF-8" standalone="no"?>
<!-- Created with Inkscape (http://www.inkscape.org/) -->

<svg
   xmlns:dc="http://purl.org/dc/elements/1.1/"
   xmlns:cc="http://creativecommons.org/ns#"
   xmlns:rdf="http://www.w3.org/1999/02/22-rdf-syntax-ns#"
   xmlns:svg="http://www.w3.org/2000/svg"
   xmlns="http://www.w3.org/2000/svg"
   xmlns:sodipodi="http://sodipodi.sourceforge.net/DTD/sodipodi-0.dtd"
   xmlns:inkscape="http://www.inkscape.org/namespaces/inkscape"
   width="20.586679"
   height="29.472639"
   id="svg2"
   version="1.1"
   inkscape:version="0.48.4 r9939"
   sodipodi:docname="moli.svg">
  <defs
     id="defs4" />
  <sodipodi:namedview
     id="base"
     pagecolor="#ffffff"
     bordercolor="#666666"
     borderopacity="1.0"
     inkscape:pageopacity="0.0"
     inkscape:pageshadow="2"
     inkscape:zoom="0.98994949"
     inkscape:cx="-317.12207"
     inkscape:cy="-76.0482"
     inkscape:document-units="px"
     inkscape:current-layer="layer1"
     showgrid="false"
     inkscape:window-width="1596"
     inkscape:window-height="861"
     inkscape:window-x="0"
     inkscape:window-y="18"
     inkscape:window-maximized="0"
     fit-margin-top="0"
     fit-margin-left="0"
     fit-margin-right="0"
     fit-margin-bottom="0" />
  <metadata
     id="metadata7">
    <rdf:RDF>
      <cc:Work
         rdf:about="">
        <dc:format>image/svg+xml</dc:format>
        <dc:type
           rdf:resource="http://purl.org/dc/dcmitype/StillImage" />
        <dc:title></dc:title>
      </cc:Work>
    </rdf:RDF>
  </metadata>
  <g
     inkscape:label="Layer 1"
     inkscape:groupmode="layer"
     id="layer1"
     transform="translate(-451.70063,-759.8919)">
    <path
       style="font-size:40px;font-style:normal;font-weight:normal;line-height:125%;letter-spacing:0px;word-spacing:0px;fill:#000000;fill-opacity:1;stroke:none;font-family:Sans"
       inkscape:connector-curvature="0"
       id="path3168"
       d="m 472.26761,760.55444 c -3e-5,0.0135 -3e-5,0.0402 0,0.0803 0.0132,0.0402 0.0197,0.0669 0.0197,0.0803 -3e-5,0.22756 -0.0858,0.42164 -0.25709,0.58222 -0.15823,0.16064 -0.34281,0.24096 -0.55372,0.24093 l -0.0197,0 -11.94464,0 0,26.18006 11.76665,0 0.0197,0 c 0.21091,0 0.39548,0.087 0.55372,0.26099 0.17136,0.16063 0.25706,0.34801 0.25709,0.56216 -3e-5,0.22754 -0.0858,0.42161 -0.25709,0.58223 -0.15824,0.16061 -0.34281,0.24091 -0.55372,0.24091 l -0.0197,0 -12.57746,0 c -0.21095,0 -0.40212,-0.0803 -0.57349,-0.24091 -0.15823,-0.16062 -0.23733,-0.35469 -0.23731,-0.58223 l 0,-27.82636 c -2e-5,-0.21413 0.0791,-0.40151 0.23731,-0.56215 0.17137,-0.17397 0.36254,-0.26096 0.57349,-0.26099 l 12.75545,0 0.0197,0 c 0.18454,3e-5 0.35593,0.0669 0.51417,0.20076 0.15818,0.12049 0.25047,0.27442 0.27687,0.46177 m -18.4509,13.1101 c 0.25049,0.24094 0.37574,0.5354 0.37575,0.88338 -10e-6,0.34802 -0.12526,0.64916 -0.37575,0.90345 -0.23731,0.24094 -0.52736,0.3614 -0.87013,0.36139 -0.34279,10e-6 -0.63943,-0.12045 -0.88992,-0.36139 -0.23731,-0.25429 -0.35597,-0.55543 -0.35596,-0.90345 -10e-6,-0.34798 0.11865,-0.64244 0.35596,-0.88338 0.25049,-0.25429 0.54713,-0.38143 0.88992,-0.38145 0.34277,2e-5 0.63282,0.12716 0.87013,0.38145" />
  </g>
</svg>
