<?xml version="1.0" encoding="UTF-8" standalone="no"?>
<!-- Created with Inkscape (http://www.inkscape.org/) -->

<svg
   xmlns:dc="http://purl.org/dc/elements/1.1/"
   xmlns:cc="http://creativecommons.org/ns#"
   xmlns:rdf="http://www.w3.org/1999/02/22-rdf-syntax-ns#"
   xmlns:svg="http://www.w3.org/2000/svg"
   xmlns="http://www.w3.org/2000/svg"
   xmlns:sodipodi="http://sodipodi.sourceforge.net/DTD/sodipodi-0.dtd"
   xmlns:inkscape="http://www.inkscape.org/namespaces/inkscape"
   width="25.551678"
   height="30.01473"
   id="svg2"
   version="1.1"
   inkscape:version="0.48.4 r9939"
   sodipodi:docname="monsi.svg">
  <defs
     id="defs4" />
  <sodipodi:namedview
     id="base"
     pagecolor="#ffffff"
     bordercolor="#666666"
     borderopacity="1.0"
     inkscape:pageopacity="0.0"
     inkscape:pageshadow="2"
     inkscape:zoom="0.98994949"
     inkscape:cx="-334.06092"
     inkscape:cy="-119.5619"
     inkscape:document-units="px"
     inkscape:current-layer="layer1"
     showgrid="false"
     inkscape:window-width="1596"
     inkscape:window-height="861"
     inkscape:window-x="0"
     inkscape:window-y="18"
     inkscape:window-maximized="0"
     fit-margin-top="0"
     fit-margin-left="0"
     fit-margin-right="0"
     fit-margin-bottom="0" />
  <metadata
     id="metadata7">
    <rdf:RDF>
      <cc:Work
         rdf:about="">
        <dc:format>image/svg+xml</dc:format>
        <dc:type
           rdf:resource="http://purl.org/dc/dcmitype/StillImage" />
        <dc:title></dc:title>
      </cc:Work>
    </rdf:RDF>
  </metadata>
  <g
     inkscape:label="Layer 1"
     inkscape:groupmode="layer"
     id="layer1"
     transform="translate(-489.69023,-759.65098)">
    <path
       style="font-size:40px;font-style:normal;font-weight:normal;line-height:125%;letter-spacing:0px;word-spacing:0px;fill:#000000;fill-opacity:1;stroke:none;font-family:Sans"
       inkscape:connector-curvature="0"
       id="path3170"
       d="m 502.38626,764.24856 c 1.99075,2e-5 3.82331,0.56886 5.49769,1.70651 1.68752,1.13772 3.0125,2.68362 3.97495,4.63773 0.9624,1.94077 1.44361,4.05552 1.44364,6.34426 -3e-5,2.28875 -0.48124,4.41019 -1.44364,6.36432 -0.96245,1.94076 -2.28743,3.48666 -3.97495,4.63772 -1.67438,1.15108 -3.50694,1.72661 -5.49769,1.72661 -2.00397,0 -3.84313,-0.57553 -5.51747,-1.72661 -1.67436,-1.15106 -2.99935,-2.69696 -3.97495,-4.63772 -0.96244,-1.95413 -1.45024,-4.07557 -1.46341,-6.36432 0.0132,-2.28874 0.50097,-4.40349 1.46341,-6.34426 0.9756,-1.95411 2.30059,-3.50001 3.97495,-4.63773 1.67434,-1.13765 3.5135,-1.70649 5.51747,-1.70651 m -0.0197,1.64629 c -1.2393,2e-5 -2.43245,0.28779 -3.57942,0.86329 -1.14702,0.57556 -2.14241,1.35186 -2.98616,2.32891 -0.84379,0.97709 -1.51617,2.15492 -2.01714,3.53351 -0.48782,1.36523 -0.72513,2.80406 -0.71194,4.3165 -0.0132,1.51245 0.22412,2.95798 0.71194,4.33657 0.50097,1.37861 1.17335,2.55644 2.01714,3.53351 0.84375,0.97707 1.83914,1.76006 2.98616,2.34897 1.14697,0.57554 2.34012,0.86331 3.57942,0.86331 1.26564,0 2.47197,-0.28777 3.61899,-0.86331 1.14698,-0.58891 2.13577,-1.3719 2.96638,-2.34897 0.83056,-0.99045 1.48976,-2.16828 1.97758,-3.53351 0.50097,-1.36521 0.75805,-2.81074 0.77126,-4.33657 -0.0132,-2.03443 -0.44168,-3.89488 -1.28543,-5.58134 -0.83061,-1.69981 -1.95783,-3.03157 -3.38167,-3.99527 -1.4107,-0.97705 -2.9664,-1.46558 -4.66711,-1.4656 m -8.34542,-6.24387 c 1.17337,3e-5 2.18193,0.42834 3.02572,1.28491 0.85693,0.85664 1.27223,1.88056 1.24587,3.07174 0.0263,1.19125 -0.38894,2.22185 -1.24587,3.09182 -0.84379,0.85663 -1.85235,1.28494 -3.02572,1.28491 -1.19974,3e-5 -2.2149,-0.42828 -3.04548,-1.28491 -0.83059,-0.85658 -1.25906,-1.88719 -1.28543,-3.09182 0.0263,-1.21796 0.45484,-2.24856 1.28543,-3.09181 0.83058,-0.84319 1.84574,-1.26481 3.04548,-1.26484 m -0.0197,1.62622 c -0.73831,3e-5 -1.37772,0.26772 -1.91826,0.80307 -0.52736,0.5354 -0.77786,1.17786 -0.75149,1.92736 -0.0264,0.74956 0.22413,1.39201 0.75149,1.92737 0.54054,0.53541 1.17995,0.8031 1.91826,0.80307 0.75147,3e-5 1.37771,-0.26097 1.87871,-0.783 0.51416,-0.52196 0.78443,-1.1711 0.81081,-1.94744 -0.0263,-0.76289 -0.29665,-1.40534 -0.81081,-1.92736 -0.501,-0.53535 -1.12724,-0.80304 -1.87871,-0.80307 m 16.94792,-1.62622 c 1.17334,3e-5 2.1885,0.42834 3.04549,1.28491 0.85692,0.85664 1.27222,1.88056 1.24588,3.07174 0.0263,1.19125 -0.38896,2.22185 -1.24588,3.09182 -0.85699,0.85663 -1.87215,1.28494 -3.04549,1.28491 -1.18658,3e-5 -2.19514,-0.42828 -3.02571,-1.28491 -0.8306,-0.85658 -1.25908,-1.88719 -1.28543,-3.09182 0.0263,-1.21796 0.44824,-2.24856 1.26566,-3.09181 0.83056,-0.84319 1.84572,-1.26481 3.04548,-1.26484 m -0.0197,1.62622 c -0.73833,3e-5 -1.37775,0.26772 -1.91826,0.80307 -0.52739,0.5354 -0.77788,1.17786 -0.75149,1.92736 -0.0264,0.74956 0.2241,1.39201 0.75149,1.92737 0.54051,0.53541 1.17993,0.8031 1.91826,0.80307 0.76463,3e-5 1.39746,-0.26097 1.89848,-0.783 0.51415,-0.52196 0.78441,-1.1711 0.81081,-1.94744 -0.0264,-0.76289 -0.29666,-1.40534 -0.81081,-1.92736 -0.50102,-0.53535 -1.13385,-0.80304 -1.89848,-0.80307 m -8.44439,21.68287 c 0.32958,10e-6 0.61962,0.12717 0.87013,0.38147 0.26366,0.25431 0.38232,0.54877 0.35598,0.88337 0.0263,0.32124 -0.0924,0.609 -0.35598,0.86329 -0.25051,0.25432 -0.54055,0.38147 -0.87013,0.38147 -0.35598,0 -0.65262,-0.12045 -0.88992,-0.36138 -0.22414,-0.24092 -0.34939,-0.53538 -0.37574,-0.88338 0.0263,-0.36137 0.1516,-0.66252 0.37574,-0.90346 0.2373,-0.2409 0.53394,-0.36137 0.88992,-0.36138" />
  </g>
</svg>
