<?xml version="1.0" encoding="UTF-8" standalone="no"?>
<!-- Created with Inkscape (http://www.inkscape.org/) -->

<svg
   xmlns:dc="http://purl.org/dc/elements/1.1/"
   xmlns:cc="http://creativecommons.org/ns#"
   xmlns:rdf="http://www.w3.org/1999/02/22-rdf-syntax-ns#"
   xmlns:svg="http://www.w3.org/2000/svg"
   xmlns="http://www.w3.org/2000/svg"
   xmlns:sodipodi="http://sodipodi.sourceforge.net/DTD/sodipodi-0.dtd"
   xmlns:inkscape="http://www.inkscape.org/namespaces/inkscape"
   width="22.16876"
   height="33.587845"
   id="svg2"
   version="1.1"
   inkscape:version="0.48.4 r9939"
   sodipodi:docname="mu.svg">
  <defs
     id="defs4" />
  <sodipodi:namedview
     id="base"
     pagecolor="#ffffff"
     bordercolor="#666666"
     borderopacity="1.0"
     inkscape:pageopacity="0.0"
     inkscape:pageshadow="2"
     inkscape:zoom="0.98994949"
     inkscape:cx="-387.14047"
     inkscape:cy="-42.104161"
     inkscape:document-units="px"
     inkscape:current-layer="layer1"
     showgrid="false"
     inkscape:window-width="1596"
     inkscape:window-height="861"
     inkscape:window-x="0"
     inkscape:window-y="18"
     inkscape:window-maximized="0"
     fit-margin-top="0"
     fit-margin-left="0"
     fit-margin-right="0"
     fit-margin-bottom="0" />
  <metadata
     id="metadata7">
    <rdf:RDF>
      <cc:Work
         rdf:about="">
        <dc:format>image/svg+xml</dc:format>
        <dc:type
           rdf:resource="http://purl.org/dc/dcmitype/StillImage" />
        <dc:title></dc:title>
      </cc:Work>
    </rdf:RDF>
  </metadata>
  <g
     inkscape:label="Layer 1"
     inkscape:groupmode="layer"
     id="layer1"
     transform="translate(-531.89186,-757.85131)">
    <path
       style="font-size:40px;font-style:normal;font-weight:normal;line-height:125%;letter-spacing:0px;word-spacing:0px;fill:#000000;fill-opacity:1;stroke:none;font-family:Sans"
       inkscape:connector-curvature="0"
       id="path3172"
       d="m 532.74222,757.86415 c 6.55239,-0.16058 11.71389,1.18456 15.48451,4.03543 1.88527,1.45894 3.32891,3.31268 4.33092,5.56126 1.00195,2.24861 1.50294,4.82513 1.50297,7.72954 -3e-5,5.76873 -1.93147,10.00491 -5.79434,12.70857 -3.52012,2.46275 -8.70798,3.64059 -15.56361,3.53351 -0.21095,0 -0.40211,-0.087 -0.5735,-0.261 -0.15822,-0.16062 -0.23732,-0.348 -0.23731,-0.56215 -10e-6,-0.41492 0.17798,-0.67591 0.53395,-0.78299 0.22412,-0.0803 0.53394,-0.20746 0.92947,-0.38145 0.39551,-0.174 1.12721,-0.56885 2.19512,-1.18454 1.06788,-0.62906 2.05668,-1.31168 2.96638,-2.04783 4.04744,-3.25242 6.11072,-6.95323 6.18985,-11.10243 0.0791,-4.18933 -1.92487,-8.04405 -6.01187,-11.5642 -0.42189,-0.37474 -0.86356,-0.73612 -1.32499,-1.08414 -0.44826,-0.34797 -0.87014,-0.64913 -1.26565,-0.90346 -0.39552,-0.26766 -0.78445,-0.51527 -1.16677,-0.74284 -0.36916,-0.24089 -0.70535,-0.44165 -1.00857,-0.60229 -0.29006,-0.16059 -0.54715,-0.29443 -0.77126,-0.40154 -0.22414,-0.12044 -0.40212,-0.21412 -0.53395,-0.28108 l -0.17799,-0.0803 c -0.15821,-0.0536 -0.29004,-0.15389 -0.39551,-0.30116 -0.0923,-0.14719 -0.13844,-0.30112 -0.13843,-0.46176 -1e-5,-0.2275 0.0791,-0.42158 0.2373,-0.58223 0.17139,-0.16057 0.36256,-0.24089 0.57351,-0.24092 l 0.0197,0 m 3.24325,1.74668 c 1.33156,0.78972 2.58404,1.68647 3.75741,2.69029 4.46933,3.88152 6.66445,8.15786 6.58537,12.82902 -0.0396,1.35185 -0.25711,2.65684 -0.6526,3.91497 -0.39555,1.25816 -0.9229,2.40253 -1.58207,3.43312 -0.65922,1.01723 -1.36456,1.93407 -2.11602,2.75051 -0.73832,0.80308 -1.54913,1.5593 -2.43244,2.26867 -0.64602,0.49524 -1.77324,1.22469 -3.38167,2.18837 4.8253,-0.26768 8.55634,-1.31837 11.19315,-3.15205 3.38823,-2.35566 5.08237,-6.13678 5.0824,-11.34335 -3e-5,-5.2467 -1.73372,-9.24197 -5.20106,-11.98582 -2.8082,-2.1281 -6.55901,-3.326 -11.25247,-3.59373" />
  </g>
</svg>
