<?xml version="1.0" encoding="UTF-8" standalone="no"?>
<!-- Created with Inkscape (http://www.inkscape.org/) -->

<svg
   xmlns:dc="http://purl.org/dc/elements/1.1/"
   xmlns:cc="http://creativecommons.org/ns#"
   xmlns:rdf="http://www.w3.org/1999/02/22-rdf-syntax-ns#"
   xmlns:svg="http://www.w3.org/2000/svg"
   xmlns="http://www.w3.org/2000/svg"
   xmlns:sodipodi="http://sodipodi.sourceforge.net/DTD/sodipodi-0.dtd"
   xmlns:inkscape="http://www.inkscape.org/namespaces/inkscape"
   width="25.55043"
   height="29.115465"
   id="svg2"
   version="1.1"
   inkscape:version="0.48.4 r9939"
   sodipodi:docname="mun.svg">
  <defs
     id="defs4" />
  <sodipodi:namedview
     id="base"
     pagecolor="#ffffff"
     bordercolor="#666666"
     borderopacity="1.0"
     inkscape:pageopacity="0.0"
     inkscape:pageshadow="2"
     inkscape:zoom="1.0984277"
     inkscape:cx="-352.63642"
     inkscape:cy="-20.656223"
     inkscape:document-units="px"
     inkscape:current-layer="layer1"
     showgrid="false"
     inkscape:window-width="1596"
     inkscape:window-height="861"
     inkscape:window-x="0"
     inkscape:window-y="18"
     inkscape:window-maximized="0"
     fit-margin-top="0"
     fit-margin-left="0"
     fit-margin-right="0"
     fit-margin-bottom="0" />
  <metadata
     id="metadata7">
    <rdf:RDF>
      <cc:Work
         rdf:about="">
        <dc:format>image/svg+xml</dc:format>
        <dc:type
           rdf:resource="http://purl.org/dc/dcmitype/StillImage" />
        <dc:title></dc:title>
      </cc:Work>
    </rdf:RDF>
  </metadata>
  <g
     inkscape:label="Layer 1"
     inkscape:groupmode="layer"
     id="layer1"
     transform="translate(-570.7119,-760.09267)">
    <path
       style="font-size:40px;font-style:normal;font-weight:normal;line-height:125%;letter-spacing:0px;word-spacing:0px;fill:#000000;fill-opacity:1;stroke:none;font-family:Sans"
       inkscape:connector-curvature="0"
       id="path3174"
       d="m 571.97756,761.37758 c 0.84376,-0.85658 1.85892,-1.28488 3.04548,-1.28491 1.18654,3e-5 2.19511,0.42833 3.02571,1.28491 0.84375,0.84325 1.26564,1.86716 1.26566,3.07174 -2e-5,1.20463 -0.42191,2.23523 -1.26566,3.09182 -0.8306,0.85663 -1.83917,1.28493 -3.02571,1.28491 -1.18656,2e-5 -2.20172,-0.42828 -3.04548,-1.28491 -0.84378,-0.86997 -1.26566,-1.90057 -1.26566,-3.09182 0,-1.20458 0.42188,-2.22849 1.26566,-3.07174 m 3.04548,0.34131 c -0.75149,3e-5 -1.39091,0.26771 -1.91826,0.80307 -0.51418,0.5354 -0.77126,1.17786 -0.77126,1.92736 0,0.76294 0.25708,1.41209 0.77126,1.94745 0.52735,0.52202 1.16677,0.78301 1.91826,0.78299 0.73829,2e-5 1.36453,-0.26097 1.87871,-0.78299 0.52734,-0.53536 0.79102,-1.18451 0.79103,-1.94745 -10e-6,-0.7495 -0.26369,-1.39196 -0.79103,-1.92736 -0.51418,-0.53536 -1.14042,-0.80304 -1.87871,-0.80307 m 13.88266,-0.34131 c 0.84375,-0.85658 1.85891,-1.28488 3.04548,-1.28491 1.18653,3e-5 2.20169,0.42833 3.0455,1.28491 0.84373,0.84325 1.26561,1.86716 1.26565,3.07174 -4e-5,1.19125 -0.42851,2.22185 -1.28543,3.09182 -0.84381,0.85663 -1.85237,1.28493 -3.02572,1.28491 -1.18657,2e-5 -2.20173,-0.42828 -3.04548,-1.28491 -0.8306,-0.85659 -1.2459,-1.88719 -1.24588,-3.09182 -2e-5,-1.20458 0.41528,-2.22849 1.24588,-3.07174 m 3.04548,0.34131 c -0.73832,3e-5 -1.37115,0.26771 -1.89848,0.80307 -0.52737,0.5354 -0.79105,1.17786 -0.79103,1.92736 -2e-5,0.76294 0.26366,1.41209 0.79103,1.94745 0.52733,0.52202 1.16016,0.78301 1.89848,0.78299 0.75146,2e-5 1.38429,-0.26097 1.89849,-0.78299 0.52733,-0.53536 0.791,-1.18451 0.79103,-1.94745 -3e-5,-0.7495 -0.2637,-1.39196 -0.79103,-1.92736 -0.5142,-0.53536 -1.14703,-0.80304 -1.89849,-0.80307 m 0.79104,5.34041 0.13843,0 c 0.39549,3e-5 0.65918,0.21418 0.79104,0.64245 0.44822,2.04785 0.63939,4.12914 0.5735,6.24387 -0.0659,2.11477 -0.38895,4.08229 -0.96902,5.90256 -0.56694,1.90061 -1.35797,3.58036 -2.3731,5.03926 -1.01519,1.45892 -2.20175,2.56314 -3.55966,3.31267 -1.42389,0.7763 -2.86093,1.10422 -4.31114,0.98375 -1.45025,-0.13384 -2.8016,-0.67591 -4.05406,-1.62621 -1.2393,-0.91014 -2.32037,-2.14821 -3.24324,-3.7142 -0.9097,-1.57936 -1.60185,-3.39295 -2.07646,-5.44079 -0.73831,-3.56027 -0.73831,-7.11385 0,-10.66076 0.0263,-0.20074 0.11205,-0.36805 0.25708,-0.50191 0.1582,-0.1472 0.34278,-0.22082 0.55373,-0.22084 0.23729,2e-5 0.42847,0.0803 0.5735,0.24091 0.15819,0.14726 0.2373,0.34134 0.23731,0.58223 -10e-6,0.0268 -0.007,0.0736 -0.0197,0.14054 -0.0132,0.0669 -0.0197,0.11379 -0.0197,0.14054 -0.76468,3.2926 -0.76468,6.58518 0,9.87775 0.40868,1.86046 1.02833,3.50005 1.85893,4.9188 0.83057,1.40538 1.77981,2.5096 2.84773,3.31267 2.20169,1.61952 4.4034,1.80021 6.60513,0.54207 1.1338,-0.64246 2.15555,-1.61283 3.06527,-2.91113 0.90966,-1.29828 1.60841,-2.79735 2.09624,-4.49719 0.54052,-1.71321 0.84374,-3.53349 0.90969,-5.46087 0.0791,-1.94073 -0.0989,-3.87479 -0.53395,-5.80218 -2e-5,-0.0267 -0.007,-0.0669 -0.0198,-0.12046 -3e-5,-0.0536 -3e-5,-0.087 0,-0.10043 -3e-5,-0.21413 0.0593,-0.39482 0.17799,-0.54207 0.13181,-0.16059 0.2966,-0.25428 0.49439,-0.28107" />
  </g>
</svg>
