<?xml version="1.0" encoding="UTF-8" standalone="no"?>
<!-- Created with Inkscape (http://www.inkscape.org/) -->

<svg
   xmlns:dc="http://purl.org/dc/elements/1.1/"
   xmlns:cc="http://creativecommons.org/ns#"
   xmlns:rdf="http://www.w3.org/1999/02/22-rdf-syntax-ns#"
   xmlns:svg="http://www.w3.org/2000/svg"
   xmlns="http://www.w3.org/2000/svg"
   xmlns:sodipodi="http://sodipodi.sourceforge.net/DTD/sodipodi-0.dtd"
   xmlns:inkscape="http://www.inkscape.org/namespaces/inkscape"
   width="25.05587"
   height="24.01177"
   id="svg2"
   version="1.1"
   inkscape:version="0.48.4 r9939"
   sodipodi:docname="musi.svg">
  <defs
     id="defs4" />
  <sodipodi:namedview
     id="base"
     pagecolor="#ffffff"
     bordercolor="#666666"
     borderopacity="1.0"
     inkscape:pageopacity="0.0"
     inkscape:pageshadow="2"
     inkscape:zoom="1.0984277"
     inkscape:cx="261.58436"
     inkscape:cy="-47.247781"
     inkscape:document-units="px"
     inkscape:current-layer="layer1"
     showgrid="false"
     inkscape:window-width="1596"
     inkscape:window-height="861"
     inkscape:window-x="0"
     inkscape:window-y="18"
     inkscape:window-maximized="0"
     fit-margin-top="0"
     fit-margin-left="0"
     fit-margin-right="0"
     fit-margin-bottom="0" />
  <metadata
     id="metadata7">
    <rdf:RDF>
      <cc:Work
         rdf:about="">
        <dc:format>image/svg+xml</dc:format>
        <dc:type
           rdf:resource="http://purl.org/dc/dcmitype/StillImage" />
        <dc:title></dc:title>
      </cc:Work>
    </rdf:RDF>
  </metadata>
  <g
     inkscape:label="Layer 1"
     inkscape:groupmode="layer"
     id="layer1"
     transform="translate(-3.93553,-814.03887)">
    <path
       style="font-size:40px;font-style:normal;font-weight:normal;line-height:125%;letter-spacing:0px;word-spacing:0px;fill:#000000;fill-opacity:1;stroke:none;font-family:Sans"
       inkscape:connector-curvature="0"
       id="path3176"
       d="m 28.081718,814.03887 -0.01975,0 0.118658,0 c 0.224092,2e-5 0.415257,0.0803 0.573504,0.24091 0.17135,0.16065 0.243867,0.35472 0.217531,0.58223 l 0.01974,0 -0.01974,22.36549 0.01974,0 c -0.06591,0.54877 -0.34281,0.82315 -0.830584,0.82314 -0.21098,10e-6 -0.402144,-0.0803 -0.573504,-0.24091 -0.17142,-0.16062 -0.243927,-0.35469 -0.217531,-0.58223 l -0.01974,0 0.01974,-22.36549 -0.01974,0 c 0.06592,-0.4952 0.309792,-0.76958 0.731701,-0.82314 m -11.687532,0 -0.01974,0 0.09892,0 c 0.210919,2e-5 0.402094,0.0803 0.573504,0.24091 0.17137,0.16065 0.243877,0.35472 0.217531,0.58223 l 0.01975,0 -0.01975,22.36549 0.01975,0 c -0.02643,0.24092 -0.112087,0.44169 -0.25708,0.6023 -0.145045,0.14723 -0.336219,0.22085 -0.573505,0.22084 -0.224152,10e-6 -0.421909,-0.0803 -0.593278,-0.24091 -0.158228,-0.16062 -0.224143,-0.35469 -0.197757,-0.58223 l -0.01974,0 0.01974,-22.36549 -0.01974,0 c 0.06592,-0.4952 0.316394,-0.76958 0.751486,-0.82314 m -11.7271016,0 -0.019744,0 0.1186578,0 c 0.2241224,2e-5 0.415287,0.0803 0.5735041,0.24091 0.17138,0.16065 0.2438868,0.35472 0.2175308,0.58223 l 0.019744,0 -0.019744,22.24503 c -1.01e-5,0.0134 0.00709,0.02 0.019744,0.02 -0.065915,0.54877 -0.3427903,0.82315 -0.8305842,0.82315 -0.1977663,0 -0.388931,-0.0803 -0.5735041,-0.24092 -0.1714002,-0.174 -0.2439071,-0.36807 -0.2175308,-0.58223 l -0.019744,-0.02 0.019744,-22.24503 -0.019744,0 c 0.065915,-0.4952 0.3098123,-0.76958 0.7317009,-0.82314" />
  </g>
</svg>
