<?xml version="1.0" encoding="UTF-8" standalone="no"?>
<!-- Created with Inkscape (http://www.inkscape.org/) -->

<svg
   xmlns:dc="http://purl.org/dc/elements/1.1/"
   xmlns:cc="http://creativecommons.org/ns#"
   xmlns:rdf="http://www.w3.org/1999/02/22-rdf-syntax-ns#"
   xmlns:svg="http://www.w3.org/2000/svg"
   xmlns="http://www.w3.org/2000/svg"
   xmlns:sodipodi="http://sodipodi.sourceforge.net/DTD/sodipodi-0.dtd"
   xmlns:inkscape="http://www.inkscape.org/namespaces/inkscape"
   width="26.07173"
   height="28.878139"
   id="svg2"
   version="1.1"
   inkscape:version="0.48.4 r9939"
   sodipodi:docname="nanpa.svg">
  <defs
     id="defs4" />
  <sodipodi:namedview
     id="base"
     pagecolor="#ffffff"
     bordercolor="#666666"
     borderopacity="1.0"
     inkscape:pageopacity="0.0"
     inkscape:pageshadow="2"
     inkscape:zoom="1.0984277"
     inkscape:cx="131.96062"
     inkscape:cy="-178.11592"
     inkscape:document-units="px"
     inkscape:current-layer="layer1"
     showgrid="false"
     inkscape:window-width="1596"
     inkscape:window-height="861"
     inkscape:window-x="0"
     inkscape:window-y="18"
     inkscape:window-maximized="0"
     fit-margin-top="0"
     fit-margin-left="0"
     fit-margin-right="0"
     fit-margin-bottom="0" />
  <metadata
     id="metadata7">
    <rdf:RDF>
      <cc:Work
         rdf:about="">
        <dc:format>image/svg+xml</dc:format>
        <dc:type
           rdf:resource="http://purl.org/dc/dcmitype/StillImage" />
        <dc:title></dc:title>
      </cc:Work>
    </rdf:RDF>
  </metadata>
  <g
     inkscape:label="Layer 1"
     inkscape:groupmode="layer"
     id="layer1"
     transform="translate(-84.4556,-811.60199)">
    <path
       style="font-size:40px;font-style:normal;font-weight:normal;line-height:125%;letter-spacing:0px;word-spacing:0px;fill:#000000;fill-opacity:1;stroke:none;font-family:Sans"
       inkscape:connector-curvature="0"
       id="path3180"
       d="m 98.582709,811.66981 c 2.030301,-0.18735 4.047431,0.0135 6.051411,0.60231 2.01711,0.58894 3.85627,1.53255 5.51747,2.83081 0.25046,0.18741 0.37571,0.42165 0.37574,0.70269 -3e-5,0.21418 -0.0858,0.40825 -0.25708,0.58222 -0.15824,0.16065 -0.34282,0.24095 -0.55373,0.24093 -0.2637,2e-5 -0.44169,-0.0736 -0.53394,-0.22085 -2.00399,-1.55258 -4.25185,-2.53634 -6.74358,-2.95128 -2.491782,-0.41489 -4.930803,-0.20073 -7.31707,0.64246 -2.386298,0.82986 -4.390257,2.22854 -6.011866,4.19603 -1.437056,1.75339 -2.373114,3.75438 -2.808176,6.00295 -0.421889,2.24861 -0.276865,4.46374 0.435072,6.6454 0.725109,2.16829 1.964389,3.9752 3.717869,5.42072 1.463392,1.20461 3.12457,1.97421 4.983515,2.30882 1.858914,0.33461 3.678289,0.18739 5.458146,-0.44169 1.79298,-0.64244 3.26958,-1.7199 4.4298,-3.23235 0.93602,-1.23137 1.52929,-2.60996 1.77982,-4.13581 0.26365,-1.52582 0.13181,-3.01149 -0.39552,-4.45703 -0.5142,-1.4589 -1.39093,-2.65011 -2.63019,-3.57367 -0.9229,-0.69597 -1.97102,-1.12427 -3.14436,-1.28491 -1.173396,-0.17398 -2.307211,-0.0401 -3.401456,0.40154 -1.081093,0.44171 -1.931462,1.15778 -2.551087,2.14821 -0.329617,0.48186 -0.566922,1.04401 -0.711926,1.68645 -0.145044,0.62908 -0.164819,1.23139 -0.05933,1.8069 0.07908,0.58894 0.283436,1.131 0.613053,1.62622 0.329587,0.48185 0.758057,0.86331 1.285431,1.14437 0.725099,0.33463 1.41066,0.42163 2.056691,0.261 0.672357,-0.1606 1.081062,-0.54875 1.226106,-1.16445 l 0,-0.0402 c -0.06592,-0.38813 -0.131861,-0.63574 -0.197756,-0.74283 -0.105495,0.0535 -0.217561,0.0803 -0.336188,0.0803 -0.224153,2e-5 -0.415318,-0.0736 -0.573504,-0.22084 -0.158228,-0.1606 -0.237326,-0.36137 -0.237306,-0.6023 -2e-5,-0.14721 0.05933,-0.31452 0.177982,-0.50192 0.4746,-0.40152 0.936028,-0.52198 1.384303,-0.36138 0.382319,0.0803 0.705317,0.32124 0.969027,0.72276 0.42185,0.65586 0.56029,1.33846 0.41528,2.04783 -0.14504,0.6157 -0.44827,1.13769 -0.90969,1.56599 -0.461454,0.41492 -0.982216,0.6893 -1.562281,0.82314 -1.133845,0.28109 -2.195143,0.14055 -3.183924,-0.42162 -0.751496,-0.38813 -1.36455,-0.93689 -1.83915,-1.64629 -0.461458,-0.70936 -0.758088,-1.47897 -0.889918,-2.30882 -0.263692,-1.67304 0.06592,-3.22565 0.988791,-4.6578 0.804208,-1.25812 1.88529,-2.16827 3.243248,-2.73044 1.37111,-0.57551 2.78178,-0.76289 4.232034,-0.56215 1.46338,0.2008 2.77519,0.72948 3.9354,1.58606 1.48975,1.09755 2.55106,2.51631 3.18392,4.25628 0.63279,1.73999 0.80418,3.52013 0.51417,5.34041 -0.29008,1.8203 -0.98883,3.45989 -2.09624,4.91879 -1.35798,1.76676 -3.07188,3.01822 -5.14174,3.75436 -2.056703,0.73615 -4.152943,0.91015 -6.288722,0.52199 -2.13581,-0.40153 -4.054058,-1.2916 -5.754776,-2.67021 -1.990775,-1.6329 -3.394863,-3.67403 -4.212264,-6.1234 -0.804218,-2.44935 -0.969017,-4.93886 -0.494396,-7.46854 0.487804,-2.52966 1.542511,-4.78494 3.16414,-6.76586 1.344754,-1.65966 2.946599,-2.96464 4.805543,-3.91497 1.858915,-0.95027 3.823314,-1.50573 5.893208,-1.66637" />
  </g>
</svg>
