<?xml version="1.0" encoding="UTF-8" standalone="no"?>
<!-- Created with Inkscape (http://www.inkscape.org/) -->

<svg
   xmlns:dc="http://purl.org/dc/elements/1.1/"
   xmlns:cc="http://creativecommons.org/ns#"
   xmlns:rdf="http://www.w3.org/1999/02/22-rdf-syntax-ns#"
   xmlns:svg="http://www.w3.org/2000/svg"
   xmlns="http://www.w3.org/2000/svg"
   xmlns:sodipodi="http://sodipodi.sourceforge.net/DTD/sodipodi-0.dtd"
   xmlns:inkscape="http://www.inkscape.org/namespaces/inkscape"
   width="23.845579"
   height="27.324249"
   id="svg2"
   version="1.1"
   inkscape:version="0.48.4 r9939"
   sodipodi:docname="nena.svg">
  <defs
     id="defs4" />
  <sodipodi:namedview
     id="base"
     pagecolor="#ffffff"
     bordercolor="#666666"
     borderopacity="1.0"
     inkscape:pageopacity="0.0"
     inkscape:pageshadow="2"
     inkscape:zoom="0.98994949"
     inkscape:cx="-0.88953146"
     inkscape:cy="-256.60482"
     inkscape:document-units="px"
     inkscape:current-layer="layer1"
     showgrid="false"
     inkscape:window-width="1596"
     inkscape:window-height="861"
     inkscape:window-x="0"
     inkscape:window-y="18"
     inkscape:window-maximized="0"
     fit-margin-top="0"
     fit-margin-left="0"
     fit-margin-right="0"
     fit-margin-bottom="0" />
  <metadata
     id="metadata7">
    <rdf:RDF>
      <cc:Work
         rdf:about="">
        <dc:format>image/svg+xml</dc:format>
        <dc:type
           rdf:resource="http://purl.org/dc/dcmitype/StillImage" />
        <dc:title />
      </cc:Work>
    </rdf:RDF>
  </metadata>
  <g
     inkscape:label="Layer 1"
     inkscape:groupmode="layer"
     id="layer1"
     transform="translate(-197.36314,-236.88045)">
    <path
       style="font-size:40px;font-style:normal;font-weight:normal;line-height:125%;letter-spacing:0px;word-spacing:0px;fill:#000000;fill-opacity:1;stroke:none;font-family:Sans"
       inkscape:connector-curvature="0"
       id="path3184"
       d="m 209.32838,236.88048 c 1.65363,3e-5 3.21613,0.59248 4.6875,1.77734 1.48435,1.18493 2.77341,2.88414 3.86719,5.09766 2.40882,4.86981 3.50908,11.42579 3.30078,19.66797 -3e-5,0.20833 -0.0847,0.39063 -0.25391,0.54687 -0.15628,0.15626 -0.33857,0.23438 -0.54687,0.23438 -0.22139,0 -0.41019,-0.0716 -0.56641,-0.21485 -0.15628,-0.15624 -0.2344,-0.35156 -0.23437,-0.58593 0.19528,-7.9427 -0.84638,-14.26431 -3.125,-18.96485 -0.97659,-1.99216 -2.08336,-3.48304 -3.32031,-4.47265 -1.23701,-0.98956 -2.50654,-1.48435 -3.8086,-1.48438 -1.28908,3e-5 -2.55861,0.50133 -3.80859,1.50391 -1.25002,0.98961 -2.3633,2.46747 -3.33985,4.43359 -2.27865,4.60939 -3.34636,10.85288 -3.20312,18.73047 l 0,0.0195 c -1e-5,0.23438 -0.0781,0.42969 -0.23438,0.58594 -0.14323,0.14323 -0.33204,0.21485 -0.5664,0.21484 -0.22136,1e-5 -0.40366,-0.0716 -0.54688,-0.21484 -0.14323,-0.14323 -0.22787,-0.33203 -0.2539,-0.56641 -0.14324,-8.09894 0.98306,-14.58982 3.3789,-19.47265 1.09374,-2.18748 2.3828,-3.87367 3.86719,-5.0586 1.49738,-1.18486 3.06639,-1.77731 4.70703,-1.77734" />
  </g>
</svg>
