<?xml version="1.0" encoding="UTF-8" standalone="no"?>
<!-- Created with Inkscape (http://www.inkscape.org/) -->

<svg
   xmlns:dc="http://purl.org/dc/elements/1.1/"
   xmlns:cc="http://creativecommons.org/ns#"
   xmlns:rdf="http://www.w3.org/1999/02/22-rdf-syntax-ns#"
   xmlns:svg="http://www.w3.org/2000/svg"
   xmlns="http://www.w3.org/2000/svg"
   xmlns:sodipodi="http://sodipodi.sourceforge.net/DTD/sodipodi-0.dtd"
   xmlns:inkscape="http://www.inkscape.org/namespaces/inkscape"
   width="15.78112"
   height="38.386799"
   id="svg2"
   version="1.1"
   inkscape:version="0.48.4 r9939"
   sodipodi:docname="nena.svg">
  <defs
     id="defs4" />
  <sodipodi:namedview
     id="base"
     pagecolor="#ffffff"
     bordercolor="#666666"
     borderopacity="1.0"
     inkscape:pageopacity="0.0"
     inkscape:pageshadow="2"
     inkscape:zoom="1.0984277"
     inkscape:cx="-65.230036"
     inkscape:cy="-156.33268"
     inkscape:document-units="px"
     inkscape:current-layer="layer1"
     showgrid="false"
     inkscape:window-width="1596"
     inkscape:window-height="861"
     inkscape:window-x="0"
     inkscape:window-y="18"
     inkscape:window-maximized="0"
     fit-margin-top="0"
     fit-margin-left="0"
     fit-margin-right="0"
     fit-margin-bottom="0" />
  <metadata
     id="metadata7">
    <rdf:RDF>
      <cc:Work
         rdf:about="">
        <dc:format>image/svg+xml</dc:format>
        <dc:type
           rdf:resource="http://purl.org/dc/dcmitype/StillImage" />
        <dc:title></dc:title>
      </cc:Work>
    </rdf:RDF>
  </metadata>
  <g
     inkscape:label="Layer 1"
     inkscape:groupmode="layer"
     id="layer1"
     transform="translate(-211.08766,-806.87145)">
    <path
       style="font-size:40px;font-style:normal;font-weight:normal;line-height:125%;letter-spacing:0px;word-spacing:0px;fill:#000000;fill-opacity:1;stroke:none;font-family:Sans"
       inkscape:connector-curvature="0"
       id="path3186"
       d="m 218.76069,806.89155 c 0.0132,4e-5 0.0395,4e-5 0.0791,0 0.0528,-0.0134 0.0857,-0.0201 0.0989,-0.0201 0.2241,4e-5 0.41526,0.0871 0.57349,0.261 0.15819,0.16065 0.23729,0.34803 0.23731,0.56215 l 0,0.02 0,35.8169 0,0.02 c -2e-5,0.22754 -0.0792,0.42161 -0.23731,0.58223 -0.14505,0.16061 -0.33621,0.24091 -0.57349,0.24092 -0.21097,-10e-6 -0.40214,-0.0803 -0.57351,-0.24092 -0.15823,-0.16062 -0.23732,-0.35469 -0.2373,-0.58223 l 0,-0.02 0,-35.8169 0,-0.02 c -2e-5,-0.18735 0.0593,-0.35466 0.17798,-0.50192 0.11863,-0.14719 0.27024,-0.24758 0.45484,-0.30115 m -7.00066,27.42482 c 0.0659,10e-6 0.10546,-0.007 0.11865,-0.02 0.30323,1e-5 0.52076,0.12046 0.65261,0.36138 l 7.00065,9.19514 c 0.15819,0.16061 0.2373,0.35469 0.23732,0.58223 -2e-5,0.24092 -0.0791,0.43499 -0.23732,0.58223 -0.14503,0.1606 -0.33621,0.24092 -0.57349,0.24092 -0.32962,0 -0.56034,-0.13385 -0.69216,-0.40153 l -6.98088,-9.19516 c -0.13186,-0.13383 -0.19777,-0.31452 -0.19776,-0.54207 -1e-5,-0.20076 0.0593,-0.37476 0.17798,-0.52199 0.13183,-0.16061 0.29663,-0.2543 0.4944,-0.28108 m 14.23863,-0.02 0.0593,0 c 0.23728,10e-6 0.42845,0.0803 0.57349,0.24092 0.15819,0.14724 0.23729,0.34131 0.23732,0.58222 -3e-5,0.21416 -0.0593,0.38147 -0.17798,0.50192 l -6.98088,9.23531 c -0.21097,0.21414 -0.42851,0.32121 -0.65262,0.32122 -0.21096,-10e-6 -0.40212,-0.087 -0.57349,-0.261 -0.15823,-0.16061 -0.23734,-0.34799 -0.23732,-0.56215 -2e-5,-0.22753 0.0528,-0.39484 0.15821,-0.50192 l 6.98088,-9.21522 c 0.15819,-0.22753 0.36254,-0.34129 0.61306,-0.3413" />
  </g>
</svg>
