<?xml version="1.0" encoding="UTF-8" standalone="no"?>
<!-- Created with Inkscape (http://www.inkscape.org/) -->

<svg
   xmlns:dc="http://purl.org/dc/elements/1.1/"
   xmlns:cc="http://creativecommons.org/ns#"
   xmlns:rdf="http://www.w3.org/1999/02/22-rdf-syntax-ns#"
   xmlns:svg="http://www.w3.org/2000/svg"
   xmlns="http://www.w3.org/2000/svg"
   xmlns:sodipodi="http://sodipodi.sourceforge.net/DTD/sodipodi-0.dtd"
   xmlns:inkscape="http://www.inkscape.org/namespaces/inkscape"
   width="39.413319"
   height="14.43517"
   id="svg2"
   version="1.1"
   inkscape:version="0.48.4 r9939"
   sodipodi:docname="ni.svg">
  <defs
     id="defs4" />
  <sodipodi:namedview
     id="base"
     pagecolor="#ffffff"
     bordercolor="#666666"
     borderopacity="1.0"
     inkscape:pageopacity="0.0"
     inkscape:pageshadow="2"
     inkscape:zoom="1.0984277"
     inkscape:cx="-69.220989"
     inkscape:cy="-81.206694"
     inkscape:document-units="px"
     inkscape:current-layer="layer1"
     showgrid="false"
     inkscape:window-width="1596"
     inkscape:window-height="861"
     inkscape:window-x="0"
     inkscape:window-y="18"
     inkscape:window-maximized="0"
     fit-margin-top="0"
     fit-margin-left="0"
     fit-margin-right="0"
     fit-margin-bottom="0" />
  <metadata
     id="metadata7">
    <rdf:RDF>
      <cc:Work
         rdf:about="">
        <dc:format>image/svg+xml</dc:format>
        <dc:type
           rdf:resource="http://purl.org/dc/dcmitype/StillImage" />
        <dc:title></dc:title>
      </cc:Work>
    </rdf:RDF>
  </metadata>
  <g
     inkscape:label="Layer 1"
     inkscape:groupmode="layer"
     id="layer1"
     transform="translate(-239.78253,-818.81713)">
    <path
       style="font-size:40px;font-style:normal;font-weight:normal;line-height:125%;letter-spacing:0px;word-spacing:0px;fill:#000000;fill-opacity:1;stroke:none;font-family:Sans"
       inkscape:connector-curvature="0"
       id="path3188"
       d="m 240.51415,818.81713 0.0396,0 0.0396,0 37.79168,0 c 0.21091,3e-5 0.39548,0.0871 0.55373,0.261 0.17135,0.16063 0.25705,0.34801 0.25709,0.56215 l 0,12.78888 c -4e-5,0.22755 -0.0858,0.42162 -0.25709,0.58223 -0.15825,0.16062 -0.34282,0.24092 -0.55373,0.24091 l -37.79168,0 c -0.23732,10e-6 -0.43507,-0.0736 -0.59328,-0.22084 -0.14502,-0.1606 -0.21754,-0.36137 -0.21754,-0.6023 l 0,-12.78888 c 0,-0.21414 0.0659,-0.39483 0.19776,-0.54208 0.14503,-0.16059 0.32301,-0.25428 0.53395,-0.28107 m 0.88992,1.6463 0,11.16266 36.17006,0 0,-11.16266 -36.17006,0" />
  </g>
</svg>
