<?xml version="1.0" encoding="UTF-8" standalone="no"?>
<!-- Created with Inkscape (http://www.inkscape.org/) -->

<svg
   xmlns:dc="http://purl.org/dc/elements/1.1/"
   xmlns:cc="http://creativecommons.org/ns#"
   xmlns:rdf="http://www.w3.org/1999/02/22-rdf-syntax-ns#"
   xmlns:svg="http://www.w3.org/2000/svg"
   xmlns="http://www.w3.org/2000/svg"
   xmlns:sodipodi="http://sodipodi.sourceforge.net/DTD/sodipodi-0.dtd"
   xmlns:inkscape="http://www.inkscape.org/namespaces/inkscape"
   width="8.5156202"
   height="39.882809"
   id="svg2"
   version="1.1"
   inkscape:version="0.48.4 r9939"
   sodipodi:docname="o.svg">
  <defs
     id="defs4" />
  <sodipodi:namedview
     id="base"
     pagecolor="#ffffff"
     bordercolor="#666666"
     borderopacity="1.0"
     inkscape:pageopacity="0.0"
     inkscape:pageshadow="2"
     inkscape:zoom="0.98994949"
     inkscape:cx="-154.92084"
     inkscape:cy="4.8427576"
     inkscape:document-units="px"
     inkscape:current-layer="layer1"
     showgrid="false"
     inkscape:window-width="1596"
     inkscape:window-height="861"
     inkscape:window-x="0"
     inkscape:window-y="18"
     inkscape:window-maximized="0"
     fit-margin-top="0"
     fit-margin-left="0"
     fit-margin-right="0"
     fit-margin-bottom="0" />
  <metadata
     id="metadata7">
    <rdf:RDF>
      <cc:Work
         rdf:about="">
        <dc:format>image/svg+xml</dc:format>
        <dc:type
           rdf:resource="http://purl.org/dc/dcmitype/StillImage" />
        <dc:title />
      </cc:Work>
    </rdf:RDF>
  </metadata>
  <g
     inkscape:label="Layer 1"
     inkscape:groupmode="layer"
     id="layer1"
     transform="translate(-365.03151,-230.59142)">
    <path
       style="font-size:40px;font-style:normal;font-weight:normal;line-height:125%;letter-spacing:0px;word-spacing:0px;fill:#000000;fill-opacity:1;stroke:none;font-family:Sans"
       inkscape:connector-curvature="0"
       id="path3192"
       d="m 369.30885,230.59142 c 0.20831,3e-5 0.39061,0.0847 0.54688,0.2539 0.16925,0.15629 0.25388,0.33858 0.2539,0.54688 l 0,0.0391 0,25.33203 0,0.0195 c -2e-5,0.22137 -0.0847,0.41017 -0.2539,0.56641 -0.15627,0.15626 -0.33857,0.23438 -0.54688,0.23437 -0.23439,10e-6 -0.42971,-0.0781 -0.58594,-0.23437 -0.14324,-0.15624 -0.21486,-0.34504 -0.21484,-0.56641 l 0,-0.0195 0,-25.33203 0,-0.0391 c -2e-5,-0.2083 0.0781,-0.39059 0.23437,-0.54688 0.15624,-0.16923 0.34504,-0.25387 0.56641,-0.2539 m -3.02734,32.65625 c 0.84633,-0.84635 1.84894,-1.26953 3.00781,-1.26953 1.15883,0 2.15493,0.42318 2.98828,1.26953 0.84633,0.83333 1.26951,1.82943 1.26953,2.98828 -2e-5,1.17187 -0.41669,2.16797 -1.25,2.98828 -0.83335,0.83333 -1.83596,1.25 -3.00781,1.25 -1.17189,0 -2.1745,-0.41667 -3.00781,-1.25 -0.83335,-0.82031 -1.25002,-1.81641 -1.25,-2.98828 -2e-5,-1.15885 0.41665,-2.15495 1.25,-2.98828 m 3.00781,0.33203 c -0.74221,0 -1.37372,0.26042 -1.89453,0.78125 -0.50783,0.50781 -0.76174,1.13281 -0.76172,1.875 -2e-5,0.74219 0.25389,1.36718 0.76172,1.875 0.52081,0.50781 1.15232,0.76171 1.89453,0.76172 0.74217,-1e-5 1.36717,-0.25391 1.875,-0.76172 0.52081,-0.50782 0.78123,-1.13281 0.78125,-1.875 -2e-5,-0.74219 -0.26044,-1.36719 -0.78125,-1.875 -0.52085,-0.52083 -1.14585,-0.78125 -1.875,-0.78125" />
  </g>
</svg>
