<?xml version="1.0" encoding="UTF-8" standalone="no"?>
<!-- Created with Inkscape (http://www.inkscape.org/) -->

<svg
   xmlns:dc="http://purl.org/dc/elements/1.1/"
   xmlns:cc="http://creativecommons.org/ns#"
   xmlns:rdf="http://www.w3.org/1999/02/22-rdf-syntax-ns#"
   xmlns:svg="http://www.w3.org/2000/svg"
   xmlns="http://www.w3.org/2000/svg"
   xmlns:sodipodi="http://sodipodi.sourceforge.net/DTD/sodipodi-0.dtd"
   xmlns:inkscape="http://www.inkscape.org/namespaces/inkscape"
   width="17.524187"
   height="33.049221"
   id="svg2"
   version="1.1"
   inkscape:version="0.48.4 r9939"
   sodipodi:docname="olin.svg">
  <defs
     id="defs4" />
  <sodipodi:namedview
     id="base"
     pagecolor="#ffffff"
     bordercolor="#666666"
     borderopacity="1.0"
     inkscape:pageopacity="0.0"
     inkscape:pageshadow="2"
     inkscape:zoom="0.98994949"
     inkscape:cx="-190.42991"
     inkscape:cy="118.3203"
     inkscape:document-units="px"
     inkscape:current-layer="layer1"
     showgrid="false"
     inkscape:window-width="1596"
     inkscape:window-height="861"
     inkscape:window-x="0"
     inkscape:window-y="18"
     inkscape:window-maximized="0"
     fit-margin-top="0"
     fit-margin-left="0"
     fit-margin-right="0"
     fit-margin-bottom="0" />
  <metadata
     id="metadata7">
    <rdf:RDF>
      <cc:Work
         rdf:about="">
        <dc:format>image/svg+xml</dc:format>
        <dc:type
           rdf:resource="http://purl.org/dc/dcmitype/StillImage" />
        <dc:title />
      </cc:Work>
    </rdf:RDF>
  </metadata>
  <g
     inkscape:label="Layer 1"
     inkscape:groupmode="layer"
     id="layer1"
     transform="translate(-400.54058,-234.01483)">
    <path
       style="font-size:40px;font-style:normal;font-weight:normal;line-height:125%;letter-spacing:0px;word-spacing:0px;fill:#000000;fill-opacity:1;stroke:none;font-family:Sans"
       inkscape:connector-curvature="0"
       id="path3194"
       d="m 404.83619,251.74376 c 0.69009,2e-5 1.57551,0.31903 2.65625,0.95703 0.89842,0.70314 1.49738,1.26304 1.79688,1.67969 0.49477,-0.61197 1.10675,-1.17186 1.83594,-1.67969 0.92445,-0.638 1.79034,-0.95701 2.59765,-0.95703 1.04164,-0.0521 2.05727,0.41668 3.04688,1.40625 1.24997,1.49741 1.59502,3.13803 1.03515,4.92188 -0.35159,1.32813 -1.26304,2.78646 -2.73437,4.375 -0.26044,0.28646 -0.53388,0.57292 -0.82031,0.85937 -0.28649,0.27344 -0.55992,0.52735 -0.82032,0.76172 -0.26044,0.23438 -0.52736,0.46875 -0.80078,0.70312 -0.27346,0.22136 -0.52736,0.42969 -0.76172,0.625 -0.23439,0.1823 -0.46226,0.35808 -0.68359,0.52735 -0.22137,0.15625 -0.41669,0.29948 -0.58594,0.42969 -0.16929,0.11718 -0.31903,0.22135 -0.44922,0.3125 -0.13022,0.0911 -0.23439,0.15625 -0.3125,0.19531 l -0.0976,0.0781 c -0.24742,0.10417 -0.39065,0.14323 -0.42969,0.11719 -0.0391,0.013 -0.18882,-0.026 -0.44922,-0.11719 l -0.15625,-0.11718 c -0.10418,-0.0781 -0.26043,-0.18881 -0.46875,-0.33204 -0.20835,-0.14322 -0.44923,-0.30598 -0.72265,-0.48828 -0.26044,-0.19531 -0.55992,-0.42317 -0.89844,-0.68359 -0.32554,-0.26042 -0.65757,-0.53385 -0.9961,-0.82031 -0.33855,-0.28646 -0.69663,-0.60547 -1.07421,-0.95703 -0.3646,-0.36458 -0.70314,-0.72917 -1.01563,-1.09375 -1.31512,-1.3151 -2.23959,-2.77343 -2.77344,-4.375 -0.46876,-1.9401 -0.10417,-3.58072 1.09375,-4.92188 0.88541,-1.00259 1.8815,-1.47134 2.98828,-1.40625 m -0.0391,1.58203 c -0.24741,0.0261 -0.44272,0.0586 -0.58594,0.0977 -0.14324,0.026 -0.31902,0.10418 -0.52734,0.23437 -0.20835,0.13022 -0.42319,0.31903 -0.64453,0.56641 -0.91147,1.00261 -1.15236,2.12892 -0.72266,3.37891 0.27343,0.9375 1.0677,2.20052 2.38282,3.78906 0.91144,0.92448 1.80987,1.7513 2.69531,2.48047 0.8854,0.72917 1.52342,1.19792 1.91406,1.40625 0.45571,-0.27344 1.12628,-0.76172 2.01172,-1.46485 0.89841,-0.71614 1.75128,-1.52343 2.55859,-2.42187 1.24998,-1.3802 2.05727,-2.64322 2.42188,-3.78906 0.36455,-1.39322 0.11716,-2.51952 -0.74219,-3.37891 -0.19534,-0.24738 -0.41018,-0.43619 -0.64453,-0.56641 -0.2344,-0.14321 -0.41669,-0.22785 -0.54688,-0.2539 -0.11721,-0.026 -0.30601,-0.0521 -0.5664,-0.0781 -0.65107,0.0651 -1.25002,0.306 -1.79688,0.72266 -0.11721,0.0912 -0.2409,0.18881 -0.37109,0.29297 -0.11721,0.10418 -0.2344,0.20834 -0.35156,0.3125 -0.10419,0.0912 -0.20836,0.18881 -0.3125,0.29297 -0.10419,0.10417 -0.20185,0.20834 -0.29297,0.3125 -0.0782,0.0911 -0.15627,0.1823 -0.23438,0.27343 -0.0781,0.0781 -0.14976,0.15626 -0.21484,0.23438 -0.0521,0.0651 -0.0977,0.12371 -0.13672,0.17578 -0.0391,0.0521 -0.0716,0.0912 -0.0977,0.11719 l -0.0195,0.0391 c -0.18231,0.22136 -0.41017,0.34506 -0.68359,0.37109 -0.3646,-0.0911 -0.57945,-0.21483 -0.64453,-0.37109 -0.013,0.013 -0.0521,-0.026 -0.11719,-0.11719 -0.0651,-0.0911 -0.16278,-0.21483 -0.29297,-0.37109 -0.1172,-0.15624 -0.25392,-0.319 -0.41015,-0.48828 -0.15627,-0.18228 -0.34507,-0.37109 -0.56641,-0.56641 -0.22137,-0.1953 -0.44924,-0.36457 -0.68359,-0.50781 -0.42971,-0.40363 -1.02216,-0.64452 -1.77735,-0.72266 m 0.0391,-19.29687 c 0.11718,3e-5 0.22785,3e-5 0.33204,0 0.10415,3e-5 0.21482,0.0196 0.33203,0.0586 0.13019,0.0261 0.23436,0.0456 0.3125,0.0586 0.0781,0.0131 0.18227,0.0521 0.3125,0.11719 0.13019,0.0521 0.22133,0.0912 0.27343,0.11719 0.0521,0.0131 0.14973,0.0651 0.29297,0.15625 0.15624,0.0782 0.24738,0.12373 0.27344,0.13672 0.026,0.013 0.12368,0.0651 0.29297,0.15625 l 0.23437,0.15625 c 0.85936,0.66409 1.45832,1.21748 1.79688,1.66015 0.59894,-0.69007 1.21092,-1.24345 1.83594,-1.66015 1.00258,-0.69007 1.86846,-1.00908 2.59765,-0.95703 1.05467,-0.10414 2.07029,0.36461 3.04688,1.40625 1.24997,1.45836 1.59502,3.09898 1.03515,4.92187 -0.36461,1.32815 -1.27606,2.78648 -2.73437,4.375 -0.26044,0.28648 -0.53388,0.57294 -0.82031,0.85938 -0.28649,0.27346 -0.55992,0.52736 -0.82032,0.76172 -0.26044,0.23439 -0.52736,0.46877 -0.80078,0.70312 -0.27346,0.22137 -0.52736,0.42971 -0.76172,0.625 -0.23439,0.18231 -0.46226,0.35809 -0.68359,0.52734 -0.22137,0.15627 -0.41669,0.2995 -0.58594,0.42969 -0.16929,0.11721 -0.31903,0.22137 -0.44922,0.3125 -0.13022,0.0912 -0.23439,0.16278 -0.3125,0.21485 l -0.0976,0.0586 c -0.0261,2e-5 -0.0912,0.0261 -0.19531,0.0781 -0.10419,0.0521 -0.18232,0.0651 -0.23438,0.0391 -0.0781,0.013 -0.16278,10e-6 -0.25391,-0.0391 -0.0912,-0.0521 -0.15626,-0.0781 -0.19531,-0.0781 l -0.15625,-0.11719 c -0.10418,-0.0781 -0.26043,-0.18878 -0.46875,-0.33203 -0.20835,-0.14321 -0.44923,-0.30597 -0.72265,-0.48828 -0.26044,-0.19529 -0.55992,-0.42316 -0.89844,-0.68359 -0.32554,-0.2604 -0.65757,-0.53384 -0.9961,-0.82032 -0.33855,-0.28644 -0.69663,-0.60545 -1.07421,-0.95703 -0.3646,-0.36456 -0.70314,-0.72914 -1.01563,-1.09375 -1.3021,-1.30206 -2.22657,-2.76039 -2.77344,-4.375 -0.4948,-1.97914 -0.13022,-3.61976 1.09375,-4.92187 0.41666,-0.49476 0.89192,-0.86586 1.42578,-1.11328 0.54687,-0.24737 1.0677,-0.34502 1.5625,-0.29297 m -0.0391,1.58203 c -0.66407,3e-5 -1.25001,0.293 -1.75781,0.8789 -0.91147,1.06774 -1.15236,2.19404 -0.72266,3.37891 0.26041,0.93753 1.05468,2.20706 2.38282,3.80859 0.91144,0.93753 1.81639,1.77737 2.71484,2.51954 0.89842,0.72918 1.52993,1.1784 1.89453,1.34765 0.45571,-0.28644 1.12628,-0.78123 2.01172,-1.48437 0.88539,-0.70311 1.73826,-1.49738 2.55859,-2.38282 1.23696,-1.36716 2.04425,-2.63669 2.42188,-3.80859 0.37758,-1.35414 0.13018,-2.48044 -0.74219,-3.37891 -0.4818,-0.5859 -1.06773,-0.87887 -1.75781,-0.8789 -0.57294,0.0521 -1.1719,0.28649 -1.79688,0.70312 -0.11721,0.0912 -0.2409,0.18884 -0.37109,0.29297 -0.11721,0.1042 -0.2344,0.20837 -0.35156,0.3125 -0.10419,0.0912 -0.20836,0.18883 -0.3125,0.29297 -0.10419,0.1042 -0.20185,0.20836 -0.29297,0.3125 -0.0782,0.0912 -0.15627,0.18232 -0.23438,0.27344 -0.0781,0.0912 -0.14976,0.17581 -0.21484,0.2539 -0.0521,0.0651 -0.0977,0.12373 -0.13672,0.17579 -0.0391,0.0521 -0.0716,0.0912 -0.0977,0.11718 l -0.0195,0.0391 c -0.15627,0.20836 -0.38413,0.33205 -0.68359,0.37109 -0.3646,-0.10414 -0.57945,-0.22784 -0.64453,-0.37109 l -0.0586,-0.0781 c -0.0391,-0.039 -0.0912,-0.0976 -0.15625,-0.17578 -0.0651,-0.0911 -0.14324,-0.18877 -0.23437,-0.29297 -0.0781,-0.11716 -0.18231,-0.24086 -0.3125,-0.37109 -0.11721,-0.1432 -0.2409,-0.27992 -0.37109,-0.41016 -0.13023,-0.13018 -0.27997,-0.26039 -0.44922,-0.39062 -0.15627,-0.13018 -0.31903,-0.24737 -0.48828,-0.35157 -0.48179,-0.39059 -1.07424,-0.62497 -1.77735,-0.70312" />
  </g>
</svg>
