<?xml version="1.0" encoding="UTF-8" standalone="no"?>
<!-- Created with Inkscape (http://www.inkscape.org/) -->

<svg
   xmlns:dc="http://purl.org/dc/elements/1.1/"
   xmlns:cc="http://creativecommons.org/ns#"
   xmlns:rdf="http://www.w3.org/1999/02/22-rdf-syntax-ns#"
   xmlns:svg="http://www.w3.org/2000/svg"
   xmlns="http://www.w3.org/2000/svg"
   xmlns:sodipodi="http://sodipodi.sourceforge.net/DTD/sodipodi-0.dtd"
   xmlns:inkscape="http://www.inkscape.org/namespaces/inkscape"
   width="34.606621"
   height="15.419359"
   id="svg2"
   version="1.1"
   inkscape:version="0.48.4 r9939"
   sodipodi:docname="all_symbols.svg">
  <defs
     id="defs4" />
  <sodipodi:namedview
     id="base"
     pagecolor="#ffffff"
     bordercolor="#666666"
     borderopacity="1.0"
     inkscape:pageopacity="0.0"
     inkscape:pageshadow="2"
     inkscape:zoom="0.98994949"
     inkscape:cx="-317.28752"
     inkscape:cy="-40.277302"
     inkscape:document-units="px"
     inkscape:current-layer="layer1"
     showgrid="false"
     inkscape:window-width="796"
     inkscape:window-height="861"
     inkscape:window-x="800"
     inkscape:window-y="18"
     inkscape:window-maximized="0"
     fit-margin-top="0"
     fit-margin-left="0"
     fit-margin-right="0"
     fit-margin-bottom="0" />
  <metadata
     id="metadata7">
    <rdf:RDF>
      <cc:Work
         rdf:about="">
        <dc:format>image/svg+xml</dc:format>
        <dc:type
           rdf:resource="http://purl.org/dc/dcmitype/StillImage" />
        <dc:title></dc:title>
      </cc:Work>
    </rdf:RDF>
  </metadata>
  <g
     inkscape:label="Layer 1"
     inkscape:groupmode="layer"
     id="layer1"
     transform="translate(-404.15959,-820.35693)">
    <path
       style="font-size:40px;font-style:normal;font-weight:normal;line-height:125%;letter-spacing:0px;word-spacing:0px;fill:#000000;fill-opacity:1;stroke:none;font-family:Sans"
       inkscape:connector-curvature="0"
       id="path3196"
       d="m 404.91098,820.4156 c 0.0132,0.0134 0.0263,0.0134 0.0396,0 0.0132,-0.0134 0.0263,-0.0134 0.0396,0 0.13183,-0.0401 0.32959,0.0402 0.59327,0.24091 0,0.0402 0.35596,0.40825 1.0679,1.10422 0.71192,0.68264 1.78642,1.64632 3.22347,2.89105 1.43704,1.24478 2.89386,2.40923 4.37046,3.49336 2.80816,2.02107 5.59656,3.60044 8.3652,4.73811 2.78178,1.12431 5.24058,1.46561 7.3764,1.02391 0.0395,10e-6 0.0857,-0.0134 0.13844,-0.0402 0.0659,-0.0402 0.11862,-0.0602 0.1582,-0.0602 -1.8326,-0.8566 -3.03233,-1.82028 -3.59921,-2.89106 -0.43509,-0.73613 -0.70536,-1.55927 -0.81081,-2.46943 -0.0923,-0.91013 -0.0198,-1.74666 0.21753,-2.5096 0.40868,-1.73996 1.33155,-3.15871 2.76863,-4.25626 1.4502,-1.09751 3.07841,-1.51242 4.88463,-1.24476 1.66115,0.2811 2.95317,1.12432 3.87608,2.52967 0.93602,1.392 1.29857,2.9513 1.08767,4.67788 -0.1978,1.80692 -1.02179,3.44652 -2.47199,4.9188 -1.43707,1.45892 -3.41465,2.44268 -5.93275,2.95128 -0.67241,0.14724 -1.37116,0.23424 -2.09625,0.261 -0.72514,0.0134 -1.45025,-0.0402 -2.17534,-0.16061 -0.72514,-0.13384 -1.45685,-0.30114 -2.19512,-0.50193 -0.72514,-0.21414 -1.46344,-0.47514 -2.2149,-0.78298 -0.73833,-0.32122 -1.45684,-0.65583 -2.15558,-1.00385 -0.69876,-0.36137 -1.41728,-0.76289 -2.15556,-1.2046 -0.72513,-0.44168 -1.40411,-0.86997 -2.03692,-1.28491 -0.63284,-0.42828 -1.29204,-0.88336 -1.97759,-1.36522 -1.51615,-1.12428 -3.01253,-2.31549 -4.48912,-3.57366 -1.46342,-1.2715 -2.56428,-2.25526 -3.30257,-2.95127 -0.72512,-0.70937 -1.08767,-1.08413 -1.08767,-1.1243 -0.17139,-0.10706 -0.25709,-0.30113 -0.25709,-0.58223 0,-0.21413 0.0725,-0.39482 0.21754,-0.54207 0.14501,-0.16059 0.323,-0.25429 0.53394,-0.28108 m 28.59592,1.66637 c -1.37117,-0.25428 -2.61044,0.0536 -3.71787,0.92353 -1.09429,0.87001 -1.80623,1.97423 -2.13579,3.31267 -0.34281,1.43215 -0.1912,2.69699 0.45484,3.7945 0.83056,1.37861 2.12917,2.28207 3.89584,2.71036 0.0263,0.0134 0.0988,0.0402 0.21755,0.0803 0.11862,0.0402 0.19772,0.0937 0.2373,0.16061 1.43702,-0.64244 2.53787,-1.45221 3.30257,-2.42928 0.77782,-0.99044 1.23267,-2.05451 1.36454,-3.19221 0.1318,-1.32505 -0.13187,-2.50957 -0.79103,-3.55358 -0.65924,-1.04397 -1.60189,-1.64628 -2.82795,-1.80691" />
  </g>
</svg>
