<?xml version="1.0" encoding="UTF-8" standalone="no"?>
<!-- Created with Inkscape (http://www.inkscape.org/) -->

<svg
   xmlns:dc="http://purl.org/dc/elements/1.1/"
   xmlns:cc="http://creativecommons.org/ns#"
   xmlns:rdf="http://www.w3.org/1999/02/22-rdf-syntax-ns#"
   xmlns:svg="http://www.w3.org/2000/svg"
   xmlns="http://www.w3.org/2000/svg"
   xmlns:sodipodi="http://sodipodi.sourceforge.net/DTD/sodipodi-0.dtd"
   xmlns:inkscape="http://www.inkscape.org/namespaces/inkscape"
   width="27.152321"
   height="31.09886"
   id="svg2"
   version="1.1"
   inkscape:version="0.48.4 r9939"
   sodipodi:docname="noka.svg">
  <defs
     id="defs4" />
  <sodipodi:namedview
     id="base"
     pagecolor="#ffffff"
     bordercolor="#666666"
     borderopacity="1.0"
     inkscape:pageopacity="0.0"
     inkscape:pageshadow="2"
     inkscape:zoom="1.0984277"
     inkscape:cx="-212.16589"
     inkscape:cy="-67.672172"
     inkscape:document-units="px"
     inkscape:current-layer="layer1"
     showgrid="false"
     inkscape:window-width="1596"
     inkscape:window-height="861"
     inkscape:window-x="0"
     inkscape:window-y="18"
     inkscape:window-maximized="0"
     fit-margin-top="0"
     fit-margin-left="0"
     fit-margin-right="0"
     fit-margin-bottom="0" />
  <metadata
     id="metadata7">
    <rdf:RDF>
      <cc:Work
         rdf:about="">
        <dc:format>image/svg+xml</dc:format>
        <dc:type
           rdf:resource="http://purl.org/dc/dcmitype/StillImage" />
        <dc:title></dc:title>
      </cc:Work>
    </rdf:RDF>
  </metadata>
  <g
     inkscape:label="Layer 1"
     inkscape:groupmode="layer"
     id="layer1"
     transform="translate(-448.39827,-810.48529)">
    <path
       style="font-size:40px;font-style:normal;font-weight:normal;line-height:125%;letter-spacing:0px;word-spacing:0px;fill:#000000;fill-opacity:1;stroke:none;font-family:Sans"
       inkscape:connector-curvature="0"
       id="path3198"
       d="m 449.14961,810.48529 -0.0197,0 0.11865,0 c 0.21093,3e-5 0.39551,0.0871 0.55372,0.26099 0.17138,0.16064 0.25708,0.34802 0.25709,0.56215 l 0,28.62943 23.86947,0 0,-28.62943 c -3e-5,-0.24089 0.0725,-0.43497 0.21755,-0.58223 0.15817,-0.16058 0.35593,-0.24088 0.59327,-0.24091 0.21091,3e-5 0.39549,0.0803 0.55372,0.24091 0.17136,0.16065 0.25705,0.35472 0.25709,0.58223 l 0,29.45257 c -4e-5,0.22755 -0.0858,0.42162 -0.25709,0.58223 -0.15823,0.16062 -0.34281,0.24092 -0.55372,0.24092 l -25.4911,0 c -0.23732,0 -0.43508,-0.0736 -0.59327,-0.22084 -0.14504,-0.16062 -0.21754,-0.36138 -0.21754,-0.60231 l 0,-29.45257 c 0,-0.21413 0.0659,-0.39481 0.19776,-0.54208 0.13183,-0.16058 0.30322,-0.25426 0.51417,-0.28106 m 0.0198,21.64271 0.0396,0 0.0396,0 25.4911,0 c 0.2241,10e-6 0.41526,0.0871 0.5735,0.26101 0.15818,0.16062 0.23727,0.348 0.23731,0.56214 -4e-5,0.22755 -0.0792,0.42162 -0.23731,0.58223 -0.14506,0.16062 -0.33622,0.24092 -0.5735,0.24092 l -25.4911,0 -0.0396,0 c -0.23732,0 -0.43508,-0.0736 -0.59328,-0.22085 -0.14503,-0.1606 -0.21754,-0.36136 -0.21753,-0.6023 -1e-5,-0.22752 0.0725,-0.4149 0.21753,-0.56214 0.14502,-0.14722 0.32959,-0.23423 0.55373,-0.26101" />
  </g>
</svg>
