<?xml version="1.0" encoding="UTF-8" standalone="no"?>
<!-- Created with Inkscape (http://www.inkscape.org/) -->

<svg
   xmlns:dc="http://purl.org/dc/elements/1.1/"
   xmlns:cc="http://creativecommons.org/ns#"
   xmlns:rdf="http://www.w3.org/1999/02/22-rdf-syntax-ns#"
   xmlns:svg="http://www.w3.org/2000/svg"
   xmlns="http://www.w3.org/2000/svg"
   xmlns:sodipodi="http://sodipodi.sourceforge.net/DTD/sodipodi-0.dtd"
   xmlns:inkscape="http://www.inkscape.org/namespaces/inkscape"
   width="23.69149"
   height="36.17828"
   id="svg2"
   version="1.1"
   inkscape:version="0.48.4 r9939"
   sodipodi:docname="pakala.svg">
  <defs
     id="defs4" />
  <sodipodi:namedview
     id="base"
     pagecolor="#ffffff"
     bordercolor="#666666"
     borderopacity="1.0"
     inkscape:pageopacity="0.0"
     inkscape:pageshadow="2"
     inkscape:zoom="1.0984277"
     inkscape:cx="-292.24696"
     inkscape:cy="-33.909105"
     inkscape:document-units="px"
     inkscape:current-layer="layer1"
     showgrid="false"
     inkscape:window-width="1596"
     inkscape:window-height="861"
     inkscape:window-x="0"
     inkscape:window-y="18"
     inkscape:window-maximized="0"
     fit-margin-top="0"
     fit-margin-left="0"
     fit-margin-right="0"
     fit-margin-bottom="0" />
  <metadata
     id="metadata7">
    <rdf:RDF>
      <cc:Work
         rdf:about="">
        <dc:format>image/svg+xml</dc:format>
        <dc:type
           rdf:resource="http://purl.org/dc/dcmitype/StillImage" />
        <dc:title></dc:title>
      </cc:Work>
    </rdf:RDF>
  </metadata>
  <g
     inkscape:label="Layer 1"
     inkscape:groupmode="layer"
     id="layer1"
     transform="translate(-531.12058,-807.95573)">
    <path
       style="font-size:40px;font-style:normal;font-weight:normal;line-height:125%;letter-spacing:0px;word-spacing:0px;fill:#000000;fill-opacity:1;stroke:none;font-family:Sans"
       inkscape:connector-curvature="0"
       id="path3202"
       d="m 545.7943,822.79232 c 2.3599,0.0937 4.29793,1.27155 5.8141,3.53351 1.12062,1.68646 1.96438,4.01536 2.53132,6.98671 0.17136,0.92353 0.30979,1.9006 0.41529,2.9312 0.10545,1.01723 0.17136,1.92067 0.19776,2.71036 0.0395,0.78969 0.0593,1.51914 0.0593,2.18836 -3e-5,0.65585 -0.007,1.15776 -0.0197,1.50576 l -0.0198,0.54207 c -3e-5,0.20076 -0.0858,0.37476 -0.25708,0.52199 -0.15823,0.16061 -0.34281,0.24093 -0.55373,0.24093 -0.21097,0 -0.40213,-0.087 -0.57349,-0.261 -0.15824,-0.16062 -0.23735,-0.348 -0.23731,-0.56215 l 0,-0.0602 0,-0.02 c 0.14499,-2.85089 -0.0132,-5.71517 -0.47463,-8.59284 -0.0396,-0.28107 -0.0858,-0.56214 -0.13843,-0.84322 -0.47465,-2.69027 -1.23272,-4.81841 -2.27422,-6.3844 -1.14703,-1.8069 -2.65658,-2.73711 -4.52868,-2.79068 -1.80621,-0.0535 -3.32237,0.82317 -4.54844,2.63006 -1.05474,1.49908 -1.91828,3.66736 -2.59065,6.50486 -0.3296,1.43215 -0.58669,2.95798 -0.77126,4.5775 -0.18458,1.61952 -0.28346,2.88436 -0.29664,3.7945 l -0.0396,1.36522 c -1e-5,0.21415 -0.0857,0.40153 -0.25708,0.56215 -0.15822,0.17399 -0.3428,0.261 -0.55373,0.261 -0.22414,0 -0.42849,-0.0936 -0.61305,-0.28108 l -4.70666,-5.50102 c -0.15821,-0.16062 -0.23732,-0.36138 -0.23731,-0.60231 -10e-6,-0.21415 0.0791,-0.40153 0.23731,-0.56214 0.15821,-0.174 0.34937,-0.26099 0.5735,-0.261 0.25049,10e-6 0.46802,0.11377 0.65261,0.3413 l 3.38168,3.95512 c 0.15818,-2.99812 0.51416,-5.67502 1.06789,-8.03069 0.65918,-2.97135 1.59524,-5.32702 2.80817,-7.06702 1.56887,-2.27534 3.55305,-3.38625 5.95254,-3.33274 m -0.13843,-14.8367 c 2.20169,3e-5 4.0804,0.78971 5.63612,2.36905 1.55567,1.5794 2.33353,3.48669 2.33356,5.72187 -3e-5,2.22185 -0.78448,4.12914 -2.35333,5.72187 -1.55573,1.5794 -3.42785,2.36907 -5.61635,2.36906 -2.18855,1e-5 -4.06067,-0.78966 -5.61635,-2.36906 -1.55571,-1.59273 -2.33357,-3.50002 -2.33355,-5.72187 -2e-5,-2.23518 0.77784,-4.14247 2.33355,-5.72187 1.55568,-1.57934 3.4278,-2.36902 5.61635,-2.36905 m 0,1.64629 c -1.74029,3e-5 -3.23007,0.63579 -4.46934,1.90729 -1.23931,1.25817 -1.85896,2.77062 -1.85894,4.53734 -2e-5,1.78017 0.61304,3.2993 1.83915,4.55742 1.23927,1.24478 2.73565,1.86716 4.48913,1.86713 1.76663,3e-5 3.26299,-0.62235 4.48912,-1.86713 1.23926,-1.24474 1.85891,-2.76387 1.85894,-4.55742 -3e-5,-1.78011 -0.61968,-3.29924 -1.85894,-4.55742 -1.22613,-1.25811 -2.72249,-1.88718 -4.48912,-1.88721" />
  </g>
</svg>
