<?xml version="1.0" encoding="UTF-8" standalone="no"?>
<!-- Created with Inkscape (http://www.inkscape.org/) -->

<svg
   xmlns:dc="http://purl.org/dc/elements/1.1/"
   xmlns:cc="http://creativecommons.org/ns#"
   xmlns:rdf="http://www.w3.org/1999/02/22-rdf-syntax-ns#"
   xmlns:svg="http://www.w3.org/2000/svg"
   xmlns="http://www.w3.org/2000/svg"
   xmlns:sodipodi="http://sodipodi.sourceforge.net/DTD/sodipodi-0.dtd"
   xmlns:inkscape="http://www.inkscape.org/namespaces/inkscape"
   width="10.75808"
   height="40.494781"
   id="svg2"
   version="1.1"
   inkscape:version="0.48.4 r9939"
   sodipodi:docname="pali.svg">
  <defs
     id="defs4" />
  <sodipodi:namedview
     id="base"
     pagecolor="#ffffff"
     bordercolor="#666666"
     borderopacity="1.0"
     inkscape:pageopacity="0.0"
     inkscape:pageshadow="2"
     inkscape:zoom="1.0984277"
     inkscape:cx="-352.3221"
     inkscape:cy="-58.641948"
     inkscape:document-units="px"
     inkscape:current-layer="layer1"
     showgrid="false"
     inkscape:window-width="1596"
     inkscape:window-height="861"
     inkscape:window-x="0"
     inkscape:window-y="18"
     inkscape:window-maximized="0"
     fit-margin-top="0"
     fit-margin-left="0"
     fit-margin-right="0"
     fit-margin-bottom="0" />
  <metadata
     id="metadata7">
    <rdf:RDF>
      <cc:Work
         rdf:about="">
        <dc:format>image/svg+xml</dc:format>
        <dc:type
           rdf:resource="http://purl.org/dc/dcmitype/StillImage" />
        <dc:title></dc:title>
      </cc:Work>
    </rdf:RDF>
  </metadata>
  <g
     inkscape:label="Layer 1"
     inkscape:groupmode="layer"
     id="layer1"
     transform="translate(-578.0883,-805.78732)">
    <path
       style="font-size:40px;font-style:normal;font-weight:normal;line-height:125%;letter-spacing:0px;word-spacing:0px;fill:#000000;fill-opacity:1;stroke:none;font-family:Sans"
       inkscape:connector-curvature="0"
       id="path3204"
       d="m 583.48712,805.78732 c 0.88329,4e-5 1.71389,0.64919 2.49176,1.94745 0.65917,1.28495 1.17334,2.74386 1.54251,4.37673 0.88331,3.7343 1.32496,8.37871 1.32499,13.93325 -3e-5,5.5412 -0.44168,10.17891 -1.32499,13.91318 -0.40872,1.76676 -0.9229,3.23236 -1.54251,4.39681 -0.72514,1.28491 -1.55573,1.92736 -2.49176,1.92736 -0.98882,0 -1.81281,-0.64245 -2.47199,-1.92736 -0.58011,-0.99045 -1.09428,-2.45606 -1.54251,-4.39681 -0.9229,-3.70749 -1.38434,-8.34522 -1.38432,-13.91318 -2e-5,-5.5813 0.46142,-10.22572 1.38432,-13.93325 0.42187,-1.83365 0.93604,-3.29256 1.54251,-4.37673 0.71191,-1.29826 1.53591,-1.94741 2.47199,-1.94745 m 0,1.6463 c -0.25052,3e-5 -0.60649,0.3681 -1.0679,1.10422 -0.50101,0.92356 -0.96245,2.24193 -1.38432,3.95512 -0.88333,3.82798 -1.325,8.34525 -1.32498,13.55179 -2e-5,5.20658 0.44165,9.71716 1.32498,13.53173 0.40869,1.69982 0.87013,3.0182 1.38432,3.95511 0.42186,0.73615 0.77783,1.10422 1.0679,1.10422 0.0659,0 0.145,-0.0267 0.2373,-0.0803 0.0922,-0.0535 0.21752,-0.16731 0.37575,-0.3413 0.15819,-0.17401 0.3098,-0.40154 0.45485,-0.68262 0.44822,-0.80307 0.90307,-2.12144 1.36452,-3.95511 0.88331,-3.81457 1.32496,-8.32514 1.32499,-13.53173 -3e-5,-5.20654 -0.44168,-9.72381 -1.32499,-13.55179 -0.43509,-1.76673 -0.88992,-3.0851 -1.36452,-3.95512 -0.22416,-0.38812 -0.4351,-0.66919 -0.63283,-0.84322 -0.1846,-0.17396 -0.32962,-0.26097 -0.43507,-0.261" />
  </g>
</svg>
