<?xml version="1.0" encoding="UTF-8" standalone="no"?>
<!-- Created with Inkscape (http://www.inkscape.org/) -->

<svg
   xmlns:dc="http://purl.org/dc/elements/1.1/"
   xmlns:cc="http://creativecommons.org/ns#"
   xmlns:rdf="http://www.w3.org/1999/02/22-rdf-syntax-ns#"
   xmlns:svg="http://www.w3.org/2000/svg"
   xmlns="http://www.w3.org/2000/svg"
   xmlns:sodipodi="http://sodipodi.sourceforge.net/DTD/sodipodi-0.dtd"
   xmlns:inkscape="http://www.inkscape.org/namespaces/inkscape"
   width="24.818687"
   height="32.223091"
   id="svg2"
   version="1.1"
   inkscape:version="0.48.4 r9939"
   sodipodi:docname="pan.svg">
  <defs
     id="defs4" />
  <sodipodi:namedview
     id="base"
     pagecolor="#ffffff"
     bordercolor="#666666"
     borderopacity="1.0"
     inkscape:pageopacity="0.0"
     inkscape:pageshadow="2"
     inkscape:zoom="1.0984277"
     inkscape:cx="91.159418"
     inkscape:cy="-195.08185"
     inkscape:document-units="px"
     inkscape:current-layer="layer1"
     showgrid="false"
     inkscape:window-width="1596"
     inkscape:window-height="861"
     inkscape:window-x="0"
     inkscape:window-y="18"
     inkscape:window-maximized="0"
     fit-margin-top="0"
     fit-margin-left="0"
     fit-margin-right="0"
     fit-margin-bottom="0" />
  <metadata
     id="metadata7">
    <rdf:RDF>
      <cc:Work
         rdf:about="">
        <dc:format>image/svg+xml</dc:format>
        <dc:type
           rdf:resource="http://purl.org/dc/dcmitype/StillImage" />
        <dc:title></dc:title>
      </cc:Work>
    </rdf:RDF>
  </metadata>
  <g
     inkscape:label="Layer 1"
     inkscape:groupmode="layer"
     id="layer1"
     transform="translate(-44.53525,-861.31962)">
    <path
       style="font-size:40px;font-style:normal;font-weight:normal;line-height:125%;letter-spacing:0px;word-spacing:0px;fill:#000000;fill-opacity:1;stroke:none;font-family:Sans"
       inkscape:connector-curvature="0"
       id="path3208"
       d="m 59.228719,872.20118 c 1.239269,0.0535 2.35331,0.39486 3.342121,1.02391 1.001954,0.61571 1.832538,1.45224 2.491763,2.50959 1.067869,1.57939 1.905045,3.90829 2.511537,6.9867 0.566872,3.21229 0.777821,6.49818 0.632828,9.85769 l 0,0.02 c -0.03959,0.21415 -0.131871,0.40153 -0.276865,0.56215 -0.145054,0.14723 -0.323036,0.20746 -0.533945,0.18069 -0.224162,0.0268 -0.415327,-0.0402 -0.573504,-0.20077 -0.158237,-0.174 -0.237336,-0.37476 -0.237305,-0.6023 l 0,-0.0602 c 0.02632,-0.36138 0.04607,-0.84322 0.05933,-1.44552 0.01316,-0.61568 -0.03301,-1.75336 -0.138433,-3.41305 -0.09234,-1.65967 -0.270293,-3.1855 -0.533944,-4.5775 -0.435102,-2.52965 -1.19317,-4.66447 -2.274232,-6.40448 -1.278859,-1.84703 -2.788422,-2.77057 -4.528669,-2.77059 -0.949262,-0.0535 -1.786438,0.14725 -2.511537,0.60231 -0.72513,0.44171 -1.404108,1.10424 -2.036916,1.98759 -1.081093,1.59278 -1.944645,3.76775 -2.590636,6.52494 -0.698763,3.02491 -1.067909,6.26395 -1.107448,9.71714 -2.1e-5,0.22754 -0.07908,0.42162 -0.237316,0.58223 -0.158217,0.14723 -0.349382,0.23423 -0.573494,0.261 -0.290068,-0.0536 -0.494416,-0.15392 -0.613053,-0.30115 l -4.706661,-5.48095 c -0.1714,-0.2543 -0.25709,-0.45506 -0.25709,-0.6023 0,-0.22754 0.07908,-0.42161 0.237316,-0.58223 0.17138,-0.17399 0.362544,-0.2476 0.573494,-0.22084 0.263671,-0.0669 0.481212,0.0335 0.652612,0.30115 l 3.401445,3.95511 c 0.07908,-2.59658 0.435062,-5.27348 1.0679,-8.0307 0.68555,-3.02487 1.621609,-5.36715 2.808177,-7.02685 1.555683,-2.28873 3.539857,-3.40633 5.952531,-3.35281 m 0.276865,-10.86152 0,-0.02 c 0.01316,3e-5 0.01974,0.007 0.01974,0.02 0.197736,-0.0267 0.382309,0.0536 0.55373,0.24092 0.171359,0.17403 0.257059,0.36141 0.25708,0.56215 l 0,0.0402 0,5.74195 0,0.0402 c -2.1e-5,0.2008 -0.08576,0.39487 -0.25708,0.58223 -0.171421,0.17403 -0.355994,0.24764 -0.55373,0.22084 -0.224153,0.0268 -0.415317,-0.0468 -0.573504,-0.22084 -0.158227,-0.17398 -0.237326,-0.36805 -0.237305,-0.58223 l 0,-0.0402 0,-5.72186 0,-0.0602 c -2.1e-5,-0.20074 0.07908,-0.38812 0.237305,-0.56214 0.158187,-0.18735 0.34276,-0.26767 0.553729,-0.24093 m -9.176005,1.60614 0,-0.02 0.118658,0 c 0.290028,-0.0535 0.527343,0.0871 0.711927,0.42162 l 3.38168,5.96279 c 0.105455,0.0535 0.158187,0.20748 0.158207,0.46177 -2e-5,0.48186 -0.270293,0.76293 -0.81082,0.84322 -0.369156,-0.0669 -0.619654,-0.23421 -0.751475,-0.50192 l -3.381681,-5.92264 c -0.09224,-0.1472 -0.138442,-0.30112 -0.138432,-0.46177 -1e-5,-0.20073 0.06592,-0.38142 0.197766,-0.54206 0.145004,-0.16059 0.316394,-0.2409 0.51417,-0.24093 m 18.075146,0 0,-0.02 0.138432,0 c 0.224092,-0.0267 0.415267,0.0469 0.573504,0.22084 0.158177,0.17404 0.237275,0.36812 0.237306,0.58223 -3.1e-5,0.16065 -0.03959,0.30788 -0.118658,0.4417 l -3.579427,6.30409 c -0.131871,0.26771 -0.382359,0.43502 -0.751485,0.50192 -0.540567,-0.0803 -0.81084,-0.36136 -0.81081,-0.84322 -3e-5,-0.25428 0.05275,-0.40821 0.158207,-0.46177 l 3.579437,-6.30409 c 0.184543,-0.28105 0.375707,-0.42159 0.573494,-0.42162" />
  </g>
</svg>
