<?xml version="1.0" encoding="UTF-8" standalone="no"?>
<!-- Created with Inkscape (http://www.inkscape.org/) -->

<svg
   xmlns:dc="http://purl.org/dc/elements/1.1/"
   xmlns:cc="http://creativecommons.org/ns#"
   xmlns:rdf="http://www.w3.org/1999/02/22-rdf-syntax-ns#"
   xmlns:svg="http://www.w3.org/2000/svg"
   xmlns="http://www.w3.org/2000/svg"
   xmlns:sodipodi="http://sodipodi.sourceforge.net/DTD/sodipodi-0.dtd"
   xmlns:inkscape="http://www.inkscape.org/namespaces/inkscape"
   width="25.095585"
   height="26.722139"
   id="svg2"
   version="1.1"
   inkscape:version="0.48.4 r9939"
   sodipodi:docname="pana.svg">
  <defs
     id="defs4" />
  <sodipodi:namedview
     id="base"
     pagecolor="#ffffff"
     bordercolor="#666666"
     borderopacity="1.0"
     inkscape:pageopacity="0.0"
     inkscape:pageshadow="2"
     inkscape:zoom="1.0984277"
     inkscape:cx="90.888472"
     inkscape:cy="-94.279648"
     inkscape:document-units="px"
     inkscape:current-layer="layer1"
     showgrid="false"
     inkscape:window-width="1596"
     inkscape:window-height="861"
     inkscape:window-x="0"
     inkscape:window-y="18"
     inkscape:window-maximized="0"
     fit-margin-top="0"
     fit-margin-left="0"
     fit-margin-right="0"
     fit-margin-bottom="0" />
  <metadata
     id="metadata7">
    <rdf:RDF>
      <cc:Work
         rdf:about="">
        <dc:format>image/svg+xml</dc:format>
        <dc:type
           rdf:resource="http://purl.org/dc/dcmitype/StillImage" />
        <dc:title></dc:title>
      </cc:Work>
    </rdf:RDF>
  </metadata>
  <g
     inkscape:label="Layer 1"
     inkscape:groupmode="layer"
     id="layer1"
     transform="translate(-84.937415,-864.0701)">
    <path
       style="font-size:40px;font-style:normal;font-weight:normal;line-height:125%;letter-spacing:0px;word-spacing:0px;fill:#000000;fill-opacity:1;stroke:none;font-family:Sans"
       inkscape:connector-curvature="0"
       id="path3210"
       d="m 85.649285,864.0701 0.09892,0 c 0.210929,3e-5 0.395502,0.0804 0.553719,0.24092 0.17139,0.16065 0.25708,0.35472 0.257091,0.58222 l 0,24.2527 22.643375,0 0.0198,0 c 0.22409,10e-6 0.41526,0.087 0.5735,0.261 0.15818,0.16062 0.23728,0.34801 0.23731,0.56215 -3e-5,0.24092 -0.0792,0.4417 -0.23731,0.6023 -0.14505,0.14723 -0.33622,0.22085 -0.5735,0.22085 l -23.473965,0 c -0.224133,0 -0.415308,-0.0736 -0.573504,-0.22085 -0.158218,-0.1606 -0.237316,-0.36138 -0.237306,-0.6023 l 0,-25.07585 c -1e-5,-0.21412 0.06592,-0.39481 0.197756,-0.54207 0.131831,-0.16058 0.303221,-0.25428 0.514171,-0.28107" />
  </g>
</svg>
