<?xml version="1.0" encoding="UTF-8" standalone="no"?>
<!-- Created with Inkscape (http://www.inkscape.org/) -->

<svg
   xmlns:dc="http://purl.org/dc/elements/1.1/"
   xmlns:cc="http://creativecommons.org/ns#"
   xmlns:rdf="http://www.w3.org/1999/02/22-rdf-syntax-ns#"
   xmlns:svg="http://www.w3.org/2000/svg"
   xmlns="http://www.w3.org/2000/svg"
   xmlns:sodipodi="http://sodipodi.sourceforge.net/DTD/sodipodi-0.dtd"
   xmlns:inkscape="http://www.inkscape.org/namespaces/inkscape"
   width="30.62027"
   height="26.987028"
   id="svg2"
   version="1.1"
   inkscape:version="0.48.4 r9939"
   sodipodi:docname="pi.svg">
  <defs
     id="defs4" />
  <sodipodi:namedview
     id="base"
     pagecolor="#ffffff"
     bordercolor="#666666"
     borderopacity="1.0"
     inkscape:pageopacity="0.0"
     inkscape:pageshadow="2"
     inkscape:zoom="1.0984277"
     inkscape:cx="-31.771539"
     inkscape:cy="-253.70909"
     inkscape:document-units="px"
     inkscape:current-layer="layer1"
     showgrid="false"
     inkscape:window-width="1596"
     inkscape:window-height="861"
     inkscape:window-x="0"
     inkscape:window-y="18"
     inkscape:window-maximized="0"
     fit-margin-top="0"
     fit-margin-left="0"
     fit-margin-right="0"
     fit-margin-bottom="0" />
  <metadata
     id="metadata7">
    <rdf:RDF>
      <cc:Work
         rdf:about="">
        <dc:format>image/svg+xml</dc:format>
        <dc:type
           rdf:resource="http://purl.org/dc/dcmitype/StillImage" />
        <dc:title></dc:title>
      </cc:Work>
    </rdf:RDF>
  </metadata>
  <g
     inkscape:label="Layer 1"
     inkscape:groupmode="layer"
     id="layer1"
     transform="translate(-122.66,-863.94574)">
    <path
       style="font-size:40px;font-style:normal;font-weight:normal;line-height:125%;letter-spacing:0px;word-spacing:0px;fill:#000000;fill-opacity:1;stroke:none;font-family:Sans"
       inkscape:connector-curvature="0"
       id="path3212"
       d="m 129.86814,863.94963 c 1.50295,0.0536 2.98614,0.61572 4.44957,1.68645 1.26564,0.92356 2.48515,2.11478 3.65854,3.57366 0.9624,-1.31165 2.18192,-2.50287 3.65853,-3.57366 1.55568,-1.07073 3.03887,-1.63287 4.44957,-1.68645 1.85891,-0.0669 3.51348,0.72949 4.96375,2.38914 1.10741,1.2314 1.79957,2.61 2.07647,4.13581 0.27682,1.52585 0.18453,2.96469 -0.27687,4.3165 -0.69878,2.46276 -2.3204,5.08612 -4.86486,7.87008 -0.80425,0.88338 -1.68098,1.76676 -2.63019,2.65012 -0.93609,0.87001 -1.79963,1.62623 -2.59064,2.26868 -0.79106,0.62907 -1.52277,1.19792 -2.19513,1.70652 -0.65921,0.49523 -1.17997,0.87669 -1.56229,1.14437 -0.38235,0.25431 -0.57352,0.37477 -0.5735,0.36139 -0.13186,0.0937 -0.28347,0.14054 -0.45484,0.14053 -0.19778,10e-6 -0.3428,-0.0469 -0.43507,-0.14053 -0.0264,0.0267 -0.51419,-0.29446 -1.46342,-0.96368 -0.94926,-0.68261 -2.22151,-1.69983 -3.81674,-3.05167 -1.59526,-1.35183 -3.02572,-2.72373 -4.29136,-4.11573 -2.51814,-2.74381 -4.14635,-5.36717 -4.88464,-7.87008 -0.46145,-1.36521 -0.54714,-2.80403 -0.25709,-4.3165 0.29004,-1.51243 0.9822,-2.89102 2.07646,-4.13581 1.45023,-1.65965 3.10481,-2.45602 4.96375,-2.38914 m -0.0593,1.6463 c -1.30522,-0.0669 -2.54451,0.54879 -3.71786,1.84706 -1.71392,1.94078 -2.19513,4.23622 -1.44364,6.88632 0.68555,2.24862 2.18852,4.64443 4.5089,7.18748 1.1338,1.25815 2.40605,2.49621 3.81674,3.71419 1.42385,1.21799 2.51152,2.10807 3.26302,2.67021 0.75147,0.54877 1.33155,0.9503 1.74028,1.2046 3.5069,-2.4092 6.4469,-4.93887 8.82004,-7.589 2.37307,-2.59658 3.87604,-4.99241 4.50889,-7.18748 0.79101,-2.60995 0.3032,-4.90539 -1.46341,-6.88632 -1.17339,-1.29827 -2.40609,-1.91395 -3.69808,-1.84706 -1.04157,2e-5 -2.2413,0.46179 -3.59921,1.38529 -0.65923,0.46849 -1.31842,1.04402 -1.9776,1.7266 -0.64603,0.66926 -1.12724,1.21133 -1.44363,1.62622 -0.31644,0.41494 -0.47465,0.63578 -0.47462,0.66253 -0.15823,0.22756 -0.38235,0.34133 -0.67238,0.3413 -0.31644,3e-5 -0.54056,-0.12043 -0.67238,-0.36138 0.0263,2e-5 -0.12527,-0.21412 -0.45485,-0.64245 -0.32961,-0.42828 -0.81742,-0.97705 -1.46341,-1.64629 -0.64603,-0.6692 -1.30522,-1.23804 -1.97759,-1.70653 -1.25248,-0.9235 -2.45222,-1.38527 -3.59921,-1.38529" />
  </g>
</svg>
