<?xml version="1.0" encoding="UTF-8" standalone="no"?>
<!-- Created with Inkscape (http://www.inkscape.org/) -->

<svg
   xmlns:dc="http://purl.org/dc/elements/1.1/"
   xmlns:cc="http://creativecommons.org/ns#"
   xmlns:rdf="http://www.w3.org/1999/02/22-rdf-syntax-ns#"
   xmlns:svg="http://www.w3.org/2000/svg"
   xmlns="http://www.w3.org/2000/svg"
   xmlns:sodipodi="http://sodipodi.sourceforge.net/DTD/sodipodi-0.dtd"
   xmlns:inkscape="http://www.inkscape.org/namespaces/inkscape"
   width="11.54908"
   height="26.220209"
   id="svg2"
   version="1.1"
   inkscape:version="0.48.4 r9939"
   sodipodi:docname="pimeja.svg">
  <defs
     id="defs4" />
  <sodipodi:namedview
     id="base"
     pagecolor="#ffffff"
     bordercolor="#666666"
     borderopacity="1.0"
     inkscape:pageopacity="0.0"
     inkscape:pageshadow="2"
     inkscape:zoom="1.0984277"
     inkscape:cx="-257.17851"
     inkscape:cy="-250.75081"
     inkscape:document-units="px"
     inkscape:current-layer="layer1"
     showgrid="false"
     inkscape:window-width="1596"
     inkscape:window-height="861"
     inkscape:window-x="0"
     inkscape:window-y="18"
     inkscape:window-maximized="0"
     fit-margin-top="0"
     fit-margin-left="0"
     fit-margin-right="0"
     fit-margin-bottom="0" />
  <metadata
     id="metadata7">
    <rdf:RDF>
      <cc:Work
         rdf:about="">
        <dc:format>image/svg+xml</dc:format>
        <dc:type
           rdf:resource="http://purl.org/dc/dcmitype/StillImage" />
        <dc:title></dc:title>
      </cc:Work>
    </rdf:RDF>
  </metadata>
  <g
     inkscape:label="Layer 1"
     inkscape:groupmode="layer"
     id="layer1"
     transform="translate(-213.18398,-864.3311)">
    <path
       style="font-size:40px;font-style:normal;font-weight:normal;line-height:125%;letter-spacing:0px;word-spacing:0px;fill:#000000;fill-opacity:1;stroke:none;font-family:Sans"
       inkscape:connector-curvature="0"
       id="path3216"
       d="m 218.89912,864.55194 0,0.02 c -1e-5,-0.0134 0.0263,-0.02 0.0791,-0.02 0.21092,3e-5 0.3955,0.0871 0.55372,0.261 0.17138,0.16064 0.25707,0.34802 0.25709,0.56214 l 0,0.0402 0,23.55001 0,0.02 c -2e-5,0.22754 -0.0857,0.42161 -0.25709,0.58223 -0.15822,0.16061 -0.3428,0.24092 -0.55372,0.24091 -0.23732,10e-6 -0.43509,-0.0803 -0.59328,-0.24091 -0.14504,-0.16062 -0.21755,-0.35469 -0.21753,-0.58223 l 0,-0.02 0,-23.55001 0,-0.0402 c -2e-5,-0.21412 0.0659,-0.3948 0.19776,-0.54207 0.145,-0.16058 0.32299,-0.25427 0.53395,-0.28107 m -4.4298,-0.22084 0.0396,0 0.0396,0 8.87936,0 c 0.23729,3e-5 0.42845,0.0803 0.57351,0.24091 0.15818,0.16065 0.23728,0.35472 0.2373,0.58223 -2e-5,0.21418 -0.0791,0.40825 -0.2373,0.58223 -0.15824,0.16064 -0.3494,0.24095 -0.57351,0.24092 l -8.87936,0 -0.0396,0 c -0.22414,3e-5 -0.41531,-0.0803 -0.5735,-0.24092 -0.15822,-0.17398 -0.23733,-0.36805 -0.23731,-0.58223 -2e-5,-0.21413 0.0725,-0.40151 0.21753,-0.56215 0.15819,-0.17397 0.34277,-0.26096 0.55372,-0.26099 m -0.51417,24.57392 0.0396,0 0.0396,0 9.86816,0 0.0197,0 c 0.21092,0 0.39549,0.0803 0.55373,0.24092 0.17136,0.16062 0.25706,0.3547 0.25708,0.58223 -2e-5,0.21416 -0.0858,0.40823 -0.25708,0.58223 -0.15824,0.16061 -0.34281,0.24091 -0.55373,0.24091 l -0.0197,0 -9.86816,0 -0.0396,0 c -0.21095,0 -0.40212,-0.0803 -0.57349,-0.24091 -0.15823,-0.174 -0.23733,-0.36807 -0.23732,-0.58223 -1e-5,-0.22753 0.0725,-0.42161 0.21754,-0.58223 0.15819,-0.1606 0.34276,-0.24092 0.55372,-0.24092" />
  </g>
</svg>
