<?xml version="1.0" encoding="UTF-8" standalone="no"?>
<!-- Created with Inkscape (http://www.inkscape.org/) -->

<svg
   xmlns:dc="http://purl.org/dc/elements/1.1/"
   xmlns:cc="http://creativecommons.org/ns#"
   xmlns:rdf="http://www.w3.org/1999/02/22-rdf-syntax-ns#"
   xmlns:svg="http://www.w3.org/2000/svg"
   xmlns="http://www.w3.org/2000/svg"
   xmlns:sodipodi="http://sodipodi.sourceforge.net/DTD/sodipodi-0.dtd"
   xmlns:inkscape="http://www.inkscape.org/namespaces/inkscape"
   width="13.74423"
   height="36.29874"
   id="svg2"
   version="1.1"
   inkscape:version="0.48.4 r9939"
   sodipodi:docname="pini.svg">
  <defs
     id="defs4" />
  <sodipodi:namedview
     id="base"
     pagecolor="#ffffff"
     bordercolor="#666666"
     borderopacity="1.0"
     inkscape:pageopacity="0.0"
     inkscape:pageshadow="2"
     inkscape:zoom="1.0984277"
     inkscape:cx="-70.946902"
     inkscape:cy="29.645025"
     inkscape:document-units="px"
     inkscape:current-layer="layer1"
     showgrid="false"
     inkscape:window-width="1596"
     inkscape:window-height="861"
     inkscape:window-x="0"
     inkscape:window-y="18"
     inkscape:window-maximized="0"
     fit-margin-top="0"
     fit-margin-left="0"
     fit-margin-right="0"
     fit-margin-bottom="0" />
  <metadata
     id="metadata7">
    <rdf:RDF>
      <cc:Work
         rdf:about="">
        <dc:format>image/svg+xml</dc:format>
        <dc:type
           rdf:resource="http://purl.org/dc/dcmitype/StillImage" />
        <dc:title></dc:title>
      </cc:Work>
    </rdf:RDF>
  </metadata>
  <g
     inkscape:label="Layer 1"
     inkscape:groupmode="layer"
     id="layer1"
     transform="translate(-252.57743,-859.29183)">
    <path
       style="font-size:40px;font-style:normal;font-weight:normal;line-height:125%;letter-spacing:0px;word-spacing:0px;fill:#000000;fill-opacity:1;stroke:none;font-family:Sans"
       inkscape:connector-curvature="0"
       id="path3218"
       d="m 253.46735,889.04556 11.98418,0 c 0.21091,0 0.39549,0.087 0.55372,0.26099 0.17137,0.16063 0.25706,0.34801 0.25709,0.56216 -3e-5,0.21416 -0.0858,0.40823 -0.25709,0.58222 -0.15823,0.16062 -0.34281,0.24092 -0.55372,0.24092 l -11.98418,0 c -0.21096,0 -0.40213,-0.0803 -0.57351,-0.24092 -0.15821,-0.17399 -0.23731,-0.36806 -0.2373,-0.58222 -1e-5,-0.21415 0.0791,-0.40153 0.2373,-0.56216 0.17138,-0.17398 0.36255,-0.26099 0.57351,-0.26099 m -0.13844,-11.32328 0.13844,0 12.02373,0 c 0.21092,2e-5 0.40208,0.0871 0.5735,0.261 0.17136,0.16062 0.25706,0.348 0.25708,0.56214 -2e-5,0.21417 -0.0858,0.40824 -0.25708,0.58223 -0.17142,0.16063 -0.36258,0.24094 -0.5735,0.24092 l -12.02373,0 c -0.19778,0.0268 -0.38894,-0.0334 -0.57351,-0.18069 -0.18458,-0.16059 -0.29006,-0.34798 -0.31641,-0.56215 -1e-5,-0.22752 0.0659,-0.42828 0.19776,-0.6023 0.14501,-0.17398 0.32958,-0.27436 0.55372,-0.30115 m 0.17799,-10.80128 0.0593,0 11.90507,0 c 0.21092,3e-5 0.40209,0.0871 0.5735,0.261 0.17137,0.16063 0.25706,0.34801 0.25709,0.56214 -3e-5,0.21418 -0.0858,0.40825 -0.25709,0.58223 -0.17141,0.16063 -0.36258,0.24095 -0.5735,0.24092 l -11.90507,0 c -0.21096,0.0268 -0.40212,-0.0401 -0.5735,-0.20077 -0.15822,-0.17398 -0.25051,-0.36805 -0.27687,-0.58223 -1e-5,-0.21412 0.0725,-0.40151 0.21754,-0.56214 0.15819,-0.17398 0.34935,-0.27436 0.5735,-0.30115 m 0.90969,-7.24771 c 0.25048,-0.25426 0.54712,-0.38142 0.88992,-0.38146 0.34276,4e-5 0.6328,0.1272 0.87013,0.38146 0.25048,0.24096 0.37573,0.53541 0.37574,0.88338 -10e-6,0.34803 -0.12526,0.64918 -0.37574,0.90345 -0.23733,0.24096 -0.52737,0.36141 -0.87013,0.36138 -0.3428,3e-5 -0.63944,-0.12042 -0.88992,-0.36138 -0.23733,-0.25427 -0.35598,-0.55542 -0.35596,-0.90345 -2e-5,-0.34797 0.11863,-0.64242 0.35596,-0.88338 m 9.13645,-0.32122 c 0.32957,3e-5 0.61303,0.12718 0.85036,0.38145 0.25047,0.24096 0.37572,0.53542 0.37574,0.88338 -2e-5,0.33464 -0.12527,0.6291 -0.37574,0.88337 -0.23733,0.24096 -0.52079,0.36142 -0.85036,0.36138 -0.34281,4e-5 -0.63945,-0.12042 -0.88991,-0.36138 -0.23734,-0.25427 -0.35599,-0.54873 -0.35597,-0.88337 -2e-5,-0.34796 0.11863,-0.64242 0.35597,-0.88338 0.25046,-0.25427 0.5471,-0.38142 0.88991,-0.38145 m -4.25181,3.71419 c 0.2241,-0.0267 0.42846,0.0469 0.61305,0.22084 0.19774,0.17403 0.29662,0.37481 0.29664,0.60231 l 0,30.85794 c -2e-5,0.22754 -0.0858,0.42162 -0.25709,0.58223 -0.15822,0.174 -0.3428,0.26099 -0.55373,0.26099 -0.22414,0 -0.4153,-0.087 -0.57349,-0.26099 -0.15823,-0.16061 -0.23734,-0.35469 -0.23732,-0.58223 l 0,-30.85794 c -2e-5,-0.20074 0.0659,-0.38143 0.19777,-0.54207 0.145,-0.16058 0.31639,-0.25428 0.51417,-0.28108" />
  </g>
</svg>
