<?xml version="1.0" encoding="UTF-8" standalone="no"?>
<!-- Created with Inkscape (http://www.inkscape.org/) -->

<svg
   xmlns:dc="http://purl.org/dc/elements/1.1/"
   xmlns:cc="http://creativecommons.org/ns#"
   xmlns:rdf="http://www.w3.org/1999/02/22-rdf-syntax-ns#"
   xmlns:svg="http://www.w3.org/2000/svg"
   xmlns="http://www.w3.org/2000/svg"
   xmlns:sodipodi="http://sodipodi.sourceforge.net/DTD/sodipodi-0.dtd"
   xmlns:inkscape="http://www.inkscape.org/namespaces/inkscape"
   width="33.816738"
   height="14.601121"
   id="svg2"
   version="1.1"
   inkscape:version="0.48.4 r9939"
   sodipodi:docname="pipi.svg">
  <defs
     id="defs4" />
  <sodipodi:namedview
     id="base"
     pagecolor="#ffffff"
     bordercolor="#666666"
     borderopacity="1.0"
     inkscape:pageopacity="0.0"
     inkscape:pageshadow="2"
     inkscape:zoom="1.0984277"
     inkscape:cx="-354.01874"
     inkscape:cy="-135.98812"
     inkscape:document-units="px"
     inkscape:current-layer="layer1"
     showgrid="false"
     inkscape:window-width="1596"
     inkscape:window-height="861"
     inkscape:window-x="0"
     inkscape:window-y="18"
     inkscape:window-maximized="0"
     fit-margin-top="0"
     fit-margin-left="0"
     fit-margin-right="0"
     fit-margin-bottom="0" />
  <metadata
     id="metadata7">
    <rdf:RDF>
      <cc:Work
         rdf:about="">
        <dc:format>image/svg+xml</dc:format>
        <dc:type
           rdf:resource="http://purl.org/dc/dcmitype/StillImage" />
        <dc:title></dc:title>
      </cc:Work>
    </rdf:RDF>
  </metadata>
  <g
     inkscape:label="Layer 1"
     inkscape:groupmode="layer"
     id="layer1"
     transform="translate(-283.07183,-870.12794)">
    <path
       style="font-size:40px;font-style:normal;font-weight:normal;line-height:125%;letter-spacing:0px;word-spacing:0px;fill:#000000;fill-opacity:1;stroke:none;font-family:Sans"
       inkscape:connector-curvature="0"
       id="path3220"
       d="m 283.76398,870.13327 c 0.23731,-0.0267 0.45485,0.0469 0.65261,0.22084 0.19775,0.17403 0.28345,0.3748 0.25708,0.60231 l 0,12.12635 25.80751,0 0,-11.94566 c -3e-5,-0.21413 0.0791,-0.40151 0.23732,-0.56215 0.17136,-0.17397 0.36252,-0.26098 0.57349,-0.261 0.21092,2e-5 0.3955,0.0871 0.55373,0.261 0.17136,0.16064 0.25705,0.34802 0.25709,0.56215 l 0,12.76881 c -4e-5,0.21416 -0.0858,0.40823 -0.25709,0.58222 -0.15823,0.16062 -0.34281,0.24093 -0.55373,0.24092 l -27.40935,0 c -0.22414,10e-6 -0.4153,-0.0803 -0.5735,-0.24092 -0.15821,-0.16061 -0.23731,-0.35468 -0.23731,-0.58222 l 0,-12.9495 c 0,-0.18736 0.0659,-0.36136 0.19775,-0.52199 0.13184,-0.17398 0.29664,-0.27437 0.4944,-0.30116 m 31.87871,5.7821 c 0.34275,2e-5 0.63279,0.12717 0.87013,0.38146 0.25046,0.24094 0.37571,0.53539 0.37575,0.88338 -4e-5,0.34802 -0.12529,0.64916 -0.37575,0.90345 -0.23734,0.24093 -0.52738,0.3614 -0.87013,0.36139 -0.32964,10e-6 -0.61967,-0.12046 -0.87014,-0.36139 -0.23734,-0.25429 -0.356,-0.55543 -0.35597,-0.90345 -3e-5,-0.34799 0.11863,-0.64244 0.35597,-0.88338 0.25047,-0.25429 0.5405,-0.38144 0.87014,-0.38146" />
  </g>
</svg>
