<?xml version="1.0" encoding="UTF-8" standalone="no"?>
<!-- Created with Inkscape (http://www.inkscape.org/) -->

<svg
   xmlns:dc="http://purl.org/dc/elements/1.1/"
   xmlns:cc="http://creativecommons.org/ns#"
   xmlns:rdf="http://www.w3.org/1999/02/22-rdf-syntax-ns#"
   xmlns:svg="http://www.w3.org/2000/svg"
   xmlns="http://www.w3.org/2000/svg"
   xmlns:sodipodi="http://sodipodi.sourceforge.net/DTD/sodipodi-0.dtd"
   xmlns:inkscape="http://www.inkscape.org/namespaces/inkscape"
   width="27.11273"
   height="31.09886"
   id="svg2"
   version="1.1"
   inkscape:version="0.48.4 r9939"
   sodipodi:docname="poka.svg">
  <defs
     id="defs4" />
  <sodipodi:namedview
     id="base"
     pagecolor="#ffffff"
     bordercolor="#666666"
     borderopacity="1.0"
     inkscape:pageopacity="0.0"
     inkscape:pageshadow="2"
     inkscape:zoom="1.0984277"
     inkscape:cx="-90.108888"
     inkscape:cy="-14.789717"
     inkscape:document-units="px"
     inkscape:current-layer="layer1"
     showgrid="false"
     inkscape:window-width="1596"
     inkscape:window-height="861"
     inkscape:window-x="0"
     inkscape:window-y="18"
     inkscape:window-maximized="0"
     fit-margin-top="0"
     fit-margin-left="0"
     fit-margin-right="0"
     fit-margin-bottom="0" />
  <metadata
     id="metadata7">
    <rdf:RDF>
      <cc:Work
         rdf:about="">
        <dc:format>image/svg+xml</dc:format>
        <dc:type
           rdf:resource="http://purl.org/dc/dcmitype/StillImage" />
        <dc:title></dc:title>
      </cc:Work>
    </rdf:RDF>
  </metadata>
  <g
     inkscape:label="Layer 1"
     inkscape:groupmode="layer"
     id="layer1"
     transform="translate(-326.93469,-861.88174)">
    <path
       style="font-size:40px;font-style:normal;font-weight:normal;line-height:125%;letter-spacing:0px;word-spacing:0px;fill:#000000;fill-opacity:1;stroke:none;font-family:Sans"
       inkscape:connector-curvature="0"
       id="path3222"
       d="m 327.64665,861.88174 -0.0198,0 0.11865,0 c 0.21094,3e-5 0.39551,0.0871 0.55373,0.26099 0.17138,0.16064 0.25708,0.34802 0.25709,0.56215 l 0,28.62943 23.86947,0 0,-28.62943 c -3e-5,-0.24089 0.0725,-0.43497 0.21754,-0.58223 0.15818,-0.16058 0.35593,-0.24088 0.59328,-0.24091 0.21091,3e-5 0.39548,0.0804 0.55372,0.24091 0.17136,0.16065 0.25705,0.35472 0.25709,0.58223 l 0,29.45257 c -4e-5,0.22755 -0.0858,0.42162 -0.25709,0.58223 -0.15824,0.16062 -0.34281,0.24092 -0.55372,0.24092 l -25.49111,0 c -0.23731,0 -0.43507,-0.0736 -0.59327,-0.22084 -0.14503,-0.16062 -0.21754,-0.36138 -0.21754,-0.60231 l 0,-29.45257 c 0,-0.21413 0.0659,-0.39481 0.19777,-0.54208 0.13183,-0.16058 0.30322,-0.25426 0.51417,-0.28106" />
  </g>
</svg>
