<?xml version="1.0" encoding="UTF-8" standalone="no"?>
<!-- Created with Inkscape (http://www.inkscape.org/) -->

<svg
   xmlns:dc="http://purl.org/dc/elements/1.1/"
   xmlns:cc="http://creativecommons.org/ns#"
   xmlns:rdf="http://www.w3.org/1999/02/22-rdf-syntax-ns#"
   xmlns:svg="http://www.w3.org/2000/svg"
   xmlns="http://www.w3.org/2000/svg"
   xmlns:sodipodi="http://sodipodi.sourceforge.net/DTD/sodipodi-0.dtd"
   xmlns:inkscape="http://www.inkscape.org/namespaces/inkscape"
   width="21.298611"
   height="10.636041"
   id="svg2"
   version="1.1"
   inkscape:version="0.48.4 r9939"
   sodipodi:docname="poki.svg">
  <defs
     id="defs4" />
  <sodipodi:namedview
     id="base"
     pagecolor="#ffffff"
     bordercolor="#666666"
     borderopacity="1.0"
     inkscape:pageopacity="0.0"
     inkscape:pageshadow="2"
     inkscape:zoom="1.0984277"
     inkscape:cx="31.160092"
     inkscape:cy="7.8769574"
     inkscape:document-units="px"
     inkscape:current-layer="layer1"
     showgrid="false"
     inkscape:window-width="1596"
     inkscape:window-height="861"
     inkscape:window-x="0"
     inkscape:window-y="18"
     inkscape:window-maximized="0"
     fit-margin-top="0"
     fit-margin-left="0"
     fit-margin-right="0"
     fit-margin-bottom="0" />
  <metadata
     id="metadata7">
    <rdf:RDF>
      <cc:Work
         rdf:about="">
        <dc:format>image/svg+xml</dc:format>
        <dc:type
           rdf:resource="http://purl.org/dc/dcmitype/StillImage" />
        <dc:title></dc:title>
      </cc:Work>
    </rdf:RDF>
  </metadata>
  <g
     inkscape:label="Layer 1"
     inkscape:groupmode="layer"
     id="layer1"
     transform="translate(-370.34281,-872.12087)">
    <path
       style="font-size:40px;font-style:normal;font-weight:normal;line-height:125%;letter-spacing:0px;word-spacing:0px;fill:#000000;fill-opacity:1;stroke:none;font-family:Sans"
       inkscape:connector-curvature="0"
       id="path3224"
       d="m 379.99338,882.70131 c -2.20173,-0.24091 -4.17931,-1.18451 -5.93276,-2.83081 -1.75347,-1.65967 -2.97958,-3.79449 -3.67831,-6.40449 -1e-5,-0.0267 -0.007,-0.0803 -0.0198,-0.16061 -0.0132,-0.0803 -0.0197,-0.14721 -0.0197,-0.20077 -10e-6,-0.26767 0.0659,-0.49521 0.19776,-0.68261 0.14501,-0.20075 0.30981,-0.30113 0.49439,-0.30115 0.30322,2e-5 0.51416,0.20748 0.63283,0.62238 0.40869,1.45893 1.03492,2.7773 1.87871,3.95512 0.85694,1.17785 1.83914,2.10137 2.94661,2.77059 1.10743,0.65584 2.30716,1.08415 3.5992,1.28491 1.30519,0.18739 2.6104,0.0268 3.91562,-0.48185 1.48976,-0.56213 2.78178,-1.47228 3.87608,-2.73043 1.09424,-1.27151 1.89845,-2.75718 2.41265,-4.45704 0.11863,-0.41489 0.33616,-0.62235 0.65261,-0.62238 0.18454,3e-5 0.34275,0.10043 0.47462,0.30115 0.14499,0.18741 0.2175,0.41495 0.21753,0.68262 -3e-5,0.17402 -0.0199,0.29447 -0.0593,0.36138 -0.58012,1.9943 -1.50958,3.72091 -2.7884,5.17979 -1.27886,1.45892 -2.76205,2.50961 -4.44957,3.15206 -1.43706,0.53538 -2.88729,0.72276 -4.35068,0.56214" />
  </g>
</svg>
