<?xml version="1.0" encoding="UTF-8" standalone="no"?>
<!-- Created with Inkscape (http://www.inkscape.org/) -->

<svg
   xmlns:dc="http://purl.org/dc/elements/1.1/"
   xmlns:cc="http://creativecommons.org/ns#"
   xmlns:rdf="http://www.w3.org/1999/02/22-rdf-syntax-ns#"
   xmlns:svg="http://www.w3.org/2000/svg"
   xmlns="http://www.w3.org/2000/svg"
   xmlns:sodipodi="http://sodipodi.sourceforge.net/DTD/sodipodi-0.dtd"
   xmlns:inkscape="http://www.inkscape.org/namespaces/inkscape"
   width="29.785151"
   height="37.109371"
   id="svg2"
   version="1.1"
   inkscape:version="0.48.4 r9939"
   sodipodi:docname="pu.svg">
  <defs
     id="defs4" />
  <sodipodi:namedview
     id="base"
     pagecolor="#ffffff"
     bordercolor="#666666"
     borderopacity="1.0"
     inkscape:pageopacity="0.0"
     inkscape:pageshadow="2"
     inkscape:zoom="0.98994949"
     inkscape:cx="229.26689"
     inkscape:cy="170.36329"
     inkscape:document-units="px"
     inkscape:current-layer="layer1"
     showgrid="false"
     inkscape:window-width="796"
     inkscape:window-height="861"
     inkscape:window-x="800"
     inkscape:window-y="18"
     inkscape:window-maximized="0"
     fit-margin-top="0"
     fit-margin-left="0"
     fit-margin-right="0"
     fit-margin-bottom="0" />
  <metadata
     id="metadata7">
    <rdf:RDF>
      <cc:Work
         rdf:about="">
        <dc:format>image/svg+xml</dc:format>
        <dc:type
           rdf:resource="http://purl.org/dc/dcmitype/StillImage" />
        <dc:title />
      </cc:Work>
    </rdf:RDF>
  </metadata>
  <g
     inkscape:label="Layer 1"
     inkscape:groupmode="layer"
     id="layer1"
     transform="translate(-434.38705,-281.99767)">
    <path
       style="font-size:40px;font-style:normal;font-weight:normal;line-height:125%;letter-spacing:0px;word-spacing:0px;fill:#000000;fill-opacity:1;stroke:none;font-family:Sans"
       inkscape:connector-curvature="0"
       id="path3226"
       d="m 435.10963,281.99767 0.0391,0 0.0391,0 28.20312,0 c 0.22132,3e-5 0.40361,0.0782 0.54688,0.23437 0.15621,0.15629 0.23434,0.34509 0.23437,0.56641 l 0,35.50781 c -3e-5,0.20833 -0.0782,0.39062 -0.23437,0.54688 -0.15629,0.16926 -0.33858,0.2539 -0.54688,0.2539 l -28.20312,0 c -0.22136,0 -0.41016,-0.0846 -0.56641,-0.2539 -0.15625,-0.15626 -0.23438,-0.33855 -0.23437,-0.54688 l 0,-35.50781 c -10e-6,-0.2083 0.0651,-0.38408 0.19531,-0.52735 0.14322,-0.15621 0.319,-0.24736 0.52734,-0.27343 m 0.87891,1.60156 0,33.90625 26.60156,0 0,-33.90625 -26.60156,0 m 13.41797,13.67187 c 1.9531,2e-5 3.62628,0.66409 5.01953,1.99219 1.40622,1.32814 2.10935,2.9297 2.10937,4.80469 -2e-5,1.87501 -0.70315,3.47657 -2.10937,4.80469 -1.39325,1.32813 -3.06643,1.99219 -5.01953,1.99218 -1.97919,1e-5 -3.66538,-0.66405 -5.0586,-1.99218 -1.38022,-1.32812 -2.07032,-2.92968 -2.07031,-4.80469 -10e-6,-1.87499 0.69009,-3.47655 2.07031,-4.80469 1.39322,-1.3281 3.07941,-1.99217 5.0586,-1.99219 m 3.88672,3.10547 c -1.06774,-1.02863 -2.36331,-1.54295 -3.88672,-1.54297 -1.52346,2e-5 -2.81903,0.51434 -3.88672,1.54297 -1.06772,1.01564 -1.60158,2.24611 -1.60156,3.69141 -2e-5,1.45834 0.53384,2.69532 1.60156,3.71094 1.06769,1.01563 2.36326,1.52344 3.88672,1.52343 1.52341,1e-5 2.81898,-0.5078 3.88672,-1.52343 1.06768,-1.01562 1.60153,-2.2526 1.60156,-3.71094 -3e-5,-1.4453 -0.53388,-2.67577 -1.60156,-3.69141 m -3.71094,-8.49609 0.0195,-0.0195 c 0.026,-0.013 0.0456,-0.013 0.0586,0 0.20832,2e-5 0.39061,0.0847 0.54688,0.2539 0.16925,0.15628 0.25388,0.33857 0.2539,0.54688 l 0,0.0586 -0.0977,3.26172 c -0.0261,0.22138 -0.1107,0.40367 -0.25391,0.54688 -0.14325,0.14325 -0.32554,0.21486 -0.54687,0.21484 -0.2344,2e-5 -0.42971,-0.0716 -0.58594,-0.21484 -0.14325,-0.15623 -0.21486,-0.35155 -0.21484,-0.58594 l 0,-0.0195 0.0976,-3.24219 0,-0.0195 c -2e-5,-0.19529 0.0716,-0.37107 0.21485,-0.52734 0.14321,-0.16925 0.31248,-0.25389 0.50781,-0.25391 m -6.23047,0.89844 c 0.026,2e-5 0.039,-0.006 0.0391,-0.0195 0.026,2e-5 0.0456,2e-5 0.0586,0 0.3255,2e-5 0.55988,0.14325 0.70312,0.42968 l 1.69922,3.04688 c 0.0651,0.23439 0.0976,0.3646 0.0977,0.39062 -2e-5,0.2344 -0.0782,0.42971 -0.23438,0.58594 -0.14324,0.14325 -0.33205,0.21486 -0.56641,0.21484 -0.35157,2e-5 -0.57944,-0.1367 -0.68359,-0.41015 l -1.69922,-3.04688 c -0.0781,-0.0781 -0.1172,-0.21482 -0.11719,-0.41015 -1e-5,-0.19529 0.0651,-0.36456 0.19532,-0.50782 0.13019,-0.15622 0.29946,-0.24737 0.50781,-0.27343 m 12.38281,0.0977 0.0781,0 c 0.23435,3e-5 0.42315,0.0781 0.5664,0.23438 0.15623,0.14325 0.23435,0.33205 0.23438,0.5664 -3e-5,0.15628 -0.0326,0.28649 -0.0977,0.39063 l -1.73828,3.10547 c -0.15627,0.27345 -0.39065,0.41017 -0.70312,0.41015 -0.20836,2e-5 -0.39716,-0.0781 -0.56641,-0.23437 -0.15627,-0.16925 -0.2344,-0.36456 -0.23438,-0.58594 -2e-5,-0.18227 0.039,-0.31248 0.11719,-0.39062 l 1.69922,-3.04688 c 0.16925,-0.29945 0.38409,-0.44919 0.64453,-0.44922 m -6.75781,14.49219 c 0.37758,0.0651 0.74217,0.0195 1.09375,-0.13672 0.42967,-0.14322 0.81378,-0.40363 1.15234,-0.78125 0.33852,-0.39061 0.58592,-0.85285 0.74219,-1.38672 0.039,-0.0651 0.0586,-0.20181 0.0586,-0.41015 -2e-5,-0.27343 -0.0651,-0.50129 -0.19531,-0.6836 -0.11721,-0.18228 -0.27346,-0.27342 -0.46875,-0.27343 -0.31252,1e-5 -0.52736,0.21485 -0.64453,0.64453 -0.20835,0.5599 -0.53387,0.91147 -0.97656,1.05468 -0.41669,0.16929 -0.82684,0.13022 -1.23047,-0.11718 -0.40366,-0.24739 -0.65757,-0.57942 -0.76172,-0.9961 -0.1172,-0.40363 -0.32554,-0.60545 -0.625,-0.60547 -0.19533,2e-5 -0.35809,0.0977 -0.48828,0.29297 -0.13023,0.18231 -0.19533,0.40366 -0.19531,0.66407 -2e-5,0.0391 0.006,0.0977 0.0195,0.17578 0.013,0.0781 0.0195,0.13022 0.0195,0.15625 0.20832,0.70313 0.53384,1.26954 0.97656,1.69922 0.44269,0.41667 0.9505,0.65105 1.52344,0.70312" />
  </g>
</svg>
