<?xml version="1.0" encoding="UTF-8" standalone="no"?>
<!-- Created with Inkscape (http://www.inkscape.org/) -->

<svg
   xmlns:dc="http://purl.org/dc/elements/1.1/"
   xmlns:cc="http://creativecommons.org/ns#"
   xmlns:rdf="http://www.w3.org/1999/02/22-rdf-syntax-ns#"
   xmlns:svg="http://www.w3.org/2000/svg"
   xmlns="http://www.w3.org/2000/svg"
   xmlns:sodipodi="http://sodipodi.sourceforge.net/DTD/sodipodi-0.dtd"
   xmlns:inkscape="http://www.inkscape.org/namespaces/inkscape"
   width="30.158199"
   height="38.14579"
   id="svg2"
   version="1.1"
   inkscape:version="0.48.4 r9939"
   sodipodi:docname="pona.svg">
  <defs
     id="defs4" />
  <sodipodi:namedview
     id="base"
     pagecolor="#ffffff"
     bordercolor="#666666"
     borderopacity="1.0"
     inkscape:pageopacity="0.0"
     inkscape:pageshadow="2"
     inkscape:zoom="1.0984277"
     inkscape:cx="-375.23419"
     inkscape:cy="-145.97115"
     inkscape:document-units="px"
     inkscape:current-layer="layer1"
     showgrid="false"
     inkscape:window-width="1596"
     inkscape:window-height="861"
     inkscape:window-x="0"
     inkscape:window-y="18"
     inkscape:window-maximized="0"
     fit-margin-top="0"
     fit-margin-left="0"
     fit-margin-right="0"
     fit-margin-bottom="0" />
  <metadata
     id="metadata7">
    <rdf:RDF>
      <cc:Work
         rdf:about="">
        <dc:format>image/svg+xml</dc:format>
        <dc:type
           rdf:resource="http://purl.org/dc/dcmitype/StillImage" />
        <dc:title></dc:title>
      </cc:Work>
    </rdf:RDF>
  </metadata>
  <g
     inkscape:label="Layer 1"
     inkscape:groupmode="layer"
     id="layer1"
     transform="translate(-406.39427,-858.36831)">
    <path
       style="font-size:40px;font-style:normal;font-weight:normal;line-height:125%;letter-spacing:0px;word-spacing:0px;fill:#000000;fill-opacity:1;stroke:none;font-family:Sans"
       inkscape:connector-curvature="0"
       id="path3226"
       d="m 407.12588,858.36831 0.0396,0 0.0396,0 28.55635,0 c 0.22409,3e-5 0.40867,0.0804 0.55373,0.24091 0.15817,0.16066 0.23728,0.35473 0.23731,0.58223 l 0,36.49951 c -3e-5,0.21415 -0.0792,0.40153 -0.23731,0.56215 -0.15825,0.17399 -0.34282,0.26099 -0.55373,0.26099 l -28.55635,0 c -0.22414,0 -0.4153,-0.087 -0.57351,-0.26099 -0.1582,-0.16062 -0.23731,-0.348 -0.2373,-0.56215 l 0,-36.49951 c -1e-5,-0.21412 0.0659,-0.3948 0.19775,-0.54208 0.14502,-0.16057 0.323,-0.25426 0.53395,-0.28106 m 0.88992,1.64629 0,34.85321 26.93473,0 0,-34.85321 -26.93473,0 m 13.58602,14.05371 c 1.97756,2e-5 3.6717,0.68264 5.0824,2.04783 1.42383,1.36523 2.13577,3.01152 2.13579,4.93888 -2e-5,1.92738 -0.71196,3.57367 -2.13579,4.93888 -1.4107,1.36522 -3.10484,2.04783 -5.0824,2.04782 -2.00398,10e-6 -3.71129,-0.6826 -5.12195,-2.04782 -1.39751,-1.36521 -2.09625,-3.0115 -2.09624,-4.93888 -10e-6,-1.92736 0.69873,-3.57365 2.09624,-4.93888 1.41066,-1.36519 3.11797,-2.04781 5.12195,-2.04783 m 3.9354,3.1922 c -1.08111,-1.05736 -2.39291,-1.58604 -3.9354,-1.58606 -1.54254,2e-5 -2.85433,0.5287 -3.9354,1.58606 -1.08109,1.04401 -1.62164,2.30884 -1.62162,3.79451 -2e-5,1.49907 0.54053,2.7706 1.62162,3.81458 1.08107,1.044 2.39286,1.56599 3.9354,1.56598 1.54249,1e-5 2.85429,-0.52198 3.9354,-1.56598 1.08106,-1.04398 1.62159,-2.31551 1.62162,-3.81458 -3e-5,-1.48567 -0.54056,-2.7505 -1.62162,-3.79451 m -3.75742,-8.73338 0.0197,-0.02 c 0.0263,-0.0134 0.0462,-0.0134 0.0593,0 0.21093,2e-5 0.3955,0.0871 0.55373,0.26099 0.17137,0.16065 0.25706,0.34803 0.25708,0.56215 l 0,0.0602 -0.0989,3.35282 c -0.0264,0.22756 -0.11209,0.41494 -0.25709,0.56215 -0.14505,0.14725 -0.32962,0.22086 -0.55372,0.22084 -0.23734,2e-5 -0.43509,-0.0736 -0.59328,-0.22084 -0.14504,-0.16059 -0.21755,-0.36137 -0.21753,-0.6023 l 0,-0.02 0.0988,-3.33274 0,-0.02 c -2e-5,-0.20075 0.0725,-0.38144 0.21754,-0.54207 0.14501,-0.17398 0.3164,-0.26098 0.51417,-0.261 m -6.3085,0.92353 c 0.0263,2e-5 0.0395,-0.006 0.0396,-0.0201 0.0263,3e-5 0.0462,3e-5 0.0593,0 0.32958,3e-5 0.56689,0.14726 0.71193,0.44169 l 1.7205,3.13197 c 0.0659,0.24094 0.0988,0.37478 0.0989,0.40153 -2e-5,0.24095 -0.0792,0.44171 -0.23731,0.60231 -0.14504,0.14725 -0.33621,0.22086 -0.57351,0.22084 -0.35597,2e-5 -0.58669,-0.14052 -0.69215,-0.42161 l -1.7205,-3.13197 c -0.0791,-0.0803 -0.11867,-0.22082 -0.11866,-0.42161 -1e-5,-0.20074 0.0659,-0.37474 0.19777,-0.522 0.13182,-0.16059 0.30321,-0.25428 0.51417,-0.28107 m 12.5379,0.10043 0.0791,0 c 0.23728,3e-5 0.42845,0.0803 0.57349,0.24093 0.15819,0.14725 0.23729,0.34132 0.23732,0.58221 -3e-5,0.16065 -0.033,0.2945 -0.0989,0.40154 l -1.76005,3.19221 c -0.15822,0.28108 -0.39554,0.42162 -0.71192,0.4216 -0.21097,2e-5 -0.40214,-0.0803 -0.57351,-0.24091 -0.15823,-0.17398 -0.23733,-0.37475 -0.23731,-0.60231 -2e-5,-0.18736 0.0395,-0.32121 0.11865,-0.40153 l 1.72051,-3.13197 c 0.17137,-0.30782 0.3889,-0.46174 0.6526,-0.46177 m -6.84245,14.89694 c 0.38231,0.0669 0.75146,0.02 1.10745,-0.14054 0.43505,-0.14722 0.82397,-0.4149 1.16677,-0.80307 0.34276,-0.40152 0.59326,-0.87667 0.75149,-1.42545 0.0395,-0.0669 0.0593,-0.20744 0.0593,-0.4216 -2e-5,-0.28107 -0.0659,-0.51529 -0.19776,-0.70269 -0.11867,-0.18737 -0.27688,-0.28106 -0.47462,-0.28107 -0.31643,10e-6 -0.53396,0.22085 -0.6526,0.66253 -0.21096,0.57554 -0.54056,0.93693 -0.98879,1.08414 -0.42191,0.17402 -0.8372,0.13385 -1.24588,-0.12046 -0.40872,-0.2543 -0.66581,-0.5956 -0.77126,-1.02392 -0.11867,-0.4149 -0.32962,-0.62236 -0.63283,-0.62238 -0.19778,2e-5 -0.36257,0.10043 -0.4944,0.30116 -0.13186,0.1874 -0.19777,0.41493 -0.19775,0.68261 -2e-5,0.0402 0.006,0.10043 0.0197,0.18069 0.0132,0.0803 0.0198,0.13386 0.0198,0.16062 0.21093,0.72276 0.54052,1.30499 0.98879,1.74667 0.44823,0.42831 0.9624,0.66924 1.54252,0.72276" />
  </g>
</svg>
