<?xml version="1.0" encoding="UTF-8" standalone="no"?>
<!-- Created with Inkscape (http://www.inkscape.org/) -->

<svg
   xmlns:dc="http://purl.org/dc/elements/1.1/"
   xmlns:cc="http://creativecommons.org/ns#"
   xmlns:rdf="http://www.w3.org/1999/02/22-rdf-syntax-ns#"
   xmlns:svg="http://www.w3.org/2000/svg"
   xmlns="http://www.w3.org/2000/svg"
   xmlns:sodipodi="http://sodipodi.sourceforge.net/DTD/sodipodi-0.dtd"
   xmlns:inkscape="http://www.inkscape.org/namespaces/inkscape"
   width="24.04747"
   height="17.245911"
   id="svg2"
   version="1.1"
   inkscape:version="0.48.4 r9939"
   sodipodi:docname="pu.svg">
  <defs
     id="defs4" />
  <sodipodi:namedview
     id="base"
     pagecolor="#ffffff"
     bordercolor="#666666"
     borderopacity="1.0"
     inkscape:pageopacity="0.0"
     inkscape:pageshadow="2"
     inkscape:zoom="1.0984277"
     inkscape:cx="-284.38207"
     inkscape:cy="-79.01954"
     inkscape:document-units="px"
     inkscape:current-layer="layer1"
     showgrid="false"
     inkscape:window-width="1596"
     inkscape:window-height="861"
     inkscape:window-x="0"
     inkscape:window-y="18"
     inkscape:window-maximized="0"
     fit-margin-top="0"
     fit-margin-left="0"
     fit-margin-right="0"
     fit-margin-bottom="0" />
  <metadata
     id="metadata7">
    <rdf:RDF>
      <cc:Work
         rdf:about="">
        <dc:format>image/svg+xml</dc:format>
        <dc:type
           rdf:resource="http://purl.org/dc/dcmitype/StillImage" />
        <dc:title></dc:title>
      </cc:Work>
    </rdf:RDF>
  </metadata>
  <g
     inkscape:label="Layer 1"
     inkscape:groupmode="layer"
     id="layer1"
     transform="translate(-449.92085,-868.82829)">
    <path
       style="font-size:40px;font-style:normal;font-weight:normal;line-height:125%;letter-spacing:0px;word-spacing:0px;fill:#000000;fill-opacity:1;stroke:none;font-family:Sans"
       inkscape:connector-curvature="0"
       id="path3228"
       d="m 450.65257,868.82829 0.0791,0 0.0791,0 22.34674,0 c 0.23728,2e-5 0.42844,0.0803 0.5735,0.24091 0.15817,0.14726 0.23728,0.34134 0.23731,0.58223 -3e-5,0.21418 -0.0792,0.40825 -0.23731,0.58223 -0.15824,0.16064 -0.3494,0.24094 -0.5735,0.24092 l -22.34674,0 -0.0791,0 c -0.22413,2e-5 -0.41531,-0.0803 -0.5735,-0.24092 -0.15822,-0.17398 -0.23732,-0.36805 -0.23731,-0.58223 -1e-5,-0.21413 0.0659,-0.39482 0.19776,-0.54207 0.14501,-0.16059 0.32299,-0.25429 0.53394,-0.28107 m 0,15.59962 0.0791,0 0.0791,0 22.34674,0 c 0.23728,10e-6 0.42844,0.0803 0.5735,0.24092 0.15817,0.14724 0.23728,0.34131 0.23731,0.58223 -3e-5,0.21415 -0.0792,0.40823 -0.23731,0.58223 -0.15824,0.16061 -0.3494,0.24092 -0.5735,0.24091 l -22.34674,0 -0.0791,0 c -0.22413,10e-6 -0.41531,-0.0803 -0.5735,-0.24091 -0.15822,-0.174 -0.23732,-0.36808 -0.23731,-0.58223 -10e-6,-0.21414 0.0659,-0.39484 0.19776,-0.54207 0.14501,-0.16061 0.32299,-0.2543 0.53394,-0.28108" />
  </g>
</svg>
