<?xml version="1.0" encoding="UTF-8" standalone="no"?>
<!-- Created with Inkscape (http://www.inkscape.org/) -->

<svg
   xmlns:dc="http://purl.org/dc/elements/1.1/"
   xmlns:cc="http://creativecommons.org/ns#"
   xmlns:rdf="http://www.w3.org/1999/02/22-rdf-syntax-ns#"
   xmlns:svg="http://www.w3.org/2000/svg"
   xmlns="http://www.w3.org/2000/svg"
   xmlns:sodipodi="http://sodipodi.sourceforge.net/DTD/sodipodi-0.dtd"
   xmlns:inkscape="http://www.inkscape.org/namespaces/inkscape"
   width="28.915533"
   height="28.688431"
   id="svg2"
   version="1.1"
   inkscape:version="0.48.4 r9939"
   sodipodi:docname="sama.svg">
  <defs
     id="defs4" />
  <sodipodi:namedview
     id="base"
     pagecolor="#ffffff"
     bordercolor="#666666"
     borderopacity="1.0"
     inkscape:pageopacity="0.0"
     inkscape:pageshadow="2"
     inkscape:zoom="1.0984277"
     inkscape:cx="-359.09486"
     inkscape:cy="48.257406"
     inkscape:document-units="px"
     inkscape:current-layer="layer1"
     showgrid="false"
     inkscape:window-width="1596"
     inkscape:window-height="861"
     inkscape:window-x="0"
     inkscape:window-y="18"
     inkscape:window-maximized="0"
     fit-margin-top="0"
     fit-margin-left="0"
     fit-margin-right="0"
     fit-margin-bottom="0" />
  <metadata
     id="metadata7">
    <rdf:RDF>
      <cc:Work
         rdf:about="">
        <dc:format>image/svg+xml</dc:format>
        <dc:type
           rdf:resource="http://purl.org/dc/dcmitype/StillImage" />
        <dc:title></dc:title>
      </cc:Work>
    </rdf:RDF>
  </metadata>
  <g
     inkscape:label="Layer 1"
     inkscape:groupmode="layer"
     id="layer1"
     transform="translate(-488.03085,-863.08757)">
    <path
       style="font-size:40px;font-style:normal;font-weight:normal;line-height:125%;letter-spacing:0px;word-spacing:0px;fill:#000000;fill-opacity:1;stroke:none;font-family:Sans"
       inkscape:connector-curvature="0"
       id="path3230"
       d="m 501.67433,889.62778 c 0.25048,-0.2543 0.54711,-0.38145 0.88991,-0.38145 0.34277,0 0.63281,0.12715 0.87014,0.38145 0.25047,0.24093 0.37572,0.53539 0.37574,0.88338 -2e-5,0.348 -0.12527,0.64915 -0.37574,0.90345 -0.23733,0.24093 -0.52737,0.36139 -0.87014,0.36139 -0.3428,0 -0.63943,-0.12046 -0.88991,-0.36139 -0.23734,-0.2543 -0.35598,-0.55545 -0.35596,-0.90345 -2e-5,-0.34799 0.11862,-0.64245 0.35596,-0.88338 m 14.3375,-15.27839 c 0.32957,-0.0536 0.59325,0.0937 0.79104,0.44169 0.19772,0.33463 0.19113,0.63578 -0.0197,0.90345 l -7.67303,10.27929 c -0.14506,0.174 -0.32963,0.27439 -0.55373,0.30115 -0.21097,0.0268 -0.40873,-0.0267 -0.59327,-0.16062 -0.17142,-0.10706 -0.2703,-0.28106 -0.29664,-0.52199 -0.0264,-0.2543 0.0263,-0.46176 0.15821,-0.62238 l 7.67303,-10.27929 c 0.10545,-0.14721 0.27684,-0.26097 0.51417,-0.3413 m -13.6058,-11.24298 c 0.22411,-0.0535 0.44164,0.007 0.65261,0.18069 0.22411,0.17403 0.32299,0.3815 0.29663,0.62238 l 0,20.91996 c 0.0263,0.22755 -0.0462,0.42832 -0.21753,0.60231 -0.17141,0.16062 -0.36916,0.24092 -0.59328,0.24092 -0.21096,0 -0.40212,-0.0803 -0.57349,-0.24092 -0.15823,-0.17399 -0.23734,-0.37476 -0.23732,-0.60231 l 0,-20.91996 c -2e-5,-0.18735 0.0593,-0.36135 0.17799,-0.52199 0.13182,-0.16058 0.29662,-0.25428 0.49439,-0.28108 m -13.72445,10.86152 c 0.31641,-0.0535 0.58009,0.0602 0.79104,0.3413 l 8.00922,10.45998 c 0.17138,0.14724 0.25048,0.3547 0.23732,0.62238 -0.0132,0.2677 -0.11208,0.46847 -0.29664,0.60231 -0.1846,0.16061 -0.40213,0.21416 -0.65261,0.16061 -0.23732,-0.0535 -0.42189,-0.18738 -0.55373,-0.40154 l -8.00922,-10.4399 c -0.18458,-0.22751 -0.22413,-0.49521 -0.11866,-0.80307 0.10547,-0.30782 0.30323,-0.48851 0.59328,-0.54207" />
  </g>
</svg>
