<?xml version="1.0" encoding="UTF-8" standalone="no"?>
<!-- Created with Inkscape (http://www.inkscape.org/) -->

<svg
   xmlns:dc="http://purl.org/dc/elements/1.1/"
   xmlns:cc="http://creativecommons.org/ns#"
   xmlns:rdf="http://www.w3.org/1999/02/22-rdf-syntax-ns#"
   xmlns:svg="http://www.w3.org/2000/svg"
   xmlns="http://www.w3.org/2000/svg"
   xmlns:sodipodi="http://sodipodi.sourceforge.net/DTD/sodipodi-0.dtd"
   xmlns:inkscape="http://www.inkscape.org/namespaces/inkscape"
   width="34.82531"
   height="14.43509"
   id="svg2"
   version="1.1"
   inkscape:version="0.48.4 r9939"
   sodipodi:docname="seli.svg">
  <defs
     id="defs4" />
  <sodipodi:namedview
     id="base"
     pagecolor="#ffffff"
     bordercolor="#666666"
     borderopacity="1.0"
     inkscape:pageopacity="0.0"
     inkscape:pageshadow="2"
     inkscape:zoom="1.0984277"
     inkscape:cx="-347.54682"
     inkscape:cy="-20.954479"
     inkscape:document-units="px"
     inkscape:current-layer="layer1"
     showgrid="false"
     inkscape:window-width="1596"
     inkscape:window-height="861"
     inkscape:window-x="0"
     inkscape:window-y="18"
     inkscape:window-maximized="0"
     fit-margin-top="0"
     fit-margin-left="0"
     fit-margin-right="0"
     fit-margin-bottom="0" />
  <metadata
     id="metadata7">
    <rdf:RDF>
      <cc:Work
         rdf:about="">
        <dc:format>image/svg+xml</dc:format>
        <dc:type
           rdf:resource="http://purl.org/dc/dcmitype/StillImage" />
        <dc:title></dc:title>
      </cc:Work>
    </rdf:RDF>
  </metadata>
  <g
     inkscape:label="Layer 1"
     inkscape:groupmode="layer"
     id="layer1"
     transform="translate(-525.58336,-870.21366)">
    <path
       style="font-size:40px;font-style:normal;font-weight:normal;line-height:125%;letter-spacing:0px;word-spacing:0px;fill:#000000;fill-opacity:1;stroke:none;font-family:Sans"
       inkscape:connector-curvature="0"
       id="path3232"
       d="m 526.25574,870.23366 0,-0.02 0.0396,0.02 0.0197,0 c 0.0263,-0.0134 0.0462,-0.0134 0.0593,0 0.0132,2e-5 0.0263,-0.006 0.0396,-0.02 l 33.16415,0.02 c 0.23727,-0.0267 0.42185,0.0469 0.55372,0.22084 0.14499,0.16064 0.23727,0.35471 0.27686,0.58223 l -0.0197,12.7688 0.0197,0 c -0.0659,0.50862 -0.34282,0.7897 -0.83058,0.84322 -0.21098,-0.0402 -0.40215,-0.13384 -0.57351,-0.28107 -0.17142,-0.14722 -0.24393,-0.33461 -0.21753,-0.56215 l -0.0197,0 0.0197,-11.94565 -31.58207,0.02 0.0197,11.9055 -0.0197,0.02 0,0.02 c 0.0263,0.20078 -0.0462,0.39486 -0.21753,0.58223 -0.1714,0.17401 -0.36257,0.24762 -0.57351,0.22084 -0.22413,0.0267 -0.4087,-0.0469 -0.55371,-0.22084 -0.14503,-0.17398 -0.23732,-0.36807 -0.27687,-0.58223 l 0,-0.02 0.0197,-0.02 -0.0197,-12.72864 0.0197,-0.02 c -0.0263,-0.18736 0.0263,-0.36136 0.15821,-0.522 0.14503,-0.16059 0.30982,-0.25428 0.4944,-0.28107 m 6.52603,0.16061 0.0198,-0.02 0.0197,0.02 0.0396,0 c 0.22411,-0.0267 0.4087,0.0402 0.55372,0.20077 0.1582,0.16063 0.25049,0.3614 0.27687,0.6023 l 0,0.02 c -2e-5,0.0134 -0.007,0.02 -0.0198,0.02 l 0.0198,12.54796 0,0.02 -0.0198,0.02 c 0.0263,0.18739 -0.0527,0.37478 -0.2373,0.56216 -0.1846,0.18739 -0.36917,0.26769 -0.55373,0.24091 -0.23732,0.0267 -0.42849,-0.0401 -0.57351,-0.20076 -0.13184,-0.17399 -0.21754,-0.37475 -0.25708,-0.60231 l 0.0198,-0.02 0,-0.02 -0.0198,-12.54796 c 0.0132,2e-5 0.0198,-0.006 0.0198,-0.02 l 0,-0.02 c -0.0264,-0.18736 0.0329,-0.36805 0.17798,-0.54207 0.15819,-0.17398 0.33618,-0.26097 0.53394,-0.261 m 18.66843,0.36138 0.0197,-0.02 0.0396,0.02 0.0197,0 c 0.23729,-0.0267 0.42186,0.0402 0.55372,0.20077 0.14501,0.16063 0.23729,0.36141 0.27687,0.6023 l -0.0198,0.02 0.0198,12.18658 0,0 -0.0198,0.0402 c 0.0263,0.20078 -0.0462,0.38816 -0.21753,0.56215 -0.17142,0.17401 -0.36258,0.24762 -0.5735,0.22085 -0.22415,0.0268 -0.40873,-0.0401 -0.55372,-0.20077 -0.14505,-0.1606 -0.23735,-0.35469 -0.27686,-0.58223 l 0.0197,-0.0402 0,0 -0.0197,-12.18658 0.0197,-0.02 c -0.0264,-0.18736 0.0395,-0.36805 0.19776,-0.54208 0.17137,-0.17396 0.34276,-0.26097 0.51417,-0.26099" />
  </g>
</svg>
