<?xml version="1.0" encoding="UTF-8" standalone="no"?>
<!-- Created with Inkscape (http://www.inkscape.org/) -->

<svg
   xmlns:dc="http://purl.org/dc/elements/1.1/"
   xmlns:cc="http://creativecommons.org/ns#"
   xmlns:rdf="http://www.w3.org/1999/02/22-rdf-syntax-ns#"
   xmlns:svg="http://www.w3.org/2000/svg"
   xmlns="http://www.w3.org/2000/svg"
   xmlns:sodipodi="http://sodipodi.sourceforge.net/DTD/sodipodi-0.dtd"
   xmlns:inkscape="http://www.inkscape.org/namespaces/inkscape"
   width="18.154245"
   height="32.343719"
   id="svg2"
   version="1.1"
   inkscape:version="0.48.4 r9939"
   sodipodi:docname="selo.svg">
  <defs
     id="defs4" />
  <sodipodi:namedview
     id="base"
     pagecolor="#ffffff"
     bordercolor="#666666"
     borderopacity="1.0"
     inkscape:pageopacity="0.0"
     inkscape:pageshadow="2"
     inkscape:zoom="1.0984277"
     inkscape:cx="-309.26286"
     inkscape:cy="-32.030785"
     inkscape:document-units="px"
     inkscape:current-layer="layer1"
     showgrid="false"
     inkscape:window-width="1596"
     inkscape:window-height="861"
     inkscape:window-x="0"
     inkscape:window-y="18"
     inkscape:window-maximized="0"
     fit-margin-top="0"
     fit-margin-left="0"
     fit-margin-right="0"
     fit-margin-bottom="0" />
  <metadata
     id="metadata7">
    <rdf:RDF>
      <cc:Work
         rdf:about="">
        <dc:format>image/svg+xml</dc:format>
        <dc:type
           rdf:resource="http://purl.org/dc/dcmitype/StillImage" />
        <dc:title></dc:title>
      </cc:Work>
    </rdf:RDF>
  </metadata>
  <g
     inkscape:label="Layer 1"
     inkscape:groupmode="layer"
     id="layer1"
     transform="translate(-574.40999,-861.27943)">
    <path
       style="font-size:40px;font-style:normal;font-weight:normal;line-height:125%;letter-spacing:0px;word-spacing:0px;fill:#000000;fill-opacity:1;stroke:none;font-family:Sans"
       inkscape:connector-curvature="0"
       id="path3234"
       d="m 584.59456,861.27943 c 2.35991,3e-5 4.20565,0.64918 5.53725,1.94745 0.76464,0.64248 1.35792,1.51247 1.77983,2.60997 0.43504,1.09756 0.65257,2.32893 0.6526,3.69412 -3e-5,1.49909 -0.49443,3.0383 -1.48319,4.61765 -0.65922,0.85663 -1.68097,1.98761 -3.06526,3.39297 -0.64604,0.68263 -1.1668,1.28493 -1.56229,1.8069 -0.39554,0.50863 -0.81084,1.15109 -1.24588,1.92737 -0.43509,0.77631 -0.7581,1.64631 -0.96902,2.60998 -0.19778,0.96369 -0.29666,2.03445 -0.29664,3.21228 -2e-5,0.20077 -0.0858,0.39485 -0.25709,0.58222 -0.17141,0.17401 -0.35598,0.24762 -0.55372,0.22085 -0.21097,0.0267 -0.40213,-0.0469 -0.5735,-0.22085 -0.15823,-0.18737 -0.23733,-0.38145 -0.23731,-0.58222 -2e-5,-1.28491 0.11863,-2.46943 0.35597,-3.55359 0.25047,-1.09751 0.61303,-2.08127 1.08767,-2.95128 0.48778,-0.88336 0.95581,-1.6262 1.40409,-2.22852 0.46141,-0.60228 1.02173,-1.25143 1.68094,-1.94744 1.3843,-1.40535 2.34672,-2.4828 2.88728,-3.23235 0.80419,-1.23136 1.2063,-2.44934 1.20633,-3.65397 -3e-5,-2.34226 -0.63286,-4.03539 -1.89848,-5.07941 -1.05474,-1.0172 -2.53134,-1.52581 -4.4298,-1.52584 -1.80621,0.0268 -3.5399,0.5421 -5.20106,1.54592 -1.648,1.00386 -2.80159,2.30216 -3.46078,3.89488 -0.0922,0.17402 -0.2439,0.31456 -0.45484,0.42162 -0.21095,0.0937 -0.40871,0.0871 -0.59327,-0.02 -0.19778,-0.0535 -0.3428,-0.19404 -0.43507,-0.4216 -0.0791,-0.2409 -0.0791,-0.44836 0,-0.62238 0.77784,-1.95411 2.12259,-3.50671 4.03427,-4.65781 1.92484,-1.16441 3.95517,-1.76003 6.09097,-1.78683 m -1.48318,29.81395 c 0.32957,-0.0267 0.61962,0.0937 0.87013,0.36139 0.25048,0.2543 0.37572,0.54876 0.37574,0.88337 -2e-5,0.36139 -0.11867,0.66254 -0.35596,0.90346 -0.23733,0.22753 -0.53397,0.35469 -0.88991,0.38146 -0.356,-0.0267 -0.65262,-0.15393 -0.88992,-0.38146 -0.23733,-0.24092 -0.35598,-0.54207 -0.35596,-0.90346 -2e-5,-0.33461 0.12523,-0.62907 0.37573,-0.88337 0.25048,-0.26769 0.54053,-0.38814 0.87015,-0.36139" />
  </g>
</svg>
