<?xml version="1.0" encoding="UTF-8" standalone="no"?>
<!-- Created with Inkscape (http://www.inkscape.org/) -->

<svg
   xmlns:dc="http://purl.org/dc/elements/1.1/"
   xmlns:cc="http://creativecommons.org/ns#"
   xmlns:rdf="http://www.w3.org/1999/02/22-rdf-syntax-ns#"
   xmlns:svg="http://www.w3.org/2000/svg"
   xmlns="http://www.w3.org/2000/svg"
   xmlns:sodipodi="http://sodipodi.sourceforge.net/DTD/sodipodi-0.dtd"
   xmlns:inkscape="http://www.inkscape.org/namespaces/inkscape"
   width="32.94659"
   height="31.50024"
   id="svg2"
   version="1.1"
   inkscape:version="0.48.4 r9939"
   sodipodi:docname="seme.svg">
  <defs
     id="defs4" />
  <sodipodi:namedview
     id="base"
     pagecolor="#ffffff"
     bordercolor="#666666"
     borderopacity="1.0"
     inkscape:pageopacity="0.0"
     inkscape:pageshadow="2"
     inkscape:zoom="1.0984277"
     inkscape:cx="199.64639"
     inkscape:cy="32.4281"
     inkscape:document-units="px"
     inkscape:current-layer="layer1"
     showgrid="false"
     inkscape:window-width="1596"
     inkscape:window-height="861"
     inkscape:window-x="0"
     inkscape:window-y="18"
     inkscape:window-maximized="0"
     fit-margin-top="0"
     fit-margin-left="0"
     fit-margin-right="0"
     fit-margin-bottom="0" />
  <metadata
     id="metadata7">
    <rdf:RDF>
      <cc:Work
         rdf:about="">
        <dc:format>image/svg+xml</dc:format>
        <dc:type
           rdf:resource="http://purl.org/dc/dcmitype/StillImage" />
        <dc:title></dc:title>
      </cc:Work>
    </rdf:RDF>
  </metadata>
  <g
     inkscape:label="Layer 1"
     inkscape:groupmode="layer"
     id="layer1"
     transform="translate(6.857144e-6,-913.07751)">
    <path
       style="font-size:40px;font-style:normal;font-weight:normal;line-height:125%;letter-spacing:0px;word-spacing:0px;fill:#000000;fill-opacity:1;stroke:none;font-family:Sans"
       inkscape:connector-curvature="0"
       id="path3236"
       d="m 25.016461,919.96374 0.05933,0 c 0.263651,3e-5 0.481192,0.0937 0.652603,0.28107 0.184553,0.18741 0.276834,0.40825 0.276864,0.66253 l 0,0.0602 c -0.290068,7.95041 -0.929487,13.97342 -1.918258,18.06907 -0.487834,1.9006 -1.021779,3.25913 -1.601844,4.07557 -0.276885,0.42831 -0.646042,0.783 -1.107449,1.06407 -0.501018,0.24093 -0.988822,0.30116 -1.463412,0.18069 -0.448275,-0.12046 -0.837206,-0.34799 -1.166783,-0.6826 -0.316434,-0.33461 -0.63944,-0.79638 -0.969017,-1.3853 -0.527373,-0.97707 -1.001994,-2.26197 -1.423863,-3.85474 -0.395532,-1.67304 -0.68558,-3.22565 -0.870133,-4.6578 -0.05275,0.2677 -0.145044,0.72947 -0.276865,1.3853 -0.131861,0.64247 -0.237325,1.14438 -0.316414,1.50575 -0.06591,0.34801 -0.158227,0.78301 -0.276864,1.30499 -0.105485,0.522 -0.217552,0.99715 -0.336189,1.42545 -0.118668,0.41492 -0.243917,0.80977 -0.375738,1.18453 -0.461458,1.40538 -0.955854,2.42259 -1.483197,3.05167 -0.435082,0.49522 -0.883336,0.74283 -1.344754,0.74283 -0.540557,0.0535 -1.041544,-0.19407 -1.5029714,-0.74283 -0.5801057,-0.72277 -1.1338251,-2.14152 -1.6611682,-4.25628 -0.052753,-0.21415 -0.1252595,-0.63575 -0.2175308,-1.26483 -0.079078,-0.62906 -0.1450442,-1.05737 -0.1977664,-1.28491 -0.3427902,1.40538 -0.7976366,2.54306 -1.3645289,3.41304 -1.0679098,1.72661 -2.6895288,3.0316 -4.8648673,3.91497 -0.026326,0 -0.079078,0.007 -0.158207,0.02 -0.079078,0.0134 -0.13843234,0.0201 -0.17798156,0.0201 -0.26368168,0 -0.48781415,-0.087 -0.67237715,-0.261 C 0.08568311,943.74793 -6.857144e-6,943.52039 -6.857144e-6,943.2527 c 0,-0.41491 0.204347737144,-0.71607 0.613053327144,-0.90345 1.74026673,-0.64245 3.05865483,-1.68644 3.95517463,-3.13197 1.3051949,-2.07459 1.9314313,-5.06602 1.8787092,-8.97431 l 0,-0.0803 c -1.01e-5,-0.25429 0.092241,-0.46845 0.2768546,-0.64245 0.184563,-0.17399 0.402104,-0.26098 0.6526127,-0.261 0.2241122,2e-5 0.4152769,0.0736 0.573494,0.22084 0.1713799,0.14725 0.2834461,0.32794 0.3361886,0.54207 -1.02e-5,0.0267 -1.02e-5,0.0402 0,0.0402 0.013163,0.0268 0.019744,0.0469 0.019744,0.0602 l 0,0.0201 c 0.4614277,3.8012 0.9360487,6.72571 1.4238628,8.77353 0.408696,1.75338 0.837166,2.90444 1.285441,3.4532 0.290027,-0.29446 0.665765,-1.09084 1.127223,-2.38913 0.408686,-1.28491 0.77124,-2.65013 1.087675,-4.09566 0.369126,-1.7132 0.659173,-3.19888 0.870133,-4.45703 0.197736,-1.1109 0.388911,-2.30212 0.573504,-3.57367 l 0.217531,-1.4656 c 0.02633,-0.25429 0.125229,-0.46844 0.296639,-0.64245 0.17137,-0.17398 0.388901,-0.26099 0.652603,-0.261 0.250478,10e-6 0.468009,0.0937 0.652602,0.28107 0.184553,0.1874 0.276845,0.41494 0.276865,0.68262 l 0,0.0402 c 0.09224,4.44366 0.553699,8.26493 1.384314,11.46381 0.47459,1.63292 0.896479,2.7706 1.265656,3.41305 0.382309,0.64246 0.705314,1.03061 0.969016,1.16445 0.05275,0 0.08566,-0.007 0.09892,-0.02 0.210919,-0.10708 0.369126,-0.27438 0.474621,-0.50193 0.4746,-0.58891 0.916264,-1.73328 1.32499,-3.43312 0.962394,-3.8681 1.588631,-9.76396 1.878709,-17.6876 -3.1e-5,-0.2409 0.07908,-0.44835 0.237305,-0.62238 0.17136,-0.17398 0.375718,-0.27436 0.613054,-0.30115 m 7.040205,-6.88633 0.07908,0 c 0.210909,3e-5 0.395482,0.0804 0.55372,0.24093 0.17136,0.16064 0.257049,0.35472 0.25709,0.58222 l 0,0.02 0,29.81395 0,0.02 c -4.1e-5,0.21416 -0.08576,0.40823 -0.25709,0.58223 -0.158238,0.16061 -0.342811,0.24092 -0.55372,0.24091 -0.224162,10e-6 -0.415327,-0.0803 -0.573504,-0.24091 -0.158237,-0.174 -0.237346,-0.36807 -0.237305,-0.58223 l 0,-0.02 0,-29.81395 0,-0.02 c -4.1e-5,-0.20073 0.0725,-0.38142 0.217531,-0.54207 0.144993,-0.16058 0.316383,-0.25427 0.51417,-0.28108" />
  </g>
</svg>
