<?xml version="1.0" encoding="UTF-8" standalone="no"?>
<!-- Created with Inkscape (http://www.inkscape.org/) -->

<svg
   xmlns:dc="http://purl.org/dc/elements/1.1/"
   xmlns:cc="http://creativecommons.org/ns#"
   xmlns:rdf="http://www.w3.org/1999/02/22-rdf-syntax-ns#"
   xmlns:svg="http://www.w3.org/2000/svg"
   xmlns="http://www.w3.org/2000/svg"
   xmlns:sodipodi="http://sodipodi.sourceforge.net/DTD/sodipodi-0.dtd"
   xmlns:inkscape="http://www.inkscape.org/namespaces/inkscape"
   width="31.740271"
   height="22.566259"
   id="svg2"
   version="1.1"
   inkscape:version="0.48.4 r9939"
   sodipodi:docname="sewi.svg">
  <defs
     id="defs4" />
  <sodipodi:namedview
     id="base"
     pagecolor="#ffffff"
     bordercolor="#666666"
     borderopacity="1.0"
     inkscape:pageopacity="0.0"
     inkscape:pageshadow="2"
     inkscape:zoom="1.0984277"
     inkscape:cx="158.55206"
     inkscape:cy="-77.81332"
     inkscape:document-units="px"
     inkscape:current-layer="layer1"
     showgrid="false"
     inkscape:window-width="1596"
     inkscape:window-height="861"
     inkscape:window-x="0"
     inkscape:window-y="18"
     inkscape:window-maximized="0"
     fit-margin-top="0"
     fit-margin-left="0"
     fit-margin-right="0"
     fit-margin-bottom="0" />
  <metadata
     id="metadata7">
    <rdf:RDF>
      <cc:Work
         rdf:about="">
        <dc:format>image/svg+xml</dc:format>
        <dc:type
           rdf:resource="http://purl.org/dc/dcmitype/StillImage" />
        <dc:title></dc:title>
      </cc:Work>
    </rdf:RDF>
  </metadata>
  <g
     inkscape:label="Layer 1"
     inkscape:groupmode="layer"
     id="layer1"
     transform="translate(-41.094322,-917.55453)">
    <path
       style="font-size:40px;font-style:normal;font-weight:normal;line-height:125%;letter-spacing:0px;word-spacing:0px;fill:#000000;fill-opacity:1;stroke:none;font-family:Sans"
       inkscape:connector-curvature="0"
       id="path3238"
       d="m 41.825951,917.55453 0.03959,0 0.03959,0 30.118651,0 c 0.237275,3e-5 0.42844,0.0803 0.573504,0.24092 0.158167,0.14725 0.237275,0.34133 0.237306,0.58222 l 0,20.81958 c -3.1e-5,0.24093 -0.07918,0.44169 -0.237306,0.60231 -0.145064,0.14723 -0.336229,0.22085 -0.573504,0.22084 -0.21098,10e-6 -0.402144,-0.0803 -0.573504,-0.24092 -0.158237,-0.16061 -0.237336,-0.35468 -0.237306,-0.58223 l 0,-19.99643 -28.497031,0 0,19.99643 c -1e-5,0.24093 -0.07908,0.44169 -0.237316,0.60231 -0.158207,0.14723 -0.349372,0.22085 -0.573494,0.22084 -0.224132,10e-6 -0.415297,-0.0736 -0.573504,-0.22084 -0.158207,-0.16062 -0.237316,-0.36138 -0.237305,-0.60231 l 0,-20.81958 c -1.1e-5,-0.21412 0.06591,-0.39481 0.197756,-0.54207 0.145014,-0.16058 0.322995,-0.25428 0.533945,-0.28107 m 15.286753,0.74284 0.09892,0 c 0.237295,2e-5 0.42846,0.0803 0.573504,0.24092 0.158187,0.14726 0.237295,0.34133 0.237316,0.58222 l 0,20.17713 c -2.1e-5,0.24093 -0.07908,0.44169 -0.237316,0.6023 -0.145044,0.14724 -0.336209,0.22085 -0.573504,0.22085 -0.21096,0 -0.402124,-0.0803 -0.573494,-0.24093 -0.158227,-0.1606 -0.237336,-0.35468 -0.237316,-0.58222 l 0,-20.17713 c -2e-5,-0.20074 0.06592,-0.38143 0.197767,-0.54206 0.145003,-0.1606 0.316393,-0.25428 0.51417,-0.28108" />
  </g>
</svg>
