<?xml version="1.0" encoding="UTF-8" standalone="no"?>
<!-- Created with Inkscape (http://www.inkscape.org/) -->

<svg
   xmlns:dc="http://purl.org/dc/elements/1.1/"
   xmlns:cc="http://creativecommons.org/ns#"
   xmlns:rdf="http://www.w3.org/1999/02/22-rdf-syntax-ns#"
   xmlns:svg="http://www.w3.org/2000/svg"
   xmlns="http://www.w3.org/2000/svg"
   xmlns:sodipodi="http://sodipodi.sourceforge.net/DTD/sodipodi-0.dtd"
   xmlns:inkscape="http://www.inkscape.org/namespaces/inkscape"
   width="29.564922"
   height="29.99465"
   id="svg2"
   version="1.1"
   inkscape:version="0.48.4 r9939"
   sodipodi:docname="sijelo.svg">
  <defs
     id="defs4" />
  <sodipodi:namedview
     id="base"
     pagecolor="#ffffff"
     bordercolor="#666666"
     borderopacity="1.0"
     inkscape:pageopacity="0.0"
     inkscape:pageshadow="2"
     inkscape:zoom="1.0984277"
     inkscape:cx="75.849368"
     inkscape:cy="-184.34055"
     inkscape:document-units="px"
     inkscape:current-layer="layer1"
     showgrid="false"
     inkscape:window-width="1596"
     inkscape:window-height="861"
     inkscape:window-x="0"
     inkscape:window-y="18"
     inkscape:window-maximized="0"
     fit-margin-top="0"
     fit-margin-left="0"
     fit-margin-right="0"
     fit-margin-bottom="0" />
  <metadata
     id="metadata7">
    <rdf:RDF>
      <cc:Work
         rdf:about="">
        <dc:format>image/svg+xml</dc:format>
        <dc:type
           rdf:resource="http://purl.org/dc/dcmitype/StillImage" />
        <dc:title></dc:title>
      </cc:Work>
    </rdf:RDF>
  </metadata>
  <g
     inkscape:label="Layer 1"
     inkscape:groupmode="layer"
     id="layer1"
     transform="translate(-82.702687,-913.84033)">
    <path
       style="font-size:40px;font-style:normal;font-weight:normal;line-height:125%;letter-spacing:0px;word-spacing:0px;fill:#000000;fill-opacity:1;stroke:none;font-family:Sans"
       inkscape:connector-curvature="0"
       id="path3240"
       d="m 90.059306,915.86809 c 2.26762,-1.35181 4.739598,-2.02773 7.415954,-2.02776 2.67632,3e-5 5.14829,0.67595 7.41595,2.02776 2.2676,1.33847 4.06061,3.15876 5.37904,5.46087 1.33154,2.30215 1.99733,4.80504 1.99736,7.50869 -3e-5,2.03447 -0.39554,3.9819 -1.18655,5.84234 -0.77788,1.84706 -1.82601,3.43982 -3.14436,4.77826 -1.31842,1.32507 -2.8939,2.38914 -4.72644,3.1922 -1.8194,0.78969 -3.731072,1.18453 -5.735,1.18453 -2.003969,0 -3.922227,-0.39484 -5.754775,-1.18453 -1.819396,-0.78968 -3.388283,-1.85375 -4.706661,-3.1922 -1.318398,-1.35182 -2.366523,-2.95127 -3.144365,-4.79834 -0.777852,-1.84705 -1.166782,-3.78779 -1.166772,-5.82226 -1e-5,-2.70365 0.659184,-5.20654 1.977582,-7.50869 1.318388,-2.30211 3.111397,-4.1224 5.379037,-5.46087 m 14.021094,1.40536 c -2.01716,-1.19118 -4.218872,-1.7868 -6.60514,-1.78683 -2.386308,3e-5 -4.588023,0.59565 -6.605144,1.78683 -2.017152,1.19125 -3.618996,2.81077 -4.805533,4.85858 -1.173375,2.04784 -1.760062,4.28305 -1.760052,6.70562 -1e-5,2.42261 0.586677,4.66452 1.760052,6.72571 1.186537,2.04784 2.788381,3.66736 4.805533,4.85858 2.017121,1.17783 4.218836,1.76675 6.605144,1.76675 1.792989,0 3.50031,-0.34799 5.12195,-1.04399 1.6216,-0.70938 3.01909,-1.65968 4.19249,-2.8509 1.18651,-1.19121 2.12257,-2.60997 2.80817,-4.25627 0.69872,-1.64628 1.04809,-3.37957 1.04812,-5.19988 -3e-5,-2.42257 -0.58672,-4.65778 -1.76005,-6.70562 -1.1734,-2.04781 -2.77524,-3.66733 -4.80554,-4.85858 m -6.486482,1.52584 c 1.779806,3e-5 3.427792,0.4484 4.943962,1.34513 1.51613,0.88341 2.71586,2.09471 3.59921,3.6339 0.88329,1.53923 1.32495,3.21899 1.32498,5.03926 -3e-5,1.8203 -0.44169,3.50674 -1.32498,5.05934 -0.88335,1.53922 -2.08308,2.75721 -3.59921,3.65397 -1.51617,0.89676 -3.164156,1.34515 -4.943962,1.34514 -1.344785,10e-6 -2.630215,-0.26769 -3.856302,-0.80307 -1.212934,-0.53538 -2.261048,-1.25145 -3.144365,-2.14821 -0.883326,-0.89676 -1.588671,-1.96083 -2.116015,-3.1922 -0.527363,-1.24475 -0.791045,-2.54974 -0.791034,-3.91497 -1.1e-5,-1.3652 0.263671,-2.66349 0.791034,-3.89489 0.527344,-1.24474 1.232689,-2.3088 2.116015,-3.1922 0.883317,-0.89674 1.931431,-1.60611 3.144365,-2.12813 1.226087,-0.53536 2.511517,-0.80304 3.856302,-0.80307 m 0,1.64629 c -2.294027,3e-5 -4.251834,0.81648 -5.873433,2.44936 -1.608456,1.61955 -2.412674,3.59376 -2.412664,5.92264 -1e-5,2.32891 0.804208,4.31651 2.412664,5.96279 1.621599,1.63291 3.579406,2.44937 5.873433,2.44937 2.26761,0 4.205642,-0.81646 5.814102,-2.44937 1.6216,-1.64628 2.43241,-3.63388 2.43244,-5.96279 -3e-5,-2.3155 -0.81084,-4.28971 -2.43244,-5.92264 -1.60846,-1.63288 -3.546492,-2.44933 -5.814102,-2.44936" />
  </g>
</svg>
