<?xml version="1.0" encoding="UTF-8" standalone="no"?>
<!-- Created with Inkscape (http://www.inkscape.org/) -->

<svg
   xmlns:dc="http://purl.org/dc/elements/1.1/"
   xmlns:cc="http://creativecommons.org/ns#"
   xmlns:rdf="http://www.w3.org/1999/02/22-rdf-syntax-ns#"
   xmlns:svg="http://www.w3.org/2000/svg"
   xmlns="http://www.w3.org/2000/svg"
   xmlns:sodipodi="http://sodipodi.sourceforge.net/DTD/sodipodi-0.dtd"
   xmlns:inkscape="http://www.inkscape.org/namespaces/inkscape"
   width="31.680889"
   height="17.526991"
   id="svg2"
   version="1.1"
   inkscape:version="0.48.4 r9939"
   sodipodi:docname="sike.svg">
  <defs
     id="defs4" />
  <sodipodi:namedview
     id="base"
     pagecolor="#ffffff"
     bordercolor="#666666"
     borderopacity="1.0"
     inkscape:pageopacity="0.0"
     inkscape:pageshadow="2"
     inkscape:zoom="1.0984277"
     inkscape:cx="-46.286499"
     inkscape:cy="-151.4489"
     inkscape:document-units="px"
     inkscape:current-layer="layer1"
     showgrid="false"
     inkscape:window-width="1596"
     inkscape:window-height="861"
     inkscape:window-x="0"
     inkscape:window-y="18"
     inkscape:window-maximized="0"
     fit-margin-top="0"
     fit-margin-left="0"
     fit-margin-right="0"
     fit-margin-bottom="0" />
  <metadata
     id="metadata7">
    <rdf:RDF>
      <cc:Work
         rdf:about="">
        <dc:format>image/svg+xml</dc:format>
        <dc:type
           rdf:resource="http://purl.org/dc/dcmitype/StillImage" />
        <dc:title></dc:title>
      </cc:Work>
    </rdf:RDF>
  </metadata>
  <g
     inkscape:label="Layer 1"
     inkscape:groupmode="layer"
     id="layer1"
     transform="translate(-122.13586,-920.06412)">
    <path
       style="font-size:40px;font-style:normal;font-weight:normal;line-height:125%;letter-spacing:0px;word-spacing:0px;fill:#000000;fill-opacity:1;stroke:none;font-family:Sans"
       inkscape:connector-curvature="0"
       id="path3242"
       d="m 122.96636,935.80429 10.44166,0 0.0197,0 c 0.21093,10e-6 0.39551,0.0803 0.55373,0.24091 0.17137,0.16063 0.25707,0.3547 0.25708,0.58223 -1e-5,0.21416 -0.0858,0.40823 -0.25708,0.58223 -0.15822,0.16061 -0.3428,0.24093 -0.55373,0.24092 l -0.0197,0 -10.44166,0 -0.0197,0 c -0.21094,1e-5 -0.40211,-0.0803 -0.5735,-0.24092 -0.15821,-0.174 -0.23731,-0.36807 -0.2373,-0.58223 -10e-6,-0.24092 0.0791,-0.43499 0.2373,-0.58223 0.15821,-0.1606 0.34937,-0.2409 0.5735,-0.24091 l 0.0197,0 m 14.93078,-15.74017 0.0989,0 c 0.21092,2e-5 0.39551,0.0803 0.55373,0.24092 0.17137,0.16064 0.25706,0.35472 0.25708,0.58223 l 0,10.64067 0,0.02 c -2e-5,0.21417 -0.0858,0.40824 -0.25708,0.58223 -0.15822,0.16062 -0.34281,0.24094 -0.55373,0.24092 -0.22414,2e-5 -0.4153,-0.0803 -0.5735,-0.24092 -0.15822,-0.17399 -0.23733,-0.36806 -0.23731,-0.58223 l 0,-0.02 0,-10.64067 c -2e-5,-0.21413 0.0659,-0.39482 0.19776,-0.54207 0.13182,-0.16059 0.30321,-0.25429 0.51417,-0.28108 m 4.46935,15.8807 0.0791,0 0.0791,0 10.48121,0 0.0198,0 c 0.2109,10e-6 0.39548,0.087 0.55373,0.261 0.15816,0.16062 0.23727,0.348 0.2373,0.56215 -3e-5,0.24092 -0.0792,0.44169 -0.2373,0.6023 -0.14507,0.14723 -0.32964,0.22085 -0.55373,0.22084 l -0.0198,0 -10.48121,0 -0.0791,0 c -0.22415,1e-5 -0.41531,-0.0736 -0.57349,-0.22084 -0.15824,-0.16061 -0.23734,-0.36138 -0.23732,-0.6023 -2e-5,-0.20077 0.0725,-0.38146 0.21753,-0.54208 0.14501,-0.1606 0.3164,-0.25429 0.51418,-0.28107" />
  </g>
</svg>
