<?xml version="1.0" encoding="UTF-8" standalone="no"?>
<!-- Created with Inkscape (http://www.inkscape.org/) -->

<svg
   xmlns:dc="http://purl.org/dc/elements/1.1/"
   xmlns:cc="http://creativecommons.org/ns#"
   xmlns:rdf="http://www.w3.org/1999/02/22-rdf-syntax-ns#"
   xmlns:svg="http://www.w3.org/2000/svg"
   xmlns="http://www.w3.org/2000/svg"
   xmlns:sodipodi="http://sodipodi.sourceforge.net/DTD/sodipodi-0.dtd"
   xmlns:inkscape="http://www.inkscape.org/namespaces/inkscape"
   width="20.586618"
   height="29.472639"
   id="svg2"
   version="1.1"
   inkscape:version="0.48.4 r9939"
   sodipodi:docname="sina.svg">
  <defs
     id="defs4" />
  <sodipodi:namedview
     id="base"
     pagecolor="#ffffff"
     bordercolor="#666666"
     borderopacity="1.0"
     inkscape:pageopacity="0.0"
     inkscape:pageshadow="2"
     inkscape:zoom="1.0984277"
     inkscape:cx="-84.04681"
     inkscape:cy="20.303582"
     inkscape:document-units="px"
     inkscape:current-layer="layer1"
     showgrid="false"
     inkscape:window-width="1596"
     inkscape:window-height="861"
     inkscape:window-x="0"
     inkscape:window-y="18"
     inkscape:window-maximized="0"
     fit-margin-top="0"
     fit-margin-left="0"
     fit-margin-right="0"
     fit-margin-bottom="0" />
  <metadata
     id="metadata7">
    <rdf:RDF>
      <cc:Work
         rdf:about="">
        <dc:format>image/svg+xml</dc:format>
        <dc:type
           rdf:resource="http://purl.org/dc/dcmitype/StillImage" />
        <dc:title></dc:title>
      </cc:Work>
    </rdf:RDF>
  </metadata>
  <g
     inkscape:label="Layer 1"
     inkscape:groupmode="layer"
     id="layer1"
     transform="translate(-208.67499,-914.08126)">
    <path
       style="font-size:40px;font-style:normal;font-weight:normal;line-height:125%;letter-spacing:0px;word-spacing:0px;fill:#000000;fill-opacity:1;stroke:none;font-family:Sans"
       inkscape:connector-curvature="0"
       id="path3246"
       d="m 208.69477,914.74379 c 0.0263,-0.18735 0.11865,-0.34127 0.27686,-0.46177 0.1582,-0.13381 0.32959,-0.20073 0.51417,-0.20076 l 0.0197,0 12.75544,0 c 0.21092,3e-5 0.39549,0.0871 0.55372,0.26099 0.17137,0.16064 0.25706,0.34802 0.25709,0.56215 l 0,27.82636 c -3e-5,0.22754 -0.0858,0.42161 -0.25709,0.58223 -0.15823,0.16061 -0.3428,0.24091 -0.55372,0.24091 l -12.57746,0 -0.0197,0 c -0.21095,0 -0.40212,-0.0803 -0.57351,-0.24091 -0.15821,-0.16062 -0.23731,-0.35469 -0.2373,-0.58223 -1e-5,-0.21415 0.0791,-0.40153 0.2373,-0.56215 0.17139,-0.17399 0.36256,-0.261 0.57351,-0.261 l 0.0197,0 11.76665,0 0,-26.18006 -11.94463,0 -0.0197,0 c -0.21094,3e-5 -0.40212,-0.0803 -0.5735,-0.24093 -0.15822,-0.16058 -0.23731,-0.35465 -0.2373,-0.58222 -1e-5,-0.0134 -1e-5,-0.0401 0,-0.0803 0.0132,-0.0401 0.0197,-0.0669 0.0197,-0.0803 m 18.43111,14.89693 c -0.23734,-0.25429 -0.356,-0.55543 -0.35596,-0.90344 -4e-5,-0.34799 0.11862,-0.64245 0.35596,-0.88339 0.25047,-0.25429 0.54711,-0.38143 0.88992,-0.38145 0.34275,2e-5 0.63279,0.12716 0.87014,0.38145 0.25046,0.24094 0.37571,0.5354 0.37574,0.88339 -3e-5,0.34801 -0.12528,0.64915 -0.37574,0.90344 -0.23735,0.24094 -0.52739,0.3614 -0.87014,0.36139 -0.34281,10e-6 -0.63945,-0.12045 -0.88992,-0.36139" />
  </g>
</svg>
