<?xml version="1.0" encoding="UTF-8" standalone="no"?>
<!-- Created with Inkscape (http://www.inkscape.org/) -->

<svg
   xmlns:dc="http://purl.org/dc/elements/1.1/"
   xmlns:cc="http://creativecommons.org/ns#"
   xmlns:rdf="http://www.w3.org/1999/02/22-rdf-syntax-ns#"
   xmlns:svg="http://www.w3.org/2000/svg"
   xmlns="http://www.w3.org/2000/svg"
   xmlns:sodipodi="http://sodipodi.sourceforge.net/DTD/sodipodi-0.dtd"
   xmlns:inkscape="http://www.inkscape.org/namespaces/inkscape"
   width="30.158199"
   height="38.14579"
   id="svg2"
   version="1.1"
   inkscape:version="0.48.4 r9939"
   sodipodi:docname="sinpin.svg">
  <defs
     id="defs4" />
  <sodipodi:namedview
     id="base"
     pagecolor="#ffffff"
     bordercolor="#666666"
     borderopacity="1.0"
     inkscape:pageopacity="0.0"
     inkscape:pageshadow="2"
     inkscape:zoom="1.0984277"
     inkscape:cx="-328.43714"
     inkscape:cy="-82.148078"
     inkscape:document-units="px"
     inkscape:current-layer="layer1"
     showgrid="false"
     inkscape:window-width="1596"
     inkscape:window-height="861"
     inkscape:window-x="0"
     inkscape:window-y="18"
     inkscape:window-maximized="0"
     fit-margin-top="0"
     fit-margin-left="0"
     fit-margin-right="0"
     fit-margin-bottom="0" />
  <metadata
     id="metadata7">
    <rdf:RDF>
      <cc:Work
         rdf:about="">
        <dc:format>image/svg+xml</dc:format>
        <dc:type
           rdf:resource="http://purl.org/dc/dcmitype/StillImage" />
        <dc:title></dc:title>
      </cc:Work>
    </rdf:RDF>
  </metadata>
  <g
     inkscape:label="Layer 1"
     inkscape:groupmode="layer"
     id="layer1"
     transform="translate(-244.39032,-909.76476)">
    <path
       style="font-size:40px;font-style:normal;font-weight:normal;line-height:125%;letter-spacing:0px;word-spacing:0px;fill:#000000;fill-opacity:1;stroke:none;font-family:Sans"
       inkscape:connector-curvature="0"
       id="path3248"
       d="m 245.12193,909.76476 0.0396,0 0.0396,0 28.55635,0 c 0.22409,3e-5 0.40867,0.0804 0.55373,0.24091 0.15817,0.16066 0.23728,0.35473 0.23731,0.58223 l 0,36.49951 c -3e-5,0.21415 -0.0792,0.40153 -0.23731,0.56215 -0.15825,0.17399 -0.34282,0.26099 -0.55373,0.26099 l -28.55635,0 c -0.22414,0 -0.4153,-0.087 -0.57351,-0.26099 -0.15821,-0.16062 -0.23731,-0.348 -0.2373,-0.56215 l 0,-36.49951 c -1e-5,-0.21412 0.0659,-0.3948 0.19775,-0.54208 0.14502,-0.16057 0.323,-0.25426 0.53395,-0.28106 m 0.88991,1.64629 0,34.85321 26.93474,0 0,-34.85321 -26.93474,0 m 4.74621,17.04515 c 0.25048,-0.25429 0.54712,-0.38145 0.88991,-0.38146 0.34277,10e-6 0.63282,0.12717 0.87015,0.38146 0.25047,0.24093 0.37572,0.53539 0.37573,0.88338 -1e-5,0.348 -0.12526,0.64916 -0.37573,0.90345 -0.23733,0.24093 -0.52738,0.36139 -0.87015,0.36137 -0.34279,2e-5 -0.63943,-0.12044 -0.88991,-0.36137 -0.23732,-0.25429 -0.35597,-0.55545 -0.35596,-0.90345 -10e-6,-0.34799 0.11864,-0.64245 0.35596,-0.88338 m 7.83124,0 c 0.25048,-0.25429 0.54712,-0.38145 0.88992,-0.38146 0.34276,10e-6 0.63281,0.12717 0.87014,0.38146 0.25047,0.24093 0.37572,0.53539 0.37574,0.88338 -2e-5,0.348 -0.12527,0.64916 -0.37574,0.90345 -0.23733,0.24093 -0.52738,0.36139 -0.87014,0.36137 -0.3428,2e-5 -0.63944,-0.12044 -0.88992,-0.36137 -0.23732,-0.25429 -0.35598,-0.55545 -0.35596,-0.90345 -2e-5,-0.34799 0.11864,-0.64245 0.35596,-0.88338 m 8.72116,-0.36138 c 0.32958,10e-6 0.61963,0.12716 0.87015,0.38145 0.25047,0.24094 0.3757,0.52871 0.37573,0.86331 -3e-5,0.348 -0.12526,0.64916 -0.37573,0.90345 -0.25052,0.24093 -0.54057,0.36139 -0.87015,0.36137 -0.3428,2e-5 -0.63944,-0.12044 -0.8899,-0.36137 -0.23734,-0.25429 -0.356,-0.55545 -0.35597,-0.90345 -3e-5,-0.3346 0.11863,-0.62237 0.35597,-0.86331 0.25046,-0.25429 0.5471,-0.38144 0.8899,-0.38145" />
  </g>
</svg>
