<?xml version="1.0" encoding="UTF-8" standalone="no"?>
<!-- Created with Inkscape (http://www.inkscape.org/) -->

<svg
   xmlns:dc="http://purl.org/dc/elements/1.1/"
   xmlns:cc="http://creativecommons.org/ns#"
   xmlns:rdf="http://www.w3.org/1999/02/22-rdf-syntax-ns#"
   xmlns:svg="http://www.w3.org/2000/svg"
   xmlns="http://www.w3.org/2000/svg"
   xmlns:sodipodi="http://sodipodi.sourceforge.net/DTD/sodipodi-0.dtd"
   xmlns:inkscape="http://www.inkscape.org/namespaces/inkscape"
   width="27.799473"
   height="26.036301"
   id="svg2"
   version="1.1"
   inkscape:version="0.48.4 r9939"
   sodipodi:docname="soweli.svg">
  <defs
     id="defs4" />
  <sodipodi:namedview
     id="base"
     pagecolor="#ffffff"
     bordercolor="#666666"
     borderopacity="1.0"
     inkscape:pageopacity="0.0"
     inkscape:pageshadow="2"
     inkscape:zoom="0.98994949"
     inkscape:cx="-145.2724"
     inkscape:cy="174.41031"
     inkscape:document-units="px"
     inkscape:current-layer="layer1"
     showgrid="false"
     inkscape:window-width="1596"
     inkscape:window-height="861"
     inkscape:window-x="0"
     inkscape:window-y="18"
     inkscape:window-maximized="0"
     fit-margin-top="0"
     fit-margin-left="0"
     fit-margin-right="0"
     fit-margin-bottom="0" />
  <metadata
     id="metadata7">
    <rdf:RDF>
      <cc:Work
         rdf:about="">
        <dc:format>image/svg+xml</dc:format>
        <dc:type
           rdf:resource="http://purl.org/dc/dcmitype/StillImage" />
        <dc:title />
      </cc:Work>
    </rdf:RDF>
  </metadata>
  <g
     inkscape:label="Layer 1"
     inkscape:groupmode="layer"
     id="layer1"
     transform="translate(-355.38307,-337.52387)">
    <path
       style="font-size:40px;font-style:normal;font-weight:normal;line-height:125%;letter-spacing:0px;word-spacing:0px;fill:#000000;fill-opacity:1;stroke:none;font-family:Sans"
       inkscape:connector-curvature="0"
       id="path3252"
       d="m 355.61744,352.60314 c 0.16927,-0.16926 0.35807,-0.2539 0.56641,-0.25391 0.20833,1e-5 0.39062,0.0847 0.54688,0.25391 0.16926,0.16928 0.25389,0.35808 0.2539,0.5664 l 0,9.51172 c -10e-6,0.20834 -0.0846,0.39714 -0.2539,0.56641 -0.15626,0.15625 -0.33855,0.23438 -0.54688,0.23437 -0.20834,1e-5 -0.39714,-0.0781 -0.56641,-0.23437 -0.15625,-0.16927 -0.23438,-0.35807 -0.23437,-0.56641 l 0,-9.51172 c -10e-6,-0.20832 0.0781,-0.39712 0.23437,-0.5664 m 5,0 c 0.16926,-0.16926 0.35807,-0.2539 0.56641,-0.25391 0.20832,1e-5 0.39061,0.0847 0.54688,0.25391 0.16925,0.16928 0.25389,0.35808 0.2539,0.5664 l 0,9.57031 c -10e-6,0.22136 -0.0847,0.41667 -0.2539,0.58594 -0.15627,0.15626 -0.33856,0.23438 -0.54688,0.23438 -0.20834,0 -0.39715,-0.0781 -0.56641,-0.23438 -0.15626,-0.16927 -0.23438,-0.36458 -0.23437,-0.58594 l 0,-9.57031 c -10e-6,-0.20832 0.0781,-0.39712 0.23437,-0.5664 m 5.29297,-0.23438 c 0.20832,-0.026 0.40363,0.0456 0.58594,0.21484 0.1953,0.16929 0.29295,0.3646 0.29297,0.58594 l 0,9.51172 c -2e-5,0.20834 -0.0847,0.39714 -0.25391,0.56641 -0.15626,0.15625 -0.33855,0.23438 -0.54687,0.23437 -0.20835,1e-5 -0.39715,-0.0781 -0.56641,-0.23437 -0.15626,-0.16927 -0.23439,-0.35807 -0.23437,-0.56641 l 0,-9.51172 c -2e-5,-0.1953 0.0716,-0.37108 0.21484,-0.52734 0.14321,-0.15624 0.31248,-0.24738 0.50781,-0.27344 m 0.25391,-14.82422 c 2.36977,-0.0781 4.66144,0.0651 6.875,0.42969 2.99476,0.49482 5.31898,1.35419 6.97266,2.57812 1.02861,0.74222 1.82288,1.6667 2.38281,2.77344 0.57288,1.10679 0.8333,2.3633 0.78125,3.76953 -0.0521,1.94012 -0.76175,3.48309 -2.12891,4.62891 -1.04169,0.89845 -2.44143,1.53647 -4.19922,1.91406 -1.52346,0.3646 -3.14455,0.49481 -4.86328,0.39063 l 0,8.65234 c -2e-5,0.20834 -0.0847,0.39714 -0.2539,0.56641 -0.15628,0.15625 -0.33857,0.23438 -0.54688,0.23437 -0.20835,1e-5 -0.39716,-0.0781 -0.56641,-0.23437 -0.15627,-0.16927 -0.23439,-0.35807 -0.23437,-0.56641 l 0,-9.51172 c -2e-5,-0.22134 0.0911,-0.41665 0.27344,-0.58594 0.18227,-0.16925 0.38409,-0.24087 0.60547,-0.21484 -3e-5,0.013 0.24086,0.0326 0.72265,0.0586 0.49477,0.0261 1.17836,0.0196 2.05078,-0.0195 0.87237,-0.0521 1.6992,-0.16274 2.48047,-0.33203 1.48435,-0.35155 2.64971,-0.87889 3.4961,-1.58203 0.98955,-0.85936 1.51038,-2.00519 1.5625,-3.4375 0.0911,-2.17446 -0.74873,-3.91274 -2.51954,-5.21484 -1.58856,-1.11977 -3.68492,-1.88149 -6.28906,-2.28516 -0.65106,-0.10414 -1.32814,-0.18877 -2.03125,-0.25391 -0.69012,-0.0651 -1.34116,-0.10413 -1.95312,-0.11718 -0.59898,-0.026 -1.19143,-0.039 -1.77735,-0.0391 -0.57293,3e-5 -1.08725,0.0131 -1.54297,0.0391 -0.44272,0.0131 -0.83985,0.0326 -1.1914,0.0586 -0.33856,0.0261 -0.59897,0.0456 -0.78125,0.0586 l -0.27344,0.0195 c -0.23439,0.0521 -0.45574,0.007 -0.66406,-0.13672 -0.19533,-0.1432 -0.306,-0.3255 -0.33203,-0.54688 -0.0261,-0.22132 0.0456,-0.42315 0.21484,-0.60547 0.16926,-0.19528 0.37108,-0.29294 0.60547,-0.29297 l 0.35156,-0.0391 c 0.24738,-0.026 0.6315,-0.0521 1.15235,-0.0781 0.53383,-0.039 1.0742,-0.0651 1.62109,-0.0781 m 11.93359,7.92969 c 0.24737,-0.24738 0.54034,-0.37107 0.87891,-0.37109 0.33851,2e-5 0.62497,0.12371 0.85937,0.37109 0.24737,0.2344 0.37107,0.52085 0.3711,0.85937 -3e-5,0.33857 -0.12373,0.63153 -0.3711,0.87891 -0.2344,0.23439 -0.52086,0.35158 -0.85937,0.35156 -0.33857,2e-5 -0.63154,-0.11717 -0.87891,-0.35156 -0.2344,-0.24738 -0.35159,-0.54034 -0.35156,-0.87891 -3e-5,-0.33852 0.11716,-0.62497 0.35156,-0.85937 m -2.28515,-0.37109 c 0.32549,2e-5 0.61195,0.12371 0.85937,0.37109 0.24737,0.2344 0.37107,0.52085 0.3711,0.85937 -3e-5,0.33857 -0.12373,0.63153 -0.3711,0.87891 -0.24742,0.23439 -0.53388,0.35158 -0.85937,0.35156 -0.33857,2e-5 -0.63154,-0.11717 -0.87891,-0.35156 -0.2344,-0.24738 -0.35159,-0.54034 -0.35156,-0.87891 -3e-5,-0.33852 0.11716,-0.62497 0.35156,-0.85937 0.24737,-0.24738 0.54034,-0.37107 0.87891,-0.37109" />
  </g>
</svg>
