<?xml version="1.0" encoding="UTF-8" standalone="no"?>
<!-- Created with Inkscape (http://www.inkscape.org/) -->

<svg
   xmlns:dc="http://purl.org/dc/elements/1.1/"
   xmlns:cc="http://creativecommons.org/ns#"
   xmlns:rdf="http://www.w3.org/1999/02/22-rdf-syntax-ns#"
   xmlns:svg="http://www.w3.org/2000/svg"
   xmlns="http://www.w3.org/2000/svg"
   xmlns:sodipodi="http://sodipodi.sourceforge.net/DTD/sodipodi-0.dtd"
   xmlns:inkscape="http://www.inkscape.org/namespaces/inkscape"
   width="29.050739"
   height="37.764339"
   id="svg2"
   version="1.1"
   inkscape:version="0.48.4 r9939"
   sodipodi:docname="sona.svg">
  <defs
     id="defs4" />
  <sodipodi:namedview
     id="base"
     pagecolor="#ffffff"
     bordercolor="#666666"
     borderopacity="1.0"
     inkscape:pageopacity="0.0"
     inkscape:pageshadow="2"
     inkscape:zoom="1.0984277"
     inkscape:cx="-240.21685"
     inkscape:cy="-35.153814"
     inkscape:document-units="px"
     inkscape:current-layer="layer1"
     showgrid="false"
     inkscape:window-width="1596"
     inkscape:window-height="861"
     inkscape:window-x="0"
     inkscape:window-y="18"
     inkscape:window-maximized="0"
     fit-margin-top="0"
     fit-margin-left="0"
     fit-margin-right="0"
     fit-margin-bottom="0" />
  <metadata
     id="metadata7">
    <rdf:RDF>
      <cc:Work
         rdf:about="">
        <dc:format>image/svg+xml</dc:format>
        <dc:type
           rdf:resource="http://purl.org/dc/dcmitype/StillImage" />
        <dc:title></dc:title>
      </cc:Work>
    </rdf:RDF>
  </metadata>
  <g
     inkscape:label="Layer 1"
     inkscape:groupmode="layer"
     id="layer1"
     transform="translate(-366.4667,-909.94545)">
    <path
       style="font-size:40px;font-style:normal;font-weight:normal;line-height:125%;letter-spacing:0px;word-spacing:0px;fill:#000000;fill-opacity:1;stroke:none;font-family:Sans"
       inkscape:connector-curvature="0"
       id="path3254"
       d="m 367.19839,909.94545 0.0791,0 c 0.3296,3e-5 0.58668,0.18072 0.77126,0.54206 l 13.28939,34.0903 12.59723,-34.03006 c 0.11862,-0.37473 0.37571,-0.56211 0.77126,-0.56215 0.23728,4e-5 0.42844,0.0804 0.5735,0.24092 0.15817,0.14726 0.23727,0.34134 0.23731,0.58222 -4e-5,0.14726 -0.0198,0.25434 -0.0593,0.32123 l -13.34871,36.05783 c -0.11868,0.34799 -0.36917,0.52199 -0.75149,0.52199 -0.35598,0 -0.61306,-0.174 -0.77126,-0.52199 L 366.526,911.08982 c -0.0396,-0.0669 -0.0593,-0.17397 -0.0593,-0.32123 0,-0.21412 0.0659,-0.39481 0.19776,-0.54207 0.14502,-0.16058 0.323,-0.25428 0.53395,-0.28107" />
  </g>
</svg>
