<?xml version="1.0" encoding="UTF-8" standalone="no"?>
<!-- Created with Inkscape (http://www.inkscape.org/) -->

<svg
   xmlns:dc="http://purl.org/dc/elements/1.1/"
   xmlns:cc="http://creativecommons.org/ns#"
   xmlns:rdf="http://www.w3.org/1999/02/22-rdf-syntax-ns#"
   xmlns:svg="http://www.w3.org/2000/svg"
   xmlns="http://www.w3.org/2000/svg"
   xmlns:sodipodi="http://sodipodi.sourceforge.net/DTD/sodipodi-0.dtd"
   xmlns:inkscape="http://www.inkscape.org/namespaces/inkscape"
   width="34.172691"
   height="34.090118"
   id="svg2"
   version="1.1"
   inkscape:version="0.48.4 r9939"
   sodipodi:docname="suli.svg">
  <defs
     id="defs4" />
  <sodipodi:namedview
     id="base"
     pagecolor="#ffffff"
     bordercolor="#666666"
     borderopacity="1.0"
     inkscape:pageopacity="0.0"
     inkscape:pageshadow="2"
     inkscape:zoom="1.0984277"
     inkscape:cx="-231.25608"
     inkscape:cy="-38.579818"
     inkscape:document-units="px"
     inkscape:current-layer="layer1"
     showgrid="false"
     inkscape:window-width="1596"
     inkscape:window-height="861"
     inkscape:window-x="0"
     inkscape:window-y="18"
     inkscape:window-maximized="0"
     fit-margin-top="0"
     fit-margin-left="0"
     fit-margin-right="0"
     fit-margin-bottom="0" />
  <metadata
     id="metadata7">
    <rdf:RDF>
      <cc:Work
         rdf:about="">
        <dc:format>image/svg+xml</dc:format>
        <dc:type
           rdf:resource="http://purl.org/dc/dcmitype/StillImage" />
        <dc:title></dc:title>
      </cc:Work>
    </rdf:RDF>
  </metadata>
  <g
     inkscape:label="Layer 1"
     inkscape:groupmode="layer"
     id="layer1"
     transform="translate(-404.35729,-911.79255)">
    <path
       style="font-size:40px;font-style:normal;font-weight:normal;line-height:125%;letter-spacing:0px;word-spacing:0px;fill:#000000;fill-opacity:1;stroke:none;font-family:Sans"
       inkscape:connector-curvature="0"
       id="path3256"
       d="m 421.48316,938.65518 c 0.21092,0 0.3955,0.0803 0.55372,0.24092 0.17138,0.16062 0.25707,0.3547 0.25709,0.58223 l 0,0.02 0,5.54118 0,0.02 c -2e-5,0.22755 -0.0858,0.42162 -0.25709,0.58223 -0.15822,0.16062 -0.3428,0.24093 -0.55372,0.24093 -0.23732,0 -0.43509,-0.0803 -0.59327,-0.24093 -0.14505,-0.16061 -0.21756,-0.35468 -0.21754,-0.58223 l 0,-0.02 0,-5.54118 0,-0.02 c -2e-5,-0.24092 0.0725,-0.43499 0.21754,-0.58223 0.15818,-0.1606 0.35595,-0.24092 0.59327,-0.24092 m -5.69545,-19.75551 c 1.74026,-1.03058 3.63215,-1.54588 5.67568,-1.54591 2.04349,3e-5 3.93537,0.51533 5.67568,1.54591 1.74024,1.01724 3.11796,2.40923 4.13315,4.17597 1.01513,1.75338 1.52271,3.66736 1.52274,5.74194 -3e-5,2.07461 -0.50761,3.99528 -1.52274,5.76202 -1.01519,1.76676 -2.39291,3.16545 -4.13315,4.19604 -1.74031,1.03061 -3.63219,1.54591 -5.67568,1.54591 -2.04353,0 -3.93542,-0.5153 -5.67568,-1.54591 -1.7271,-1.03059 -3.09823,-2.42928 -4.11338,-4.19604 -1.00198,-1.76674 -1.50297,-3.68741 -1.50297,-5.76202 0,-2.07458 0.50099,-3.98856 1.50297,-5.74194 1.01515,-1.76674 2.38628,-3.15873 4.11338,-4.17597 m 5.67568,0.10043 c -1.75348,3e-5 -3.3751,0.43502 -4.86487,1.30499 -1.47661,0.87002 -2.64998,2.06123 -3.5201,3.57367 -0.85697,1.51246 -1.28544,3.15875 -1.28543,4.93887 -10e-6,1.79354 0.42846,3.44652 1.28543,4.95895 0.87012,1.51247 2.04349,2.71037 3.5201,3.59375 1.48977,0.86999 3.11139,1.30498 4.86487,1.30498 1.76662,0 3.39483,-0.43499 4.88464,-1.30498 1.48976,-0.88338 2.66312,-2.08128 3.5201,-3.59375 0.87012,-1.51243 1.30518,-3.16541 1.30521,-4.95895 -3e-5,-2.71704 -0.94927,-5.03255 -2.84773,-6.94655 -1.88532,-1.91395 -4.17272,-2.87095 -6.86222,-2.87098 m 11.01515,9.01446 0.0396,0 0.0396,0 5.14173,0 0.0197,0 c 0.2109,2e-5 0.39547,0.0803 0.55372,0.24092 0.17136,0.16063 0.25705,0.35471 0.25709,0.58222 -4e-5,0.21417 -0.0858,0.40825 -0.25709,0.58223 -0.15825,0.16064 -0.34282,0.24094 -0.55372,0.24093 l -0.0197,0 -5.14173,0 -0.0396,0 c -0.21098,1e-5 -0.40214,-0.0803 -0.5735,-0.24093 -0.15824,-0.17398 -0.23734,-0.36806 -0.23731,-0.58223 -3e-5,-0.21413 0.0725,-0.40151 0.21754,-0.56214 0.15817,-0.17398 0.34275,-0.26098 0.55371,-0.261 m -11.07448,-16.22201 0.0791,0 c 0.21092,4e-5 0.3955,0.0804 0.55372,0.24093 0.17138,0.16064 0.25707,0.35472 0.25709,0.58222 l 0,5.52111 0,0.02 c -2e-5,0.21418 -0.0858,0.40825 -0.25709,0.58223 -0.15822,0.16064 -0.3428,0.24095 -0.55372,0.24092 -0.22414,3e-5 -0.41531,-0.0803 -0.5735,-0.24092 -0.15823,-0.17398 -0.23733,-0.36805 -0.23731,-0.58223 l 0,-0.02 0,-5.52111 c -2e-5,-0.21412 0.0659,-0.39481 0.19776,-0.54207 0.145,-0.16058 0.32299,-0.25427 0.53395,-0.28108 m -16.3151,16.22201 0.0791,0 0.0791,0 5.14173,0 0.0197,0 c 0.21093,2e-5 0.39552,0.0803 0.55372,0.24092 0.17139,0.16063 0.25708,0.35471 0.25709,0.58222 -1e-5,0.21417 -0.0857,0.40825 -0.25709,0.58223 -0.1582,0.16064 -0.34279,0.24094 -0.55372,0.24093 l -0.0197,0 -5.14173,0 -0.0791,0 c -0.21095,1e-5 -0.40211,-0.0803 -0.5735,-0.24093 -0.15821,-0.17398 -0.23732,-0.36806 -0.23731,-0.58223 -10e-6,-0.20074 0.0725,-0.38143 0.21753,-0.54207 0.14502,-0.16059 0.31641,-0.25428 0.51417,-0.28107" />
  </g>
</svg>
