<?xml version="1.0" encoding="UTF-8" standalone="no"?>
<!-- Created with Inkscape (http://www.inkscape.org/) -->

<svg
   xmlns:dc="http://purl.org/dc/elements/1.1/"
   xmlns:cc="http://creativecommons.org/ns#"
   xmlns:rdf="http://www.w3.org/1999/02/22-rdf-syntax-ns#"
   xmlns:svg="http://www.w3.org/2000/svg"
   xmlns="http://www.w3.org/2000/svg"
   xmlns:sodipodi="http://sodipodi.sourceforge.net/DTD/sodipodi-0.dtd"
   xmlns:inkscape="http://www.inkscape.org/namespaces/inkscape"
   width="33.460678"
   height="10.3996"
   id="svg2"
   version="1.1"
   inkscape:version="0.48.4 r9939"
   sodipodi:docname="suno.svg">
  <defs
     id="defs4" />
  <sodipodi:namedview
     id="base"
     pagecolor="#ffffff"
     bordercolor="#666666"
     borderopacity="1.0"
     inkscape:pageopacity="0.0"
     inkscape:pageshadow="2"
     inkscape:zoom="1.0984277"
     inkscape:cx="-190.34076"
     inkscape:cy="-65.686211"
     inkscape:document-units="px"
     inkscape:current-layer="layer1"
     showgrid="false"
     inkscape:window-width="1596"
     inkscape:window-height="861"
     inkscape:window-x="0"
     inkscape:window-y="18"
     inkscape:window-maximized="0"
     fit-margin-top="0"
     fit-margin-left="0"
     fit-margin-right="0"
     fit-margin-bottom="0" />
  <metadata
     id="metadata7">
    <rdf:RDF>
      <cc:Work
         rdf:about="">
        <dc:format>image/svg+xml</dc:format>
        <dc:type
           rdf:resource="http://purl.org/dc/dcmitype/StillImage" />
        <dc:title></dc:title>
      </cc:Work>
    </rdf:RDF>
  </metadata>
  <g
     inkscape:label="Layer 1"
     inkscape:groupmode="layer"
     id="layer1"
     transform="translate(-445.23411,-923.63778)">
    <path
       style="font-size:40px;font-style:normal;font-weight:normal;line-height:125%;letter-spacing:0px;word-spacing:0px;fill:#000000;fill-opacity:1;stroke:none;font-family:Sans"
       inkscape:connector-curvature="0"
       id="path3258"
       d="m 454.74618,923.97908 c 0.21093,2e-5 0.3955,0.0803 0.55373,0.24093 0.17137,0.16063 0.25707,0.35471 0.25708,0.58222 l -0.0197,0.02 0,8.37201 0,0.02 c -10e-6,0.21415 -0.0791,0.40823 -0.23731,0.58221 -0.15823,0.16063 -0.3428,0.24094 -0.55373,0.24093 -0.22413,10e-6 -0.41531,-0.0803 -0.57349,-0.24093 -0.15823,-0.17398 -0.23733,-0.36806 -0.23732,-0.58221 l 0,-0.02 0,-8.37201 0,-0.02 c -1e-5,-0.2409 0.0725,-0.43497 0.21753,-0.58222 0.1582,-0.16059 0.35595,-0.24091 0.59328,-0.24093 m 13.96176,0 c 0.23729,2e-5 0.42846,0.0803 0.57351,0.24093 0.15817,0.14725 0.23728,0.34132 0.23731,0.58222 l 0,0.02 0,8.37201 0,0.02 c -3e-5,0.21415 -0.0792,0.40823 -0.23731,0.58221 -0.15824,0.16063 -0.3494,0.24094 -0.57351,0.24093 -0.21096,10e-6 -0.40213,-0.0803 -0.57349,-0.24093 -0.15824,-0.17398 -0.23734,-0.36806 -0.23732,-0.58221 l 0,-0.02 0,-8.37201 0,-0.02 c -2e-5,-0.22751 0.0791,-0.42159 0.23732,-0.58222 0.17136,-0.16059 0.36253,-0.24091 0.57349,-0.24093 m -22.70269,-0.3413 0.0396,0 0.0593,0 31.76005,0 0.0197,0 c 0.22409,2e-5 0.41527,0.0871 0.5735,0.261 0.15817,0.16064 0.23728,0.34802 0.23732,0.56214 -4e-5,0.24095 -0.0792,0.44172 -0.23732,0.60231 -0.15823,0.14725 -0.34941,0.22086 -0.5735,0.22084 l -0.0197,0 -31.76005,0 -0.0593,0 c -0.21094,2e-5 -0.40212,-0.0803 -0.5735,-0.24092 -0.15821,-0.16059 -0.23731,-0.35466 -0.23731,-0.58223 0,-0.20074 0.0725,-0.38143 0.21753,-0.54206 0.1582,-0.1606 0.34278,-0.25429 0.55373,-0.28108" />
  </g>
</svg>
