<?xml version="1.0" encoding="UTF-8" standalone="no"?>
<!-- Created with Inkscape (http://www.inkscape.org/) -->

<svg
   xmlns:dc="http://purl.org/dc/elements/1.1/"
   xmlns:cc="http://creativecommons.org/ns#"
   xmlns:rdf="http://www.w3.org/1999/02/22-rdf-syntax-ns#"
   xmlns:svg="http://www.w3.org/2000/svg"
   xmlns="http://www.w3.org/2000/svg"
   xmlns:sodipodi="http://sodipodi.sourceforge.net/DTD/sodipodi-0.dtd"
   xmlns:inkscape="http://www.inkscape.org/namespaces/inkscape"
   width="24.9967"
   height="15.74017"
   id="svg2"
   version="1.1"
   inkscape:version="0.48.4 r9939"
   sodipodi:docname="supa.svg">
  <defs
     id="defs4" />
  <sodipodi:namedview
     id="base"
     pagecolor="#ffffff"
     bordercolor="#666666"
     borderopacity="1.0"
     inkscape:pageopacity="0.0"
     inkscape:pageshadow="2"
     inkscape:zoom="1.0984277"
     inkscape:cx="-234.21574"
     inkscape:cy="-76.46636"
     inkscape:document-units="px"
     inkscape:current-layer="layer1"
     showgrid="false"
     inkscape:window-width="1596"
     inkscape:window-height="861"
     inkscape:window-x="0"
     inkscape:window-y="18"
     inkscape:window-maximized="0"
     fit-margin-top="0"
     fit-margin-left="0"
     fit-margin-right="0"
     fit-margin-bottom="0" />
  <metadata
     id="metadata7">
    <rdf:RDF>
      <cc:Work
         rdf:about="">
        <dc:format>image/svg+xml</dc:format>
        <dc:type
           rdf:resource="http://purl.org/dc/dcmitype/StillImage" />
        <dc:title></dc:title>
      </cc:Work>
    </rdf:RDF>
  </metadata>
  <g
     inkscape:label="Layer 1"
     inkscape:groupmode="layer"
     id="layer1"
     transform="translate(-489.96716,-920.96757)">
    <path
       style="font-size:40px;font-style:normal;font-weight:normal;line-height:125%;letter-spacing:0px;word-spacing:0px;fill:#000000;fill-opacity:1;stroke:none;font-family:Sans"
       inkscape:connector-curvature="0"
       id="path3260"
       d="m 494.25838,921.12818 -0.0197,0.02 c 0.0132,-0.0134 0.0263,-0.0134 0.0396,0 l 0.0198,-0.02 c 0.40869,0.0804 0.65259,0.24095 0.73171,0.48185 l 3.50033,7.06701 c 0.0922,0.28109 0.13841,0.44171 0.13843,0.48184 -2e-5,0.20078 -0.0858,0.39486 -0.25709,0.58223 -0.1714,0.17402 -0.35599,0.24763 -0.55372,0.22084 -0.15823,0.0134 -0.31644,-0.0334 -0.47462,-0.14053 -0.14505,-0.12045 -0.24392,-0.25429 -0.29664,-0.40154 l -2.76863,-5.64156 -2.76862,5.64156 c -0.2505,0.40155 -0.50758,0.58224 -0.77126,0.54207 -0.21095,0.0268 -0.40211,-0.0468 -0.5735,-0.22084 -0.15821,-0.18737 -0.23732,-0.38145 -0.23731,-0.58223 -10e-6,-0.18736 0.0462,-0.34798 0.13844,-0.48184 l 3.48055,-7.06701 c 0.10545,-0.25428 0.32959,-0.4149 0.67238,-0.48185 m 16.3942,-0.16061 0,0.02 c 0.14499,-0.0267 0.28343,0.007 0.41529,0.10043 0.14499,0.0937 0.25047,0.20749 0.31641,0.34131 l 3.50033,7.10717 c 0.0528,0.0535 0.0791,0.17401 0.0791,0.36138 -3e-5,0.48185 -0.27031,0.76293 -0.81081,0.84322 -0.42192,-0.0803 -0.66583,-0.23422 -0.73171,-0.46177 l -2.76862,-5.60141 -2.76863,5.60141 c -0.0659,0.22755 -0.30984,0.38148 -0.73171,0.46177 -0.54056,-0.0803 -0.81083,-0.36137 -0.81081,-0.84322 -2e-5,-0.18737 0.0263,-0.30783 0.0791,-0.36138 l 3.50033,-7.10717 c 0.26365,-0.33458 0.50755,-0.48181 0.73171,-0.44168 l 0,-0.02 m -8.16742,13.21045 c 0.32958,-0.0267 0.61962,0.0936 0.87013,0.36138 0.25048,0.25432 0.37573,0.54877 0.37575,0.88337 -2e-5,0.3614 -0.11868,0.66254 -0.35596,0.90346 -0.23734,0.22754 -0.53398,0.3547 -0.88992,0.38145 -0.35598,-0.0267 -0.65262,-0.15391 -0.88992,-0.38145 -0.23732,-0.24092 -0.35598,-0.54206 -0.35596,-0.90346 -2e-5,-0.3346 0.12523,-0.62905 0.37574,-0.88337 0.25047,-0.26768 0.54052,-0.38814 0.87014,-0.36138" />
  </g>
</svg>
