<?xml version="1.0" encoding="UTF-8" standalone="no"?>
<!-- Created with Inkscape (http://www.inkscape.org/) -->

<svg
   xmlns:dc="http://purl.org/dc/elements/1.1/"
   xmlns:cc="http://creativecommons.org/ns#"
   xmlns:rdf="http://www.w3.org/1999/02/22-rdf-syntax-ns#"
   xmlns:svg="http://www.w3.org/2000/svg"
   xmlns="http://www.w3.org/2000/svg"
   xmlns:sodipodi="http://sodipodi.sourceforge.net/DTD/sodipodi-0.dtd"
   xmlns:inkscape="http://www.inkscape.org/namespaces/inkscape"
   width="12.37972"
   height="36.23843"
   id="svg2"
   version="1.1"
   inkscape:version="0.48.4 r9939"
   sodipodi:docname="tan.svg">
  <defs
     id="defs4" />
  <sodipodi:namedview
     id="base"
     pagecolor="#ffffff"
     bordercolor="#666666"
     borderopacity="1.0"
     inkscape:pageopacity="0.0"
     inkscape:pageshadow="2"
     inkscape:zoom="1.0984277"
     inkscape:cx="-235.59757"
     inkscape:cy="-4.6199814"
     inkscape:document-units="px"
     inkscape:current-layer="layer1"
     showgrid="false"
     inkscape:window-width="1596"
     inkscape:window-height="861"
     inkscape:window-x="0"
     inkscape:window-y="18"
     inkscape:window-maximized="0"
     fit-margin-top="0"
     fit-margin-left="0"
     fit-margin-right="0"
     fit-margin-bottom="0" />
  <metadata
     id="metadata7">
    <rdf:RDF>
      <cc:Work
         rdf:about="">
        <dc:format>image/svg+xml</dc:format>
        <dc:type
           rdf:resource="http://purl.org/dc/dcmitype/StillImage" />
        <dc:title></dc:title>
      </cc:Work>
    </rdf:RDF>
  </metadata>
  <g
     inkscape:label="Layer 1"
     inkscape:groupmode="layer"
     id="layer1"
     transform="translate(-577.27755,-910.70837)">
    <path
       style="font-size:40px;font-style:normal;font-weight:normal;line-height:125%;letter-spacing:0px;word-spacing:0px;fill:#000000;fill-opacity:1;stroke:none;font-family:Sans"
       inkscape:connector-curvature="0"
       id="path3264"
       d="m 578.02897,928.01451 0,0.02 c -10e-6,-0.0134 0.0132,-0.02 0.0396,-0.02 l 0.0197,0 0.0198,0 c 0.0263,2e-5 0.0395,0.007 0.0396,0.02 l 10.4021,-0.02 0,0.02 c 0.2241,-0.0267 0.41527,0.0469 0.5735,0.22085 0.15818,0.16063 0.23729,0.35471 0.23731,0.58222 -2e-5,0.24095 -0.0792,0.43502 -0.23731,0.58223 -0.14505,0.14725 -0.33622,0.23424 -0.5735,0.261 l 0,-0.02 -10.40211,0.02 c -10e-6,-0.0134 -0.0132,-0.02 -0.0396,-0.02 l -0.0197,0 c -0.21096,0.0268 -0.40212,-0.0469 -0.5735,-0.22085 -0.15822,-0.18736 -0.23733,-0.38145 -0.23731,-0.58222 -2e-5,-0.22753 0.0725,-0.41491 0.21754,-0.56216 0.14501,-0.16059 0.32299,-0.25429 0.53394,-0.28107 m 10.71853,-17.30614 0,0.02 c -2e-5,-0.0134 0.0132,-0.02 0.0396,-0.02 0.0263,3e-5 0.0461,3e-5 0.0593,0 0.54052,0.0804 0.81078,0.3614 0.81081,0.84322 l 0,0.02 0,34.55207 c -3e-5,0.46845 -0.27029,0.74284 -0.81081,0.82314 -0.54057,-0.0669 -0.81084,-0.3413 -0.81081,-0.82314 l 0,-34.55207 0,-0.02 c -3e-5,-0.44166 0.23728,-0.72273 0.71193,-0.84322" />
  </g>
</svg>
