<?xml version="1.0" encoding="UTF-8" standalone="no"?>
<!-- Created with Inkscape (http://www.inkscape.org/) -->

<svg
   xmlns:dc="http://purl.org/dc/elements/1.1/"
   xmlns:cc="http://creativecommons.org/ns#"
   xmlns:rdf="http://www.w3.org/1999/02/22-rdf-syntax-ns#"
   xmlns:svg="http://www.w3.org/2000/svg"
   xmlns="http://www.w3.org/2000/svg"
   xmlns:sodipodi="http://sodipodi.sourceforge.net/DTD/sodipodi-0.dtd"
   xmlns:inkscape="http://www.inkscape.org/namespaces/inkscape"
   width="28.160847"
   height="24.37315"
   id="svg2"
   version="1.1"
   inkscape:version="0.48.4 r9939"
   sodipodi:docname="taso.svg">
  <defs
     id="defs4" />
  <sodipodi:namedview
     id="base"
     pagecolor="#ffffff"
     bordercolor="#666666"
     borderopacity="1.0"
     inkscape:pageopacity="0.0"
     inkscape:pageshadow="2"
     inkscape:zoom="1.0984277"
     inkscape:cx="199.88841"
     inkscape:cy="69.46544"
     inkscape:document-units="px"
     inkscape:current-layer="layer1"
     showgrid="false"
     inkscape:window-width="1596"
     inkscape:window-height="861"
     inkscape:window-x="0"
     inkscape:window-y="18"
     inkscape:window-maximized="0"
     fit-margin-top="0"
     fit-margin-left="0"
     fit-margin-right="0"
     fit-margin-bottom="0" />
  <metadata
     id="metadata7">
    <rdf:RDF>
      <cc:Work
         rdf:about="">
        <dc:format>image/svg+xml</dc:format>
        <dc:type
           rdf:resource="http://purl.org/dc/dcmitype/StillImage" />
        <dc:title></dc:title>
      </cc:Work>
    </rdf:RDF>
  </metadata>
  <g
     inkscape:label="Layer 1"
     inkscape:groupmode="layer"
     id="layer1"
     transform="translate(-2.4126674,-968.06761)">
    <path
       style="font-size:40px;font-style:normal;font-weight:normal;line-height:125%;letter-spacing:0px;word-spacing:0px;fill:#000000;fill-opacity:1;stroke:none;font-family:Sans"
       inkscape:connector-curvature="0"
       id="path3266"
       d="m 14.930763,968.06761 -0.01974,0 0.158207,0 c 0.355943,2e-5 0.613033,0.17402 0.77126,0.52199 l 7.811466,21.64272 6.110749,0 c 0.237275,0 0.42844,0.0803 0.573504,0.24092 0.158167,0.14724 0.237275,0.34131 0.237306,0.58223 -3.1e-5,0.21416 -0.07918,0.40823 -0.237306,0.58222 -0.158247,0.16062 -0.349412,0.24092 -0.573504,0.24092 l -6.664468,0 c -0.395543,0 -0.646041,-0.18069 -0.751486,-0.54206 l -7.475277,-20.59874 -10.5009849,17.28607 5.8140989,2.81074 c 0.369136,0.18739 0.553709,0.44839 0.55373,0.78299 -2.1e-5,0.22755 -0.08566,0.42162 -0.25709,0.58223 -0.158218,0.16062 -0.342791,0.24093 -0.5537198,0.24092 -0.1714103,1e-5 -0.3230258,-0.0469 -0.4548464,-0.14053 L 2.8477391,989.1281 c -0.2900579,-0.18738 -0.4350717,-0.43499 -0.4350717,-0.74284 0,-0.14722 0.033008,-0.28776 0.098924,-0.42161 L 14.35734,968.50929 c 0.105445,-0.22751 0.296619,-0.37474 0.573494,-0.44168" />
  </g>
</svg>
