<?xml version="1.0" encoding="UTF-8" standalone="no"?>
<!-- Created with Inkscape (http://www.inkscape.org/) -->

<svg
   xmlns:dc="http://purl.org/dc/elements/1.1/"
   xmlns:cc="http://creativecommons.org/ns#"
   xmlns:rdf="http://www.w3.org/1999/02/22-rdf-syntax-ns#"
   xmlns:svg="http://www.w3.org/2000/svg"
   xmlns="http://www.w3.org/2000/svg"
   xmlns:sodipodi="http://sodipodi.sourceforge.net/DTD/sodipodi-0.dtd"
   xmlns:inkscape="http://www.inkscape.org/namespaces/inkscape"
   width="30.13847"
   height="23.585463"
   id="svg2"
   version="1.1"
   inkscape:version="0.48.4 r9939"
   sodipodi:docname="tawa.svg">
  <defs
     id="defs4" />
  <sodipodi:namedview
     id="base"
     pagecolor="#ffffff"
     bordercolor="#666666"
     borderopacity="1.0"
     inkscape:pageopacity="0.0"
     inkscape:pageshadow="2"
     inkscape:zoom="1.0984277"
     inkscape:cx="158.02286"
     inkscape:cy="11.140988"
     inkscape:document-units="px"
     inkscape:current-layer="layer1"
     showgrid="false"
     inkscape:window-width="1596"
     inkscape:window-height="861"
     inkscape:window-x="0"
     inkscape:window-y="18"
     inkscape:window-maximized="0"
     fit-margin-top="0"
     fit-margin-left="0"
     fit-margin-right="0"
     fit-margin-bottom="0" />
  <metadata
     id="metadata7">
    <rdf:RDF>
      <cc:Work
         rdf:about="">
        <dc:format>image/svg+xml</dc:format>
        <dc:type
           rdf:resource="http://purl.org/dc/dcmitype/StillImage" />
        <dc:title></dc:title>
      </cc:Work>
    </rdf:RDF>
  </metadata>
  <g
     inkscape:label="Layer 1"
     inkscape:groupmode="layer"
     id="layer1"
     transform="translate(-41.865544,-968.4523)">
    <path
       style="font-size:40px;font-style:normal;font-weight:normal;line-height:125%;letter-spacing:0px;word-spacing:0px;fill:#000000;fill-opacity:1;stroke:none;font-family:Sans"
       inkscape:connector-curvature="0"
       id="path3268"
       d="m 51.06129,968.46913 -0.01974,0 c 0.646,4e-5 1.338152,0.18742 2.076475,0.56216 1.423843,0.69602 2.801555,1.92739 4.133156,3.69412 1.384284,1.65969 2.577433,2.75053 3.579427,3.2725 1.001954,0.48187 1.951196,0.58894 2.847726,0.32123 0.606431,-0.14721 1.305185,-0.50859 2.09625,-1.08415 0.804187,-0.5755 1.45679,-1.10419 1.957807,-1.58606 0.51414,-0.48181 1.384284,-1.31834 2.610411,-2.50959 0.02632,-0.0936 0.105444,-0.16728 0.237315,-0.22085 0.1318,-0.0669 0.250458,-0.10032 0.355963,-0.10032 0.474591,2e-5 0.751456,0.2744 0.830584,0.82314 -0.07918,0.34803 -0.184603,0.56218 -0.316413,0.64246 -1.054737,1.09755 -1.905106,1.95415 -2.551087,2.56982 -0.646041,0.60233 -1.41071,1.21131 -2.293996,1.82698 -0.883357,0.61571 -1.713941,1.03063 -2.491763,1.24476 -1.318418,0.32125 -2.649989,0.16733 -3.994723,-0.46176 -1.476626,-0.77629 -2.847746,-2.01434 -4.113382,-3.7142 -1.437066,-1.73996 -2.643388,-2.8241 -3.618986,-3.25243 -0.949252,-0.50859 -1.885311,-0.58889 -2.808177,-0.24093 -0.883336,0.26773 -1.812793,0.89679 -2.788391,1.88722 -0.962435,0.97709 -2.102842,2.349 -3.42123,4.11574 -0.02633,0.10709 -0.112066,0.20078 -0.25709,0.28106 -0.145024,0.0804 -0.283457,0.12049 -0.415287,0.12047 -0.224133,2e-5 -0.415297,-0.0803 -0.573504,-0.24092 -0.145024,-0.16059 -0.230724,-0.35468 -0.257091,-0.58223 0.06592,-0.30782 0.145024,-0.4952 0.237316,-0.56214 1.318388,-1.83366 2.511527,-3.28587 3.579437,-4.35666 1.081062,-1.08412 2.201694,-1.82695 3.361896,-2.22851 0.672367,-0.20075 1.344744,-0.27436 2.017141,-0.22085 m 0.276855,13.8931 -0.01974,0 c 0.646001,0.0536 1.338152,0.24763 2.076465,0.58222 1.502951,0.81648 2.880673,2.05454 4.133156,3.7142 1.463402,1.75338 2.669724,2.83752 3.618986,3.25244 0.922856,0.50861 1.858915,0.62238 2.808177,0.3413 0.606431,-0.16061 1.291991,-0.5153 2.056691,-1.06407 0.764638,-0.54875 1.443607,-1.09752 2.036916,-1.64629 0.606431,-0.56214 1.463381,-1.39198 2.570861,-2.48952 0.06592,-0.16059 0.250458,-0.24091 0.553729,-0.24092 0.474581,10e-6 0.751445,0.2744 0.830584,0.82315 -0.09234,0.33462 -0.178022,0.52869 -0.25709,0.58223 -1.529368,1.61953 -2.847756,2.88436 -3.955174,3.7945 -1.10748,0.89676 -2.234703,1.50576 -3.381671,1.82698 -1.331601,0.37477 -2.669764,0.22086 -4.014498,-0.46176 -1.4107,-0.68261 -2.781831,-1.91397 -4.113382,-3.69412 -1.4107,-1.68644 -2.617032,-2.77727 -3.618986,-3.27252 -0.936079,-0.48182 -1.865536,-0.55544 -2.788402,-0.22084 -0.870153,0.26771 -1.799611,0.89678 -2.788402,1.88722 -0.975618,0.99046 -2.116024,2.35567 -3.421219,4.09565 -0.105475,0.2677 -0.336199,0.40154 -0.692162,0.40154 -0.224133,0 -0.415297,-0.0736 -0.573494,-0.22085 -0.145034,-0.16061 -0.230724,-0.35468 -0.25709,-0.58222 0.05275,-0.28107 0.13184,-0.47514 0.237315,-0.58223 1.371121,-1.86043 2.584034,-3.31934 3.638761,-4.37673 1.054696,-1.05735 2.168737,-1.78681 3.342121,-2.18836 0.725099,-0.22753 1.384293,-0.31452 1.977582,-0.261" />
  </g>
</svg>
