<?xml version="1.0" encoding="UTF-8" standalone="no"?>
<!-- Created with Inkscape (http://www.inkscape.org/) -->

<svg
   xmlns:dc="http://purl.org/dc/elements/1.1/"
   xmlns:cc="http://creativecommons.org/ns#"
   xmlns:rdf="http://www.w3.org/1999/02/22-rdf-syntax-ns#"
   xmlns:svg="http://www.w3.org/2000/svg"
   xmlns="http://www.w3.org/2000/svg"
   xmlns:sodipodi="http://sodipodi.sourceforge.net/DTD/sodipodi-0.dtd"
   xmlns:inkscape="http://www.inkscape.org/namespaces/inkscape"
   width="26.777695"
   height="26.77734"
   id="svg2"
   version="1.1"
   inkscape:version="0.48.4 r9939"
   sodipodi:docname="tenpo.svg">
  <defs
     id="defs4" />
  <sodipodi:namedview
     id="base"
     pagecolor="#ffffff"
     bordercolor="#666666"
     borderopacity="1.0"
     inkscape:pageopacity="0.0"
     inkscape:pageshadow="2"
     inkscape:zoom="0.98994949"
     inkscape:cx="241.02598"
     inkscape:cy="184.37531"
     inkscape:document-units="px"
     inkscape:current-layer="layer1"
     showgrid="false"
     inkscape:window-width="796"
     inkscape:window-height="861"
     inkscape:window-x="800"
     inkscape:window-y="18"
     inkscape:window-maximized="0"
     fit-margin-top="0"
     fit-margin-left="0"
     fit-margin-right="0"
     fit-margin-bottom="0" />
  <metadata
     id="metadata7">
    <rdf:RDF>
      <cc:Work
         rdf:about="">
        <dc:format>image/svg+xml</dc:format>
        <dc:type
           rdf:resource="http://purl.org/dc/dcmitype/StillImage" />
        <dc:title />
      </cc:Work>
    </rdf:RDF>
  </metadata>
  <g
     inkscape:label="Layer 1"
     inkscape:groupmode="layer"
     id="layer1"
     transform="translate(-115.87135,-387.15392)">
    <path
       style="font-size:40px;font-style:normal;font-weight:normal;line-height:125%;letter-spacing:0px;word-spacing:0px;fill:#000000;fill-opacity:1;stroke:none;font-family:Sans"
       inkscape:connector-curvature="0"
       id="path3270"
       d="m 129.28932,387.15392 c 1.80987,3e-5 3.54164,0.3581 5.19531,1.07422 1.65362,0.70315 3.0794,1.65367 4.27735,2.85156 1.19788,1.18492 2.1484,2.60419 2.85156,4.25781 0.70309,1.65367 1.04814,3.38544 1.03515,5.19531 0.013,1.82293 -0.33206,3.56121 -1.03515,5.21485 -0.70316,1.65365 -1.65368,3.07943 -2.85156,4.27734 -1.19795,1.1849 -2.62373,2.13542 -4.27735,2.85156 -1.65367,0.70313 -3.38544,1.05469 -5.19531,1.05469 -1.82293,0 -3.56121,-0.35156 -5.21484,-1.05469 -1.64064,-0.71614 -3.05991,-1.66666 -4.25782,-2.85156 -1.19792,-1.19791 -2.15495,-2.62369 -2.87109,-4.27734 -0.70313,-1.65364 -1.0612,-3.39192 -1.07422,-5.21485 0.013,-1.80987 0.37109,-3.54164 1.07422,-5.19531 0.71614,-1.65362 1.67317,-3.07289 2.87109,-4.25781 1.19791,-1.19789 2.61718,-2.14841 4.25782,-2.85156 1.65363,-0.71612 3.39191,-1.07419 5.21484,-1.07422 m -0.0195,1.60156 c -2.13544,3e-5 -4.10809,0.52737 -5.91797,1.58203 -1.79689,1.04169 -3.22267,2.46747 -4.27734,4.27734 -1.0547,1.80992 -1.58204,3.78257 -1.58204,5.91797 0,1.60158 0.30599,3.13153 0.91797,4.58985 0.62499,1.44532 1.46484,2.69532 2.51953,3.75 1.05468,1.05469 2.31119,1.89453 3.76954,2.51953 1.45831,0.625 2.98175,0.9375 4.57031,0.9375 1.61456,0 3.14451,-0.3125 4.58984,-0.9375 1.45831,-0.625 2.70831,-1.46484 3.75,-2.51953 1.05466,-1.05468 1.88799,-2.30468 2.5,-3.75 0.62497,-1.45832 0.94398,-2.98827 0.95703,-4.58985 -0.0131,-2.1354 -0.54039,-4.10154 -1.58203,-5.89843 -1.04169,-1.80988 -2.46747,-3.24217 -4.27734,-4.29688 -1.80992,-1.05466 -3.78909,-1.582 -5.9375,-1.58203 m -0.41016,3.75 c -2e-5,-0.013 0.026,-0.0195 0.0781,-0.0195 0.22133,2e-5 0.40362,0.0781 0.54687,0.23437 0.15623,0.15628 0.24738,0.34508 0.27344,0.56641 l 0,0.0195 c -2e-5,2e-5 -0.007,2e-5 -0.0195,0 l 0.0195,7.14844 3.65234,0 0.0391,0 c 0.20831,10e-6 0.39711,0.0781 0.5664,0.23437 0.16925,0.15627 0.24086,0.34507 0.21485,0.56641 0.026,0.19533 -0.0521,0.37762 -0.23438,0.54687 -0.16929,0.16929 -0.35159,0.25393 -0.54687,0.25391 l -0.0391,0 -4.45312,0 c -0.2344,2e-5 -0.4232,-0.0781 -0.56641,-0.23437 -0.14325,-0.15624 -0.22788,-0.34504 -0.2539,-0.56641 l 0.0195,-7.94922 c -2e-5,-0.013 -0.007,-0.0195 -0.0195,-0.0195 0.0651,-0.46873 0.30597,-0.72914 0.72265,-0.78125" />
  </g>
</svg>
