<?xml version="1.0" encoding="UTF-8" standalone="no"?>
<!-- Created with Inkscape (http://www.inkscape.org/) -->

<svg
   xmlns:dc="http://purl.org/dc/elements/1.1/"
   xmlns:cc="http://creativecommons.org/ns#"
   xmlns:rdf="http://www.w3.org/1999/02/22-rdf-syntax-ns#"
   xmlns:svg="http://www.w3.org/2000/svg"
   xmlns="http://www.w3.org/2000/svg"
   xmlns:sodipodi="http://sodipodi.sourceforge.net/DTD/sodipodi-0.dtd"
   xmlns:inkscape="http://www.inkscape.org/namespaces/inkscape"
   width="27.350121"
   height="37.52343"
   id="svg2"
   version="1.1"
   inkscape:version="0.48.4 r9939"
   sodipodi:docname="telo.svg">
  <defs
     id="defs4" />
  <sodipodi:namedview
     id="base"
     pagecolor="#ffffff"
     bordercolor="#666666"
     borderopacity="1.0"
     inkscape:pageopacity="0.0"
     inkscape:pageshadow="2"
     inkscape:zoom="1.0984277"
     inkscape:cx="33.731515"
     inkscape:cy="-40.255522"
     inkscape:document-units="px"
     inkscape:current-layer="layer1"
     showgrid="false"
     inkscape:window-width="1596"
     inkscape:window-height="861"
     inkscape:window-x="0"
     inkscape:window-y="18"
     inkscape:window-maximized="0"
     fit-margin-top="0"
     fit-margin-left="0"
     fit-margin-right="0"
     fit-margin-bottom="0" />
  <metadata
     id="metadata7">
    <rdf:RDF>
      <cc:Work
         rdf:about="">
        <dc:format>image/svg+xml</dc:format>
        <dc:type
           rdf:resource="http://purl.org/dc/dcmitype/StillImage" />
        <dc:title></dc:title>
      </cc:Work>
    </rdf:RDF>
  </metadata>
  <g
     inkscape:label="Layer 1"
     inkscape:groupmode="layer"
     id="layer1"
     transform="translate(-124.29134,-961.44227)">
    <path
       style="font-size:40px;font-style:normal;font-weight:normal;line-height:125%;letter-spacing:0px;word-spacing:0px;fill:#000000;fill-opacity:1;stroke:none;font-family:Sans"
       inkscape:connector-curvature="0"
       id="path3272"
       d="m 132.41923,974.23116 c 1.64797,-0.68259 3.37506,-1.02389 5.18128,-1.02391 1.80617,2e-5 3.52667,0.34132 5.1615,1.02391 1.64796,0.68263 3.06523,1.59947 4.25181,2.75051 1.18653,1.15109 2.12917,2.523 2.82795,4.11574 0.7119,1.59276 1.06786,3.25913 1.0679,4.9991 -4e-5,2.32891 -0.59331,4.48381 -1.77983,6.46471 -1.18658,1.96753 -2.80161,3.52681 -4.84509,4.67788 -2.04353,1.1511 -4.27161,1.7266 -6.68424,1.7266 -2.41267,0 -4.64075,-0.5755 -6.68425,-1.7266 -2.04352,-1.15107 -3.65855,-2.71035 -4.84509,-4.67788 -1.18655,-1.9809 -1.77983,-4.1358 -1.77983,-6.46471 0,-1.73997 0.34937,-3.40634 1.04812,-4.9991 0.71193,-1.59274 1.66117,-2.96465 2.84773,-4.11574 1.18654,-1.15104 2.59722,-2.06788 4.23204,-2.75051 m 9.70995,1.50575 c -1.43707,-0.60227 -2.94662,-0.90342 -4.52867,-0.90345 -1.58209,3e-5 -3.09165,0.30118 -4.52868,0.90345 -1.43705,0.58894 -2.67634,1.38532 -3.71787,2.38913 -1.04153,1.00386 -1.87212,2.20178 -2.49175,3.59375 -0.60647,1.392 -0.9097,2.85091 -0.90969,4.37672 -1e-5,1.53922 0.30322,3.00483 0.90969,4.39681 0.61963,1.39199 1.45022,2.5899 2.49175,3.59374 1.04153,1.00383 2.28082,1.8069 3.71787,2.40921 1.43703,0.58891 2.94659,0.88337 4.52868,0.88337 1.58205,0 3.0916,-0.29446 4.52867,-0.88337 1.43702,-0.60231 2.6763,-1.40538 3.71787,-2.40921 1.04149,-1.00384 1.86549,-2.20175 2.47198,-3.59374 0.61961,-1.39198 0.92943,-2.85759 0.92946,-4.39681 -3e-5,-1.52581 -0.30985,-2.98472 -0.92946,-4.37672 -0.60649,-1.39197 -1.43049,-2.58989 -2.47198,-3.59375 -1.04157,-1.00381 -2.28085,-1.80019 -3.71787,-2.38913 m -3.97495,-14.29464 c 0.21092,5e-5 0.38891,0.0871 0.53394,0.26101 0.15819,0.16064 0.2373,0.34803 0.23732,0.56215 l 0,0.0602 -0.19776,6.78593 c -2e-5,0.21418 -0.0858,0.40156 -0.25709,0.56215 -0.15822,0.14726 -0.3428,0.22088 -0.55372,0.22084 -0.21097,4e-5 -0.40213,-0.0803 -0.5735,-0.24091 -0.15823,-0.16059 -0.23733,-0.35467 -0.23732,-0.58223 l 0,-0.02 0.19777,-6.78594 c -2e-5,-0.21412 0.0791,-0.40151 0.23731,-0.56215 0.17137,-0.17397 0.36254,-0.26096 0.5735,-0.261 l 0.0396,0 m -12.89386,1.88721 c -1e-5,-0.0134 0.0329,-0.02 0.0989,-0.02 0.29004,3e-5 0.52735,0.14726 0.71194,0.44169 l 3.5201,6.3844 c 0.0659,0.13387 0.0988,0.26772 0.0989,0.40153 -2e-5,0.21418 -0.0791,0.40825 -0.23731,0.58223 -0.15822,0.16064 -0.34938,0.24095 -0.57351,0.24092 -0.29004,3e-5 -0.52736,-0.1472 -0.71192,-0.44169 l -3.52011,-6.36432 c -0.0659,-0.13382 -0.0989,-0.27436 -0.0989,-0.42162 -10e-6,-0.21412 0.0659,-0.4015 0.19776,-0.56214 0.14502,-0.16059 0.31641,-0.2409 0.51418,-0.24093 m 25.4911,0.22085 0.0791,0 c 0.23728,3e-5 0.42845,0.0804 0.57351,0.24092 0.15817,0.14726 0.23727,0.34133 0.2373,0.58223 -3e-5,0.13387 -0.033,0.26771 -0.0989,0.40153 l -3.59921,6.4647 c -0.15824,0.28111 -0.39554,0.42165 -0.71194,0.42162 -0.21097,3e-5 -0.40213,-0.0803 -0.57349,-0.24092 -0.15824,-0.17397 -0.23734,-0.36805 -0.23732,-0.58223 -2e-5,-0.13381 0.0329,-0.26766 0.0989,-0.40154 l 3.59921,-6.42455 c 0.10543,-0.24089 0.31638,-0.39481 0.63283,-0.46176" />
  </g>
</svg>
