<?xml version="1.0" encoding="UTF-8" standalone="no"?>
<!-- Created with Inkscape (http://www.inkscape.org/) -->

<svg
   xmlns:dc="http://purl.org/dc/elements/1.1/"
   xmlns:cc="http://creativecommons.org/ns#"
   xmlns:rdf="http://www.w3.org/1999/02/22-rdf-syntax-ns#"
   xmlns:svg="http://www.w3.org/2000/svg"
   xmlns="http://www.w3.org/2000/svg"
   xmlns:sodipodi="http://sodipodi.sourceforge.net/DTD/sodipodi-0.dtd"
   xmlns:inkscape="http://www.inkscape.org/namespaces/inkscape"
   width="29.785151"
   height="34.72657"
   id="svg2"
   version="1.1"
   inkscape:version="0.48.4 r9939"
   sodipodi:docname="tomo.svg">
  <defs
     id="defs4" />
  <sodipodi:namedview
     id="base"
     pagecolor="#ffffff"
     bordercolor="#666666"
     borderopacity="1.0"
     inkscape:pageopacity="0.0"
     inkscape:pageshadow="2"
     inkscape:zoom="0.98994949"
     inkscape:cx="2.086631"
     inkscape:cy="200.04935"
     inkscape:document-units="px"
     inkscape:current-layer="layer1"
     showgrid="false"
     inkscape:window-width="1596"
     inkscape:window-height="861"
     inkscape:window-x="0"
     inkscape:window-y="18"
     inkscape:window-maximized="0"
     fit-margin-top="0"
     fit-margin-left="0"
     fit-margin-right="0"
     fit-margin-bottom="0" />
  <metadata
     id="metadata7">
    <rdf:RDF>
      <cc:Work
         rdf:about="">
        <dc:format>image/svg+xml</dc:format>
        <dc:type
           rdf:resource="http://purl.org/dc/dcmitype/StillImage" />
        <dc:title />
      </cc:Work>
    </rdf:RDF>
  </metadata>
  <g
     inkscape:label="Layer 1"
     inkscape:groupmode="layer"
     id="layer1"
     transform="translate(-194.38698,-383.18907)">
    <path
       style="font-size:40px;font-style:normal;font-weight:normal;line-height:125%;letter-spacing:0px;word-spacing:0px;fill:#000000;fill-opacity:1;stroke:none;font-family:Sans"
       inkscape:connector-curvature="0"
       id="path3274"
       d="m 209.13307,383.18907 0.11719,0 c 0.26039,4e-5 0.48175,0.11071 0.66406,0.33203 l 14.12109,19.88282 c 0.0911,0.0912 0.13669,0.24741 0.13672,0.46875 l 0,13.24218 c -3e-5,0.23438 -0.0782,0.42318 -0.23437,0.56641 -0.14327,0.15625 -0.32556,0.23437 -0.54688,0.23438 l -28.20312,0 c -0.23438,-10e-6 -0.4297,-0.0781 -0.58594,-0.23438 -0.14323,-0.14323 -0.21485,-0.33203 -0.21484,-0.56641 l 0,-13.24218 c -1e-5,-0.10416 0.0456,-0.26041 0.13671,-0.46875 l 14.0625,-19.84375 c 0.0911,-0.2083 0.27342,-0.332 0.54688,-0.3711 m 0.11719,2.1875 -13.26172,18.75 0,12.1875 26.60156,0 0,-12.1875 -13.33984,-18.75" />
  </g>
</svg>
