<?xml version="1.0" encoding="UTF-8" standalone="no"?>
<!-- Created with Inkscape (http://www.inkscape.org/) -->

<svg
   xmlns:dc="http://purl.org/dc/elements/1.1/"
   xmlns:cc="http://creativecommons.org/ns#"
   xmlns:rdf="http://www.w3.org/1999/02/22-rdf-syntax-ns#"
   xmlns:svg="http://www.w3.org/2000/svg"
   xmlns="http://www.w3.org/2000/svg"
   xmlns:sodipodi="http://sodipodi.sourceforge.net/DTD/sodipodi-0.dtd"
   xmlns:inkscape="http://www.inkscape.org/namespaces/inkscape"
   width="27.062307"
   height="31.505093"
   id="svg2"
   version="1.1"
   inkscape:version="0.48.4 r9939"
   sodipodi:docname="unpa.svg">
  <defs
     id="defs4" />
  <sodipodi:namedview
     id="base"
     pagecolor="#ffffff"
     bordercolor="#666666"
     borderopacity="1.0"
     inkscape:pageopacity="0.0"
     inkscape:pageshadow="2"
     inkscape:zoom="0.98994949"
     inkscape:cx="-79.287833"
     inkscape:cy="146.33248"
     inkscape:document-units="px"
     inkscape:current-layer="layer1"
     showgrid="false"
     inkscape:window-width="1596"
     inkscape:window-height="861"
     inkscape:window-x="0"
     inkscape:window-y="18"
     inkscape:window-maximized="0"
     fit-margin-top="0"
     fit-margin-left="0"
     fit-margin-right="0"
     fit-margin-bottom="0" />
  <metadata
     id="metadata7">
    <rdf:RDF>
      <cc:Work
         rdf:about="">
        <dc:format>image/svg+xml</dc:format>
        <dc:type
           rdf:resource="http://purl.org/dc/dcmitype/StillImage" />
        <dc:title />
      </cc:Work>
    </rdf:RDF>
  </metadata>
  <g
     inkscape:label="Layer 1"
     inkscape:groupmode="layer"
     id="layer1"
     transform="translate(-275.76144,-384.78945)">
    <path
       style="font-size:40px;font-style:normal;font-weight:normal;line-height:125%;letter-spacing:0px;word-spacing:0px;fill:#000000;fill-opacity:1;stroke:none;font-family:Sans"
       inkscape:connector-curvature="0"
       id="path3278"
       d="m 297.64869,384.79064 c 1.38018,3e-5 2.53253,0.34508 3.45704,1.03515 0.8333,0.67712 1.36064,1.58206 1.58203,2.71485 0.40361,2.01825 -0.0912,4.39455 -1.48438,7.1289 -1.23701,2.53908 -2.97529,4.85028 -5.21484,6.9336 -0.84638,0.67709 -1.6732,1.21746 -2.48047,1.62109 0.46873,2.76043 0.59242,4.97397 0.37109,6.64062 -0.2344,1.66668 -0.71617,2.92969 -1.44531,3.78907 -0.83335,1.02864 -1.9857,1.57552 -3.45703,1.64062 -1.41929,0 -2.56512,-0.52083 -3.4375,-1.5625 -0.72918,-0.80729 -1.25002,-2.05729 -1.5625,-3.75 -0.23439,-1.53645 -0.14324,-3.79556 0.27344,-6.77734 -1.04168,-0.62499 -1.8034,-1.15884 -2.28516,-1.60156 -2.07032,-1.97916 -3.67188,-4.27733 -4.80469,-6.89454 -1.23698,-2.77341 -1.65365,-5.13018 -1.25,-7.07031 0.23437,-1.13278 0.72265,-2.02471 1.46485,-2.67578 0.98957,-0.74216 2.05077,-1.08721 3.18359,-1.03516 2.42186,-0.0911 4.83722,1.543 7.24609,4.90235 0.14322,0.22138 0.33853,0.55341 0.58594,0.99609 0.24738,0.44274 0.39712,0.70966 0.44922,0.80078 0.52081,-0.96351 0.87889,-1.58851 1.07422,-1.875 2.49998,-3.35934 5.0781,-5.01299 7.73437,-4.96093 m -0.0195,1.58203 0,0.0195 c -2.1094,-0.0521 -4.25783,1.38675 -6.44531,4.3164 -0.44273,0.66409 -0.91799,1.50394 -1.42578,2.51954 1.27602,2.40887 2.25258,4.75913 2.92969,7.05078 0.0521,0.23439 0.10414,0.48178 0.15625,0.74218 0.0521,0.24742 0.10414,0.52736 0.15625,0.83985 0.0651,0.29949 0.11716,0.53387 0.15625,0.70312 0.0911,-0.0651 0.35154,-0.22785 0.78125,-0.48828 0.44268,-0.2604 0.7682,-0.49477 0.97656,-0.70312 1.90101,-1.65363 3.5156,-3.77603 4.84375,-6.36719 1.22393,-2.52602 1.67314,-4.58331 1.34766,-6.17188 -0.16931,-0.80726 -0.50134,-1.38669 -0.9961,-1.73828 -0.40367,-0.37757 -1.2305,-0.61846 -2.48047,-0.72265 m -17.05078,0.13672 0,0.0195 c -0.71615,-0.039 -1.43881,0.17581 -2.16797,0.64453 -0.4948,0.49482 -0.8073,1.08727 -0.9375,1.77734 -0.29948,1.66669 0.0781,3.71096 1.13282,6.13281 1.05467,2.39586 2.53254,4.51174 4.43359,6.34766 0.59894,0.46877 1.11327,0.82684 1.54297,1.07422 0.026,-0.14322 0.0846,-0.46874 0.17578,-0.97656 0.0911,-0.52082 0.17577,-0.92447 0.25391,-1.21094 0.49477,-1.87498 1.45831,-4.24477 2.89062,-7.10938 -0.13023,-0.20831 -0.35158,-0.59893 -0.66406,-1.17187 -0.2995,-0.58591 -0.54038,-1.00909 -0.72266,-1.26953 -0.96356,-1.35414 -1.95965,-2.40232 -2.98828,-3.14453 -1.02866,-0.74216 -2.01173,-1.11325 -2.94922,-1.11328 m 8.26172,8.30078 c -1.01564,2.08335 -1.78387,4.06903 -2.30469,5.95703 -0.0912,0.31251 -0.26694,1.21095 -0.52734,2.69531 0.8854,0.4297 1.83592,0.6771 2.85156,0.74219 1.04165,-0.0651 1.99217,-0.30598 2.85156,-0.72266 -0.0391,-0.16926 -0.1172,-0.57941 -0.23437,-1.23047 -0.11721,-0.65102 -0.2344,-1.15233 -0.35156,-1.5039 -0.45575,-1.64061 -1.21747,-3.61978 -2.28516,-5.9375 m -3.125,10.29297 c -0.35158,2.31771 -0.40366,4.1862 -0.15625,5.60546 0.1953,1.31511 0.58592,2.31772 1.17188,3.00782 0.62498,0.6901 1.37368,1.00911 2.24609,0.95703 0.83331,0.0521 1.56899,-0.27995 2.20703,-0.9961 0.59894,-0.85937 0.97003,-1.87499 1.11328,-3.04687 0.22133,-1.27604 0.14321,-3.11848 -0.23437,-5.52734 -1.40627,0.4948 -2.47398,0.72266 -3.20313,0.68359 -0.76825,0.0391 -1.81642,-0.18879 -3.14453,-0.68359" />
  </g>
</svg>
