<?xml version="1.0" encoding="UTF-8" standalone="no"?>
<!-- Created with Inkscape (http://www.inkscape.org/) -->

<svg
   xmlns:dc="http://purl.org/dc/elements/1.1/"
   xmlns:cc="http://creativecommons.org/ns#"
   xmlns:rdf="http://www.w3.org/1999/02/22-rdf-syntax-ns#"
   xmlns:svg="http://www.w3.org/2000/svg"
   xmlns="http://www.w3.org/2000/svg"
   xmlns:sodipodi="http://sodipodi.sourceforge.net/DTD/sodipodi-0.dtd"
   xmlns:inkscape="http://www.inkscape.org/namespaces/inkscape"
   width="23.711269"
   height="20.779421"
   id="svg2"
   version="1.1"
   inkscape:version="0.48.4 r9939"
   sodipodi:docname="toki.svg">
  <defs
     id="defs4" />
  <sodipodi:namedview
     id="base"
     pagecolor="#ffffff"
     bordercolor="#666666"
     borderopacity="1.0"
     inkscape:pageopacity="0.0"
     inkscape:pageshadow="2"
     inkscape:zoom="1.0984277"
     inkscape:cx="-254.40294"
     inkscape:cy="-100.00395"
     inkscape:document-units="px"
     inkscape:current-layer="layer1"
     showgrid="false"
     inkscape:window-width="1596"
     inkscape:window-height="861"
     inkscape:window-x="0"
     inkscape:window-y="18"
     inkscape:window-maximized="0"
     fit-margin-top="0"
     fit-margin-left="0"
     fit-margin-right="0"
     fit-margin-bottom="0" />
  <metadata
     id="metadata7">
    <rdf:RDF>
      <cc:Work
         rdf:about="">
        <dc:format>image/svg+xml</dc:format>
        <dc:type
           rdf:resource="http://purl.org/dc/dcmitype/StillImage" />
        <dc:title></dc:title>
      </cc:Work>
    </rdf:RDF>
  </metadata>
  <g
     inkscape:label="Layer 1"
     inkscape:groupmode="layer"
     id="layer1"
     transform="translate(-288.13445,-969.83436)">
    <path
       style="font-size:40px;font-style:normal;font-weight:normal;line-height:125%;letter-spacing:0px;word-spacing:0px;fill:#000000;fill-opacity:1;stroke:none;font-family:Sans"
       inkscape:connector-curvature="0"
       id="path3280"
       d="m 288.86616,969.83436 0.0791,0 22.08965,0 c 0.21091,2e-5 0.39549,0.0871 0.55372,0.26099 0.17136,0.16064 0.25706,0.34803 0.25709,0.56215 -3e-5,1.90062 -0.30985,3.72091 -0.92946,5.46088 -0.61968,1.72661 -1.45685,3.22568 -2.51154,4.49719 -1.05474,1.27153 -2.32039,2.28206 -3.79697,3.03158 -1.46343,0.74955 -3.00595,1.12431 -4.62755,1.1243 -2.17537,1e-5 -4.17273,-0.63575 -5.99209,-1.90729 -1.8194,-1.27152 -3.24985,-2.98473 -4.29136,-5.13964 -1.04154,-2.16828 -1.56231,-4.52394 -1.5623,-7.06702 -1e-5,-0.18736 0.0659,-0.36135 0.19776,-0.52199 0.14501,-0.17398 0.323,-0.27436 0.53395,-0.30115 m 0.94924,1.64629 c 0.11864,2.16831 0.646,4.14252 1.58207,5.92264 0.93604,1.78015 2.15556,3.17883 3.65854,4.19603 1.51613,1.01724 3.15753,1.52585 4.92419,1.52583 1.75344,2e-5 3.38165,-0.50859 4.88464,-1.52583 1.51613,-1.0172 2.74222,-2.41588 3.67831,-4.19603 0.94921,-1.7935 1.48317,-3.76771 1.60185,-5.92264 l -20.3296,0 m 9.27488,16.98492 c 0.25048,-0.2543 0.54712,-0.38145 0.88992,-0.38146 0.34276,10e-6 0.63281,0.12716 0.87013,0.38146 0.25048,0.24093 0.37573,0.53539 0.37575,0.88337 -2e-5,0.34801 -0.12527,0.64916 -0.37575,0.90346 -0.23732,0.24093 -0.52737,0.36139 -0.87013,0.36138 -0.3428,10e-6 -0.63944,-0.12045 -0.88992,-0.36138 -0.23732,-0.2543 -0.35598,-0.55545 -0.35596,-0.90346 -2e-5,-0.34798 0.11864,-0.64244 0.35596,-0.88337" />
  </g>
</svg>
