<?xml version="1.0" encoding="UTF-8" standalone="no"?>
<!-- Created with Inkscape (http://www.inkscape.org/) -->

<svg
   xmlns:dc="http://purl.org/dc/elements/1.1/"
   xmlns:cc="http://creativecommons.org/ns#"
   xmlns:rdf="http://www.w3.org/1999/02/22-rdf-syntax-ns#"
   xmlns:svg="http://www.w3.org/2000/svg"
   xmlns="http://www.w3.org/2000/svg"
   xmlns:sodipodi="http://sodipodi.sourceforge.net/DTD/sodipodi-0.dtd"
   xmlns:inkscape="http://www.inkscape.org/namespaces/inkscape"
   width="27.733692"
   height="31.239479"
   id="svg2"
   version="1.1"
   inkscape:version="0.48.4 r9939"
   sodipodi:docname="uta.svg">
  <defs
     id="defs4" />
  <sodipodi:namedview
     id="base"
     pagecolor="#ffffff"
     bordercolor="#666666"
     borderopacity="1.0"
     inkscape:pageopacity="0.0"
     inkscape:pageshadow="2"
     inkscape:zoom="1.0984277"
     inkscape:cx="-103.05742"
     inkscape:cy="23.904593"
     inkscape:document-units="px"
     inkscape:current-layer="layer1"
     showgrid="false"
     inkscape:window-width="1596"
     inkscape:window-height="861"
     inkscape:window-x="0"
     inkscape:window-y="18"
     inkscape:window-maximized="0"
     fit-margin-top="0"
     fit-margin-left="0"
     fit-margin-right="0"
     fit-margin-bottom="0" />
  <metadata
     id="metadata7">
    <rdf:RDF>
      <cc:Work
         rdf:about="">
        <dc:format>image/svg+xml</dc:format>
        <dc:type
           rdf:resource="http://purl.org/dc/dcmitype/StillImage" />
        <dc:title></dc:title>
      </cc:Work>
    </rdf:RDF>
  </metadata>
  <g
     inkscape:label="Layer 1"
     inkscape:groupmode="layer"
     id="layer1"
     transform="translate(-326.61039,-964.5944)">
    <path
       style="font-size:40px;font-style:normal;font-weight:normal;line-height:125%;letter-spacing:0px;word-spacing:0px;fill:#000000;fill-opacity:1;stroke:none;font-family:Sans"
       inkscape:connector-curvature="0"
       id="path3282"
       d="m 348.88593,964.6144 c -3e-5,-0.0134 0.0198,-0.02 0.0593,-0.02 0.4746,3e-5 0.75145,0.27441 0.83059,0.82314 -0.0133,0.0268 -0.033,0.10043 -0.0593,0.22085 -0.0132,0.1071 -0.0396,0.18072 -0.0791,0.22084 l -17.26434,29.59311 c -0.25051,0.25431 -0.48781,0.38147 -0.71193,0.38147 -0.36916,0 -0.60648,-0.14723 -0.71193,-0.44169 l -4.21226,-8.53262 c -0.10548,-0.20076 -0.14503,-0.35468 -0.11866,-0.46176 -0.0263,-0.21414 0.0396,-0.40153 0.19776,-0.56216 0.17138,-0.1606 0.36914,-0.2409 0.59327,-0.24091 0.29004,1e-5 0.55372,0.1807 0.79104,0.54207 l 3.52011,7.16739 16.53263,-28.26804 c 0.0132,-0.10705 0.0922,-0.20074 0.23731,-0.28108 0.14499,-0.0936 0.27684,-0.14051 0.39551,-0.14054 m -16.98747,0 c 0.0132,-0.0134 0.0528,-0.02 0.11865,-0.02 0.27685,3e-5 0.52076,0.14057 0.73171,0.42161 l 16.51285,28.26805 3.53989,-7.14732 c 0.0263,-0.13384 0.11202,-0.24091 0.25708,-0.32123 0.15818,-0.0937 0.30979,-0.14053 0.45484,-0.14054 0.4746,1e-5 0.75146,0.2744 0.8306,0.82314 -4e-5,0.0134 -0.0133,0.0736 -0.0396,0.1807 -0.0132,0.0937 -0.033,0.15393 -0.0593,0.18069 l -4.19249,8.53262 c -0.18461,0.29446 -0.42851,0.44169 -0.73171,0.44169 -0.32962,0 -0.55375,-0.12716 -0.67237,-0.38147 l -17.3039,-29.59311 c -0.0923,-0.24089 -0.13185,-0.38811 -0.11866,-0.44169 -0.0263,-0.18735 0.033,-0.36135 0.178,-0.52199 0.145,-0.16058 0.3098,-0.25428 0.49439,-0.28108" />
  </g>
</svg>
