<?xml version="1.0" encoding="UTF-8" standalone="no"?>
<!-- Created with Inkscape (http://www.inkscape.org/) -->

<svg
   xmlns:dc="http://purl.org/dc/elements/1.1/"
   xmlns:cc="http://creativecommons.org/ns#"
   xmlns:rdf="http://www.w3.org/1999/02/22-rdf-syntax-ns#"
   xmlns:svg="http://www.w3.org/2000/svg"
   xmlns="http://www.w3.org/2000/svg"
   xmlns:sodipodi="http://sodipodi.sourceforge.net/DTD/sodipodi-0.dtd"
   xmlns:inkscape="http://www.inkscape.org/namespaces/inkscape"
   width="28.747536"
   height="26.822519"
   id="svg2"
   version="1.1"
   inkscape:version="0.48.4 r9939"
   sodipodi:docname="utala.svg">
  <defs
     id="defs4" />
  <sodipodi:namedview
     id="base"
     pagecolor="#ffffff"
     bordercolor="#666666"
     borderopacity="1.0"
     inkscape:pageopacity="0.0"
     inkscape:pageshadow="2"
     inkscape:zoom="1.0984277"
     inkscape:cx="-145.54322"
     inkscape:cy="50.033514"
     inkscape:document-units="px"
     inkscape:current-layer="layer1"
     showgrid="false"
     inkscape:window-width="1596"
     inkscape:window-height="861"
     inkscape:window-x="0"
     inkscape:window-y="18"
     inkscape:window-maximized="0"
     fit-margin-top="0"
     fit-margin-left="0"
     fit-margin-right="0"
     fit-margin-bottom="0" />
  <metadata
     id="metadata7">
    <rdf:RDF>
      <cc:Work
         rdf:about="">
        <dc:format>image/svg+xml</dc:format>
        <dc:type
           rdf:resource="http://purl.org/dc/dcmitype/StillImage" />
        <dc:title></dc:title>
      </cc:Work>
    </rdf:RDF>
  </metadata>
  <g
     inkscape:label="Layer 1"
     inkscape:groupmode="layer"
     id="layer1"
     transform="translate(-366.58542,-966.82292)">
    <path
       style="font-size:40px;font-style:normal;font-weight:normal;line-height:125%;letter-spacing:0px;word-spacing:0px;fill:#000000;fill-opacity:1;stroke:none;font-family:Sans"
       inkscape:connector-curvature="0"
       id="path3284"
       d="m 380.40867,966.84292 -0.0197,0 c 0.0263,3e-5 0.0593,3e-5 0.0989,0 0.0395,-0.0134 0.0791,-0.02 0.11866,-0.02 0.38231,3e-5 0.61962,0.14057 0.71193,0.42161 l 13.90244,25.15615 c -3e-5,0.0402 0.0197,0.10708 0.0593,0.20076 0.0528,0.0803 0.0659,0.15393 0.0396,0.22085 0.0263,0.20077 -0.0528,0.38816 -0.23732,0.56215 -0.17142,0.174 -0.35599,0.261 -0.55372,0.261 l -0.0396,0 -26.77653,0 c -0.22413,0 -0.41529,-0.0803 -0.5735,-0.24093 -0.14502,-0.1606 -0.23072,-0.35467 -0.25708,-0.58222 0.0659,-0.24091 0.10547,-0.36807 0.11866,-0.38146 l 12.87409,-25.116 c 0.145,-0.28104 0.32298,-0.44166 0.53394,-0.48184 m 0.23732,2.5096 -0.0197,0 -11.60844,22.64656 24.1068,0 -12.47858,-22.64656 m 13.54647,6.1234 -0.0197,0 0.0197,0 c 0.2241,2e-5 0.41526,0.0803 0.5735,0.24092 0.17136,0.16063 0.24387,0.35471 0.21753,0.58223 0.0528,0.25432 -0.0791,0.49524 -0.39551,0.72275 l -6.28873,3.8949 c -0.0264,0.0803 -0.15823,0.12047 -0.39551,0.12045 -0.48784,2e-5 -0.7647,-0.27436 -0.8306,-0.82314 0.0659,-0.36136 0.20433,-0.5956 0.4153,-0.70269 l 6.24918,-3.89488 c 0.1318,-0.0936 0.28342,-0.14052 0.45484,-0.14054 m -26.77653,-0.18069 -0.0396,0 0.0593,0 c 0.11865,2e-5 0.25708,0.0402 0.4153,0.12045 l 6.28873,3.91497 c 0.30321,0.21417 0.42846,0.4484 0.37574,0.70269 0.0263,0.22755 -0.0462,0.42162 -0.21754,0.58223 -0.17141,0.16062 -0.36257,0.24093 -0.5735,0.24091 -0.18458,2e-5 -0.32961,-0.0401 -0.43507,-0.12045 l -6.26895,-3.8949 c -0.21095,-0.10704 -0.35597,-0.34797 -0.43507,-0.72275 0.0791,-0.54875 0.35596,-0.82313 0.83059,-0.82315" />
  </g>
</svg>
