<?xml version="1.0" encoding="UTF-8" standalone="no"?>
<!-- Created with Inkscape (http://www.inkscape.org/) -->

<svg
   xmlns:dc="http://purl.org/dc/elements/1.1/"
   xmlns:cc="http://creativecommons.org/ns#"
   xmlns:rdf="http://www.w3.org/1999/02/22-rdf-syntax-ns#"
   xmlns:svg="http://www.w3.org/2000/svg"
   xmlns="http://www.w3.org/2000/svg"
   xmlns:sodipodi="http://sodipodi.sourceforge.net/DTD/sodipodi-0.dtd"
   xmlns:inkscape="http://www.inkscape.org/namespaces/inkscape"
   width="7.0849614"
   height="33.74892"
   id="svg2"
   version="1.1"
   inkscape:version="0.48.4 r9939"
   sodipodi:docname="walo.svg">
  <defs
     id="defs4" />
  <sodipodi:namedview
     id="base"
     pagecolor="#ffffff"
     bordercolor="#666666"
     borderopacity="1.0"
     inkscape:pageopacity="0.0"
     inkscape:pageshadow="2"
     inkscape:zoom="1.0984277"
     inkscape:cx="-277.63788"
     inkscape:cy="90.540263"
     inkscape:document-units="px"
     inkscape:current-layer="layer1"
     showgrid="false"
     inkscape:window-width="1596"
     inkscape:window-height="861"
     inkscape:window-x="0"
     inkscape:window-y="18"
     inkscape:window-maximized="0"
     fit-margin-top="0"
     fit-margin-left="0"
     fit-margin-right="0"
     fit-margin-bottom="0" />
  <metadata
     id="metadata7">
    <rdf:RDF>
      <cc:Work
         rdf:about="">
        <dc:format>image/svg+xml</dc:format>
        <dc:type
           rdf:resource="http://purl.org/dc/dcmitype/StillImage" />
        <dc:title></dc:title>
      </cc:Work>
    </rdf:RDF>
  </metadata>
  <g
     inkscape:label="Layer 1"
     inkscape:groupmode="layer"
     id="layer1"
     transform="translate(-417.95781,-963.34964)">
    <path
       style="font-size:40px;font-style:normal;font-weight:normal;line-height:125%;letter-spacing:0px;word-spacing:0px;fill:#000000;fill-opacity:1;stroke:none;font-family:Sans"
       inkscape:connector-curvature="0"
       id="path3286"
       d="m 424.01448,963.36964 c 0.0263,4e-5 0.0593,4e-5 0.0989,0 0.0395,-0.0134 0.0725,-0.02 0.0988,-0.02 0.23729,4e-5 0.42846,0.0804 0.57351,0.24092 0.14499,0.14726 0.23069,0.34134 0.25708,0.58222 l 0,0.02 c -2e-5,3e-5 -0.007,3e-5 -0.0197,0 l 0.0197,32.06254 -0.0197,0.0201 c 0.0263,0.21415 -0.0528,0.40153 -0.2373,0.56215 -0.17142,0.174 -0.356,0.26099 -0.55373,0.26099 -0.48783,0 -0.76469,-0.27437 -0.83059,-0.82314 l 0.0198,-0.0201 -0.0198,-29.57303 -3.95517,5.50102 c -0.22414,0.22756 -0.44827,0.34133 -0.67238,0.3413 -0.21096,3e-5 -0.40871,-0.0803 -0.59328,-0.24091 -0.17141,-0.17398 -0.24392,-0.36805 -0.21753,-0.58223 -0.0132,-0.0803 0.006,-0.17397 0.0593,-0.28107 0.0528,-0.10706 0.0791,-0.18067 0.0791,-0.22085 l 5.43836,-7.42839 c -2e-5,-0.0803 0.0528,-0.16058 0.15821,-0.24093 0.11864,-0.0803 0.2241,-0.1338 0.31642,-0.16061" />
  </g>
</svg>
