<?xml version="1.0" encoding="UTF-8" standalone="no"?>
<!-- Created with Inkscape (http://www.inkscape.org/) -->

<svg
   xmlns:dc="http://purl.org/dc/elements/1.1/"
   xmlns:cc="http://creativecommons.org/ns#"
   xmlns:rdf="http://www.w3.org/1999/02/22-rdf-syntax-ns#"
   xmlns:svg="http://www.w3.org/2000/svg"
   xmlns="http://www.w3.org/2000/svg"
   xmlns:sodipodi="http://sodipodi.sourceforge.net/DTD/sodipodi-0.dtd"
   xmlns:inkscape="http://www.inkscape.org/namespaces/inkscape"
   width="17.497854"
   height="35.011662"
   id="svg2"
   version="1.1"
   inkscape:version="0.48.4 r9939"
   sodipodi:docname="wan.svg">
  <defs
     id="defs4" />
  <sodipodi:namedview
     id="base"
     pagecolor="#ffffff"
     bordercolor="#666666"
     borderopacity="1.0"
     inkscape:pageopacity="0.0"
     inkscape:pageshadow="2"
     inkscape:zoom="1.0984277"
     inkscape:cx="-286.59882"
     inkscape:cy="92.522525"
     inkscape:document-units="px"
     inkscape:current-layer="layer1"
     showgrid="false"
     inkscape:window-width="1596"
     inkscape:window-height="861"
     inkscape:window-x="0"
     inkscape:window-y="18"
     inkscape:window-maximized="0"
     fit-margin-top="0"
     fit-margin-left="0"
     fit-margin-right="0"
     fit-margin-bottom="0" />
  <metadata
     id="metadata7">
    <rdf:RDF>
      <cc:Work
         rdf:about="">
        <dc:format>image/svg+xml</dc:format>
        <dc:type
           rdf:resource="http://purl.org/dc/dcmitype/StillImage" />
        <dc:title></dc:title>
      </cc:Work>
    </rdf:RDF>
  </metadata>
  <g
     inkscape:label="Layer 1"
     inkscape:groupmode="layer"
     id="layer1"
     transform="translate(-453.23233,-962.70928)">
    <path
       style="font-size:40px;font-style:normal;font-weight:normal;line-height:125%;letter-spacing:0px;word-spacing:0px;fill:#000000;fill-opacity:1;stroke:none;font-family:Sans"
       inkscape:connector-curvature="0"
       id="path3288"
       d="m 453.93537,962.72719 c 0.3164,-0.0669 0.56689,0.0536 0.75149,0.36138 l 15.89979,22.50603 c 0.18456,0.24092 0.19115,0.522 0.0197,0.84322 -0.15823,0.32124 -0.38236,0.48185 -0.67238,0.48184 l -13.6849,0 0,9.95806 c -2e-5,0.21415 -0.0858,0.40823 -0.25709,0.58223 -0.15822,0.174 -0.34279,0.26099 -0.55372,0.26099 -0.21096,0 -0.40212,-0.087 -0.5735,-0.26099 -0.15822,-0.174 -0.23733,-0.36808 -0.23732,-0.58223 l 0,-10.78121 c -10e-6,-0.21413 0.0857,-0.40152 0.25709,-0.56215 0.17138,-0.17399 0.35595,-0.26098 0.55373,-0.26099 l 12.91364,0 -14.99011,-21.24119 c -0.15822,-0.21413 -0.1714,-0.47512 -0.0396,-0.78299 0.13183,-0.3212 0.33617,-0.4952 0.61305,-0.522 m 5.47792,17.50691 c 0.25048,-0.25429 0.54711,-0.38143 0.88991,-0.38145 0.34277,2e-5 0.63281,0.12716 0.87014,0.38145 0.25048,0.24095 0.37572,0.5354 0.37574,0.88338 -2e-5,0.34802 -0.12526,0.64916 -0.37574,0.90346 -0.23733,0.24093 -0.52737,0.36139 -0.87014,0.36138 -0.3428,10e-6 -0.63943,-0.12045 -0.88991,-0.36138 -0.23733,-0.2543 -0.35598,-0.55544 -0.35597,-0.90346 -10e-6,-0.34798 0.11864,-0.64243 0.35597,-0.88338 m -2.31378,-0.38145 c 0.32959,2e-5 0.61962,0.12716 0.87014,0.38145 0.25048,0.24095 0.37572,0.5354 0.37574,0.88338 -2e-5,0.33463 -0.12526,0.62908 -0.37574,0.88337 -0.25052,0.25432 -0.54055,0.38148 -0.87014,0.38147 -0.3428,10e-6 -0.63943,-0.12045 -0.88992,-0.36138 -0.23731,-0.2543 -0.35597,-0.55544 -0.35596,-0.90346 -10e-6,-0.34798 0.11865,-0.64243 0.35596,-0.88338 0.25049,-0.25429 0.54712,-0.38143 0.88992,-0.38145" />
  </g>
</svg>
