<?xml version="1.0" encoding="UTF-8" standalone="no"?>
<!-- Created with Inkscape (http://www.inkscape.org/) -->

<svg
   xmlns:dc="http://purl.org/dc/elements/1.1/"
   xmlns:cc="http://creativecommons.org/ns#"
   xmlns:rdf="http://www.w3.org/1999/02/22-rdf-syntax-ns#"
   xmlns:svg="http://www.w3.org/2000/svg"
   xmlns="http://www.w3.org/2000/svg"
   xmlns:sodipodi="http://sodipodi.sourceforge.net/DTD/sodipodi-0.dtd"
   xmlns:inkscape="http://www.inkscape.org/namespaces/inkscape"
   width="31.76004"
   height="30.556789"
   id="svg2"
   version="1.1"
   inkscape:version="0.48.4 r9939"
   sodipodi:docname="waso.svg">
  <defs
     id="defs4" />
  <sodipodi:namedview
     id="base"
     pagecolor="#ffffff"
     bordercolor="#666666"
     borderopacity="1.0"
     inkscape:pageopacity="0.0"
     inkscape:pageshadow="2"
     inkscape:zoom="1.0984277"
     inkscape:cx="-340.76763"
     inkscape:cy="60.412541"
     inkscape:document-units="px"
     inkscape:current-layer="layer1"
     showgrid="false"
     inkscape:window-width="1596"
     inkscape:window-height="861"
     inkscape:window-x="0"
     inkscape:window-y="18"
     inkscape:window-maximized="0"
     fit-margin-top="0"
     fit-margin-left="0"
     fit-margin-right="0"
     fit-margin-bottom="0" />
  <metadata
     id="metadata7">
    <rdf:RDF>
      <cc:Work
         rdf:about="">
        <dc:format>image/svg+xml</dc:format>
        <dc:type
           rdf:resource="http://purl.org/dc/dcmitype/StillImage" />
        <dc:title></dc:title>
      </cc:Work>
    </rdf:RDF>
  </metadata>
  <g
     inkscape:label="Layer 1"
     inkscape:groupmode="layer"
     id="layer1"
     transform="translate(-486.60511,-964.93563)">
    <path
       style="font-size:40px;font-style:normal;font-weight:normal;line-height:125%;letter-spacing:0px;word-spacing:0px;fill:#000000;fill-opacity:1;stroke:none;font-family:Sans"
       inkscape:connector-curvature="0"
       id="path3290"
       d="m 502.46537,977.72452 c 1.97756,2e-5 3.64533,0.89677 5.00328,2.69028 1.29201,1.72661 1.93802,3.79451 1.93805,6.20371 -3e-5,2.44937 -0.64604,4.51727 -1.93805,6.20371 -1.39751,1.78014 -3.06527,2.67021 -5.00328,2.6702 -0.96245,10e-6 -1.87214,-0.23422 -2.72907,-0.70268 -0.85697,-0.48184 -1.59528,-1.13768 -2.2149,-1.96752 -1.30523,-1.6329 -1.95783,-3.7008 -1.95782,-6.20371 -10e-6,-2.47612 0.65259,-4.54403 1.95782,-6.20371 0.60644,-0.82983 1.34473,-1.48567 2.2149,-1.96753 0.87011,-0.48182 1.7798,-0.72273 2.72907,-0.72275 m 0,1.64629 c -1.38434,2e-5 -2.60384,0.67593 -3.65854,2.02775 -1.0811,1.44553 -1.62164,3.18552 -1.62163,5.21995 -1e-5,2.08799 0.54053,3.82128 1.62163,5.19988 1.0547,1.35183 2.2742,2.02774 3.65854,2.02774 1.46339,0 2.69609,-0.67591 3.69808,-2.02774 1.08106,-1.3786 1.6216,-3.11189 1.62162,-5.19988 -2e-5,-2.03443 -0.54056,-3.77442 -1.62162,-5.21995 -0.46146,-0.62906 -1.02177,-1.12429 -1.68094,-1.48569 -0.64604,-0.36136 -1.31842,-0.54204 -2.01714,-0.54206 m -15.06922,-14.43518 0.0198,0 c 0.42188,3e-5 0.68556,0.2008 0.79103,0.6023 l 7.15887,21.96396 c -1e-5,0.0134 0.006,0.0535 0.0197,0.12045 0.0132,0.0669 0.0197,0.11378 0.0197,0.14054 -1e-5,0.21416 -0.0857,0.40824 -0.25708,0.58223 -0.15822,0.16062 -0.3428,0.24092 -0.55373,0.24091 -0.39553,1e-5 -0.65261,-0.18737 -0.77126,-0.56214 l -7.15877,-21.98403 c -0.0396,-0.0401 -0.0593,-0.13381 -0.0593,-0.28108 -1e-5,-0.21411 0.0725,-0.40149 0.21753,-0.56214 0.15821,-0.17397 0.34937,-0.26097 0.5735,-0.261 m 30.1582,0 c 0.22409,3e-5 0.41526,0.0871 0.57351,0.261 0.15816,0.16065 0.23727,0.34803 0.2373,0.56214 -3e-5,0.0402 -0.007,0.0937 -0.0197,0.16062 -0.0132,0.0535 -0.0199,0.0937 -0.0198,0.12046 l -7.15886,21.98403 c -0.0528,0.16062 -0.15165,0.29447 -0.29664,0.40153 -0.14505,0.10709 -0.30326,0.16062 -0.47462,0.16061 -0.22415,1e-5 -0.41532,-0.0803 -0.5735,-0.24091 -0.15823,-0.17399 -0.23734,-0.36807 -0.23731,-0.58223 -3e-5,-0.14722 0.0132,-0.23421 0.0396,-0.26099 l 7.15886,-21.98403 c 0.11863,-0.38813 0.37571,-0.5822 0.77126,-0.58223" />
  </g>
</svg>
