<?xml version="1.0" encoding="UTF-8" standalone="no"?>
<!-- Created with Inkscape (http://www.inkscape.org/) -->

<svg
   xmlns:dc="http://purl.org/dc/elements/1.1/"
   xmlns:cc="http://creativecommons.org/ns#"
   xmlns:rdf="http://www.w3.org/1999/02/22-rdf-syntax-ns#"
   xmlns:svg="http://www.w3.org/2000/svg"
   xmlns="http://www.w3.org/2000/svg"
   xmlns:sodipodi="http://sodipodi.sourceforge.net/DTD/sodipodi-0.dtd"
   xmlns:inkscape="http://www.inkscape.org/namespaces/inkscape"
   width="23.8794"
   height="33.508171"
   id="svg2"
   version="1.1"
   inkscape:version="0.48.4 r9939"
   sodipodi:docname="wawa.svg">
  <defs
     id="defs4" />
  <sodipodi:namedview
     id="base"
     pagecolor="#ffffff"
     bordercolor="#666666"
     borderopacity="1.0"
     inkscape:pageopacity="0.0"
     inkscape:pageshadow="2"
     inkscape:zoom="1.0984277"
     inkscape:cx="-329.21541"
     inkscape:cy="37.071474"
     inkscape:document-units="px"
     inkscape:current-layer="layer1"
     showgrid="false"
     inkscape:window-width="1596"
     inkscape:window-height="861"
     inkscape:window-x="0"
     inkscape:window-y="18"
     inkscape:window-maximized="0"
     fit-margin-top="0"
     fit-margin-left="0"
     fit-margin-right="0"
     fit-margin-bottom="0" />
  <metadata
     id="metadata7">
    <rdf:RDF>
      <cc:Work
         rdf:about="">
        <dc:format>image/svg+xml</dc:format>
        <dc:type
           rdf:resource="http://purl.org/dc/dcmitype/StillImage" />
        <dc:title></dc:title>
      </cc:Work>
    </rdf:RDF>
  </metadata>
  <g
     inkscape:label="Layer 1"
     inkscape:groupmode="layer"
     id="layer1"
     transform="translate(-531.04153,-963.47003)">
    <path
       style="font-size:40px;font-style:normal;font-weight:normal;line-height:125%;letter-spacing:0px;word-spacing:0px;fill:#000000;fill-opacity:1;stroke:none;font-family:Sans"
       inkscape:connector-curvature="0"
       id="path3292"
       d="m 531.79298,963.47003 -0.0197,0 0.0791,0 c 0.32958,3e-5 0.5537,0.12718 0.67237,0.38145 l 7.33685,11.72482 c 0.0132,0.0268 0.0396,0.0804 0.0791,0.16061 0.0395,0.0669 0.0593,0.12049 0.0593,0.16062 0.0132,0.0268 0.0132,0.0871 0,0.1807 0.0263,0.21416 -0.0462,0.40824 -0.21753,0.58221 -0.15823,0.16064 -0.34939,0.24095 -0.57351,0.24093 -0.2505,2e-5 -0.49441,-0.14721 -0.73171,-0.44169 l -7.29729,-11.70474 c -0.0922,-0.0936 -0.13843,-0.24758 -0.13843,-0.46177 0,-0.21411 0.0725,-0.3948 0.21754,-0.54206 0.14501,-0.16059 0.32299,-0.25428 0.53394,-0.28108 m 14.83191,20.15705 -0.0197,0 c 0.0132,10e-6 0.0329,10e-6 0.0593,0 0.0395,-0.0134 0.0725,-0.02 0.0989,-0.02 0.34276,2e-5 0.56688,0.13387 0.67238,0.40154 l 7.35663,11.68467 c 0.0132,0.0267 0.0329,0.0736 0.0593,0.14054 0.0395,0.0669 0.0593,0.12045 0.0593,0.16061 0.0132,0.0402 0.0132,0.0936 0,0.16061 0.0263,0.20077 -0.0462,0.38815 -0.21753,0.56215 -0.17142,0.174 -0.36259,0.261 -0.57351,0.261 -0.22415,0 -0.46147,-0.12716 -0.71192,-0.38146 L 546.09099,984.892 c -0.0396,-0.0669 -0.0725,-0.15391 -0.0989,-0.261 -0.0264,-0.10706 -0.0462,-0.17398 -0.0593,-0.20076 0.0659,-0.48183 0.29661,-0.74953 0.69215,-0.80307 m 7.23797,-20.09682 -0.0197,0 c 0.0132,4e-5 0.0329,4e-5 0.0593,0 0.0263,-0.0134 0.0528,-0.02 0.0791,-0.02 0.2241,4e-5 0.41527,0.0871 0.5735,0.261 0.17136,0.16065 0.24388,0.34803 0.21753,0.56215 0.0263,0.0804 0.0132,0.17403 -0.0396,0.28107 -0.0527,0.0937 -0.0791,0.16065 -0.0791,0.20077 L 547.31708,976.5 c -0.0527,0.12049 -0.15163,0.22757 -0.29664,0.32123 -0.13186,0.0803 -0.2637,0.12048 -0.39551,0.12046 -0.48783,2e-5 -0.76469,-0.27436 -0.83059,-0.82314 0.0132,-0.0401 0.0198,-0.0937 0.0198,-0.16062 0.0132,-0.0803 0.0263,-0.14721 0.0396,-0.20076 0.0263,-0.0536 0.0659,-0.0937 0.11866,-0.12046 l 7.27752,-11.70474 c 0.18454,-0.26767 0.38889,-0.4015 0.61305,-0.40154 m -14.55504,19.99643 -0.0198,0 0.0593,0 c 0.21093,10e-6 0.40209,0.0803 0.5735,0.24092 0.17137,0.16063 0.24388,0.35471 0.21753,0.58223 0.0132,0.0669 0.0132,0.12047 0,0.16061 -2e-5,0.0402 -0.0197,0.0937 -0.0593,0.16062 -0.0264,0.0669 -0.0462,0.11378 -0.0593,0.14053 l -7.33685,11.68467 c -0.0527,0.12045 -0.15163,0.22084 -0.29664,0.30115 -0.13185,0.0936 -0.26369,0.14053 -0.39552,0.14053 -0.47462,0 -0.75149,-0.27438 -0.83059,-0.82315 0.0659,-0.28106 0.12524,-0.44837 0.17799,-0.50191 l 7.27752,-11.66458 c 0.22411,-0.28107 0.45483,-0.42161 0.69216,-0.42162" />
  </g>
</svg>
